%TF.GenerationSoftware,KiCad,Pcbnew,9.0.0*%
%TF.CreationDate,2025-04-14T19:38:07-04:00*%
%TF.ProjectId,brainfreeze,62726169-6e66-4726-9565-7a652e6b6963,rev?*%
%TF.SameCoordinates,Original*%
%TF.FileFunction,Soldermask,Bot*%
%TF.FilePolarity,Negative*%
%FSLAX46Y46*%
G04 Gerber Fmt 4.6, Leading zero omitted, Abs format (unit mm)*
G04 Created by KiCad (PCBNEW 9.0.0) date 2025-04-14 19:38:07*
%MOMM*%
%LPD*%
G01*
G04 APERTURE LIST*
G04 Aperture macros list*
%AMRoundRect*
0 Rectangle with rounded corners*
0 $1 Rounding radius*
0 $2 $3 $4 $5 $6 $7 $8 $9 X,Y pos of 4 corners*
0 Add a 4 corners polygon primitive as box body*
4,1,4,$2,$3,$4,$5,$6,$7,$8,$9,$2,$3,0*
0 Add four circle primitives for the rounded corners*
1,1,$1+$1,$2,$3*
1,1,$1+$1,$4,$5*
1,1,$1+$1,$6,$7*
1,1,$1+$1,$8,$9*
0 Add four rect primitives between the rounded corners*
20,1,$1+$1,$2,$3,$4,$5,0*
20,1,$1+$1,$4,$5,$6,$7,0*
20,1,$1+$1,$6,$7,$8,$9,0*
20,1,$1+$1,$8,$9,$2,$3,0*%
G04 Aperture macros list end*
%ADD10RoundRect,0.250000X-1.125000X-1.125000X1.125000X-1.125000X1.125000X1.125000X-1.125000X1.125000X0*%
%ADD11R,1.600000X1.600000*%
%ADD12O,1.600000X1.600000*%
%ADD13RoundRect,0.250001X-0.799999X-0.799999X0.799999X-0.799999X0.799999X0.799999X-0.799999X0.799999X0*%
%ADD14R,1.800000X1.800000*%
%ADD15C,1.800000*%
%ADD16C,1.524000*%
G04 APERTURE END LIST*
D10*
X222500000Y-108000000D03*
D11*
X193125000Y-114340000D03*
D12*
X192875000Y-116880000D03*
X193125000Y-119420000D03*
X192850000Y-121960000D03*
X193125000Y-124500000D03*
X192850000Y-127040000D03*
X193125000Y-129580000D03*
X192850000Y-132120000D03*
X193125000Y-134660000D03*
X192850000Y-137200000D03*
X193125000Y-139740000D03*
X192850000Y-142280000D03*
X193100000Y-144820000D03*
X192875000Y-147360000D03*
X193100000Y-149900000D03*
X208100000Y-149900000D03*
X208325000Y-147360000D03*
X208100000Y-144820000D03*
X208325000Y-142280000D03*
X208100000Y-139740000D03*
X208325000Y-137200000D03*
X208100000Y-134660000D03*
X208325000Y-132120000D03*
X208100000Y-129580000D03*
X208325000Y-127040000D03*
X208100000Y-124500000D03*
X208325000Y-121960000D03*
X208100000Y-119420000D03*
X208325000Y-116880000D03*
X208100000Y-114340000D03*
D10*
X177500000Y-112000000D03*
D13*
X222500000Y-98500000D03*
D10*
X177500000Y-117500000D03*
D14*
X185000000Y-135000000D03*
D15*
X181500000Y-135000000D03*
D13*
X222500000Y-132500000D03*
D16*
X176969900Y-81493400D03*
X176969900Y-84033400D03*
X176969900Y-86573400D03*
X191500000Y-76270000D03*
X191500000Y-76270000D03*
X191500000Y-78810000D03*
X191500000Y-78810000D03*
X191500000Y-81190000D03*
X191500000Y-81190000D03*
X191500000Y-83730000D03*
X191500000Y-83730000D03*
X209500000Y-76270000D03*
X209500000Y-76270000D03*
X209500000Y-78810000D03*
X209500000Y-78810000D03*
X209500000Y-81190000D03*
X209500000Y-81190000D03*
X209500000Y-83730000D03*
X209500000Y-83730000D03*
D10*
X222500000Y-121500000D03*
D16*
X177100000Y-92593400D03*
X177100000Y-95133400D03*
X177100000Y-97673400D03*
D10*
X222500000Y-103500000D03*
X222500000Y-127000000D03*
M02*
