%TF.GenerationSoftware,KiCad,Pcbnew,9.0.0*%
%TF.CreationDate,2025-04-14T19:38:06-04:00*%
%TF.ProjectId,brainfreeze,62726169-6e66-4726-9565-7a652e6b6963,rev?*%
%TF.SameCoordinates,Original*%
%TF.FileFunction,Copper,L2,Inr*%
%TF.FilePolarity,Positive*%
%FSLAX46Y46*%
G04 Gerber Fmt 4.6, Leading zero omitted, Abs format (unit mm)*
G04 Created by KiCad (PCBNEW 9.0.0) date 2025-04-14 19:38:06*
%MOMM*%
%LPD*%
G01*
G04 APERTURE LIST*
G04 Aperture macros list*
%AMRoundRect*
0 Rectangle with rounded corners*
0 $1 Rounding radius*
0 $2 $3 $4 $5 $6 $7 $8 $9 X,Y pos of 4 corners*
0 Add a 4 corners polygon primitive as box body*
4,1,4,$2,$3,$4,$5,$6,$7,$8,$9,$2,$3,0*
0 Add four circle primitives for the rounded corners*
1,1,$1+$1,$2,$3*
1,1,$1+$1,$4,$5*
1,1,$1+$1,$6,$7*
1,1,$1+$1,$8,$9*
0 Add four rect primitives between the rounded corners*
20,1,$1+$1,$2,$3,$4,$5,0*
20,1,$1+$1,$4,$5,$6,$7,0*
20,1,$1+$1,$6,$7,$8,$9,0*
20,1,$1+$1,$8,$9,$2,$3,0*%
G04 Aperture macros list end*
%TA.AperFunction,ComponentPad*%
%ADD10RoundRect,0.250000X-1.125000X-1.125000X1.125000X-1.125000X1.125000X1.125000X-1.125000X1.125000X0*%
%TD*%
%TA.AperFunction,ComponentPad*%
%ADD11R,1.600000X1.600000*%
%TD*%
%TA.AperFunction,ComponentPad*%
%ADD12O,1.600000X1.600000*%
%TD*%
%TA.AperFunction,ComponentPad*%
%ADD13RoundRect,0.250001X-0.799999X-0.799999X0.799999X-0.799999X0.799999X0.799999X-0.799999X0.799999X0*%
%TD*%
%TA.AperFunction,ComponentPad*%
%ADD14R,1.800000X1.800000*%
%TD*%
%TA.AperFunction,ComponentPad*%
%ADD15C,1.800000*%
%TD*%
%TA.AperFunction,ComponentPad*%
%ADD16C,1.524000*%
%TD*%
%TA.AperFunction,ViaPad*%
%ADD17C,0.685800*%
%TD*%
G04 APERTURE END LIST*
D10*
X222500000Y-108000000D03*
D11*
X193125000Y-114340000D03*
D12*
X192875000Y-116880000D03*
X193125000Y-119420000D03*
X192850000Y-121960000D03*
X193125000Y-124500000D03*
X192850000Y-127040000D03*
X193125000Y-129580000D03*
X192850000Y-132120000D03*
X193125000Y-134660000D03*
X192850000Y-137200000D03*
X193125000Y-139740000D03*
X192850000Y-142280000D03*
X193100000Y-144820000D03*
X192875000Y-147360000D03*
X193100000Y-149900000D03*
X208100000Y-149900000D03*
X208325000Y-147360000D03*
X208100000Y-144820000D03*
X208325000Y-142280000D03*
X208100000Y-139740000D03*
X208325000Y-137200000D03*
X208100000Y-134660000D03*
X208325000Y-132120000D03*
X208100000Y-129580000D03*
X208325000Y-127040000D03*
X208100000Y-124500000D03*
X208325000Y-121960000D03*
X208100000Y-119420000D03*
X208325000Y-116880000D03*
X208100000Y-114340000D03*
D10*
X177500000Y-112000000D03*
D13*
X222500000Y-98500000D03*
D10*
X177500000Y-117500000D03*
D14*
X185000000Y-135000000D03*
D15*
X181500000Y-135000000D03*
D13*
X222500000Y-132500000D03*
D16*
X176969900Y-81493400D03*
X176969900Y-84033400D03*
X176969900Y-86573400D03*
X191500000Y-76270000D03*
X191500000Y-76270000D03*
X191500000Y-78810000D03*
X191500000Y-78810000D03*
X191500000Y-81190000D03*
X191500000Y-81190000D03*
X191500000Y-83730000D03*
X191500000Y-83730000D03*
X209500000Y-76270000D03*
X209500000Y-76270000D03*
X209500000Y-78810000D03*
X209500000Y-78810000D03*
X209500000Y-81190000D03*
X209500000Y-81190000D03*
X209500000Y-83730000D03*
X209500000Y-83730000D03*
D10*
X222500000Y-121500000D03*
D16*
X177100000Y-92593400D03*
X177100000Y-95133400D03*
X177100000Y-97673400D03*
D10*
X222500000Y-103500000D03*
X222500000Y-127000000D03*
D17*
X209000000Y-103000000D03*
X196000000Y-93600000D03*
X194100000Y-95900000D03*
X209500000Y-100000000D03*
X210500000Y-91500000D03*
X211000000Y-102000000D03*
X200230000Y-85000000D03*
X190000000Y-119000000D03*
X188800000Y-126100000D03*
X200000000Y-100500000D03*
X199500000Y-103500000D03*
X179500000Y-146500000D03*
X216500000Y-97000000D03*
X212000000Y-92403100D03*
X199500000Y-86500000D03*
X190500000Y-95500000D03*
X205000000Y-120500000D03*
X185800000Y-129400000D03*
X194500000Y-102000000D03*
X194500000Y-100000000D03*
%TA.AperFunction,Conductor*%
G36*
X208054381Y-97516994D02*
G01*
X216000000Y-100000000D01*
X224489988Y-100998822D01*
X224554269Y-101026205D01*
X224593540Y-101083993D01*
X224599500Y-101121973D01*
X224599500Y-102163043D01*
X224579815Y-102230082D01*
X224527011Y-102275837D01*
X224457853Y-102285781D01*
X224394297Y-102256756D01*
X224357794Y-102202047D01*
X224309358Y-102055880D01*
X224309356Y-102055875D01*
X224217315Y-101906654D01*
X224093345Y-101782684D01*
X223944124Y-101690643D01*
X223944119Y-101690641D01*
X223777697Y-101635494D01*
X223777690Y-101635493D01*
X223674986Y-101625000D01*
X222750000Y-101625000D01*
X222750000Y-102657586D01*
X222586180Y-102625000D01*
X222413820Y-102625000D01*
X222250000Y-102657586D01*
X222250000Y-101625000D01*
X221325028Y-101625000D01*
X221325012Y-101625001D01*
X221222302Y-101635494D01*
X221055880Y-101690641D01*
X221055875Y-101690643D01*
X220906654Y-101782684D01*
X220782684Y-101906654D01*
X220690643Y-102055875D01*
X220690641Y-102055880D01*
X220635494Y-102222302D01*
X220635493Y-102222309D01*
X220625000Y-102325013D01*
X220625000Y-103250000D01*
X221657586Y-103250000D01*
X221625000Y-103413820D01*
X221625000Y-103586180D01*
X221657586Y-103750000D01*
X220625001Y-103750000D01*
X220625001Y-104674986D01*
X220635494Y-104777697D01*
X220690641Y-104944119D01*
X220690643Y-104944124D01*
X220782684Y-105093345D01*
X220906654Y-105217315D01*
X221055875Y-105309356D01*
X221055880Y-105309358D01*
X221222302Y-105364505D01*
X221222309Y-105364506D01*
X221325019Y-105374999D01*
X222249999Y-105374999D01*
X222250000Y-105374998D01*
X222250000Y-104342413D01*
X222413820Y-104375000D01*
X222586180Y-104375000D01*
X222750000Y-104342413D01*
X222750000Y-105374999D01*
X223674972Y-105374999D01*
X223674986Y-105374998D01*
X223777697Y-105364505D01*
X223944119Y-105309358D01*
X223944124Y-105309356D01*
X224093345Y-105217315D01*
X224217315Y-105093345D01*
X224309356Y-104944124D01*
X224309358Y-104944119D01*
X224357794Y-104797950D01*
X224397566Y-104740505D01*
X224462082Y-104713682D01*
X224530858Y-104725997D01*
X224582058Y-104773540D01*
X224599500Y-104836954D01*
X224599500Y-105761914D01*
X224579815Y-105828953D01*
X224527011Y-105874708D01*
X224481692Y-105885759D01*
X221002606Y-106059714D01*
X220995271Y-106059864D01*
X218347777Y-106035462D01*
X218252785Y-106034587D01*
X216770848Y-102308356D01*
X211387557Y-105000000D01*
X211875461Y-105975809D01*
X204122857Y-105904358D01*
X204056002Y-105884056D01*
X204010736Y-105830833D01*
X204000000Y-105780363D01*
X204000000Y-101938071D01*
X210529600Y-101938071D01*
X210529600Y-102061929D01*
X210561657Y-102181568D01*
X210623586Y-102288832D01*
X210711168Y-102376414D01*
X210818432Y-102438343D01*
X210938071Y-102470400D01*
X210938073Y-102470400D01*
X211061927Y-102470400D01*
X211061929Y-102470400D01*
X211181568Y-102438343D01*
X211288832Y-102376414D01*
X211376414Y-102288832D01*
X211438343Y-102181568D01*
X211470400Y-102061929D01*
X211470400Y-101938071D01*
X211438343Y-101818432D01*
X211376414Y-101711168D01*
X211288832Y-101623586D01*
X211181568Y-101561657D01*
X211061929Y-101529600D01*
X210938071Y-101529600D01*
X210818432Y-101561657D01*
X210818429Y-101561658D01*
X210711171Y-101623584D01*
X210711165Y-101623588D01*
X210623588Y-101711165D01*
X210623584Y-101711171D01*
X210561658Y-101818429D01*
X210561657Y-101818432D01*
X210529600Y-101938071D01*
X204000000Y-101938071D01*
X204000000Y-100068727D01*
X204019685Y-100001688D01*
X204058280Y-99963575D01*
X207951682Y-97530198D01*
X208018962Y-97511361D01*
X208054381Y-97516994D01*
G37*
%TD.AperFunction*%
%TA.AperFunction,Conductor*%
G36*
X207165576Y-121147018D02*
G01*
X207207119Y-121203196D01*
X207211695Y-121272915D01*
X207201170Y-121302142D01*
X207120245Y-121460967D01*
X207057009Y-121655586D01*
X207048391Y-121710000D01*
X207891988Y-121710000D01*
X207859075Y-121767007D01*
X207825000Y-121894174D01*
X207825000Y-122025826D01*
X207859075Y-122152993D01*
X207891988Y-122210000D01*
X207048391Y-122210000D01*
X207057009Y-122264413D01*
X207120244Y-122459029D01*
X207213140Y-122641349D01*
X207333417Y-122806894D01*
X207333417Y-122806895D01*
X207478104Y-122951582D01*
X207643650Y-123071859D01*
X207825968Y-123164754D01*
X208020578Y-123227988D01*
X208075000Y-123236607D01*
X208075000Y-122393012D01*
X208132007Y-122425925D01*
X208259174Y-122460000D01*
X208390826Y-122460000D01*
X208517993Y-122425925D01*
X208575000Y-122393012D01*
X208575000Y-123236607D01*
X208596482Y-123254955D01*
X208634675Y-123313462D01*
X208635173Y-123383330D01*
X208597819Y-123442376D01*
X208547070Y-123469277D01*
X208257353Y-123544389D01*
X208164230Y-123568532D01*
X208133112Y-123572500D01*
X208008644Y-123572500D01*
X207829465Y-123608141D01*
X207829457Y-123608143D01*
X207660664Y-123678059D01*
X207626693Y-123700757D01*
X207588925Y-123717684D01*
X206557770Y-123985021D01*
X206487936Y-123982790D01*
X206452251Y-123964189D01*
X204655201Y-122616401D01*
X204613380Y-122560430D01*
X204608459Y-122490734D01*
X204641999Y-122429441D01*
X204670809Y-122408025D01*
X207031899Y-121136669D01*
X207100255Y-121122218D01*
X207165576Y-121147018D01*
G37*
%TD.AperFunction*%
%TA.AperFunction,Conductor*%
G36*
X221089714Y-119679429D02*
G01*
X221055878Y-119690642D01*
X221055875Y-119690643D01*
X220906654Y-119782684D01*
X220782684Y-119906654D01*
X220690643Y-120055875D01*
X220690641Y-120055880D01*
X220635494Y-120222302D01*
X220635493Y-120222309D01*
X220625000Y-120325013D01*
X220625000Y-120337961D01*
X219236524Y-120697937D01*
X208993207Y-123353612D01*
X208923373Y-123351381D01*
X208865831Y-123311750D01*
X208838849Y-123247300D01*
X208850995Y-123178494D01*
X208898412Y-123127178D01*
X208905794Y-123123095D01*
X209006347Y-123071861D01*
X209171894Y-122951582D01*
X209171895Y-122951582D01*
X209316582Y-122806895D01*
X209316582Y-122806894D01*
X209436859Y-122641349D01*
X209529755Y-122459029D01*
X209592990Y-122264413D01*
X209601609Y-122210000D01*
X208758012Y-122210000D01*
X208790925Y-122152993D01*
X208825000Y-122025826D01*
X208825000Y-121894174D01*
X208790925Y-121767007D01*
X208758012Y-121710000D01*
X209601609Y-121710000D01*
X209592990Y-121655586D01*
X209529755Y-121460970D01*
X209436859Y-121278650D01*
X209316582Y-121113105D01*
X209316582Y-121113104D01*
X209171895Y-120968417D01*
X209006349Y-120848140D01*
X208824029Y-120755244D01*
X208629413Y-120692009D01*
X208575000Y-120683390D01*
X208575000Y-121526988D01*
X208517993Y-121494075D01*
X208390826Y-121460000D01*
X208259174Y-121460000D01*
X208132007Y-121494075D01*
X208075000Y-121526988D01*
X208075000Y-120647687D01*
X208094685Y-120580648D01*
X208139354Y-120540347D01*
X218681818Y-114863636D01*
X221089714Y-119679429D01*
G37*
%TD.AperFunction*%
%TA.AperFunction,Conductor*%
G36*
X177750000Y-113874999D02*
G01*
X178508291Y-113874999D01*
X178575330Y-113894684D01*
X178621085Y-113947488D01*
X178631029Y-114016646D01*
X178602004Y-114080202D01*
X178543226Y-114117976D01*
X178523671Y-114122041D01*
X175739880Y-114470014D01*
X175670917Y-114458797D01*
X175618966Y-114412076D01*
X175600500Y-114346972D01*
X175600500Y-113710523D01*
X175620185Y-113643484D01*
X175672989Y-113597729D01*
X175742147Y-113587785D01*
X175805703Y-113616810D01*
X175812181Y-113622842D01*
X175906654Y-113717315D01*
X176055875Y-113809356D01*
X176055880Y-113809358D01*
X176222302Y-113864505D01*
X176222309Y-113864506D01*
X176325019Y-113874999D01*
X177249999Y-113874999D01*
X177250000Y-113874998D01*
X177250000Y-112842413D01*
X177413820Y-112875000D01*
X177586180Y-112875000D01*
X177750000Y-112842413D01*
X177750000Y-113874999D01*
G37*
%TD.AperFunction*%
%TA.AperFunction,Conductor*%
G36*
X195012057Y-99018923D02*
G01*
X195039786Y-99039786D01*
X195500000Y-99500000D01*
X197388941Y-99972235D01*
X197449205Y-100007592D01*
X197480787Y-100069916D01*
X197481180Y-100112918D01*
X197009158Y-102945048D01*
X196978720Y-103007940D01*
X196952834Y-103029646D01*
X179523299Y-113985354D01*
X179472690Y-114003413D01*
X178937542Y-114070307D01*
X178868579Y-114059090D01*
X178816628Y-114012369D01*
X178798183Y-113944978D01*
X178819101Y-113878313D01*
X178872740Y-113833540D01*
X178883158Y-113829559D01*
X178944119Y-113809358D01*
X178944124Y-113809356D01*
X179093345Y-113717315D01*
X179217315Y-113593345D01*
X179309356Y-113444124D01*
X179309358Y-113444119D01*
X179364505Y-113277697D01*
X179364506Y-113277690D01*
X179374999Y-113174986D01*
X179375000Y-113174973D01*
X179375000Y-112250000D01*
X178342414Y-112250000D01*
X178375000Y-112086180D01*
X178375000Y-111913820D01*
X178342414Y-111750000D01*
X179374999Y-111750000D01*
X179374999Y-110825028D01*
X179374998Y-110825013D01*
X179364505Y-110722302D01*
X179309358Y-110555880D01*
X179309356Y-110555875D01*
X179217315Y-110406654D01*
X179093345Y-110282684D01*
X178944124Y-110190643D01*
X178944119Y-110190641D01*
X178777697Y-110135494D01*
X178777690Y-110135493D01*
X178674986Y-110125000D01*
X177750000Y-110125000D01*
X177750000Y-111157586D01*
X177586180Y-111125000D01*
X177413820Y-111125000D01*
X177250000Y-111157586D01*
X177250000Y-110125000D01*
X176325028Y-110125000D01*
X176325012Y-110125001D01*
X176222302Y-110135494D01*
X176055880Y-110190641D01*
X176055875Y-110190643D01*
X175906654Y-110282684D01*
X175812181Y-110377158D01*
X175750858Y-110410643D01*
X175681166Y-110405659D01*
X175625233Y-110363787D01*
X175600816Y-110298323D01*
X175600500Y-110289477D01*
X175600500Y-105588104D01*
X175620185Y-105521065D01*
X175672989Y-105475310D01*
X175683728Y-105470999D01*
X194094842Y-99064787D01*
X194127331Y-99058178D01*
X194943860Y-99003742D01*
X195012057Y-99018923D01*
G37*
%TD.AperFunction*%
%TA.AperFunction,Conductor*%
G36*
X177169911Y-79533583D02*
G01*
X177176898Y-79536652D01*
X198429353Y-89666327D01*
X198481400Y-89712939D01*
X198500000Y-89778261D01*
X198500000Y-97282999D01*
X198480315Y-97350038D01*
X198427511Y-97395793D01*
X198383197Y-97406790D01*
X181003525Y-98417236D01*
X180935456Y-98401476D01*
X180903275Y-98375403D01*
X178381219Y-95511902D01*
X178316192Y-95438071D01*
X190029600Y-95438071D01*
X190029600Y-95561929D01*
X190061657Y-95681568D01*
X190123586Y-95788832D01*
X190211168Y-95876414D01*
X190318432Y-95938343D01*
X190438071Y-95970400D01*
X190438073Y-95970400D01*
X190561927Y-95970400D01*
X190561929Y-95970400D01*
X190681568Y-95938343D01*
X190788832Y-95876414D01*
X190876414Y-95788832D01*
X190938343Y-95681568D01*
X190970400Y-95561929D01*
X190970400Y-95438071D01*
X190938343Y-95318432D01*
X190876414Y-95211168D01*
X190788832Y-95123586D01*
X190681568Y-95061657D01*
X190561929Y-95029600D01*
X190438071Y-95029600D01*
X190318432Y-95061657D01*
X190318429Y-95061658D01*
X190211171Y-95123584D01*
X190211165Y-95123588D01*
X190123588Y-95211165D01*
X190123584Y-95211171D01*
X190061658Y-95318429D01*
X190061657Y-95318432D01*
X190029600Y-95438071D01*
X178316192Y-95438071D01*
X178017042Y-95098422D01*
X177988478Y-95040655D01*
X177955318Y-94873949D01*
X177955317Y-94873942D01*
X177955315Y-94873937D01*
X177888268Y-94712070D01*
X177888261Y-94712057D01*
X177790920Y-94566377D01*
X177790917Y-94566373D01*
X177667026Y-94442482D01*
X177667022Y-94442479D01*
X177521342Y-94345138D01*
X177521329Y-94345131D01*
X177359462Y-94278084D01*
X177359453Y-94278081D01*
X177321863Y-94270604D01*
X177301721Y-94260068D01*
X177279862Y-94253841D01*
X177264048Y-94240361D01*
X177259952Y-94238218D01*
X177253003Y-94230945D01*
X177103637Y-94061358D01*
X177074099Y-93998039D01*
X177083483Y-93928802D01*
X177128809Y-93875630D01*
X177195687Y-93855404D01*
X177196690Y-93855400D01*
X177199321Y-93855400D01*
X177395520Y-93824324D01*
X177395523Y-93824324D01*
X177584437Y-93762942D01*
X177761425Y-93672762D01*
X177798715Y-93645668D01*
X177235941Y-93082895D01*
X177296081Y-93066781D01*
X177411920Y-92999902D01*
X177506502Y-92905320D01*
X177573381Y-92789481D01*
X177589495Y-92729342D01*
X178152268Y-93292115D01*
X178179362Y-93254825D01*
X178269542Y-93077837D01*
X178330924Y-92888923D01*
X178330924Y-92888920D01*
X178362000Y-92692721D01*
X178362000Y-92494078D01*
X178330924Y-92297879D01*
X178330924Y-92297876D01*
X178269542Y-92108962D01*
X178179358Y-91931967D01*
X178152268Y-91894683D01*
X177589494Y-92457457D01*
X177573381Y-92397319D01*
X177506502Y-92281480D01*
X177411920Y-92186898D01*
X177296081Y-92120019D01*
X177235942Y-92103904D01*
X177798716Y-91541131D01*
X177798715Y-91541130D01*
X177761432Y-91514041D01*
X177584437Y-91423857D01*
X177395522Y-91362475D01*
X177199321Y-91331400D01*
X177000679Y-91331400D01*
X176804479Y-91362475D01*
X176804476Y-91362475D01*
X176615562Y-91423857D01*
X176438564Y-91514043D01*
X176401283Y-91541129D01*
X176401282Y-91541130D01*
X176964058Y-92103904D01*
X176903919Y-92120019D01*
X176788080Y-92186898D01*
X176693498Y-92281480D01*
X176626619Y-92397319D01*
X176610504Y-92457458D01*
X176047730Y-91894682D01*
X176047729Y-91894683D01*
X176020643Y-91931964D01*
X175930457Y-92108962D01*
X175869075Y-92297876D01*
X175869075Y-92297877D01*
X175861757Y-92344083D01*
X175854702Y-92358964D01*
X175852490Y-92375284D01*
X175840044Y-92389883D01*
X175831827Y-92407217D01*
X175817847Y-92415921D01*
X175807163Y-92428455D01*
X175788800Y-92434008D01*
X175772516Y-92444148D01*
X175756048Y-92443912D01*
X175740285Y-92448680D01*
X175721835Y-92443424D01*
X175702653Y-92443150D01*
X175688321Y-92433876D01*
X175673089Y-92429537D01*
X175646229Y-92406640D01*
X175631445Y-92389854D01*
X175601909Y-92326535D01*
X175600500Y-92307898D01*
X175600500Y-91698498D01*
X175620185Y-91631459D01*
X175655582Y-91595414D01*
X182746032Y-86854993D01*
X177123382Y-82963147D01*
X177079463Y-82908807D01*
X177071894Y-82839349D01*
X177103078Y-82776824D01*
X177163115Y-82741085D01*
X177174557Y-82738716D01*
X177265420Y-82724324D01*
X177265423Y-82724324D01*
X177454337Y-82662942D01*
X177631325Y-82572762D01*
X177668615Y-82545668D01*
X177105842Y-81982895D01*
X177165981Y-81966781D01*
X177281820Y-81899902D01*
X177376402Y-81805320D01*
X177443281Y-81689481D01*
X177459395Y-81629342D01*
X178022168Y-82192115D01*
X178049262Y-82154825D01*
X178139442Y-81977837D01*
X178200824Y-81788923D01*
X178200824Y-81788920D01*
X178231900Y-81592721D01*
X178231900Y-81394078D01*
X178200824Y-81197879D01*
X178200824Y-81197876D01*
X178139442Y-81008962D01*
X178049258Y-80831967D01*
X178022168Y-80794683D01*
X177459394Y-81357457D01*
X177443281Y-81297319D01*
X177376402Y-81181480D01*
X177281820Y-81086898D01*
X177165981Y-81020019D01*
X177105841Y-81003904D01*
X177668615Y-80441130D01*
X177631332Y-80414041D01*
X177454337Y-80323857D01*
X177265422Y-80262475D01*
X177069221Y-80231400D01*
X176870579Y-80231400D01*
X176674379Y-80262475D01*
X176674372Y-80262476D01*
X176621222Y-80279746D01*
X176551381Y-80281741D01*
X176491549Y-80245660D01*
X176460721Y-80182959D01*
X176468686Y-80113545D01*
X176497534Y-80071883D01*
X177038200Y-79558661D01*
X177100373Y-79526786D01*
X177169911Y-79533583D01*
G37*
%TD.AperFunction*%
%TA.AperFunction,Conductor*%
G36*
X220625000Y-121250000D02*
G01*
X221657586Y-121250000D01*
X221625000Y-121413820D01*
X221625000Y-121586180D01*
X221657586Y-121750000D01*
X220625001Y-121750000D01*
X220625001Y-122674986D01*
X220635494Y-122777697D01*
X220690641Y-122944119D01*
X220690643Y-122944124D01*
X220782684Y-123093345D01*
X220906654Y-123217315D01*
X221055875Y-123309356D01*
X221055880Y-123309358D01*
X221222302Y-123364505D01*
X221222309Y-123364506D01*
X221325019Y-123374999D01*
X222336155Y-123374999D01*
X222403194Y-123394683D01*
X222448949Y-123447487D01*
X222458893Y-123516646D01*
X222429868Y-123580202D01*
X222371090Y-123617976D01*
X222364538Y-123619707D01*
X220968238Y-123948036D01*
X220898473Y-123944219D01*
X220841846Y-123903290D01*
X220828948Y-123882785D01*
X219236524Y-120697937D01*
X220625000Y-120337962D01*
X220625000Y-121250000D01*
G37*
%TD.AperFunction*%
%TA.AperFunction,Conductor*%
G36*
X218252784Y-106034586D02*
G01*
X223590208Y-119455176D01*
X223596691Y-119524744D01*
X223564534Y-119586774D01*
X223503946Y-119621571D01*
X223474986Y-119625000D01*
X222750000Y-119625000D01*
X222750000Y-120657586D01*
X222586180Y-120625000D01*
X222413820Y-120625000D01*
X222250000Y-120657586D01*
X222250000Y-119625000D01*
X221325028Y-119625000D01*
X221325012Y-119625001D01*
X221222302Y-119635494D01*
X221089714Y-119679429D01*
X218681818Y-114863636D01*
X216820498Y-115865884D01*
X211387557Y-105000000D01*
X216770848Y-102308356D01*
X218252784Y-106034586D01*
G37*
%TD.AperFunction*%
M02*
