%TF.GenerationSoftware,KiCad,Pcbnew,9.0.0*%
%TF.CreationDate,2025-04-14T19:38:07-04:00*%
%TF.ProjectId,brainfreeze,62726169-6e66-4726-9565-7a652e6b6963,rev?*%
%TF.SameCoordinates,Original*%
%TF.FileFunction,Legend,Bot*%
%TF.FilePolarity,Positive*%
%FSLAX46Y46*%
G04 Gerber Fmt 4.6, Leading zero omitted, Abs format (unit mm)*
G04 Created by KiCad (PCBNEW 9.0.0) date 2025-04-14 19:38:07*
%MOMM*%
%LPD*%
G01*
G04 APERTURE LIST*
G04 Aperture macros list*
%AMRoundRect*
0 Rectangle with rounded corners*
0 $1 Rounding radius*
0 $2 $3 $4 $5 $6 $7 $8 $9 X,Y pos of 4 corners*
0 Add a 4 corners polygon primitive as box body*
4,1,4,$2,$3,$4,$5,$6,$7,$8,$9,$2,$3,0*
0 Add four circle primitives for the rounded corners*
1,1,$1+$1,$2,$3*
1,1,$1+$1,$4,$5*
1,1,$1+$1,$6,$7*
1,1,$1+$1,$8,$9*
0 Add four rect primitives between the rounded corners*
20,1,$1+$1,$2,$3,$4,$5,0*
20,1,$1+$1,$4,$5,$6,$7,0*
20,1,$1+$1,$6,$7,$8,$9,0*
20,1,$1+$1,$8,$9,$2,$3,0*%
G04 Aperture macros list end*
%ADD10C,0.152400*%
%ADD11C,0.000000*%
%ADD12C,0.508000*%
%ADD13RoundRect,0.250000X-1.125000X-1.125000X1.125000X-1.125000X1.125000X1.125000X-1.125000X1.125000X0*%
%ADD14R,1.600000X1.600000*%
%ADD15O,1.600000X1.600000*%
%ADD16RoundRect,0.250001X-0.799999X-0.799999X0.799999X-0.799999X0.799999X0.799999X-0.799999X0.799999X0*%
%ADD17R,1.800000X1.800000*%
%ADD18C,1.800000*%
%ADD19C,1.524000*%
G04 APERTURE END LIST*
D10*
X224049737Y-155484041D02*
X224049737Y-154671241D01*
X224049737Y-154671241D02*
X223899737Y-154671241D01*
X223899737Y-154671241D02*
X223809737Y-154709946D01*
X223809737Y-154709946D02*
X223749737Y-154787356D01*
X223749737Y-154787356D02*
X223719737Y-154864765D01*
X223719737Y-154864765D02*
X223689737Y-155019584D01*
X223689737Y-155019584D02*
X223689737Y-155135698D01*
X223689737Y-155135698D02*
X223719737Y-155290517D01*
X223719737Y-155290517D02*
X223749737Y-155367927D01*
X223749737Y-155367927D02*
X223809737Y-155445337D01*
X223809737Y-155445337D02*
X223899737Y-155484041D01*
X223899737Y-155484041D02*
X224049737Y-155484041D01*
X223419737Y-155058289D02*
X223209737Y-155058289D01*
X223119737Y-155484041D02*
X223419737Y-155484041D01*
X223419737Y-155484041D02*
X223419737Y-154671241D01*
X223419737Y-154671241D02*
X223119737Y-154671241D01*
X222879737Y-155445337D02*
X222789737Y-155484041D01*
X222789737Y-155484041D02*
X222639737Y-155484041D01*
X222639737Y-155484041D02*
X222579737Y-155445337D01*
X222579737Y-155445337D02*
X222549737Y-155406632D01*
X222549737Y-155406632D02*
X222519737Y-155329222D01*
X222519737Y-155329222D02*
X222519737Y-155251813D01*
X222519737Y-155251813D02*
X222549737Y-155174403D01*
X222549737Y-155174403D02*
X222579737Y-155135698D01*
X222579737Y-155135698D02*
X222639737Y-155096994D01*
X222639737Y-155096994D02*
X222759737Y-155058289D01*
X222759737Y-155058289D02*
X222819737Y-155019584D01*
X222819737Y-155019584D02*
X222849737Y-154980879D01*
X222849737Y-154980879D02*
X222879737Y-154903470D01*
X222879737Y-154903470D02*
X222879737Y-154826060D01*
X222879737Y-154826060D02*
X222849737Y-154748651D01*
X222849737Y-154748651D02*
X222819737Y-154709946D01*
X222819737Y-154709946D02*
X222759737Y-154671241D01*
X222759737Y-154671241D02*
X222609737Y-154671241D01*
X222609737Y-154671241D02*
X222519737Y-154709946D01*
X222249737Y-155484041D02*
X222249737Y-154671241D01*
X221619737Y-154709946D02*
X221679737Y-154671241D01*
X221679737Y-154671241D02*
X221769737Y-154671241D01*
X221769737Y-154671241D02*
X221859737Y-154709946D01*
X221859737Y-154709946D02*
X221919737Y-154787356D01*
X221919737Y-154787356D02*
X221949737Y-154864765D01*
X221949737Y-154864765D02*
X221979737Y-155019584D01*
X221979737Y-155019584D02*
X221979737Y-155135698D01*
X221979737Y-155135698D02*
X221949737Y-155290517D01*
X221949737Y-155290517D02*
X221919737Y-155367927D01*
X221919737Y-155367927D02*
X221859737Y-155445337D01*
X221859737Y-155445337D02*
X221769737Y-155484041D01*
X221769737Y-155484041D02*
X221709737Y-155484041D01*
X221709737Y-155484041D02*
X221619737Y-155445337D01*
X221619737Y-155445337D02*
X221589737Y-155406632D01*
X221589737Y-155406632D02*
X221589737Y-155135698D01*
X221589737Y-155135698D02*
X221709737Y-155135698D01*
X221319737Y-155484041D02*
X221319737Y-154671241D01*
X221319737Y-154671241D02*
X220959737Y-155484041D01*
X220959737Y-155484041D02*
X220959737Y-154671241D01*
X220659737Y-155058289D02*
X220449737Y-155058289D01*
X220359737Y-155484041D02*
X220659737Y-155484041D01*
X220659737Y-155484041D02*
X220659737Y-154671241D01*
X220659737Y-154671241D02*
X220359737Y-154671241D01*
X220089737Y-155484041D02*
X220089737Y-154671241D01*
X220089737Y-154671241D02*
X219939737Y-154671241D01*
X219939737Y-154671241D02*
X219849737Y-154709946D01*
X219849737Y-154709946D02*
X219789737Y-154787356D01*
X219789737Y-154787356D02*
X219759737Y-154864765D01*
X219759737Y-154864765D02*
X219729737Y-155019584D01*
X219729737Y-155019584D02*
X219729737Y-155135698D01*
X219729737Y-155135698D02*
X219759737Y-155290517D01*
X219759737Y-155290517D02*
X219789737Y-155367927D01*
X219789737Y-155367927D02*
X219849737Y-155445337D01*
X219849737Y-155445337D02*
X219939737Y-155484041D01*
X219939737Y-155484041D02*
X220089737Y-155484041D01*
X218769737Y-155058289D02*
X218679737Y-155096994D01*
X218679737Y-155096994D02*
X218649737Y-155135698D01*
X218649737Y-155135698D02*
X218619737Y-155213108D01*
X218619737Y-155213108D02*
X218619737Y-155329222D01*
X218619737Y-155329222D02*
X218649737Y-155406632D01*
X218649737Y-155406632D02*
X218679737Y-155445337D01*
X218679737Y-155445337D02*
X218739737Y-155484041D01*
X218739737Y-155484041D02*
X218979737Y-155484041D01*
X218979737Y-155484041D02*
X218979737Y-154671241D01*
X218979737Y-154671241D02*
X218769737Y-154671241D01*
X218769737Y-154671241D02*
X218709737Y-154709946D01*
X218709737Y-154709946D02*
X218679737Y-154748651D01*
X218679737Y-154748651D02*
X218649737Y-154826060D01*
X218649737Y-154826060D02*
X218649737Y-154903470D01*
X218649737Y-154903470D02*
X218679737Y-154980879D01*
X218679737Y-154980879D02*
X218709737Y-155019584D01*
X218709737Y-155019584D02*
X218769737Y-155058289D01*
X218769737Y-155058289D02*
X218979737Y-155058289D01*
X218229737Y-155096994D02*
X218229737Y-155484041D01*
X218439737Y-154671241D02*
X218229737Y-155096994D01*
X218229737Y-155096994D02*
X218019737Y-154671241D01*
X217809737Y-155406632D02*
X217779737Y-155445337D01*
X217779737Y-155445337D02*
X217809737Y-155484041D01*
X217809737Y-155484041D02*
X217839737Y-155445337D01*
X217839737Y-155445337D02*
X217809737Y-155406632D01*
X217809737Y-155406632D02*
X217809737Y-155484041D01*
X217809737Y-154980879D02*
X217779737Y-155019584D01*
X217779737Y-155019584D02*
X217809737Y-155058289D01*
X217809737Y-155058289D02*
X217839737Y-155019584D01*
X217839737Y-155019584D02*
X217809737Y-154980879D01*
X217809737Y-154980879D02*
X217809737Y-155058289D01*
X217029737Y-155484041D02*
X217029737Y-154671241D01*
X217029737Y-154671241D02*
X216669737Y-155484041D01*
X216669737Y-155484041D02*
X216669737Y-154671241D01*
X216099737Y-155484041D02*
X216099737Y-155058289D01*
X216099737Y-155058289D02*
X216129737Y-154980879D01*
X216129737Y-154980879D02*
X216189737Y-154942175D01*
X216189737Y-154942175D02*
X216309737Y-154942175D01*
X216309737Y-154942175D02*
X216369737Y-154980879D01*
X216099737Y-155445337D02*
X216159737Y-155484041D01*
X216159737Y-155484041D02*
X216309737Y-155484041D01*
X216309737Y-155484041D02*
X216369737Y-155445337D01*
X216369737Y-155445337D02*
X216399737Y-155367927D01*
X216399737Y-155367927D02*
X216399737Y-155290517D01*
X216399737Y-155290517D02*
X216369737Y-155213108D01*
X216369737Y-155213108D02*
X216309737Y-155174403D01*
X216309737Y-155174403D02*
X216159737Y-155174403D01*
X216159737Y-155174403D02*
X216099737Y-155135698D01*
X215889737Y-154942175D02*
X215649737Y-154942175D01*
X215799737Y-154671241D02*
X215799737Y-155367927D01*
X215799737Y-155367927D02*
X215769737Y-155445337D01*
X215769737Y-155445337D02*
X215709737Y-155484041D01*
X215709737Y-155484041D02*
X215649737Y-155484041D01*
X215439737Y-155484041D02*
X215439737Y-154671241D01*
X215169737Y-155484041D02*
X215169737Y-155058289D01*
X215169737Y-155058289D02*
X215199737Y-154980879D01*
X215199737Y-154980879D02*
X215259737Y-154942175D01*
X215259737Y-154942175D02*
X215349737Y-154942175D01*
X215349737Y-154942175D02*
X215409737Y-154980879D01*
X215409737Y-154980879D02*
X215439737Y-155019584D01*
X214599737Y-155484041D02*
X214599737Y-155058289D01*
X214599737Y-155058289D02*
X214629737Y-154980879D01*
X214629737Y-154980879D02*
X214689737Y-154942175D01*
X214689737Y-154942175D02*
X214809737Y-154942175D01*
X214809737Y-154942175D02*
X214869737Y-154980879D01*
X214599737Y-155445337D02*
X214659737Y-155484041D01*
X214659737Y-155484041D02*
X214809737Y-155484041D01*
X214809737Y-155484041D02*
X214869737Y-155445337D01*
X214869737Y-155445337D02*
X214899737Y-155367927D01*
X214899737Y-155367927D02*
X214899737Y-155290517D01*
X214899737Y-155290517D02*
X214869737Y-155213108D01*
X214869737Y-155213108D02*
X214809737Y-155174403D01*
X214809737Y-155174403D02*
X214659737Y-155174403D01*
X214659737Y-155174403D02*
X214599737Y-155135698D01*
X214299737Y-154942175D02*
X214299737Y-155484041D01*
X214299737Y-155019584D02*
X214269737Y-154980879D01*
X214269737Y-154980879D02*
X214209737Y-154942175D01*
X214209737Y-154942175D02*
X214119737Y-154942175D01*
X214119737Y-154942175D02*
X214059737Y-154980879D01*
X214059737Y-154980879D02*
X214029737Y-155058289D01*
X214029737Y-155058289D02*
X214029737Y-155484041D01*
X213729737Y-155484041D02*
X213729737Y-154942175D01*
X213729737Y-154671241D02*
X213759737Y-154709946D01*
X213759737Y-154709946D02*
X213729737Y-154748651D01*
X213729737Y-154748651D02*
X213699737Y-154709946D01*
X213699737Y-154709946D02*
X213729737Y-154671241D01*
X213729737Y-154671241D02*
X213729737Y-154748651D01*
X213189737Y-155445337D02*
X213249737Y-155484041D01*
X213249737Y-155484041D02*
X213369737Y-155484041D01*
X213369737Y-155484041D02*
X213429737Y-155445337D01*
X213429737Y-155445337D02*
X213459737Y-155367927D01*
X213459737Y-155367927D02*
X213459737Y-155058289D01*
X213459737Y-155058289D02*
X213429737Y-154980879D01*
X213429737Y-154980879D02*
X213369737Y-154942175D01*
X213369737Y-154942175D02*
X213249737Y-154942175D01*
X213249737Y-154942175D02*
X213189737Y-154980879D01*
X213189737Y-154980879D02*
X213159737Y-155058289D01*
X213159737Y-155058289D02*
X213159737Y-155135698D01*
X213159737Y-155135698D02*
X213459737Y-155213108D01*
X212799737Y-155484041D02*
X212859737Y-155445337D01*
X212859737Y-155445337D02*
X212889737Y-155367927D01*
X212889737Y-155367927D02*
X212889737Y-154671241D01*
X212139737Y-154671241D02*
X211989737Y-155484041D01*
X211989737Y-155484041D02*
X211869737Y-154903470D01*
X211869737Y-154903470D02*
X211749737Y-155484041D01*
X211749737Y-155484041D02*
X211599737Y-154671241D01*
X211359737Y-155484041D02*
X211359737Y-154671241D01*
X211089737Y-155484041D02*
X211089737Y-155058289D01*
X211089737Y-155058289D02*
X211119737Y-154980879D01*
X211119737Y-154980879D02*
X211179737Y-154942175D01*
X211179737Y-154942175D02*
X211269737Y-154942175D01*
X211269737Y-154942175D02*
X211329737Y-154980879D01*
X211329737Y-154980879D02*
X211359737Y-155019584D01*
X210549737Y-155445337D02*
X210609737Y-155484041D01*
X210609737Y-155484041D02*
X210729737Y-155484041D01*
X210729737Y-155484041D02*
X210789737Y-155445337D01*
X210789737Y-155445337D02*
X210819737Y-155367927D01*
X210819737Y-155367927D02*
X210819737Y-155058289D01*
X210819737Y-155058289D02*
X210789737Y-154980879D01*
X210789737Y-154980879D02*
X210729737Y-154942175D01*
X210729737Y-154942175D02*
X210609737Y-154942175D01*
X210609737Y-154942175D02*
X210549737Y-154980879D01*
X210549737Y-154980879D02*
X210519737Y-155058289D01*
X210519737Y-155058289D02*
X210519737Y-155135698D01*
X210519737Y-155135698D02*
X210819737Y-155213108D01*
X210009737Y-155445337D02*
X210069737Y-155484041D01*
X210069737Y-155484041D02*
X210189737Y-155484041D01*
X210189737Y-155484041D02*
X210249737Y-155445337D01*
X210249737Y-155445337D02*
X210279737Y-155367927D01*
X210279737Y-155367927D02*
X210279737Y-155058289D01*
X210279737Y-155058289D02*
X210249737Y-154980879D01*
X210249737Y-154980879D02*
X210189737Y-154942175D01*
X210189737Y-154942175D02*
X210069737Y-154942175D01*
X210069737Y-154942175D02*
X210009737Y-154980879D01*
X210009737Y-154980879D02*
X209979737Y-155058289D01*
X209979737Y-155058289D02*
X209979737Y-155135698D01*
X209979737Y-155135698D02*
X210279737Y-155213108D01*
X209619737Y-155484041D02*
X209679737Y-155445337D01*
X209679737Y-155445337D02*
X209709737Y-155367927D01*
X209709737Y-155367927D02*
X209709737Y-154671241D01*
X209139737Y-155445337D02*
X209199737Y-155484041D01*
X209199737Y-155484041D02*
X209319737Y-155484041D01*
X209319737Y-155484041D02*
X209379737Y-155445337D01*
X209379737Y-155445337D02*
X209409737Y-155367927D01*
X209409737Y-155367927D02*
X209409737Y-155058289D01*
X209409737Y-155058289D02*
X209379737Y-154980879D01*
X209379737Y-154980879D02*
X209319737Y-154942175D01*
X209319737Y-154942175D02*
X209199737Y-154942175D01*
X209199737Y-154942175D02*
X209139737Y-154980879D01*
X209139737Y-154980879D02*
X209109737Y-155058289D01*
X209109737Y-155058289D02*
X209109737Y-155135698D01*
X209109737Y-155135698D02*
X209409737Y-155213108D01*
X208839737Y-155484041D02*
X208839737Y-154942175D01*
X208839737Y-155096994D02*
X208809737Y-155019584D01*
X208809737Y-155019584D02*
X208779737Y-154980879D01*
X208779737Y-154980879D02*
X208719737Y-154942175D01*
X208719737Y-154942175D02*
X208659737Y-154942175D01*
X208419737Y-155445337D02*
X208419737Y-155484041D01*
X208419737Y-155484041D02*
X208449737Y-155561451D01*
X208449737Y-155561451D02*
X208479737Y-155600156D01*
X207669737Y-155484041D02*
X207669737Y-154671241D01*
X207309737Y-155484041D02*
X207579737Y-155019584D01*
X207309737Y-154671241D02*
X207669737Y-155135698D01*
X206769737Y-155484041D02*
X206769737Y-155058289D01*
X206769737Y-155058289D02*
X206799737Y-154980879D01*
X206799737Y-154980879D02*
X206859737Y-154942175D01*
X206859737Y-154942175D02*
X206979737Y-154942175D01*
X206979737Y-154942175D02*
X207039737Y-154980879D01*
X206769737Y-155445337D02*
X206829737Y-155484041D01*
X206829737Y-155484041D02*
X206979737Y-155484041D01*
X206979737Y-155484041D02*
X207039737Y-155445337D01*
X207039737Y-155445337D02*
X207069737Y-155367927D01*
X207069737Y-155367927D02*
X207069737Y-155290517D01*
X207069737Y-155290517D02*
X207039737Y-155213108D01*
X207039737Y-155213108D02*
X206979737Y-155174403D01*
X206979737Y-155174403D02*
X206829737Y-155174403D01*
X206829737Y-155174403D02*
X206769737Y-155135698D01*
X206469737Y-155484041D02*
X206469737Y-154942175D01*
X206469737Y-155019584D02*
X206439737Y-154980879D01*
X206439737Y-154980879D02*
X206379737Y-154942175D01*
X206379737Y-154942175D02*
X206289737Y-154942175D01*
X206289737Y-154942175D02*
X206229737Y-154980879D01*
X206229737Y-154980879D02*
X206199737Y-155058289D01*
X206199737Y-155058289D02*
X206199737Y-155484041D01*
X206199737Y-155058289D02*
X206169737Y-154980879D01*
X206169737Y-154980879D02*
X206109737Y-154942175D01*
X206109737Y-154942175D02*
X206019737Y-154942175D01*
X206019737Y-154942175D02*
X205959737Y-154980879D01*
X205959737Y-154980879D02*
X205929737Y-155058289D01*
X205929737Y-155058289D02*
X205929737Y-155484041D01*
X205629737Y-155484041D02*
X205629737Y-154942175D01*
X205629737Y-155096994D02*
X205599737Y-155019584D01*
X205599737Y-155019584D02*
X205569737Y-154980879D01*
X205569737Y-154980879D02*
X205509737Y-154942175D01*
X205509737Y-154942175D02*
X205449737Y-154942175D01*
X204969737Y-155484041D02*
X204969737Y-155058289D01*
X204969737Y-155058289D02*
X204999737Y-154980879D01*
X204999737Y-154980879D02*
X205059737Y-154942175D01*
X205059737Y-154942175D02*
X205179737Y-154942175D01*
X205179737Y-154942175D02*
X205239737Y-154980879D01*
X204969737Y-155445337D02*
X205029737Y-155484041D01*
X205029737Y-155484041D02*
X205179737Y-155484041D01*
X205179737Y-155484041D02*
X205239737Y-155445337D01*
X205239737Y-155445337D02*
X205269737Y-155367927D01*
X205269737Y-155367927D02*
X205269737Y-155290517D01*
X205269737Y-155290517D02*
X205239737Y-155213108D01*
X205239737Y-155213108D02*
X205179737Y-155174403D01*
X205179737Y-155174403D02*
X205029737Y-155174403D01*
X205029737Y-155174403D02*
X204969737Y-155135698D01*
X204669737Y-154942175D02*
X204669737Y-155484041D01*
X204669737Y-155019584D02*
X204639737Y-154980879D01*
X204639737Y-154980879D02*
X204579737Y-154942175D01*
X204579737Y-154942175D02*
X204489737Y-154942175D01*
X204489737Y-154942175D02*
X204429737Y-154980879D01*
X204429737Y-154980879D02*
X204399737Y-155058289D01*
X204399737Y-155058289D02*
X204399737Y-155484041D01*
X203619737Y-155484041D02*
X203619737Y-154671241D01*
X203349737Y-155445337D02*
X203289737Y-155484041D01*
X203289737Y-155484041D02*
X203169737Y-155484041D01*
X203169737Y-155484041D02*
X203109737Y-155445337D01*
X203109737Y-155445337D02*
X203079737Y-155367927D01*
X203079737Y-155367927D02*
X203079737Y-155329222D01*
X203079737Y-155329222D02*
X203109737Y-155251813D01*
X203109737Y-155251813D02*
X203169737Y-155213108D01*
X203169737Y-155213108D02*
X203259737Y-155213108D01*
X203259737Y-155213108D02*
X203319737Y-155174403D01*
X203319737Y-155174403D02*
X203349737Y-155096994D01*
X203349737Y-155096994D02*
X203349737Y-155058289D01*
X203349737Y-155058289D02*
X203319737Y-154980879D01*
X203319737Y-154980879D02*
X203259737Y-154942175D01*
X203259737Y-154942175D02*
X203169737Y-154942175D01*
X203169737Y-154942175D02*
X203109737Y-154980879D01*
X202899737Y-154942175D02*
X202659737Y-154942175D01*
X202809737Y-155484041D02*
X202809737Y-154787356D01*
X202809737Y-154787356D02*
X202779737Y-154709946D01*
X202779737Y-154709946D02*
X202719737Y-154671241D01*
X202719737Y-154671241D02*
X202659737Y-154671241D01*
X202179737Y-155484041D02*
X202179737Y-155058289D01*
X202179737Y-155058289D02*
X202209737Y-154980879D01*
X202209737Y-154980879D02*
X202269737Y-154942175D01*
X202269737Y-154942175D02*
X202389737Y-154942175D01*
X202389737Y-154942175D02*
X202449737Y-154980879D01*
X202179737Y-155445337D02*
X202239737Y-155484041D01*
X202239737Y-155484041D02*
X202389737Y-155484041D01*
X202389737Y-155484041D02*
X202449737Y-155445337D01*
X202449737Y-155445337D02*
X202479737Y-155367927D01*
X202479737Y-155367927D02*
X202479737Y-155290517D01*
X202479737Y-155290517D02*
X202449737Y-155213108D01*
X202449737Y-155213108D02*
X202389737Y-155174403D01*
X202389737Y-155174403D02*
X202239737Y-155174403D01*
X202239737Y-155174403D02*
X202179737Y-155135698D01*
X201879737Y-155484041D02*
X201879737Y-154671241D01*
X201609737Y-155484041D02*
X201609737Y-155058289D01*
X201609737Y-155058289D02*
X201639737Y-154980879D01*
X201639737Y-154980879D02*
X201699737Y-154942175D01*
X201699737Y-154942175D02*
X201789737Y-154942175D01*
X201789737Y-154942175D02*
X201849737Y-154980879D01*
X201849737Y-154980879D02*
X201879737Y-155019584D01*
X201039737Y-155484041D02*
X201039737Y-155058289D01*
X201039737Y-155058289D02*
X201069737Y-154980879D01*
X201069737Y-154980879D02*
X201129737Y-154942175D01*
X201129737Y-154942175D02*
X201249737Y-154942175D01*
X201249737Y-154942175D02*
X201309737Y-154980879D01*
X201039737Y-155445337D02*
X201099737Y-155484041D01*
X201099737Y-155484041D02*
X201249737Y-155484041D01*
X201249737Y-155484041D02*
X201309737Y-155445337D01*
X201309737Y-155445337D02*
X201339737Y-155367927D01*
X201339737Y-155367927D02*
X201339737Y-155290517D01*
X201339737Y-155290517D02*
X201309737Y-155213108D01*
X201309737Y-155213108D02*
X201249737Y-155174403D01*
X201249737Y-155174403D02*
X201099737Y-155174403D01*
X201099737Y-155174403D02*
X201039737Y-155135698D01*
X200739737Y-154942175D02*
X200739737Y-155484041D01*
X200739737Y-155019584D02*
X200709737Y-154980879D01*
X200709737Y-154980879D02*
X200649737Y-154942175D01*
X200649737Y-154942175D02*
X200559737Y-154942175D01*
X200559737Y-154942175D02*
X200499737Y-154980879D01*
X200499737Y-154980879D02*
X200469737Y-155058289D01*
X200469737Y-155058289D02*
X200469737Y-155484041D01*
X200169737Y-155484041D02*
X200169737Y-154942175D01*
X200169737Y-154671241D02*
X200199737Y-154709946D01*
X200199737Y-154709946D02*
X200169737Y-154748651D01*
X200169737Y-154748651D02*
X200139737Y-154709946D01*
X200139737Y-154709946D02*
X200169737Y-154671241D01*
X200169737Y-154671241D02*
X200169737Y-154748651D01*
X199419737Y-155251813D02*
X199119737Y-155251813D01*
X199479737Y-155484041D02*
X199269737Y-154671241D01*
X199269737Y-154671241D02*
X199059737Y-155484041D01*
X198849737Y-155484041D02*
X198849737Y-154671241D01*
X198849737Y-154671241D02*
X198489737Y-155484041D01*
X198489737Y-155484041D02*
X198489737Y-154671241D01*
X198189737Y-155484041D02*
X198189737Y-154671241D01*
X198189737Y-154671241D02*
X198039737Y-154671241D01*
X198039737Y-154671241D02*
X197949737Y-154709946D01*
X197949737Y-154709946D02*
X197889737Y-154787356D01*
X197889737Y-154787356D02*
X197859737Y-154864765D01*
X197859737Y-154864765D02*
X197829737Y-155019584D01*
X197829737Y-155019584D02*
X197829737Y-155135698D01*
X197829737Y-155135698D02*
X197859737Y-155290517D01*
X197859737Y-155290517D02*
X197889737Y-155367927D01*
X197889737Y-155367927D02*
X197949737Y-155445337D01*
X197949737Y-155445337D02*
X198039737Y-155484041D01*
X198039737Y-155484041D02*
X198189737Y-155484041D01*
X197079737Y-155484041D02*
X197079737Y-154671241D01*
X197079737Y-154671241D02*
X196839737Y-154671241D01*
X196839737Y-154671241D02*
X196779737Y-154709946D01*
X196779737Y-154709946D02*
X196749737Y-154748651D01*
X196749737Y-154748651D02*
X196719737Y-154826060D01*
X196719737Y-154826060D02*
X196719737Y-154942175D01*
X196719737Y-154942175D02*
X196749737Y-155019584D01*
X196749737Y-155019584D02*
X196779737Y-155058289D01*
X196779737Y-155058289D02*
X196839737Y-155096994D01*
X196839737Y-155096994D02*
X197079737Y-155096994D01*
X196209737Y-155445337D02*
X196269737Y-155484041D01*
X196269737Y-155484041D02*
X196389737Y-155484041D01*
X196389737Y-155484041D02*
X196449737Y-155445337D01*
X196449737Y-155445337D02*
X196479737Y-155367927D01*
X196479737Y-155367927D02*
X196479737Y-155058289D01*
X196479737Y-155058289D02*
X196449737Y-154980879D01*
X196449737Y-154980879D02*
X196389737Y-154942175D01*
X196389737Y-154942175D02*
X196269737Y-154942175D01*
X196269737Y-154942175D02*
X196209737Y-154980879D01*
X196209737Y-154980879D02*
X196179737Y-155058289D01*
X196179737Y-155058289D02*
X196179737Y-155135698D01*
X196179737Y-155135698D02*
X196479737Y-155213108D01*
X195639737Y-155484041D02*
X195639737Y-154671241D01*
X195639737Y-155445337D02*
X195699737Y-155484041D01*
X195699737Y-155484041D02*
X195819737Y-155484041D01*
X195819737Y-155484041D02*
X195879737Y-155445337D01*
X195879737Y-155445337D02*
X195909737Y-155406632D01*
X195909737Y-155406632D02*
X195939737Y-155329222D01*
X195939737Y-155329222D02*
X195939737Y-155096994D01*
X195939737Y-155096994D02*
X195909737Y-155019584D01*
X195909737Y-155019584D02*
X195879737Y-154980879D01*
X195879737Y-154980879D02*
X195819737Y-154942175D01*
X195819737Y-154942175D02*
X195699737Y-154942175D01*
X195699737Y-154942175D02*
X195639737Y-154980879D01*
X195339737Y-155484041D02*
X195339737Y-154942175D01*
X195339737Y-155096994D02*
X195309737Y-155019584D01*
X195309737Y-155019584D02*
X195279737Y-154980879D01*
X195279737Y-154980879D02*
X195219737Y-154942175D01*
X195219737Y-154942175D02*
X195159737Y-154942175D01*
X194859737Y-155484041D02*
X194919737Y-155445337D01*
X194919737Y-155445337D02*
X194949737Y-155406632D01*
X194949737Y-155406632D02*
X194979737Y-155329222D01*
X194979737Y-155329222D02*
X194979737Y-155096994D01*
X194979737Y-155096994D02*
X194949737Y-155019584D01*
X194949737Y-155019584D02*
X194919737Y-154980879D01*
X194919737Y-154980879D02*
X194859737Y-154942175D01*
X194859737Y-154942175D02*
X194769737Y-154942175D01*
X194769737Y-154942175D02*
X194709737Y-154980879D01*
X194709737Y-154980879D02*
X194679737Y-155019584D01*
X194679737Y-155019584D02*
X194649737Y-155096994D01*
X194649737Y-155096994D02*
X194649737Y-155329222D01*
X194649737Y-155329222D02*
X194679737Y-155406632D01*
X194679737Y-155406632D02*
X194709737Y-155445337D01*
X194709737Y-155445337D02*
X194769737Y-155484041D01*
X194769737Y-155484041D02*
X194859737Y-155484041D01*
X193539737Y-155406632D02*
X193569737Y-155445337D01*
X193569737Y-155445337D02*
X193659737Y-155484041D01*
X193659737Y-155484041D02*
X193719737Y-155484041D01*
X193719737Y-155484041D02*
X193809737Y-155445337D01*
X193809737Y-155445337D02*
X193869737Y-155367927D01*
X193869737Y-155367927D02*
X193899737Y-155290517D01*
X193899737Y-155290517D02*
X193929737Y-155135698D01*
X193929737Y-155135698D02*
X193929737Y-155019584D01*
X193929737Y-155019584D02*
X193899737Y-154864765D01*
X193899737Y-154864765D02*
X193869737Y-154787356D01*
X193869737Y-154787356D02*
X193809737Y-154709946D01*
X193809737Y-154709946D02*
X193719737Y-154671241D01*
X193719737Y-154671241D02*
X193659737Y-154671241D01*
X193659737Y-154671241D02*
X193569737Y-154709946D01*
X193569737Y-154709946D02*
X193539737Y-154748651D01*
X193179737Y-155484041D02*
X193239737Y-155445337D01*
X193239737Y-155445337D02*
X193269737Y-155406632D01*
X193269737Y-155406632D02*
X193299737Y-155329222D01*
X193299737Y-155329222D02*
X193299737Y-155096994D01*
X193299737Y-155096994D02*
X193269737Y-155019584D01*
X193269737Y-155019584D02*
X193239737Y-154980879D01*
X193239737Y-154980879D02*
X193179737Y-154942175D01*
X193179737Y-154942175D02*
X193089737Y-154942175D01*
X193089737Y-154942175D02*
X193029737Y-154980879D01*
X193029737Y-154980879D02*
X192999737Y-155019584D01*
X192999737Y-155019584D02*
X192969737Y-155096994D01*
X192969737Y-155096994D02*
X192969737Y-155329222D01*
X192969737Y-155329222D02*
X192999737Y-155406632D01*
X192999737Y-155406632D02*
X193029737Y-155445337D01*
X193029737Y-155445337D02*
X193089737Y-155484041D01*
X193089737Y-155484041D02*
X193179737Y-155484041D01*
X192459737Y-155445337D02*
X192519737Y-155484041D01*
X192519737Y-155484041D02*
X192639737Y-155484041D01*
X192639737Y-155484041D02*
X192699737Y-155445337D01*
X192699737Y-155445337D02*
X192729737Y-155367927D01*
X192729737Y-155367927D02*
X192729737Y-155058289D01*
X192729737Y-155058289D02*
X192699737Y-154980879D01*
X192699737Y-154980879D02*
X192639737Y-154942175D01*
X192639737Y-154942175D02*
X192519737Y-154942175D01*
X192519737Y-154942175D02*
X192459737Y-154980879D01*
X192459737Y-154980879D02*
X192429737Y-155058289D01*
X192429737Y-155058289D02*
X192429737Y-155135698D01*
X192429737Y-155135698D02*
X192729737Y-155213108D01*
X192069737Y-155484041D02*
X192129737Y-155445337D01*
X192129737Y-155445337D02*
X192159737Y-155367927D01*
X192159737Y-155367927D02*
X192159737Y-154671241D01*
X191829737Y-155484041D02*
X191829737Y-154671241D01*
X191559737Y-155484041D02*
X191559737Y-155058289D01*
X191559737Y-155058289D02*
X191589737Y-154980879D01*
X191589737Y-154980879D02*
X191649737Y-154942175D01*
X191649737Y-154942175D02*
X191739737Y-154942175D01*
X191739737Y-154942175D02*
X191799737Y-154980879D01*
X191799737Y-154980879D02*
X191829737Y-155019584D01*
X191169737Y-155484041D02*
X191229737Y-155445337D01*
X191229737Y-155445337D02*
X191259737Y-155406632D01*
X191259737Y-155406632D02*
X191289737Y-155329222D01*
X191289737Y-155329222D02*
X191289737Y-155096994D01*
X191289737Y-155096994D02*
X191259737Y-155019584D01*
X191259737Y-155019584D02*
X191229737Y-154980879D01*
X191229737Y-154980879D02*
X191169737Y-154942175D01*
X191169737Y-154942175D02*
X191079737Y-154942175D01*
X191079737Y-154942175D02*
X191019737Y-154980879D01*
X191019737Y-154980879D02*
X190989737Y-155019584D01*
X190989737Y-155019584D02*
X190959737Y-155096994D01*
X190959737Y-155096994D02*
X190959737Y-155329222D01*
X190959737Y-155329222D02*
X190989737Y-155406632D01*
X190989737Y-155406632D02*
X191019737Y-155445337D01*
X191019737Y-155445337D02*
X191079737Y-155484041D01*
X191079737Y-155484041D02*
X191169737Y-155484041D01*
X189999737Y-155058289D02*
X190209737Y-155058289D01*
X190209737Y-155484041D02*
X190209737Y-154671241D01*
X190209737Y-154671241D02*
X189909737Y-154671241D01*
X189549737Y-154671241D02*
X189429737Y-154671241D01*
X189429737Y-154671241D02*
X189369737Y-154709946D01*
X189369737Y-154709946D02*
X189309737Y-154787356D01*
X189309737Y-154787356D02*
X189279737Y-154942175D01*
X189279737Y-154942175D02*
X189279737Y-155213108D01*
X189279737Y-155213108D02*
X189309737Y-155367927D01*
X189309737Y-155367927D02*
X189369737Y-155445337D01*
X189369737Y-155445337D02*
X189429737Y-155484041D01*
X189429737Y-155484041D02*
X189549737Y-155484041D01*
X189549737Y-155484041D02*
X189609737Y-155445337D01*
X189609737Y-155445337D02*
X189669737Y-155367927D01*
X189669737Y-155367927D02*
X189699737Y-155213108D01*
X189699737Y-155213108D02*
X189699737Y-154942175D01*
X189699737Y-154942175D02*
X189669737Y-154787356D01*
X189669737Y-154787356D02*
X189609737Y-154709946D01*
X189609737Y-154709946D02*
X189549737Y-154671241D01*
X188649737Y-155484041D02*
X188859737Y-155096994D01*
X189009737Y-155484041D02*
X189009737Y-154671241D01*
X189009737Y-154671241D02*
X188769737Y-154671241D01*
X188769737Y-154671241D02*
X188709737Y-154709946D01*
X188709737Y-154709946D02*
X188679737Y-154748651D01*
X188679737Y-154748651D02*
X188649737Y-154826060D01*
X188649737Y-154826060D02*
X188649737Y-154942175D01*
X188649737Y-154942175D02*
X188679737Y-155019584D01*
X188679737Y-155019584D02*
X188709737Y-155058289D01*
X188709737Y-155058289D02*
X188769737Y-155096994D01*
X188769737Y-155096994D02*
X189009737Y-155096994D01*
X187899737Y-154671241D02*
X187899737Y-155329222D01*
X187899737Y-155329222D02*
X187869737Y-155406632D01*
X187869737Y-155406632D02*
X187839737Y-155445337D01*
X187839737Y-155445337D02*
X187779737Y-155484041D01*
X187779737Y-155484041D02*
X187659737Y-155484041D01*
X187659737Y-155484041D02*
X187599737Y-155445337D01*
X187599737Y-155445337D02*
X187569737Y-155406632D01*
X187569737Y-155406632D02*
X187539737Y-155329222D01*
X187539737Y-155329222D02*
X187539737Y-154671241D01*
X186879737Y-155406632D02*
X186909737Y-155445337D01*
X186909737Y-155445337D02*
X186999737Y-155484041D01*
X186999737Y-155484041D02*
X187059737Y-155484041D01*
X187059737Y-155484041D02*
X187149737Y-155445337D01*
X187149737Y-155445337D02*
X187209737Y-155367927D01*
X187209737Y-155367927D02*
X187239737Y-155290517D01*
X187239737Y-155290517D02*
X187269737Y-155135698D01*
X187269737Y-155135698D02*
X187269737Y-155019584D01*
X187269737Y-155019584D02*
X187239737Y-154864765D01*
X187239737Y-154864765D02*
X187209737Y-154787356D01*
X187209737Y-154787356D02*
X187149737Y-154709946D01*
X187149737Y-154709946D02*
X187059737Y-154671241D01*
X187059737Y-154671241D02*
X186999737Y-154671241D01*
X186999737Y-154671241D02*
X186909737Y-154709946D01*
X186909737Y-154709946D02*
X186879737Y-154748651D01*
X186489737Y-154671241D02*
X186369737Y-154671241D01*
X186369737Y-154671241D02*
X186309737Y-154709946D01*
X186309737Y-154709946D02*
X186249737Y-154787356D01*
X186249737Y-154787356D02*
X186219737Y-154942175D01*
X186219737Y-154942175D02*
X186219737Y-155213108D01*
X186219737Y-155213108D02*
X186249737Y-155367927D01*
X186249737Y-155367927D02*
X186309737Y-155445337D01*
X186309737Y-155445337D02*
X186369737Y-155484041D01*
X186369737Y-155484041D02*
X186489737Y-155484041D01*
X186489737Y-155484041D02*
X186549737Y-155445337D01*
X186549737Y-155445337D02*
X186609737Y-155367927D01*
X186609737Y-155367927D02*
X186639737Y-155213108D01*
X186639737Y-155213108D02*
X186639737Y-154942175D01*
X186639737Y-154942175D02*
X186609737Y-154787356D01*
X186609737Y-154787356D02*
X186549737Y-154709946D01*
X186549737Y-154709946D02*
X186489737Y-154671241D01*
X185949737Y-155484041D02*
X185949737Y-154671241D01*
X185949737Y-154671241D02*
X185589737Y-155484041D01*
X185589737Y-155484041D02*
X185589737Y-154671241D01*
X185289737Y-155484041D02*
X185289737Y-154671241D01*
X185289737Y-154671241D02*
X184929737Y-155484041D01*
X184929737Y-155484041D02*
X184929737Y-154671241D01*
X183939737Y-155058289D02*
X184149737Y-155058289D01*
X184149737Y-155484041D02*
X184149737Y-154671241D01*
X184149737Y-154671241D02*
X183849737Y-154671241D01*
X183249737Y-155484041D02*
X183459737Y-155096994D01*
X183609737Y-155484041D02*
X183609737Y-154671241D01*
X183609737Y-154671241D02*
X183369737Y-154671241D01*
X183369737Y-154671241D02*
X183309737Y-154709946D01*
X183309737Y-154709946D02*
X183279737Y-154748651D01*
X183279737Y-154748651D02*
X183249737Y-154826060D01*
X183249737Y-154826060D02*
X183249737Y-154942175D01*
X183249737Y-154942175D02*
X183279737Y-155019584D01*
X183279737Y-155019584D02*
X183309737Y-155058289D01*
X183309737Y-155058289D02*
X183369737Y-155096994D01*
X183369737Y-155096994D02*
X183609737Y-155096994D01*
X182859737Y-154671241D02*
X182739737Y-154671241D01*
X182739737Y-154671241D02*
X182679737Y-154709946D01*
X182679737Y-154709946D02*
X182619737Y-154787356D01*
X182619737Y-154787356D02*
X182589737Y-154942175D01*
X182589737Y-154942175D02*
X182589737Y-155213108D01*
X182589737Y-155213108D02*
X182619737Y-155367927D01*
X182619737Y-155367927D02*
X182679737Y-155445337D01*
X182679737Y-155445337D02*
X182739737Y-155484041D01*
X182739737Y-155484041D02*
X182859737Y-155484041D01*
X182859737Y-155484041D02*
X182919737Y-155445337D01*
X182919737Y-155445337D02*
X182979737Y-155367927D01*
X182979737Y-155367927D02*
X183009737Y-155213108D01*
X183009737Y-155213108D02*
X183009737Y-154942175D01*
X183009737Y-154942175D02*
X182979737Y-154787356D01*
X182979737Y-154787356D02*
X182919737Y-154709946D01*
X182919737Y-154709946D02*
X182859737Y-154671241D01*
X182349737Y-155445337D02*
X182259737Y-155484041D01*
X182259737Y-155484041D02*
X182109737Y-155484041D01*
X182109737Y-155484041D02*
X182049737Y-155445337D01*
X182049737Y-155445337D02*
X182019737Y-155406632D01*
X182019737Y-155406632D02*
X181989737Y-155329222D01*
X181989737Y-155329222D02*
X181989737Y-155251813D01*
X181989737Y-155251813D02*
X182019737Y-155174403D01*
X182019737Y-155174403D02*
X182049737Y-155135698D01*
X182049737Y-155135698D02*
X182109737Y-155096994D01*
X182109737Y-155096994D02*
X182229737Y-155058289D01*
X182229737Y-155058289D02*
X182289737Y-155019584D01*
X182289737Y-155019584D02*
X182319737Y-154980879D01*
X182319737Y-154980879D02*
X182349737Y-154903470D01*
X182349737Y-154903470D02*
X182349737Y-154826060D01*
X182349737Y-154826060D02*
X182319737Y-154748651D01*
X182319737Y-154748651D02*
X182289737Y-154709946D01*
X182289737Y-154709946D02*
X182229737Y-154671241D01*
X182229737Y-154671241D02*
X182079737Y-154671241D01*
X182079737Y-154671241D02*
X181989737Y-154709946D01*
X181809737Y-154671241D02*
X181449737Y-154671241D01*
X181629737Y-155484041D02*
X181629737Y-154671241D01*
X180399737Y-155484041D02*
X180609737Y-155096994D01*
X180759737Y-155484041D02*
X180759737Y-154671241D01*
X180759737Y-154671241D02*
X180519737Y-154671241D01*
X180519737Y-154671241D02*
X180459737Y-154709946D01*
X180459737Y-154709946D02*
X180429737Y-154748651D01*
X180429737Y-154748651D02*
X180399737Y-154826060D01*
X180399737Y-154826060D02*
X180399737Y-154942175D01*
X180399737Y-154942175D02*
X180429737Y-155019584D01*
X180429737Y-155019584D02*
X180459737Y-155058289D01*
X180459737Y-155058289D02*
X180519737Y-155096994D01*
X180519737Y-155096994D02*
X180759737Y-155096994D01*
X180009737Y-154671241D02*
X179889737Y-154671241D01*
X179889737Y-154671241D02*
X179829737Y-154709946D01*
X179829737Y-154709946D02*
X179769737Y-154787356D01*
X179769737Y-154787356D02*
X179739737Y-154942175D01*
X179739737Y-154942175D02*
X179739737Y-155213108D01*
X179739737Y-155213108D02*
X179769737Y-155367927D01*
X179769737Y-155367927D02*
X179829737Y-155445337D01*
X179829737Y-155445337D02*
X179889737Y-155484041D01*
X179889737Y-155484041D02*
X180009737Y-155484041D01*
X180009737Y-155484041D02*
X180069737Y-155445337D01*
X180069737Y-155445337D02*
X180129737Y-155367927D01*
X180129737Y-155367927D02*
X180159737Y-155213108D01*
X180159737Y-155213108D02*
X180159737Y-154942175D01*
X180159737Y-154942175D02*
X180129737Y-154787356D01*
X180129737Y-154787356D02*
X180069737Y-154709946D01*
X180069737Y-154709946D02*
X180009737Y-154671241D01*
X179259737Y-155058289D02*
X179169737Y-155096994D01*
X179169737Y-155096994D02*
X179139737Y-155135698D01*
X179139737Y-155135698D02*
X179109737Y-155213108D01*
X179109737Y-155213108D02*
X179109737Y-155329222D01*
X179109737Y-155329222D02*
X179139737Y-155406632D01*
X179139737Y-155406632D02*
X179169737Y-155445337D01*
X179169737Y-155445337D02*
X179229737Y-155484041D01*
X179229737Y-155484041D02*
X179469737Y-155484041D01*
X179469737Y-155484041D02*
X179469737Y-154671241D01*
X179469737Y-154671241D02*
X179259737Y-154671241D01*
X179259737Y-154671241D02*
X179199737Y-154709946D01*
X179199737Y-154709946D02*
X179169737Y-154748651D01*
X179169737Y-154748651D02*
X179139737Y-154826060D01*
X179139737Y-154826060D02*
X179139737Y-154903470D01*
X179139737Y-154903470D02*
X179169737Y-154980879D01*
X179169737Y-154980879D02*
X179199737Y-155019584D01*
X179199737Y-155019584D02*
X179259737Y-155058289D01*
X179259737Y-155058289D02*
X179469737Y-155058289D01*
X178719737Y-154671241D02*
X178599737Y-154671241D01*
X178599737Y-154671241D02*
X178539737Y-154709946D01*
X178539737Y-154709946D02*
X178479737Y-154787356D01*
X178479737Y-154787356D02*
X178449737Y-154942175D01*
X178449737Y-154942175D02*
X178449737Y-155213108D01*
X178449737Y-155213108D02*
X178479737Y-155367927D01*
X178479737Y-155367927D02*
X178539737Y-155445337D01*
X178539737Y-155445337D02*
X178599737Y-155484041D01*
X178599737Y-155484041D02*
X178719737Y-155484041D01*
X178719737Y-155484041D02*
X178779737Y-155445337D01*
X178779737Y-155445337D02*
X178839737Y-155367927D01*
X178839737Y-155367927D02*
X178869737Y-155213108D01*
X178869737Y-155213108D02*
X178869737Y-154942175D01*
X178869737Y-154942175D02*
X178839737Y-154787356D01*
X178839737Y-154787356D02*
X178779737Y-154709946D01*
X178779737Y-154709946D02*
X178719737Y-154671241D01*
X178269737Y-154671241D02*
X177909737Y-154671241D01*
X178089737Y-155484041D02*
X178089737Y-154671241D01*
X177699737Y-155484041D02*
X177699737Y-154671241D01*
X177039737Y-155406632D02*
X177069737Y-155445337D01*
X177069737Y-155445337D02*
X177159737Y-155484041D01*
X177159737Y-155484041D02*
X177219737Y-155484041D01*
X177219737Y-155484041D02*
X177309737Y-155445337D01*
X177309737Y-155445337D02*
X177369737Y-155367927D01*
X177369737Y-155367927D02*
X177399737Y-155290517D01*
X177399737Y-155290517D02*
X177429737Y-155135698D01*
X177429737Y-155135698D02*
X177429737Y-155019584D01*
X177429737Y-155019584D02*
X177399737Y-154864765D01*
X177399737Y-154864765D02*
X177369737Y-154787356D01*
X177369737Y-154787356D02*
X177309737Y-154709946D01*
X177309737Y-154709946D02*
X177219737Y-154671241D01*
X177219737Y-154671241D02*
X177159737Y-154671241D01*
X177159737Y-154671241D02*
X177069737Y-154709946D01*
X177069737Y-154709946D02*
X177039737Y-154748651D01*
X176799737Y-155445337D02*
X176709737Y-155484041D01*
X176709737Y-155484041D02*
X176559737Y-155484041D01*
X176559737Y-155484041D02*
X176499737Y-155445337D01*
X176499737Y-155445337D02*
X176469737Y-155406632D01*
X176469737Y-155406632D02*
X176439737Y-155329222D01*
X176439737Y-155329222D02*
X176439737Y-155251813D01*
X176439737Y-155251813D02*
X176469737Y-155174403D01*
X176469737Y-155174403D02*
X176499737Y-155135698D01*
X176499737Y-155135698D02*
X176559737Y-155096994D01*
X176559737Y-155096994D02*
X176679737Y-155058289D01*
X176679737Y-155058289D02*
X176739737Y-155019584D01*
X176739737Y-155019584D02*
X176769737Y-154980879D01*
X176769737Y-154980879D02*
X176799737Y-154903470D01*
X176799737Y-154903470D02*
X176799737Y-154826060D01*
X176799737Y-154826060D02*
X176769737Y-154748651D01*
X176769737Y-154748651D02*
X176739737Y-154709946D01*
X176739737Y-154709946D02*
X176679737Y-154671241D01*
X176679737Y-154671241D02*
X176529737Y-154671241D01*
X176529737Y-154671241D02*
X176439737Y-154709946D01*
D11*
G36*
X206143891Y-125679117D02*
G01*
X206165023Y-125726437D01*
X206187086Y-125790644D01*
X206202517Y-125848920D01*
X206203757Y-125878443D01*
X206201246Y-125879578D01*
X206159599Y-125893053D01*
X206072312Y-125919486D01*
X205946231Y-125956859D01*
X205788199Y-126003153D01*
X205605063Y-126056349D01*
X205403667Y-126114427D01*
X205357039Y-126127802D01*
X205155717Y-126184961D01*
X204971643Y-126236300D01*
X204812206Y-126279824D01*
X204684792Y-126313536D01*
X204596791Y-126335440D01*
X204555589Y-126343541D01*
X204527537Y-126341604D01*
X204466459Y-126311251D01*
X204433913Y-126257819D01*
X204436577Y-126198590D01*
X204481128Y-126150845D01*
X204481764Y-126150525D01*
X204520091Y-126137095D01*
X204603519Y-126110872D01*
X204723784Y-126074268D01*
X204872620Y-126029697D01*
X205041762Y-125979573D01*
X205222946Y-125926308D01*
X205407905Y-125872315D01*
X205588376Y-125820008D01*
X205756092Y-125771800D01*
X205902788Y-125730105D01*
X206020199Y-125697334D01*
X206100061Y-125675902D01*
X206134108Y-125668222D01*
X206143891Y-125679117D01*
G37*
G36*
X212792195Y-121541269D02*
G01*
X212808249Y-121557240D01*
X212827775Y-121577562D01*
X212832793Y-121582328D01*
X212878069Y-121631054D01*
X212896667Y-121661891D01*
X212896633Y-121662157D01*
X212874859Y-121687033D01*
X212817140Y-121743167D01*
X212729791Y-121824910D01*
X212619123Y-121926615D01*
X212491451Y-122042632D01*
X212353088Y-122167312D01*
X212210346Y-122295008D01*
X212069539Y-122420071D01*
X211936981Y-122536852D01*
X211818983Y-122639703D01*
X211721860Y-122722975D01*
X211651925Y-122781019D01*
X211615491Y-122808187D01*
X211607390Y-122812400D01*
X211535509Y-122823337D01*
X211479749Y-122790943D01*
X211457334Y-122724347D01*
X211457825Y-122719445D01*
X211475496Y-122684304D01*
X211520827Y-122628765D01*
X211596959Y-122549682D01*
X211707036Y-122443912D01*
X211854201Y-122308309D01*
X212041596Y-122139729D01*
X212048596Y-122133482D01*
X212239405Y-121962982D01*
X212392486Y-121826295D01*
X212512416Y-121720147D01*
X212603774Y-121641265D01*
X212671137Y-121586375D01*
X212719083Y-121552203D01*
X212752189Y-121535478D01*
X212775034Y-121532924D01*
X212792195Y-121541269D01*
G37*
G36*
X205234442Y-93297183D02*
G01*
X205322891Y-93311363D01*
X205441184Y-93336998D01*
X205594226Y-93374829D01*
X205786923Y-93425596D01*
X206024181Y-93490039D01*
X206310904Y-93568899D01*
X206349564Y-93579566D01*
X206647758Y-93662635D01*
X206893771Y-93732775D01*
X207089901Y-93790699D01*
X207238447Y-93837123D01*
X207341706Y-93872762D01*
X207401976Y-93898332D01*
X207421556Y-93914548D01*
X207421018Y-93923452D01*
X207409837Y-93983824D01*
X207388734Y-94063556D01*
X207377964Y-94096230D01*
X207347400Y-94151188D01*
X207311123Y-94159669D01*
X207287548Y-94152984D01*
X207213550Y-94132388D01*
X207096802Y-94100066D01*
X206943940Y-94057849D01*
X206761596Y-94007570D01*
X206556405Y-93951060D01*
X206335000Y-93890149D01*
X206180544Y-93847661D01*
X205960195Y-93786980D01*
X205756210Y-93730730D01*
X205576203Y-93681015D01*
X205427787Y-93639938D01*
X205318573Y-93609601D01*
X205256177Y-93592108D01*
X205225053Y-93582497D01*
X205117853Y-93529990D01*
X205064468Y-93462626D01*
X205065348Y-93380904D01*
X205068165Y-93372193D01*
X205080976Y-93340204D01*
X205099104Y-93315968D01*
X205127454Y-93300225D01*
X205170932Y-93293717D01*
X205234442Y-93297183D01*
G37*
G36*
X210096247Y-124915816D02*
G01*
X210060231Y-125104085D01*
X210054007Y-125122083D01*
X210002850Y-125230704D01*
X209928305Y-125327786D01*
X209822693Y-125420233D01*
X209678333Y-125514948D01*
X209487545Y-125618833D01*
X209400135Y-125662559D01*
X209249239Y-125729986D01*
X209126560Y-125769087D01*
X209019603Y-125782041D01*
X208915873Y-125771027D01*
X208802875Y-125738224D01*
X208774404Y-125727502D01*
X208609855Y-125633841D01*
X208482703Y-125504656D01*
X208396546Y-125348684D01*
X208354977Y-125174666D01*
X208358100Y-125088124D01*
X208808080Y-125088124D01*
X208817097Y-125156255D01*
X208867945Y-125226923D01*
X208911260Y-125269611D01*
X208970913Y-125304195D01*
X209039381Y-125307624D01*
X209129264Y-125279674D01*
X209253165Y-125220124D01*
X209253500Y-125219949D01*
X209407730Y-125135855D01*
X209516026Y-125066174D01*
X209585087Y-125004970D01*
X209621611Y-124946311D01*
X209632297Y-124884261D01*
X209618535Y-124805482D01*
X209559644Y-124718382D01*
X209463727Y-124667866D01*
X209448465Y-124666419D01*
X209376914Y-124681515D01*
X209277516Y-124720221D01*
X209163601Y-124775271D01*
X209048501Y-124839400D01*
X208945547Y-124905341D01*
X208868069Y-124965829D01*
X208829398Y-125013597D01*
X208808080Y-125088124D01*
X208358100Y-125088124D01*
X208361592Y-124991339D01*
X208419985Y-124807444D01*
X208458602Y-124731980D01*
X208504297Y-124664081D01*
X208562754Y-124603594D01*
X208643413Y-124542372D01*
X208755710Y-124472264D01*
X208909085Y-124385121D01*
X209023806Y-124323459D01*
X209151947Y-124262981D01*
X209256318Y-124226635D01*
X209349725Y-124209312D01*
X209454310Y-124206105D01*
X209635013Y-124238595D01*
X209793812Y-124314951D01*
X209925022Y-124428012D01*
X210022955Y-124570618D01*
X210081926Y-124735606D01*
X210093739Y-124884261D01*
X210096247Y-124915816D01*
G37*
G36*
X202324706Y-127367897D02*
G01*
X202313043Y-127451853D01*
X202287228Y-127522963D01*
X202242032Y-127602911D01*
X202205053Y-127657254D01*
X202070248Y-127792033D01*
X201901238Y-127881937D01*
X201698132Y-127926900D01*
X201622683Y-127934231D01*
X201394142Y-127949878D01*
X201209311Y-127949325D01*
X201059733Y-127931054D01*
X200936945Y-127893549D01*
X200832490Y-127835293D01*
X200737908Y-127754770D01*
X200714806Y-127731083D01*
X200622532Y-127611893D01*
X200568270Y-127482115D01*
X200542429Y-127320439D01*
X200540190Y-127276889D01*
X200986889Y-127276889D01*
X200988397Y-127289961D01*
X201016656Y-127353313D01*
X201069385Y-127420171D01*
X201145050Y-127478382D01*
X201231663Y-127497992D01*
X201394409Y-127488064D01*
X201536322Y-127477614D01*
X201638267Y-127466533D01*
X201709023Y-127453084D01*
X201757372Y-127435529D01*
X201792092Y-127412129D01*
X201821964Y-127381148D01*
X201846314Y-127350440D01*
X201884549Y-127267232D01*
X201870687Y-127188053D01*
X201804024Y-127101904D01*
X201743370Y-127048755D01*
X201687592Y-127027871D01*
X201613524Y-127033209D01*
X201554576Y-127040350D01*
X201445400Y-127047790D01*
X201330440Y-127050800D01*
X201249457Y-127052426D01*
X201175255Y-127062458D01*
X201121990Y-127087375D01*
X201069385Y-127133607D01*
X201053690Y-127150413D01*
X201006064Y-127218861D01*
X200986889Y-127276889D01*
X200540190Y-127276889D01*
X200540172Y-127276534D01*
X200562103Y-127086429D01*
X200634606Y-126917913D01*
X200754491Y-126776520D01*
X200918569Y-126667781D01*
X200980923Y-126639022D01*
X201040617Y-126618069D01*
X201107547Y-126604369D01*
X201194012Y-126596192D01*
X201312317Y-126591803D01*
X201474762Y-126589473D01*
X201567608Y-126588600D01*
X201700485Y-126588382D01*
X201794802Y-126591423D01*
X201862128Y-126599457D01*
X201914036Y-126614219D01*
X201962095Y-126637440D01*
X202017877Y-126670857D01*
X202130778Y-126758928D01*
X202242032Y-126894421D01*
X202242327Y-126894899D01*
X202287408Y-126974745D01*
X202313136Y-127045866D01*
X202324739Y-127129945D01*
X202327445Y-127248666D01*
X202327445Y-127249413D01*
X202327033Y-127267232D01*
X202324706Y-127367897D01*
G37*
G36*
X201557567Y-93792284D02*
G01*
X201520856Y-93963479D01*
X201445941Y-94115801D01*
X201325771Y-94267498D01*
X201227459Y-94359391D01*
X201040149Y-94473809D01*
X200825133Y-94539496D01*
X200804630Y-94542502D01*
X200711760Y-94550078D01*
X200581675Y-94555373D01*
X200428715Y-94557929D01*
X200267222Y-94557290D01*
X200177663Y-94555744D01*
X200028785Y-94551272D01*
X199919277Y-94543945D01*
X199837635Y-94532393D01*
X199772354Y-94515245D01*
X199711931Y-94491129D01*
X199665232Y-94467889D01*
X199499159Y-94352700D01*
X199353233Y-94202769D01*
X199244875Y-94035104D01*
X199213440Y-93966417D01*
X199184324Y-93877523D01*
X199170390Y-93780014D01*
X199167465Y-93673712D01*
X199630404Y-93673712D01*
X199657922Y-93811176D01*
X199726646Y-93934419D01*
X199836576Y-94031263D01*
X199873927Y-94051211D01*
X199920867Y-94067072D01*
X199983697Y-94077556D01*
X200072552Y-94083734D01*
X200197568Y-94086676D01*
X200368882Y-94087450D01*
X200425337Y-94087428D01*
X200579034Y-94086497D01*
X200689554Y-94083319D01*
X200767082Y-94076687D01*
X200821805Y-94065389D01*
X200863908Y-94048216D01*
X200903579Y-94023959D01*
X201008016Y-93927946D01*
X201080818Y-93801165D01*
X201110609Y-93661918D01*
X201094855Y-93522689D01*
X201031023Y-93395963D01*
X200992677Y-93348344D01*
X200938990Y-93295788D01*
X200877611Y-93258764D01*
X200798799Y-93234612D01*
X200692812Y-93220669D01*
X200549909Y-93214276D01*
X200360346Y-93212772D01*
X200216203Y-93213311D01*
X200085555Y-93215905D01*
X199992546Y-93221664D01*
X199926898Y-93231691D01*
X199878333Y-93247088D01*
X199836576Y-93268958D01*
X199795084Y-93297768D01*
X199698985Y-93404831D01*
X199644092Y-93534204D01*
X199630404Y-93673712D01*
X199167465Y-93673712D01*
X199166816Y-93650111D01*
X199174248Y-93515921D01*
X199222149Y-93314731D01*
X199317820Y-93137722D01*
X199465150Y-92976104D01*
X199542902Y-92910623D01*
X199632704Y-92850269D01*
X199729163Y-92806463D01*
X199842206Y-92776719D01*
X199981760Y-92758551D01*
X200157752Y-92749473D01*
X200380111Y-92747000D01*
X200593424Y-92749200D01*
X200765849Y-92757799D01*
X200902027Y-92775554D01*
X201012109Y-92805220D01*
X201106248Y-92849554D01*
X201194597Y-92911311D01*
X201287306Y-92993246D01*
X201396543Y-93110800D01*
X201493491Y-93266894D01*
X201547440Y-93441988D01*
X201564307Y-93650111D01*
X201563747Y-93661918D01*
X201557567Y-93792284D01*
G37*
G36*
X211081571Y-111102707D02*
G01*
X211053207Y-111573076D01*
X211008735Y-112026162D01*
X210948702Y-112446111D01*
X210903947Y-112691870D01*
X210730532Y-113438361D01*
X210504654Y-114167499D01*
X210228013Y-114876647D01*
X209902308Y-115563169D01*
X209529241Y-116224426D01*
X209110512Y-116857781D01*
X208647821Y-117460599D01*
X208142868Y-118030241D01*
X207597354Y-118564071D01*
X207012980Y-119059452D01*
X206391445Y-119513746D01*
X205770579Y-119904408D01*
X205088450Y-120269732D01*
X204383882Y-120583294D01*
X203656798Y-120845122D01*
X202907120Y-121055244D01*
X202134769Y-121213689D01*
X201339667Y-121320484D01*
X201224780Y-121328794D01*
X201049221Y-121335418D01*
X200837227Y-121339057D01*
X200599116Y-121339887D01*
X200345206Y-121338083D01*
X200085816Y-121333822D01*
X199831262Y-121327278D01*
X199591864Y-121318628D01*
X199377938Y-121308047D01*
X199199804Y-121295711D01*
X199067778Y-121281795D01*
X198668397Y-121220088D01*
X197898498Y-121063201D01*
X197159109Y-120860084D01*
X196447696Y-120609795D01*
X195761725Y-120311391D01*
X195098661Y-119963929D01*
X194455971Y-119566467D01*
X194399834Y-119528751D01*
X194144436Y-119342622D01*
X195060222Y-119342622D01*
X195077435Y-119361514D01*
X195138007Y-119403262D01*
X195234638Y-119461893D01*
X195359400Y-119533073D01*
X195504363Y-119612472D01*
X195661597Y-119695759D01*
X195823173Y-119778603D01*
X195981161Y-119856674D01*
X196127632Y-119925639D01*
X196227586Y-119970505D01*
X196672273Y-120154825D01*
X197129275Y-120321508D01*
X197571450Y-120460499D01*
X197702175Y-120497679D01*
X197846537Y-120537541D01*
X197949375Y-120563510D01*
X198018055Y-120576921D01*
X198059939Y-120579114D01*
X198082391Y-120571425D01*
X198092775Y-120555192D01*
X198094236Y-120550656D01*
X198109214Y-120500231D01*
X198135473Y-120409245D01*
X198169769Y-120288995D01*
X198208860Y-120150778D01*
X198349533Y-119695252D01*
X198516542Y-119235715D01*
X198701001Y-118798002D01*
X198898047Y-118393629D01*
X199102816Y-118034111D01*
X199208575Y-117873896D01*
X199424650Y-117587193D01*
X199683169Y-117284813D01*
X199978757Y-116972103D01*
X200306042Y-116654406D01*
X200659649Y-116337069D01*
X201034204Y-116025436D01*
X201424334Y-115724854D01*
X201494369Y-115673422D01*
X201627017Y-115578170D01*
X201747719Y-115494124D01*
X201845452Y-115428896D01*
X201909188Y-115390100D01*
X202027153Y-115326974D01*
X203967452Y-115562373D01*
X204208055Y-115591518D01*
X204560505Y-115633957D01*
X204864317Y-115670095D01*
X205124066Y-115700376D01*
X205344330Y-115725245D01*
X205529687Y-115745148D01*
X205684713Y-115760529D01*
X205813986Y-115771834D01*
X205922084Y-115779507D01*
X206013583Y-115783994D01*
X206093061Y-115785740D01*
X206165096Y-115785190D01*
X206234264Y-115782789D01*
X206369880Y-115773086D01*
X206743621Y-115709351D01*
X207100020Y-115594259D01*
X207434510Y-115430743D01*
X207742528Y-115221736D01*
X208019508Y-114970173D01*
X208260884Y-114678986D01*
X208462093Y-114351111D01*
X208474290Y-114327383D01*
X208526506Y-114221947D01*
X208591907Y-114085570D01*
X208667113Y-113925712D01*
X208748746Y-113749829D01*
X208833429Y-113565380D01*
X208917781Y-113379823D01*
X208998425Y-113200615D01*
X209071983Y-113035216D01*
X209135076Y-112891082D01*
X209184325Y-112775672D01*
X209216352Y-112696444D01*
X209227778Y-112660855D01*
X209226598Y-112651486D01*
X209202143Y-112629555D01*
X209193395Y-112628109D01*
X209139741Y-112598426D01*
X209060845Y-112536927D01*
X208965984Y-112452203D01*
X208864437Y-112352844D01*
X208765481Y-112247441D01*
X208678393Y-112144586D01*
X208540044Y-111957437D01*
X208420766Y-111761358D01*
X208348786Y-111592061D01*
X208324667Y-111450655D01*
X208326081Y-111402874D01*
X208339613Y-111337525D01*
X208375993Y-111277932D01*
X208445453Y-111203120D01*
X208566239Y-111082335D01*
X208240842Y-111006301D01*
X207773666Y-110892761D01*
X207335282Y-110777335D01*
X206931197Y-110661659D01*
X206564507Y-110546805D01*
X206238309Y-110433847D01*
X205955699Y-110323856D01*
X205719775Y-110217906D01*
X205533632Y-110117070D01*
X205400369Y-110022419D01*
X205375970Y-109999230D01*
X205300345Y-109910116D01*
X205216260Y-109791861D01*
X205135221Y-109660184D01*
X204941244Y-109334444D01*
X204634741Y-108870625D01*
X204304183Y-108423618D01*
X203957352Y-108003222D01*
X203602028Y-107619231D01*
X203245992Y-107281444D01*
X203130817Y-107181732D01*
X202996408Y-107068980D01*
X202866419Y-106963308D01*
X202748492Y-106870699D01*
X202650267Y-106797140D01*
X202579383Y-106748616D01*
X202543481Y-106731111D01*
X202539537Y-106734493D01*
X202524410Y-106776924D01*
X202505915Y-106857732D01*
X202487188Y-106963944D01*
X202455403Y-107125183D01*
X202396771Y-107346449D01*
X202322750Y-107575597D01*
X202240341Y-107791279D01*
X202156545Y-107972146D01*
X202133984Y-108012856D01*
X202059176Y-108133131D01*
X201968409Y-108265161D01*
X201876529Y-108386957D01*
X201820341Y-108455172D01*
X201695028Y-108592893D01*
X201557582Y-108723207D01*
X201402223Y-108850095D01*
X201223167Y-108977537D01*
X201014632Y-109109513D01*
X200770837Y-109250004D01*
X200485998Y-109402989D01*
X200154334Y-109572450D01*
X199809629Y-109748400D01*
X199448490Y-109941819D01*
X199130854Y-110124040D01*
X198851414Y-110299023D01*
X198604862Y-110470729D01*
X198385888Y-110643119D01*
X198189184Y-110820152D01*
X198009442Y-111005788D01*
X197841354Y-111203990D01*
X197679610Y-111418716D01*
X197488930Y-111706983D01*
X197248884Y-112140967D01*
X197041821Y-112603449D01*
X196873554Y-113081041D01*
X196749894Y-113560356D01*
X196739225Y-113613945D01*
X196725862Y-113693558D01*
X196715142Y-113779596D01*
X196706706Y-113879203D01*
X196700197Y-113999526D01*
X196695257Y-114147710D01*
X196691527Y-114330902D01*
X196688652Y-114556246D01*
X196686271Y-114830889D01*
X196683915Y-115089791D01*
X196679962Y-115350318D01*
X196674007Y-115568568D01*
X196665269Y-115752215D01*
X196652968Y-115908936D01*
X196636321Y-116046404D01*
X196614550Y-116172296D01*
X196586873Y-116294288D01*
X196552509Y-116420053D01*
X196510678Y-116557268D01*
X196393341Y-116901465D01*
X196200878Y-117383417D01*
X195979491Y-117859887D01*
X195735629Y-118318157D01*
X195475745Y-118745506D01*
X195206288Y-119129217D01*
X195180401Y-119163583D01*
X195118976Y-119248257D01*
X195076246Y-119311839D01*
X195060222Y-119342622D01*
X194144436Y-119342622D01*
X193766037Y-119066852D01*
X193172911Y-118566054D01*
X192621208Y-118027205D01*
X192111683Y-117451151D01*
X191645088Y-116838738D01*
X191222178Y-116190813D01*
X190843705Y-115508222D01*
X190781213Y-115383646D01*
X190475700Y-114712321D01*
X190220889Y-114034657D01*
X190014275Y-113342458D01*
X189853356Y-112627526D01*
X189735625Y-111881666D01*
X189728802Y-111823534D01*
X189709732Y-111601432D01*
X189695617Y-111339452D01*
X189686457Y-111049607D01*
X189685788Y-111000972D01*
X190176405Y-111000972D01*
X190177128Y-111116433D01*
X190180354Y-111191602D01*
X190186347Y-111218444D01*
X190186591Y-111218426D01*
X190205846Y-111193464D01*
X190239700Y-111130219D01*
X190280982Y-111042055D01*
X190331528Y-110929159D01*
X190633105Y-110299288D01*
X190959426Y-109686308D01*
X191306252Y-109096811D01*
X191669342Y-108537388D01*
X192044453Y-108014630D01*
X192427346Y-107535129D01*
X192813779Y-107105477D01*
X192879450Y-107038505D01*
X192992135Y-106927883D01*
X193114775Y-106811411D01*
X193239011Y-106696669D01*
X193356484Y-106591235D01*
X193458833Y-106502687D01*
X193495027Y-106473278D01*
X194069146Y-106473278D01*
X194075133Y-106825952D01*
X194093261Y-107170759D01*
X194123033Y-107495786D01*
X194163954Y-107789118D01*
X194215530Y-108038841D01*
X194227403Y-108084057D01*
X194318647Y-108354208D01*
X194432768Y-108580882D01*
X194567778Y-108761339D01*
X194721693Y-108892841D01*
X194892527Y-108972649D01*
X195007087Y-109001347D01*
X195117593Y-109012318D01*
X195235950Y-109002404D01*
X195384433Y-108971556D01*
X195501177Y-108936361D01*
X195707658Y-108849194D01*
X195933678Y-108728907D01*
X196169517Y-108582109D01*
X196405456Y-108415407D01*
X196631775Y-108235408D01*
X196838754Y-108048720D01*
X197016674Y-107861950D01*
X197150839Y-107682888D01*
X197291796Y-107418590D01*
X197390871Y-107129559D01*
X197444607Y-106826511D01*
X197449547Y-106520162D01*
X197445812Y-106468902D01*
X197437297Y-106378972D01*
X197425257Y-106291513D01*
X197408025Y-106202450D01*
X197383936Y-106107707D01*
X197351323Y-106003209D01*
X197308520Y-105884880D01*
X197253860Y-105748643D01*
X197185677Y-105590423D01*
X197102306Y-105406145D01*
X197002079Y-105191733D01*
X196883330Y-104943110D01*
X196744393Y-104656201D01*
X196583602Y-104326930D01*
X196399290Y-103951222D01*
X196304603Y-103761501D01*
X196145300Y-103458677D01*
X195999603Y-103205299D01*
X195865435Y-102998513D01*
X195740723Y-102835465D01*
X195623392Y-102713302D01*
X195511367Y-102629169D01*
X195402573Y-102580214D01*
X195283952Y-102564091D01*
X195146260Y-102595525D01*
X195012883Y-102680501D01*
X194884472Y-102817489D01*
X194761681Y-103004959D01*
X194645161Y-103241381D01*
X194535564Y-103525225D01*
X194433544Y-103854961D01*
X194339751Y-104229059D01*
X194254839Y-104645988D01*
X194179460Y-105104219D01*
X194114266Y-105602222D01*
X194095570Y-105791984D01*
X194075793Y-106124650D01*
X194069146Y-106473278D01*
X193495027Y-106473278D01*
X193537700Y-106438604D01*
X193584725Y-106406563D01*
X193587881Y-106388999D01*
X193595611Y-106323522D01*
X193606626Y-106218282D01*
X193619969Y-106082479D01*
X193634687Y-105925312D01*
X193695219Y-105358056D01*
X193771940Y-104814363D01*
X193862478Y-104317639D01*
X193966482Y-103869073D01*
X194083603Y-103469852D01*
X194213490Y-103121166D01*
X194355794Y-102824202D01*
X194510164Y-102580149D01*
X194676249Y-102390197D01*
X194697922Y-102370126D01*
X194886239Y-102230334D01*
X195081386Y-102146445D01*
X195283984Y-102118271D01*
X195494657Y-102145628D01*
X195554457Y-102161960D01*
X195666011Y-102201925D01*
X195763835Y-102255736D01*
X195864317Y-102333425D01*
X195983846Y-102445019D01*
X196049108Y-102512826D01*
X196158128Y-102643617D01*
X196272246Y-102803167D01*
X196395355Y-102997416D01*
X196531349Y-103232306D01*
X196684119Y-103513778D01*
X196688586Y-103522207D01*
X196841894Y-103804179D01*
X196976556Y-104036068D01*
X197094373Y-104220317D01*
X197197147Y-104359370D01*
X197286679Y-104455670D01*
X197364769Y-104511658D01*
X197433219Y-104529778D01*
X197434387Y-104529772D01*
X197491875Y-104515534D01*
X197550306Y-104471173D01*
X197612021Y-104392639D01*
X197679362Y-104275883D01*
X197754670Y-104116857D01*
X197840285Y-103911511D01*
X197938550Y-103655797D01*
X197973398Y-103563793D01*
X198039671Y-103394910D01*
X198104869Y-103235591D01*
X198162990Y-103100356D01*
X198208034Y-103003724D01*
X198228576Y-102964110D01*
X198360441Y-102757300D01*
X198506941Y-102601360D01*
X198665903Y-102497380D01*
X198835157Y-102446450D01*
X199012531Y-102449658D01*
X199195853Y-102508095D01*
X199350622Y-102608033D01*
X199502087Y-102765064D01*
X199644868Y-102975836D01*
X199778478Y-103239245D01*
X199902425Y-103554186D01*
X200016221Y-103919558D01*
X200119375Y-104334255D01*
X200211399Y-104797176D01*
X200220647Y-104849496D01*
X200244530Y-104986270D01*
X200263791Y-105099001D01*
X200276652Y-105177184D01*
X200281334Y-105210312D01*
X200283173Y-105214113D01*
X200319334Y-105231343D01*
X200387167Y-105247642D01*
X200425515Y-105255693D01*
X200522007Y-105279924D01*
X200644386Y-105313650D01*
X200775222Y-105352177D01*
X201078526Y-105452886D01*
X201636547Y-105682587D01*
X202180827Y-105964437D01*
X202708663Y-106296176D01*
X203009008Y-106520162D01*
X203217355Y-106675539D01*
X203704200Y-107100265D01*
X204166497Y-107568090D01*
X204601544Y-108076754D01*
X205006639Y-108623992D01*
X205379081Y-109207543D01*
X205423425Y-109281674D01*
X205506138Y-109415463D01*
X205581317Y-109531630D01*
X205642115Y-109619728D01*
X205681685Y-109669308D01*
X205686258Y-109673812D01*
X205786382Y-109748280D01*
X205938849Y-109830438D01*
X206140449Y-109919280D01*
X206387971Y-110013802D01*
X206678204Y-110113000D01*
X207007938Y-110215869D01*
X207373963Y-110321404D01*
X207773066Y-110428602D01*
X208202038Y-110536459D01*
X208657668Y-110643969D01*
X209136745Y-110750128D01*
X209198316Y-110763474D01*
X209376238Y-110803475D01*
X209536586Y-110841571D01*
X209669933Y-110875398D01*
X209766848Y-110902594D01*
X209817903Y-110920796D01*
X209919005Y-110993161D01*
X210023452Y-111105771D01*
X210108795Y-111235167D01*
X210159550Y-111361384D01*
X210174126Y-111439136D01*
X210176465Y-111566410D01*
X210148697Y-111703445D01*
X210088396Y-111867516D01*
X210068702Y-111913735D01*
X210009504Y-112049642D01*
X209934420Y-112218983D01*
X209846242Y-112415694D01*
X209747761Y-112633713D01*
X209735428Y-112660855D01*
X209641768Y-112866973D01*
X209531054Y-113109413D01*
X209418411Y-113354968D01*
X209306630Y-113597574D01*
X209198502Y-113831168D01*
X209096818Y-114049685D01*
X209004371Y-114247062D01*
X208923951Y-114417235D01*
X208858349Y-114554139D01*
X208810357Y-114651712D01*
X208782765Y-114703889D01*
X208657524Y-114896928D01*
X208395688Y-115222962D01*
X208096583Y-115508760D01*
X207764095Y-115751661D01*
X207402110Y-115949000D01*
X207014514Y-116098114D01*
X206605194Y-116196341D01*
X206530354Y-116208726D01*
X206456906Y-116219338D01*
X206382780Y-116227642D01*
X206304521Y-116233342D01*
X206218669Y-116236142D01*
X206121768Y-116235747D01*
X206010358Y-116231861D01*
X205880982Y-116224187D01*
X205730182Y-116212429D01*
X205554500Y-116196293D01*
X205350478Y-116175482D01*
X205114658Y-116149700D01*
X204843583Y-116118652D01*
X204533794Y-116082041D01*
X204181833Y-116039572D01*
X203784242Y-115990949D01*
X203337564Y-115935876D01*
X202838340Y-115874057D01*
X202709657Y-115858184D01*
X202530479Y-115836368D01*
X202374554Y-115817723D01*
X202250071Y-115803211D01*
X202165218Y-115793796D01*
X202128182Y-115790444D01*
X202115668Y-115794247D01*
X202059994Y-115825648D01*
X201970642Y-115884463D01*
X201854767Y-115965469D01*
X201719525Y-116063443D01*
X201572071Y-116173161D01*
X201419562Y-116289399D01*
X201269153Y-116406935D01*
X201128000Y-116520544D01*
X201029783Y-116602802D01*
X200824447Y-116783875D01*
X200607547Y-116985280D01*
X200390304Y-117196017D01*
X200183942Y-117405089D01*
X199999683Y-117601496D01*
X199848749Y-117774240D01*
X199717689Y-117938284D01*
X199514603Y-118222971D01*
X199330939Y-118524449D01*
X199161325Y-118852621D01*
X199000387Y-119217393D01*
X198842754Y-119628666D01*
X198785595Y-119793150D01*
X198729123Y-119966369D01*
X198676247Y-120138293D01*
X198629394Y-120300230D01*
X198590991Y-120443490D01*
X198563465Y-120559381D01*
X198549244Y-120639211D01*
X198550754Y-120674289D01*
X198552571Y-120675693D01*
X198597079Y-120690185D01*
X198687457Y-120708657D01*
X198814501Y-120729765D01*
X198969005Y-120752165D01*
X199141764Y-120774512D01*
X199323571Y-120795462D01*
X199505222Y-120813671D01*
X199566600Y-120818662D01*
X199762469Y-120829122D01*
X199995838Y-120835643D01*
X200253299Y-120838332D01*
X200521444Y-120837297D01*
X200786866Y-120832647D01*
X201036156Y-120824490D01*
X201255907Y-120812935D01*
X201432712Y-120798090D01*
X201758584Y-120757671D01*
X202516633Y-120624587D01*
X203253263Y-120439534D01*
X203967379Y-120203047D01*
X204657884Y-119915659D01*
X205323683Y-119577906D01*
X205963679Y-119190321D01*
X206576776Y-118753439D01*
X207161878Y-118267794D01*
X207717889Y-117733921D01*
X207731126Y-117720251D01*
X208239222Y-117154569D01*
X208700475Y-116558067D01*
X209113953Y-115932745D01*
X209478722Y-115280601D01*
X209793849Y-114603636D01*
X210058401Y-113903848D01*
X210271445Y-113183237D01*
X210432048Y-112443804D01*
X210539278Y-111687547D01*
X210569984Y-111300171D01*
X210585334Y-110802656D01*
X210577870Y-110286031D01*
X210548281Y-109767722D01*
X210497251Y-109265155D01*
X210425466Y-108795755D01*
X210318668Y-108286088D01*
X210119453Y-107561968D01*
X209869590Y-106859217D01*
X209570811Y-106180144D01*
X209224848Y-105527059D01*
X208833430Y-104902270D01*
X208398289Y-104308086D01*
X207921158Y-103746816D01*
X207403766Y-103220768D01*
X206847845Y-102732252D01*
X206255127Y-102283577D01*
X205627342Y-101877051D01*
X204966222Y-101514983D01*
X204873833Y-101469242D01*
X204193674Y-101164443D01*
X203506457Y-100913303D01*
X202805904Y-100714000D01*
X202085733Y-100564713D01*
X201339667Y-100463622D01*
X201303303Y-100460142D01*
X201108927Y-100446745D01*
X200876347Y-100437265D01*
X200619065Y-100431707D01*
X200350582Y-100430075D01*
X200084399Y-100432376D01*
X199834018Y-100438613D01*
X199612940Y-100448791D01*
X199434667Y-100462917D01*
X199357262Y-100471357D01*
X198583053Y-100585348D01*
X197831593Y-100750472D01*
X197103810Y-100966300D01*
X196400630Y-101232406D01*
X195722979Y-101548360D01*
X195071784Y-101913736D01*
X194447972Y-102328105D01*
X193852468Y-102791039D01*
X193286200Y-103302111D01*
X192892471Y-103703307D01*
X192439025Y-104223797D01*
X192029767Y-104766600D01*
X191658044Y-105340680D01*
X191317205Y-105955000D01*
X191112034Y-106374091D01*
X190863999Y-106952940D01*
X190656750Y-107536304D01*
X190486803Y-108135468D01*
X190350670Y-108761716D01*
X190244866Y-109426333D01*
X190239284Y-109474677D01*
X190229279Y-109591135D01*
X190219417Y-109739627D01*
X190209959Y-109912116D01*
X190201168Y-110100566D01*
X190193307Y-110296941D01*
X190186638Y-110493205D01*
X190181423Y-110681322D01*
X190177924Y-110853257D01*
X190176405Y-111000972D01*
X189685788Y-111000972D01*
X189682254Y-110743911D01*
X189683006Y-110434376D01*
X189688715Y-110133016D01*
X189699380Y-109851843D01*
X189715002Y-109602870D01*
X189735581Y-109398111D01*
X189738469Y-109375875D01*
X189851191Y-108665162D01*
X189998967Y-107992818D01*
X190183295Y-107352000D01*
X190213187Y-107261040D01*
X190484059Y-106536239D01*
X190803917Y-105836832D01*
X191170824Y-105165089D01*
X191582840Y-104523274D01*
X192038024Y-103913656D01*
X192534439Y-103338501D01*
X193070145Y-102800076D01*
X193643201Y-102300648D01*
X194251670Y-101842484D01*
X194893611Y-101427850D01*
X195567086Y-101059014D01*
X195988859Y-100858771D01*
X196700698Y-100569227D01*
X197424099Y-100333177D01*
X198156379Y-100150212D01*
X198894857Y-100019922D01*
X199636852Y-99941897D01*
X200379682Y-99915728D01*
X201120664Y-99941006D01*
X201857118Y-100017320D01*
X202586362Y-100144262D01*
X203305714Y-100321422D01*
X204012493Y-100548390D01*
X204704018Y-100824756D01*
X205377605Y-101150112D01*
X206030575Y-101524047D01*
X206660244Y-101946152D01*
X207263933Y-102416018D01*
X207838958Y-102933235D01*
X208251916Y-103354857D01*
X208753281Y-103936848D01*
X209209528Y-104551192D01*
X209619563Y-105195626D01*
X209982292Y-105867888D01*
X210296621Y-106565716D01*
X210561455Y-107286848D01*
X210775700Y-108029021D01*
X210938262Y-108789974D01*
X211048047Y-109567444D01*
X211064542Y-109746457D01*
X211087786Y-110173543D01*
X211093280Y-110630911D01*
X211089018Y-110802656D01*
X211081571Y-111102707D01*
G37*
G36*
X209402828Y-93076024D02*
G01*
X209463470Y-93020872D01*
X209545412Y-92957742D01*
X209651412Y-92914585D01*
X209784872Y-92902222D01*
X209788381Y-92902211D01*
X209805179Y-92902109D01*
X209821898Y-92902838D01*
X209840637Y-92905637D01*
X209863498Y-92911746D01*
X209892581Y-92922402D01*
X209929985Y-92938846D01*
X209977812Y-92962315D01*
X210038161Y-92994049D01*
X210113133Y-93035287D01*
X210204828Y-93087267D01*
X210315346Y-93151230D01*
X210446789Y-93228412D01*
X210601255Y-93320054D01*
X210780846Y-93427395D01*
X210987662Y-93551673D01*
X211223803Y-93694127D01*
X211491369Y-93855996D01*
X211792460Y-94038519D01*
X212129178Y-94242935D01*
X212503622Y-94470484D01*
X212917892Y-94722403D01*
X213374090Y-94999932D01*
X213874315Y-95304310D01*
X214420667Y-95636775D01*
X214503590Y-95687612D01*
X214623523Y-95764011D01*
X214708062Y-95823984D01*
X214766152Y-95874841D01*
X214806737Y-95923892D01*
X214838760Y-95978444D01*
X214853665Y-96007499D01*
X214873668Y-96050033D01*
X214887669Y-96091580D01*
X214893882Y-96135931D01*
X214890526Y-96186879D01*
X214887413Y-96199860D01*
X214875817Y-96248217D01*
X214847971Y-96323736D01*
X214805207Y-96417229D01*
X214745740Y-96532490D01*
X214667788Y-96673309D01*
X214569567Y-96843481D01*
X214449295Y-97046796D01*
X214305188Y-97287049D01*
X214135462Y-97568030D01*
X213938336Y-97893534D01*
X213901042Y-97955049D01*
X213737555Y-98223478D01*
X213581258Y-98478149D01*
X213434884Y-98714732D01*
X213301162Y-98928897D01*
X213182823Y-99116312D01*
X213082599Y-99272647D01*
X213003219Y-99393571D01*
X212947414Y-99474754D01*
X212917916Y-99511864D01*
X212915720Y-99513778D01*
X212883402Y-99537040D01*
X212837940Y-99560296D01*
X212773349Y-99585337D01*
X212683644Y-99613949D01*
X212562840Y-99647922D01*
X212404952Y-99689043D01*
X212203994Y-99739102D01*
X211953981Y-99799886D01*
X211838773Y-99827656D01*
X211629868Y-99877826D01*
X211440520Y-99923061D01*
X211277788Y-99961689D01*
X211148732Y-99992037D01*
X211060413Y-100012433D01*
X211019889Y-100021204D01*
X211016969Y-100021674D01*
X210906607Y-100019848D01*
X210785548Y-99990451D01*
X210685959Y-99941191D01*
X210665095Y-99923508D01*
X210604081Y-99851732D01*
X210551180Y-99765346D01*
X210541036Y-99744403D01*
X210515175Y-99681662D01*
X210501273Y-99620938D01*
X210501603Y-99556014D01*
X210518439Y-99480672D01*
X210554053Y-99388697D01*
X210610720Y-99273869D01*
X210690714Y-99129974D01*
X210796307Y-98950794D01*
X210929774Y-98730111D01*
X210968685Y-98666116D01*
X211081393Y-98479825D01*
X211167956Y-98334436D01*
X211231150Y-98224501D01*
X211273752Y-98144571D01*
X211298539Y-98089197D01*
X211308288Y-98052930D01*
X211305777Y-98030322D01*
X211293783Y-98015924D01*
X211288775Y-98012397D01*
X211241950Y-97982333D01*
X211153859Y-97927371D01*
X211029979Y-97850875D01*
X210875788Y-97756211D01*
X210696761Y-97646743D01*
X210498377Y-97525836D01*
X210286111Y-97396855D01*
X210061236Y-97260332D01*
X209828062Y-97118619D01*
X209600926Y-96980435D01*
X209388274Y-96850924D01*
X209198554Y-96735231D01*
X209040214Y-96638500D01*
X208921699Y-96565876D01*
X208818457Y-96502602D01*
X208697129Y-96428716D01*
X208599712Y-96369942D01*
X208534246Y-96331126D01*
X208508772Y-96317111D01*
X208505171Y-96322223D01*
X208490158Y-96365467D01*
X208470158Y-96438410D01*
X208452110Y-96503876D01*
X208429483Y-96563741D01*
X208398035Y-96618800D01*
X208352710Y-96673096D01*
X208288454Y-96730674D01*
X208200208Y-96795577D01*
X208082919Y-96871848D01*
X207931529Y-96963531D01*
X207740982Y-97074669D01*
X207506222Y-97209306D01*
X207389376Y-97275720D01*
X207197888Y-97383013D01*
X207022262Y-97479536D01*
X206869089Y-97561771D01*
X206744956Y-97626203D01*
X206656453Y-97669315D01*
X206610167Y-97687589D01*
X206509347Y-97695772D01*
X206363625Y-97666236D01*
X206233715Y-97593740D01*
X206131961Y-97485990D01*
X206070708Y-97350697D01*
X206062821Y-97321132D01*
X206056107Y-97293950D01*
X206052341Y-97266118D01*
X206052711Y-97232254D01*
X206058403Y-97186977D01*
X206070605Y-97124905D01*
X206090506Y-97040657D01*
X206119291Y-96928853D01*
X206158149Y-96784109D01*
X206208267Y-96601047D01*
X206270832Y-96374283D01*
X206347033Y-96098437D01*
X206369750Y-96016082D01*
X206424793Y-95816033D01*
X206473939Y-95636709D01*
X206515355Y-95484842D01*
X206547207Y-95367168D01*
X206567663Y-95290422D01*
X206574889Y-95261339D01*
X206564349Y-95265715D01*
X206510931Y-95293851D01*
X206416804Y-95345414D01*
X206286937Y-95417624D01*
X206126303Y-95507700D01*
X205939871Y-95612861D01*
X205732613Y-95730327D01*
X205509500Y-95857317D01*
X205304714Y-95974060D01*
X205056526Y-96115241D01*
X204849807Y-96232221D01*
X204680182Y-96327264D01*
X204543278Y-96402636D01*
X204434719Y-96460602D01*
X204350132Y-96503427D01*
X204285142Y-96533375D01*
X204235375Y-96552711D01*
X204196456Y-96563701D01*
X204164011Y-96568610D01*
X204133667Y-96569702D01*
X204110211Y-96566754D01*
X204032863Y-96550651D01*
X203912775Y-96522113D01*
X203757071Y-96482945D01*
X203572877Y-96434955D01*
X203367317Y-96379946D01*
X203147515Y-96319727D01*
X202928540Y-96258974D01*
X202726284Y-96202363D01*
X202566948Y-96156648D01*
X202444431Y-96119632D01*
X202352630Y-96089116D01*
X202285444Y-96062904D01*
X202236771Y-96038796D01*
X202200509Y-96014596D01*
X202170558Y-95988105D01*
X202140814Y-95957126D01*
X202035599Y-95844330D01*
X201918859Y-95913945D01*
X201868064Y-95942188D01*
X201702230Y-96017403D01*
X201505323Y-96088399D01*
X201295643Y-96149004D01*
X201091484Y-96193046D01*
X201042791Y-96200918D01*
X200928096Y-96215032D01*
X200799633Y-96224139D01*
X200646758Y-96228638D01*
X200458830Y-96228925D01*
X200225203Y-96225399D01*
X200114139Y-96222812D01*
X199875232Y-96213736D01*
X199677207Y-96199070D01*
X199509029Y-96176623D01*
X199359666Y-96144207D01*
X199218086Y-96099632D01*
X199073254Y-96040709D01*
X198914140Y-95965248D01*
X198661724Y-95839795D01*
X198561362Y-95947899D01*
X198553031Y-95957151D01*
X198537302Y-95975891D01*
X198523198Y-95992350D01*
X198507228Y-96007648D01*
X198485901Y-96022904D01*
X198455725Y-96039240D01*
X198413211Y-96057775D01*
X198354866Y-96079629D01*
X198277198Y-96105924D01*
X198176718Y-96137779D01*
X198049934Y-96176314D01*
X197893354Y-96222649D01*
X197703488Y-96277906D01*
X197476844Y-96343203D01*
X197209931Y-96419662D01*
X196899258Y-96508402D01*
X196541334Y-96610545D01*
X196132667Y-96727209D01*
X195950203Y-96779306D01*
X195611045Y-96875978D01*
X195319539Y-96958700D01*
X195071244Y-97028596D01*
X194861719Y-97086785D01*
X194686522Y-97134389D01*
X194541212Y-97172530D01*
X194421346Y-97202328D01*
X194322484Y-97224906D01*
X194240185Y-97241384D01*
X194170006Y-97252884D01*
X194107506Y-97260528D01*
X194048244Y-97265436D01*
X193987778Y-97268729D01*
X193981642Y-97269002D01*
X193668144Y-97260189D01*
X193380446Y-97203884D01*
X193112933Y-97097875D01*
X192859992Y-96939948D01*
X192616007Y-96727889D01*
X192457695Y-96552249D01*
X192296568Y-96311154D01*
X192184508Y-96050697D01*
X192118944Y-95764528D01*
X192097306Y-95446296D01*
X192100396Y-95316150D01*
X192129127Y-95077261D01*
X192192498Y-94854521D01*
X192295976Y-94625335D01*
X192315048Y-94588557D01*
X192360197Y-94498901D01*
X192390246Y-94435268D01*
X192399483Y-94409560D01*
X192377902Y-94395522D01*
X192315406Y-94359441D01*
X192222763Y-94307799D01*
X192109920Y-94245952D01*
X191986821Y-94179255D01*
X191863411Y-94113065D01*
X191749634Y-94052736D01*
X191655435Y-94003624D01*
X191590759Y-93971083D01*
X191565551Y-93960471D01*
X191566809Y-93968239D01*
X191588119Y-94014535D01*
X191629653Y-94092320D01*
X191685495Y-94190267D01*
X191686391Y-94191798D01*
X191751622Y-94308943D01*
X191790696Y-94397162D01*
X191809686Y-94473628D01*
X191814667Y-94555514D01*
X191813590Y-94604595D01*
X191805115Y-94674039D01*
X191783820Y-94736680D01*
X191744544Y-94797511D01*
X191682132Y-94861524D01*
X191591424Y-94933712D01*
X191467263Y-95019068D01*
X191304491Y-95122583D01*
X191097949Y-95249251D01*
X190981066Y-95320516D01*
X190826609Y-95415382D01*
X190692604Y-95498493D01*
X190586018Y-95565494D01*
X190513818Y-95612029D01*
X190482969Y-95633742D01*
X190484791Y-95647873D01*
X190511944Y-95708105D01*
X190567977Y-95813615D01*
X190652060Y-95962958D01*
X190763358Y-96154686D01*
X190901038Y-96387352D01*
X191064267Y-96659510D01*
X191252213Y-96969714D01*
X191337109Y-97109305D01*
X191498857Y-97375835D01*
X191634446Y-97600432D01*
X191746206Y-97787290D01*
X191836468Y-97940601D01*
X191907562Y-98064555D01*
X191961819Y-98163347D01*
X192001569Y-98241167D01*
X192029142Y-98302209D01*
X192046870Y-98350663D01*
X192057082Y-98390723D01*
X192062109Y-98426579D01*
X192062090Y-98427466D01*
X192058761Y-98582033D01*
X192013474Y-98709702D01*
X191922612Y-98814607D01*
X191916193Y-98819992D01*
X191866798Y-98859058D01*
X191818865Y-98888631D01*
X191766143Y-98908264D01*
X191702381Y-98917508D01*
X191621326Y-98915915D01*
X191516729Y-98903038D01*
X191382336Y-98878429D01*
X191211897Y-98841640D01*
X190999161Y-98792223D01*
X190737876Y-98729731D01*
X190620029Y-98701285D01*
X190408752Y-98649760D01*
X190216284Y-98602156D01*
X190049846Y-98560296D01*
X189916659Y-98526006D01*
X189823945Y-98501110D01*
X189778927Y-98487433D01*
X189738848Y-98468221D01*
X189698487Y-98439867D01*
X189654683Y-98397574D01*
X189603850Y-98336375D01*
X189542405Y-98251305D01*
X189466763Y-98137398D01*
X189373338Y-97989689D01*
X189258546Y-97803211D01*
X189118802Y-97573000D01*
X189077365Y-97504554D01*
X188967597Y-97324112D01*
X188867396Y-97160624D01*
X188780661Y-97020376D01*
X188711294Y-96909654D01*
X188663196Y-96834743D01*
X188640268Y-96801928D01*
X188636048Y-96798116D01*
X188610717Y-96791742D01*
X188567309Y-96803024D01*
X188498525Y-96835262D01*
X188397069Y-96891753D01*
X188255643Y-96975798D01*
X188213037Y-97001270D01*
X188082559Y-97076258D01*
X187965707Y-97139172D01*
X187873878Y-97184040D01*
X187818470Y-97204889D01*
X187810080Y-97206024D01*
X187751835Y-97203230D01*
X187652831Y-97188118D01*
X187510344Y-97160124D01*
X187321651Y-97118685D01*
X187084027Y-97063238D01*
X186794750Y-96993219D01*
X186716855Y-96974102D01*
X186478076Y-96915142D01*
X186286486Y-96866909D01*
X186136090Y-96827549D01*
X186020896Y-96795203D01*
X185934908Y-96768017D01*
X185872132Y-96744133D01*
X185826575Y-96721695D01*
X185792241Y-96698847D01*
X185763138Y-96673732D01*
X185693708Y-96590631D01*
X185634100Y-96453655D01*
X185625313Y-96348438D01*
X186123785Y-96348438D01*
X186126937Y-96349740D01*
X186172747Y-96363181D01*
X186264673Y-96387526D01*
X186395502Y-96420948D01*
X186558021Y-96461622D01*
X186745019Y-96507722D01*
X186949282Y-96557422D01*
X187742452Y-96749189D01*
X188258694Y-96435367D01*
X188774937Y-96121545D01*
X188849607Y-96240494D01*
X188872833Y-96278025D01*
X188925268Y-96363639D01*
X188999829Y-96485887D01*
X189092557Y-96638266D01*
X189199496Y-96814272D01*
X189316688Y-97007400D01*
X189440177Y-97211147D01*
X189956075Y-98062850D01*
X190710443Y-98246372D01*
X190715365Y-98247569D01*
X190917058Y-98296659D01*
X191103872Y-98342168D01*
X191267812Y-98382145D01*
X191400885Y-98414640D01*
X191495098Y-98437702D01*
X191542457Y-98449382D01*
X191557056Y-98451825D01*
X191570027Y-98446876D01*
X191570644Y-98427466D01*
X191556436Y-98388798D01*
X191524934Y-98326075D01*
X191473671Y-98234502D01*
X191400175Y-98109281D01*
X191301979Y-97945617D01*
X191176612Y-97738712D01*
X191005134Y-97456356D01*
X190784934Y-97093634D01*
X190591629Y-96775014D01*
X190423765Y-96498085D01*
X190279892Y-96260438D01*
X190158556Y-96059663D01*
X190058307Y-95893350D01*
X189977692Y-95759088D01*
X189915260Y-95654468D01*
X189869557Y-95577080D01*
X189839133Y-95524514D01*
X189822535Y-95494360D01*
X189818312Y-95484207D01*
X189825584Y-95479775D01*
X189873270Y-95450880D01*
X189960409Y-95398141D01*
X190081176Y-95325080D01*
X190229746Y-95235221D01*
X190400296Y-95132087D01*
X190587000Y-95019202D01*
X190685333Y-94959741D01*
X190864585Y-94851286D01*
X191024755Y-94754296D01*
X191159997Y-94672315D01*
X191264465Y-94608888D01*
X191332313Y-94567560D01*
X191357696Y-94551876D01*
X191351499Y-94536426D01*
X191321032Y-94480483D01*
X191270099Y-94392015D01*
X191203954Y-94279716D01*
X191127851Y-94152280D01*
X191047044Y-94018400D01*
X190966785Y-93886770D01*
X190892328Y-93766085D01*
X190828926Y-93665039D01*
X190781834Y-93592325D01*
X190756305Y-93556638D01*
X190748778Y-93552555D01*
X190722716Y-93555025D01*
X190677064Y-93571938D01*
X190607787Y-93605511D01*
X190510849Y-93657961D01*
X190382217Y-93731505D01*
X190217854Y-93828360D01*
X190013726Y-93950744D01*
X189765797Y-94100873D01*
X189764232Y-94101824D01*
X189544192Y-94235481D01*
X189285440Y-94392622D01*
X188997444Y-94567497D01*
X188689673Y-94754358D01*
X188371597Y-94947455D01*
X188052685Y-95141041D01*
X187742406Y-95329365D01*
X187450229Y-95506680D01*
X187266001Y-95618816D01*
X187027130Y-95765283D01*
X186807343Y-95901272D01*
X186610827Y-96024128D01*
X186441766Y-96131194D01*
X186304345Y-96219814D01*
X186202752Y-96287332D01*
X186141170Y-96331092D01*
X186123785Y-96348438D01*
X185625313Y-96348438D01*
X185621857Y-96307047D01*
X185657417Y-96163542D01*
X185741219Y-96035874D01*
X185751980Y-96026934D01*
X185808515Y-95987748D01*
X185908339Y-95922524D01*
X186048048Y-95833379D01*
X186224239Y-95722425D01*
X186433508Y-95591777D01*
X186672452Y-95443549D01*
X186937668Y-95279856D01*
X187225752Y-95102812D01*
X187533301Y-94914530D01*
X187856910Y-94717125D01*
X188193178Y-94512712D01*
X188206063Y-94504893D01*
X188614079Y-94257529D01*
X188976647Y-94038231D01*
X189296308Y-93845516D01*
X189575604Y-93677901D01*
X189817074Y-93533903D01*
X190023262Y-93412038D01*
X190196706Y-93310824D01*
X190339949Y-93228777D01*
X190343742Y-93226665D01*
X191255635Y-93226665D01*
X191258040Y-93231436D01*
X191277048Y-93245679D01*
X191317570Y-93271239D01*
X191383588Y-93310406D01*
X191479081Y-93365472D01*
X191608030Y-93438727D01*
X191774413Y-93532461D01*
X191982212Y-93648965D01*
X192235406Y-93790530D01*
X192726700Y-94064974D01*
X194118797Y-93667042D01*
X194200547Y-93643694D01*
X194467097Y-93567849D01*
X194716281Y-93497370D01*
X194942829Y-93433720D01*
X195141473Y-93378362D01*
X195306946Y-93332759D01*
X195433979Y-93298374D01*
X195517304Y-93276671D01*
X195551654Y-93269111D01*
X195603555Y-93282079D01*
X195653709Y-93332328D01*
X195675844Y-93403311D01*
X195665348Y-93476542D01*
X195617611Y-93533534D01*
X195609472Y-93537537D01*
X195551708Y-93558674D01*
X195447901Y-93592554D01*
X195304214Y-93637302D01*
X195126813Y-93691044D01*
X194921862Y-93751903D01*
X194695527Y-93818005D01*
X194453971Y-93887475D01*
X194450484Y-93888470D01*
X194150229Y-93974625D01*
X193898817Y-94048227D01*
X193690704Y-94111585D01*
X193520348Y-94167010D01*
X193382204Y-94216811D01*
X193270730Y-94263297D01*
X193180381Y-94308779D01*
X193105614Y-94355566D01*
X193040886Y-94405967D01*
X192980653Y-94462292D01*
X192919372Y-94526851D01*
X192790845Y-94687982D01*
X192657640Y-94928358D01*
X192576109Y-95186306D01*
X192548445Y-95456333D01*
X192565107Y-95668928D01*
X192632390Y-95925709D01*
X192747267Y-96161419D01*
X192905421Y-96370585D01*
X193102534Y-96547736D01*
X193334287Y-96687402D01*
X193596363Y-96784111D01*
X193781209Y-96816019D01*
X194024947Y-96815468D01*
X194270000Y-96771563D01*
X194355549Y-96748099D01*
X194586512Y-96684141D01*
X194840985Y-96612929D01*
X195114106Y-96535880D01*
X195401010Y-96454407D01*
X195696833Y-96369925D01*
X195996713Y-96283850D01*
X196295785Y-96197595D01*
X196589186Y-96112577D01*
X196872053Y-96030209D01*
X197139520Y-95951906D01*
X197386726Y-95879084D01*
X197608806Y-95813157D01*
X197800897Y-95755539D01*
X197958134Y-95707647D01*
X198075655Y-95670893D01*
X198148596Y-95646694D01*
X198172093Y-95636465D01*
X198169337Y-95634363D01*
X198129194Y-95609689D01*
X198047622Y-95562096D01*
X197930997Y-95495225D01*
X197785697Y-95412719D01*
X197618100Y-95318218D01*
X197434584Y-95215364D01*
X196718611Y-94815250D01*
X195360250Y-95203921D01*
X195311499Y-95217867D01*
X195045437Y-95293851D01*
X194795392Y-95365055D01*
X194566829Y-95429937D01*
X194365209Y-95486955D01*
X194195994Y-95534568D01*
X194064646Y-95571233D01*
X193976627Y-95595408D01*
X193937400Y-95605553D01*
X193924187Y-95607587D01*
X193849217Y-95593520D01*
X193794937Y-95544307D01*
X193768274Y-95475998D01*
X193776152Y-95404641D01*
X193825500Y-95346284D01*
X193829500Y-95344109D01*
X193880329Y-95324717D01*
X193977962Y-95292499D01*
X194116091Y-95249368D01*
X194288402Y-95197240D01*
X194488587Y-95138028D01*
X194710335Y-95073646D01*
X194947334Y-95006009D01*
X194980745Y-94996540D01*
X195220671Y-94927710D01*
X195447892Y-94861128D01*
X195655458Y-94798929D01*
X195836421Y-94743246D01*
X195983832Y-94696213D01*
X196090740Y-94659965D01*
X196150197Y-94636635D01*
X196322794Y-94533326D01*
X196512675Y-94365714D01*
X196670800Y-94163086D01*
X196791172Y-93935072D01*
X196867794Y-93691300D01*
X196894667Y-93441401D01*
X196882910Y-93260536D01*
X196824075Y-93003840D01*
X196720503Y-92767560D01*
X196577488Y-92556768D01*
X196400321Y-92376536D01*
X196194293Y-92231936D01*
X195964698Y-92128038D01*
X195716827Y-92069916D01*
X195455972Y-92062639D01*
X195440172Y-92064390D01*
X195353005Y-92080862D01*
X195212370Y-92113666D01*
X195018668Y-92162694D01*
X194772296Y-92227841D01*
X194473656Y-92309000D01*
X194123145Y-92406063D01*
X193721164Y-92518924D01*
X193268111Y-92647476D01*
X192950462Y-92738079D01*
X192641419Y-92826370D01*
X192352631Y-92909017D01*
X192088352Y-92984796D01*
X191852837Y-93052482D01*
X191650341Y-93110851D01*
X191485118Y-93158678D01*
X191361423Y-93194739D01*
X191283511Y-93217810D01*
X191255635Y-93226665D01*
X190343742Y-93226665D01*
X190455531Y-93164414D01*
X190545993Y-93116252D01*
X190613877Y-93082807D01*
X190661723Y-93062598D01*
X190692072Y-93054140D01*
X190744458Y-93044694D01*
X190814183Y-93014354D01*
X190860936Y-92957625D01*
X190915164Y-92891181D01*
X190990220Y-92834770D01*
X191019920Y-92823902D01*
X191100924Y-92798125D01*
X191226975Y-92759674D01*
X191393065Y-92709995D01*
X191594185Y-92650535D01*
X191825328Y-92582740D01*
X192081484Y-92508058D01*
X192357644Y-92427934D01*
X192648800Y-92343815D01*
X192949944Y-92257149D01*
X193256066Y-92169381D01*
X193562158Y-92081958D01*
X193863211Y-91996327D01*
X194154218Y-91913935D01*
X194430168Y-91836227D01*
X194686054Y-91764651D01*
X194916867Y-91700654D01*
X195193484Y-91637081D01*
X195497339Y-91602943D01*
X195781064Y-91614301D01*
X196052421Y-91671568D01*
X196319173Y-91775156D01*
X196541610Y-91899966D01*
X196787065Y-92093444D01*
X196992744Y-92324727D01*
X197156170Y-92590354D01*
X197274870Y-92886866D01*
X197346366Y-93210804D01*
X197356459Y-93309763D01*
X197351846Y-93577505D01*
X197306217Y-93850360D01*
X197223321Y-94110637D01*
X197106906Y-94340649D01*
X197080614Y-94383742D01*
X197049185Y-94441388D01*
X197040796Y-94467087D01*
X197044184Y-94469471D01*
X197084749Y-94493605D01*
X197159751Y-94536047D01*
X197258720Y-94591075D01*
X197371186Y-94652969D01*
X197486681Y-94716011D01*
X197594735Y-94774479D01*
X197684878Y-94822653D01*
X197746641Y-94854815D01*
X197769556Y-94865244D01*
X197761140Y-94842144D01*
X197735330Y-94780462D01*
X197698191Y-94695211D01*
X197655635Y-94595516D01*
X197592598Y-94424330D01*
X197548683Y-94259868D01*
X197520952Y-94086458D01*
X197506467Y-93888429D01*
X197502292Y-93650111D01*
X197502620Y-93615435D01*
X197955049Y-93615435D01*
X197959534Y-93823417D01*
X197976269Y-94015448D01*
X198005225Y-94172222D01*
X198063788Y-94359217D01*
X198205257Y-94669535D01*
X198391613Y-94951100D01*
X198618344Y-95199293D01*
X198880938Y-95409498D01*
X199174882Y-95577097D01*
X199333090Y-95636465D01*
X199495665Y-95697472D01*
X199515713Y-95703078D01*
X199610596Y-95725459D01*
X199714207Y-95741842D01*
X199838473Y-95753407D01*
X199995318Y-95761332D01*
X200196667Y-95766798D01*
X200408501Y-95769548D01*
X200649174Y-95766975D01*
X200850538Y-95756500D01*
X201022180Y-95737285D01*
X201173685Y-95708496D01*
X201314638Y-95669295D01*
X201355655Y-95654551D01*
X202489092Y-95654551D01*
X202519842Y-95666749D01*
X202597747Y-95690818D01*
X202714024Y-95724199D01*
X202860242Y-95764686D01*
X203027966Y-95810071D01*
X203208763Y-95858146D01*
X203394201Y-95906705D01*
X203575846Y-95953540D01*
X203745265Y-95996443D01*
X203894025Y-96033208D01*
X204013693Y-96061626D01*
X204095836Y-96079490D01*
X204132019Y-96084594D01*
X204135085Y-96083630D01*
X204178582Y-96062684D01*
X204265879Y-96016614D01*
X204392644Y-95947826D01*
X204554542Y-95858724D01*
X204747239Y-95751714D01*
X204966400Y-95629200D01*
X205207693Y-95493588D01*
X205466782Y-95347282D01*
X205739333Y-95192688D01*
X205802780Y-95156638D01*
X206070747Y-95004730D01*
X206323054Y-94862257D01*
X206555531Y-94731538D01*
X206764010Y-94614894D01*
X206944321Y-94514643D01*
X207092294Y-94433107D01*
X207203761Y-94372605D01*
X207274553Y-94335456D01*
X207300501Y-94323982D01*
X207300280Y-94327273D01*
X207290301Y-94371251D01*
X207267535Y-94461523D01*
X207233651Y-94591932D01*
X207190317Y-94756323D01*
X207139198Y-94948540D01*
X207081963Y-95162427D01*
X207020279Y-95391830D01*
X206955814Y-95630591D01*
X206890234Y-95872557D01*
X206825207Y-96111570D01*
X206762401Y-96341477D01*
X206703482Y-96556120D01*
X206650118Y-96749344D01*
X206603977Y-96914995D01*
X206566726Y-97046915D01*
X206540031Y-97138950D01*
X206525561Y-97184944D01*
X206522270Y-97199910D01*
X206536592Y-97218305D01*
X206540330Y-97217048D01*
X206582814Y-97195735D01*
X206666140Y-97150789D01*
X206784002Y-97085713D01*
X206930090Y-97004006D01*
X207098098Y-96909171D01*
X207281716Y-96804709D01*
X208002654Y-96393030D01*
X208108078Y-96010224D01*
X208909602Y-96010224D01*
X208932566Y-96026408D01*
X208998580Y-96068845D01*
X209100427Y-96132665D01*
X209231375Y-96213684D01*
X209384694Y-96307719D01*
X209553652Y-96410585D01*
X209888273Y-96613622D01*
X210249495Y-96832890D01*
X210567306Y-97025939D01*
X210844370Y-97194407D01*
X211083353Y-97339935D01*
X211286923Y-97464165D01*
X211457744Y-97568736D01*
X211598484Y-97655288D01*
X211711809Y-97725462D01*
X211800384Y-97780899D01*
X211866875Y-97823239D01*
X211913950Y-97854123D01*
X211944274Y-97875190D01*
X211960513Y-97888082D01*
X211965334Y-97894438D01*
X211957672Y-97910543D01*
X211924143Y-97970179D01*
X211867077Y-98068055D01*
X211789875Y-98198438D01*
X211695936Y-98355595D01*
X211588659Y-98533793D01*
X211471445Y-98727300D01*
X211384204Y-98871076D01*
X211274078Y-99053108D01*
X211176371Y-99215230D01*
X211094476Y-99351784D01*
X211031781Y-99457112D01*
X210991677Y-99525555D01*
X210977556Y-99551457D01*
X210977791Y-99554755D01*
X210981656Y-99558005D01*
X210994794Y-99558018D01*
X211022892Y-99553499D01*
X211071639Y-99543153D01*
X211146725Y-99525684D01*
X211253837Y-99499796D01*
X211398665Y-99464196D01*
X211586897Y-99417587D01*
X211824222Y-99358675D01*
X212628556Y-99158950D01*
X213517556Y-97693440D01*
X213524159Y-97682555D01*
X213682551Y-97421287D01*
X213832043Y-97174414D01*
X213970084Y-96946168D01*
X214094124Y-96740780D01*
X214201611Y-96562479D01*
X214289996Y-96415496D01*
X214356728Y-96304063D01*
X214399256Y-96232410D01*
X214415029Y-96204767D01*
X214415132Y-96204480D01*
X214415634Y-96199860D01*
X214412394Y-96193505D01*
X214402794Y-96183795D01*
X214384218Y-96169108D01*
X214354045Y-96147822D01*
X214309659Y-96118318D01*
X214248442Y-96078973D01*
X214167775Y-96028167D01*
X214065040Y-95964277D01*
X213937620Y-95885685D01*
X213782897Y-95790767D01*
X213598252Y-95677902D01*
X213381067Y-95545471D01*
X213128725Y-95391851D01*
X212838608Y-95215421D01*
X212508097Y-95014560D01*
X212134575Y-94787648D01*
X211715423Y-94533062D01*
X211621046Y-94475768D01*
X211326671Y-94297420D01*
X211047480Y-94128806D01*
X210787141Y-93972108D01*
X210549320Y-93829512D01*
X210337684Y-93703203D01*
X210155901Y-93595364D01*
X210007638Y-93508180D01*
X209896560Y-93443836D01*
X209826337Y-93404515D01*
X209800633Y-93392404D01*
X209803017Y-93422184D01*
X209817441Y-93498370D01*
X209841910Y-93612584D01*
X209874398Y-93756478D01*
X209912879Y-93921706D01*
X209955327Y-94099919D01*
X209999714Y-94282772D01*
X210044015Y-94461916D01*
X210050109Y-94486052D01*
X210086203Y-94629004D01*
X210124251Y-94775689D01*
X210156134Y-94893624D01*
X210179824Y-94974462D01*
X210193296Y-95009854D01*
X210196665Y-95012885D01*
X210238003Y-95041374D01*
X210321672Y-95095364D01*
X210443018Y-95171960D01*
X210597391Y-95268269D01*
X210780136Y-95381398D01*
X210986603Y-95508453D01*
X211212139Y-95646541D01*
X211452091Y-95792768D01*
X211519954Y-95834032D01*
X211756908Y-95978150D01*
X211978606Y-96113051D01*
X212180335Y-96235863D01*
X212357385Y-96343715D01*
X212505045Y-96433738D01*
X212618602Y-96503060D01*
X212693346Y-96548810D01*
X212724566Y-96568118D01*
X212730444Y-96572364D01*
X212743930Y-96598557D01*
X212730994Y-96644288D01*
X212688548Y-96722826D01*
X212612965Y-96851798D01*
X212112760Y-96547180D01*
X211829148Y-96374501D01*
X211387864Y-96105999D01*
X210994128Y-95866670D01*
X210647587Y-95656299D01*
X210347885Y-95474673D01*
X210094669Y-95321578D01*
X209887582Y-95196798D01*
X209726272Y-95100121D01*
X209610383Y-95031330D01*
X209539560Y-94990213D01*
X209513449Y-94976555D01*
X209512100Y-94976905D01*
X209486941Y-95005274D01*
X209440568Y-95072933D01*
X209378078Y-95171157D01*
X209304568Y-95291219D01*
X209225136Y-95424395D01*
X209144878Y-95561960D01*
X209068891Y-95695187D01*
X209002273Y-95815353D01*
X208950121Y-95913731D01*
X208917531Y-95981596D01*
X208909602Y-96010224D01*
X208108078Y-96010224D01*
X208345756Y-95147188D01*
X208838670Y-95147188D01*
X208850215Y-95136348D01*
X208885756Y-95086476D01*
X208938712Y-95005030D01*
X209002716Y-94901545D01*
X209095088Y-94757441D01*
X209179217Y-94649935D01*
X209259134Y-94579321D01*
X209343762Y-94537799D01*
X209442022Y-94517572D01*
X209477779Y-94512803D01*
X209541392Y-94499404D01*
X209566704Y-94486052D01*
X209566586Y-94483480D01*
X209558517Y-94437985D01*
X209539645Y-94351377D01*
X209512593Y-94234333D01*
X209479983Y-94097528D01*
X209444440Y-93951640D01*
X209408585Y-93807343D01*
X209375043Y-93675315D01*
X209346435Y-93566232D01*
X209325385Y-93490769D01*
X209314517Y-93459603D01*
X209310264Y-93463695D01*
X209291814Y-93509634D01*
X209261647Y-93600584D01*
X209221689Y-93730220D01*
X209173864Y-93892223D01*
X209120097Y-94080269D01*
X209062313Y-94288038D01*
X209033962Y-94391665D01*
X208979437Y-94592950D01*
X208931409Y-94772904D01*
X208891597Y-94924916D01*
X208861722Y-95042375D01*
X208843506Y-95118669D01*
X208838670Y-95147188D01*
X208345756Y-95147188D01*
X208464075Y-94717560D01*
X208473592Y-94682993D01*
X208554569Y-94388003D01*
X208630459Y-94110029D01*
X208700014Y-93853744D01*
X208761985Y-93623819D01*
X208815122Y-93424926D01*
X208858177Y-93261738D01*
X208889901Y-93138927D01*
X208909045Y-93061165D01*
X208914360Y-93033124D01*
X208909093Y-93030544D01*
X208859026Y-93013880D01*
X208761807Y-92984923D01*
X208623013Y-92945172D01*
X208448220Y-92896122D01*
X208243006Y-92839270D01*
X208012946Y-92776114D01*
X207763618Y-92708151D01*
X207500599Y-92636878D01*
X207229465Y-92563791D01*
X206955793Y-92490388D01*
X206685159Y-92418166D01*
X206423141Y-92348622D01*
X206175315Y-92283252D01*
X205947259Y-92223555D01*
X205744548Y-92171026D01*
X205572759Y-92127163D01*
X205437470Y-92093462D01*
X205344257Y-92071422D01*
X205298696Y-92062539D01*
X205128026Y-92061483D01*
X204888884Y-92102156D01*
X204652480Y-92186608D01*
X204432130Y-92309753D01*
X204241149Y-92466503D01*
X204232567Y-92475179D01*
X204076776Y-92671459D01*
X203958030Y-92898477D01*
X203880339Y-93143756D01*
X203847715Y-93394819D01*
X203864169Y-93639187D01*
X203884569Y-93732088D01*
X203970509Y-93972325D01*
X204096557Y-94197583D01*
X204252977Y-94389083D01*
X204271712Y-94408155D01*
X204336824Y-94481025D01*
X204376850Y-94536970D01*
X204383740Y-94565152D01*
X204382220Y-94566278D01*
X204345601Y-94588590D01*
X204266203Y-94634954D01*
X204149537Y-94702213D01*
X204001115Y-94787209D01*
X203826448Y-94886784D01*
X203631048Y-94997781D01*
X203420425Y-95117042D01*
X203380564Y-95139588D01*
X203174164Y-95256654D01*
X202985329Y-95364290D01*
X202819328Y-95459454D01*
X202681432Y-95539104D01*
X202576914Y-95600199D01*
X202511043Y-95639695D01*
X202489092Y-95654551D01*
X201355655Y-95654551D01*
X201441979Y-95623521D01*
X201741121Y-95475459D01*
X202013503Y-95282302D01*
X202253763Y-95049725D01*
X202456545Y-94783402D01*
X202616489Y-94489009D01*
X202728237Y-94172222D01*
X202730268Y-94164295D01*
X202754874Y-94024220D01*
X202770512Y-93848704D01*
X202776982Y-93655946D01*
X202774086Y-93464147D01*
X202761622Y-93291505D01*
X202739392Y-93156222D01*
X202646770Y-92871874D01*
X202496520Y-92573807D01*
X202302027Y-92302097D01*
X202068432Y-92061946D01*
X201800876Y-91858556D01*
X201504500Y-91697127D01*
X201184445Y-91582863D01*
X201157351Y-91576413D01*
X201032429Y-91557603D01*
X200866659Y-91543800D01*
X200671936Y-91534984D01*
X200460155Y-91531134D01*
X200243209Y-91532229D01*
X200032993Y-91538250D01*
X199841401Y-91549175D01*
X199680328Y-91564985D01*
X199561667Y-91585658D01*
X199274678Y-91680512D01*
X198980867Y-91831103D01*
X198712241Y-92025483D01*
X198474502Y-92258008D01*
X198273353Y-92523033D01*
X198114496Y-92814912D01*
X198003634Y-93128000D01*
X197982947Y-93228834D01*
X197962844Y-93410805D01*
X197955049Y-93615435D01*
X197502620Y-93615435D01*
X197503656Y-93505993D01*
X197513809Y-93290043D01*
X197536472Y-93105205D01*
X197574703Y-92935719D01*
X197631562Y-92765825D01*
X197710110Y-92579763D01*
X197780703Y-92438652D01*
X197964575Y-92152557D01*
X198190580Y-91884241D01*
X198449139Y-91643164D01*
X198730670Y-91438788D01*
X199025596Y-91280574D01*
X199077338Y-91257994D01*
X199205353Y-91206025D01*
X199325442Y-91165314D01*
X199446797Y-91134536D01*
X199578607Y-91112366D01*
X199730064Y-91097479D01*
X199910359Y-91088550D01*
X200128681Y-91084254D01*
X200394222Y-91083267D01*
X200570452Y-91083477D01*
X200758759Y-91084293D01*
X200905663Y-91086339D01*
X201019711Y-91090290D01*
X201109444Y-91096816D01*
X201183406Y-91106592D01*
X201250143Y-91120289D01*
X201318197Y-91138580D01*
X201396111Y-91162138D01*
X201650614Y-91255661D01*
X201980994Y-91425079D01*
X202285393Y-91637598D01*
X202557223Y-91887731D01*
X202789897Y-92169990D01*
X202976826Y-92478889D01*
X202989075Y-92503423D01*
X203113490Y-92800601D01*
X203194724Y-93104997D01*
X203235193Y-93428715D01*
X203236549Y-93655946D01*
X203237313Y-93783857D01*
X203235397Y-93821954D01*
X203210058Y-94074373D01*
X203165133Y-94317432D01*
X203104060Y-94535691D01*
X203030277Y-94713711D01*
X203026141Y-94721847D01*
X203001397Y-94779524D01*
X202996915Y-94808767D01*
X203010697Y-94804263D01*
X203064351Y-94778039D01*
X203148077Y-94734067D01*
X203250844Y-94678452D01*
X203361621Y-94617301D01*
X203469375Y-94556717D01*
X203563076Y-94502809D01*
X203631692Y-94461681D01*
X203664191Y-94439439D01*
X203664764Y-94435468D01*
X203651728Y-94394034D01*
X203619798Y-94318832D01*
X203574219Y-94222508D01*
X203521582Y-94105600D01*
X203430218Y-93812838D01*
X203390129Y-93515041D01*
X203399270Y-93218382D01*
X203455599Y-92929031D01*
X203557073Y-92653161D01*
X203701649Y-92396944D01*
X203887284Y-92166550D01*
X204111933Y-91968151D01*
X204373556Y-91807920D01*
X204481898Y-91756140D01*
X204677471Y-91678165D01*
X204861242Y-91630891D01*
X205053552Y-91609867D01*
X205274743Y-91610640D01*
X205286846Y-91611164D01*
X205348244Y-91614559D01*
X205409359Y-91619845D01*
X205474741Y-91628130D01*
X205548946Y-91640526D01*
X205636527Y-91658141D01*
X205742037Y-91682085D01*
X205870029Y-91713470D01*
X206025058Y-91753403D01*
X206211675Y-91802997D01*
X206434436Y-91863359D01*
X206697894Y-91935600D01*
X207006601Y-92020831D01*
X207365111Y-92120160D01*
X209157222Y-92617147D01*
X209259801Y-92726880D01*
X209333446Y-92823780D01*
X209382604Y-92956319D01*
X209395580Y-93033124D01*
X209402828Y-93076024D01*
G37*
G36*
X214647905Y-111415424D02*
G01*
X214621456Y-111566778D01*
X214587524Y-111755505D01*
X214547153Y-111976146D01*
X214501385Y-112223245D01*
X214451265Y-112491345D01*
X214397835Y-112774987D01*
X214342139Y-113068716D01*
X214285220Y-113367072D01*
X214228122Y-113664599D01*
X214171887Y-113955840D01*
X214117559Y-114235337D01*
X214066182Y-114497633D01*
X214018798Y-114737271D01*
X213976451Y-114948793D01*
X213940184Y-115126741D01*
X213911040Y-115265659D01*
X213890063Y-115360090D01*
X213878296Y-115404575D01*
X213856335Y-115450473D01*
X213809740Y-115503067D01*
X213737541Y-115540553D01*
X213629461Y-115567635D01*
X213475222Y-115589014D01*
X213423312Y-115594801D01*
X213156243Y-115625011D01*
X212881804Y-115656717D01*
X212605762Y-115689199D01*
X212333885Y-115721737D01*
X212071941Y-115753613D01*
X211825699Y-115784106D01*
X211600926Y-115812496D01*
X211403391Y-115838064D01*
X211238862Y-115860091D01*
X211113106Y-115877855D01*
X211031893Y-115890639D01*
X211000989Y-115897722D01*
X211000940Y-115897773D01*
X210981642Y-115927978D01*
X210939707Y-115999448D01*
X210879762Y-116104108D01*
X210806433Y-116233880D01*
X210724345Y-116380689D01*
X210466602Y-116843933D01*
X211048116Y-118070847D01*
X211049441Y-118073644D01*
X211166310Y-118321153D01*
X211275858Y-118554922D01*
X211375656Y-118769639D01*
X211463271Y-118959990D01*
X211536274Y-119120664D01*
X211592233Y-119246347D01*
X211628717Y-119331727D01*
X211643295Y-119371491D01*
X211642632Y-119429749D01*
X211606536Y-119516876D01*
X211598710Y-119526559D01*
X211551694Y-119576457D01*
X211470912Y-119657291D01*
X211361914Y-119763674D01*
X211230249Y-119890220D01*
X211081465Y-120031541D01*
X210921111Y-120182250D01*
X210917358Y-120185760D01*
X210748229Y-120343896D01*
X210547368Y-120531701D01*
X210324043Y-120740513D01*
X210087518Y-120961668D01*
X209847059Y-121186502D01*
X209611931Y-121406352D01*
X209391401Y-121612555D01*
X209316088Y-121682820D01*
X209117843Y-121866220D01*
X208936498Y-122031724D01*
X208776036Y-122175815D01*
X208640442Y-122294976D01*
X208533700Y-122385690D01*
X208459794Y-122444439D01*
X208422708Y-122467706D01*
X208361677Y-122472675D01*
X208282872Y-122456269D01*
X208248830Y-122438498D01*
X208169746Y-122395450D01*
X208051478Y-122330298D01*
X207899179Y-122245906D01*
X207718007Y-122145136D01*
X207513114Y-122030851D01*
X207289658Y-121905914D01*
X207052792Y-121773187D01*
X205888568Y-121120110D01*
X205463097Y-121323612D01*
X205364193Y-121370673D01*
X205224415Y-121436325D01*
X205104605Y-121491594D01*
X205015045Y-121531753D01*
X204966022Y-121552077D01*
X204951328Y-121558106D01*
X204936260Y-121569110D01*
X204921844Y-121589017D01*
X204906985Y-121622485D01*
X204890591Y-121674176D01*
X204871569Y-121748748D01*
X204848826Y-121850862D01*
X204821268Y-121985178D01*
X204787804Y-122156355D01*
X204747341Y-122369053D01*
X204698784Y-122627932D01*
X204641042Y-122937652D01*
X204621141Y-123044353D01*
X204563376Y-123351561D01*
X204514127Y-123608746D01*
X204472469Y-123820157D01*
X204437474Y-123990044D01*
X204408219Y-124122659D01*
X204383776Y-124222250D01*
X204363221Y-124293069D01*
X204345627Y-124339366D01*
X204330069Y-124365390D01*
X204328250Y-124367479D01*
X204314140Y-124381155D01*
X204294493Y-124393770D01*
X204265103Y-124405988D01*
X204221762Y-124418470D01*
X204160264Y-124431879D01*
X204076401Y-124446878D01*
X203965965Y-124464129D01*
X203824750Y-124484295D01*
X203648549Y-124508038D01*
X203433154Y-124536020D01*
X203174358Y-124568904D01*
X202867955Y-124607353D01*
X202509735Y-124652029D01*
X202500937Y-124653124D01*
X202180996Y-124692994D01*
X201869402Y-124731873D01*
X201572113Y-124769014D01*
X201295087Y-124803671D01*
X201044282Y-124835098D01*
X200825657Y-124862547D01*
X200645170Y-124885273D01*
X200508780Y-124902528D01*
X200422445Y-124913566D01*
X200303609Y-124928641D01*
X200183094Y-124943235D01*
X200091141Y-124953598D01*
X200041445Y-124958128D01*
X200035362Y-124958376D01*
X200000028Y-124957767D01*
X199967281Y-124950513D01*
X199934755Y-124932552D01*
X199900086Y-124899818D01*
X199860907Y-124848247D01*
X199814854Y-124773775D01*
X199759560Y-124672339D01*
X199692660Y-124539873D01*
X199611789Y-124372314D01*
X199514580Y-124165598D01*
X199398669Y-123915659D01*
X199261690Y-123618435D01*
X198679491Y-122353463D01*
X198457357Y-122317981D01*
X198382735Y-122305427D01*
X198235510Y-122278681D01*
X198071855Y-122247194D01*
X197915381Y-122215435D01*
X197595539Y-122148369D01*
X196744159Y-122953604D01*
X196681136Y-123013208D01*
X196492762Y-123191327D01*
X196313019Y-123361233D01*
X196147302Y-123517830D01*
X196001006Y-123656022D01*
X195879526Y-123770711D01*
X195788258Y-123856802D01*
X195732595Y-123909197D01*
X195672040Y-123964284D01*
X195596746Y-124022664D01*
X195535630Y-124051695D01*
X195474662Y-124059555D01*
X195445016Y-124053739D01*
X195394257Y-124035012D01*
X195319818Y-124001887D01*
X195218871Y-123952879D01*
X195088584Y-123886505D01*
X194926129Y-123801280D01*
X194728676Y-123695718D01*
X194493395Y-123568335D01*
X194217457Y-123417647D01*
X193898031Y-123242168D01*
X193532289Y-123040415D01*
X193531607Y-123040038D01*
X193232874Y-122874549D01*
X192947871Y-122715814D01*
X192680570Y-122566098D01*
X192434945Y-122427666D01*
X192214970Y-122302785D01*
X192024618Y-122193718D01*
X191867862Y-122102733D01*
X191748675Y-122032094D01*
X191671032Y-121984066D01*
X191638906Y-121960915D01*
X191607342Y-121908500D01*
X191589834Y-121844111D01*
X191589841Y-121843546D01*
X191595582Y-121802917D01*
X191611250Y-121712813D01*
X191635778Y-121578863D01*
X191668101Y-121406699D01*
X191707153Y-121201951D01*
X191751868Y-120970249D01*
X191801181Y-120717225D01*
X191854024Y-120448507D01*
X192118526Y-119109348D01*
X191737694Y-118710296D01*
X191650804Y-118619831D01*
X191530364Y-118497615D01*
X191439562Y-118410924D01*
X191373548Y-118355479D01*
X191327472Y-118327006D01*
X191296486Y-118321227D01*
X191263371Y-118325888D01*
X191178490Y-118337217D01*
X191048678Y-118354278D01*
X190879764Y-118376313D01*
X190677577Y-118402563D01*
X190447946Y-118432271D01*
X190196700Y-118464677D01*
X189929668Y-118499025D01*
X189830573Y-118511729D01*
X189530550Y-118549786D01*
X189280570Y-118580692D01*
X189076104Y-118604893D01*
X188912622Y-118622833D01*
X188785597Y-118634954D01*
X188690498Y-118641702D01*
X188622796Y-118643520D01*
X188577963Y-118640853D01*
X188551468Y-118634144D01*
X188525490Y-118617236D01*
X188466909Y-118555042D01*
X188414707Y-118473002D01*
X188410214Y-118463923D01*
X188381255Y-118403577D01*
X188331586Y-118298817D01*
X188263597Y-118154751D01*
X188179681Y-117976483D01*
X188082230Y-117769122D01*
X187973637Y-117537773D01*
X187856293Y-117287544D01*
X187732590Y-117023541D01*
X187604922Y-116750870D01*
X187475679Y-116474639D01*
X187347255Y-116199953D01*
X187222041Y-115931920D01*
X187102429Y-115675646D01*
X186990811Y-115436238D01*
X186889581Y-115218801D01*
X186801129Y-115028444D01*
X186743551Y-114902550D01*
X186693806Y-114785715D01*
X186664943Y-114701573D01*
X186654478Y-114640354D01*
X186659923Y-114592286D01*
X186678794Y-114547598D01*
X186693507Y-114529952D01*
X186746780Y-114475428D01*
X186834217Y-114389888D01*
X186951459Y-114277477D01*
X187094147Y-114142340D01*
X187257922Y-113988620D01*
X187438424Y-113820462D01*
X187631294Y-113642011D01*
X187764079Y-113519540D01*
X187952441Y-113345721D01*
X188127249Y-113184309D01*
X188283843Y-113039611D01*
X188417565Y-112915934D01*
X188523756Y-112817585D01*
X188597758Y-112748873D01*
X188634911Y-112714104D01*
X188714821Y-112637982D01*
X188652344Y-112118713D01*
X188632749Y-111957489D01*
X188614336Y-111809189D01*
X188598961Y-111688690D01*
X188587829Y-111605411D01*
X188582140Y-111568766D01*
X188582134Y-111568743D01*
X188556332Y-111549412D01*
X188485713Y-111506095D01*
X188375145Y-111441544D01*
X188229497Y-111358514D01*
X188053638Y-111259756D01*
X187852437Y-111148023D01*
X187630763Y-111026070D01*
X187393484Y-110896648D01*
X187163493Y-110771046D01*
X186936749Y-110645826D01*
X186728639Y-110529493D01*
X186544347Y-110425012D01*
X186389058Y-110335349D01*
X186267957Y-110263469D01*
X186186228Y-110212338D01*
X186149056Y-110184919D01*
X186149027Y-110184888D01*
X186104199Y-110114357D01*
X186085556Y-110043483D01*
X186088924Y-110014672D01*
X186102189Y-109933311D01*
X186108653Y-109896692D01*
X186643403Y-109896692D01*
X186665502Y-109910440D01*
X186732994Y-109949049D01*
X186840713Y-110009405D01*
X186983647Y-110088734D01*
X187156783Y-110184266D01*
X187355108Y-110293226D01*
X187573610Y-110412845D01*
X187807276Y-110540348D01*
X188004460Y-110648283D01*
X188228847Y-110772401D01*
X188435029Y-110887834D01*
X188617755Y-110991572D01*
X188771776Y-111080605D01*
X188891842Y-111151923D01*
X188972702Y-111202516D01*
X189009106Y-111229374D01*
X189022992Y-111247052D01*
X189047652Y-111295917D01*
X189067334Y-111368579D01*
X189084561Y-111475899D01*
X189101856Y-111628740D01*
X189119262Y-111787644D01*
X189142415Y-111980453D01*
X189168065Y-112180635D01*
X189193183Y-112363791D01*
X189202947Y-112432823D01*
X189221940Y-112577687D01*
X189232055Y-112680504D01*
X189233710Y-112751092D01*
X189227326Y-112799272D01*
X189213322Y-112834862D01*
X189211092Y-112838342D01*
X189175423Y-112878841D01*
X189103709Y-112951968D01*
X189000723Y-113053123D01*
X188871241Y-113177703D01*
X188720036Y-113321110D01*
X188551883Y-113478742D01*
X188371556Y-113645998D01*
X188360985Y-113655752D01*
X188174169Y-113828256D01*
X187993746Y-113995075D01*
X187825569Y-114150781D01*
X187675491Y-114289948D01*
X187549364Y-114407148D01*
X187453041Y-114496955D01*
X187392376Y-114553942D01*
X187217530Y-114719729D01*
X188010476Y-116419253D01*
X188074491Y-116556448D01*
X188206660Y-116839652D01*
X188330746Y-117105464D01*
X188444777Y-117349663D01*
X188546782Y-117568028D01*
X188634789Y-117756341D01*
X188706824Y-117910380D01*
X188760917Y-118025926D01*
X188795096Y-118098758D01*
X188807387Y-118124657D01*
X188830267Y-118122864D01*
X188903939Y-118114522D01*
X189023056Y-118100168D01*
X189182092Y-118080492D01*
X189375516Y-118056185D01*
X189597801Y-118027936D01*
X189843418Y-117996438D01*
X190106838Y-117962379D01*
X190333375Y-117933151D01*
X190588446Y-117900680D01*
X190823702Y-117871199D01*
X191033120Y-117845438D01*
X191210675Y-117824128D01*
X191350342Y-117808001D01*
X191446098Y-117797789D01*
X191491918Y-117794222D01*
X191492086Y-117794222D01*
X191525678Y-117798186D01*
X191562245Y-117813440D01*
X191607560Y-117845117D01*
X191667394Y-117898350D01*
X191747521Y-117978273D01*
X191853712Y-118090019D01*
X191991740Y-118238722D01*
X192022214Y-118271703D01*
X192150092Y-118409307D01*
X192269954Y-118537088D01*
X192374271Y-118647097D01*
X192455516Y-118731384D01*
X192506162Y-118782000D01*
X192540033Y-118816101D01*
X192600129Y-118887217D01*
X192634790Y-118943337D01*
X192637257Y-118961972D01*
X192633491Y-119023373D01*
X192619993Y-119125977D01*
X192596361Y-119272105D01*
X192562190Y-119464075D01*
X192517078Y-119704207D01*
X192460622Y-119994821D01*
X192392418Y-120338237D01*
X192389328Y-120353674D01*
X192336506Y-120618866D01*
X192287676Y-120866483D01*
X192243868Y-121091132D01*
X192206110Y-121287421D01*
X192175432Y-121449958D01*
X192152861Y-121573349D01*
X192139429Y-121652202D01*
X192136163Y-121681125D01*
X192155157Y-121693421D01*
X192219369Y-121730838D01*
X192323789Y-121790085D01*
X192463439Y-121868430D01*
X192633344Y-121963139D01*
X192828527Y-122071480D01*
X193044011Y-122190719D01*
X193274821Y-122318124D01*
X193515979Y-122450962D01*
X193762509Y-122586500D01*
X194009435Y-122722005D01*
X194251780Y-122854744D01*
X194484568Y-122981984D01*
X194702823Y-123100992D01*
X194901567Y-123209036D01*
X195075824Y-123303382D01*
X195220618Y-123381298D01*
X195330973Y-123440051D01*
X195401911Y-123476908D01*
X195428457Y-123489135D01*
X195447187Y-123473642D01*
X195503504Y-123422772D01*
X195592998Y-123340277D01*
X195711506Y-123230044D01*
X195854860Y-123095962D01*
X196018897Y-122941919D01*
X196199449Y-122771801D01*
X196392353Y-122589497D01*
X196552309Y-122438424D01*
X196739298Y-122262641D01*
X196912241Y-122100945D01*
X197066667Y-121957474D01*
X197198100Y-121836366D01*
X197302067Y-121741758D01*
X197374094Y-121677788D01*
X197409708Y-121648592D01*
X197428642Y-121636591D01*
X197468867Y-121617994D01*
X197515147Y-121613466D01*
X197583721Y-121622859D01*
X197690830Y-121646024D01*
X197798221Y-121669992D01*
X198103289Y-121733826D01*
X198413689Y-121793334D01*
X198699680Y-121842718D01*
X198837618Y-121868718D01*
X198954507Y-121901857D01*
X199017648Y-121936659D01*
X199037764Y-121968884D01*
X199079412Y-122047980D01*
X199139494Y-122168153D01*
X199215458Y-122324112D01*
X199304752Y-122510570D01*
X199404825Y-122722235D01*
X199513124Y-122953818D01*
X199627098Y-123200029D01*
X199645769Y-123240551D01*
X199777784Y-123526022D01*
X199888943Y-123764131D01*
X199981120Y-123958595D01*
X200056188Y-124113131D01*
X200116021Y-124231456D01*
X200162492Y-124317286D01*
X200197473Y-124374338D01*
X200222840Y-124406329D01*
X200240464Y-124416976D01*
X200246856Y-124416851D01*
X200301483Y-124411906D01*
X200405633Y-124400570D01*
X200554470Y-124383425D01*
X200743157Y-124361053D01*
X200966854Y-124334039D01*
X201220725Y-124302963D01*
X201499931Y-124268409D01*
X201799636Y-124230960D01*
X202115001Y-124191199D01*
X203934557Y-123960778D01*
X204180743Y-122638779D01*
X204229946Y-122377575D01*
X204278623Y-122125111D01*
X204324339Y-121893832D01*
X204365909Y-121689462D01*
X204402146Y-121517727D01*
X204431868Y-121384354D01*
X204453887Y-121295067D01*
X204467020Y-121255594D01*
X204502413Y-121221165D01*
X204578678Y-121172097D01*
X204673166Y-121126609D01*
X204743877Y-121096194D01*
X204859345Y-121044196D01*
X205003341Y-120977841D01*
X205164235Y-120902494D01*
X205330397Y-120823517D01*
X205334998Y-120821315D01*
X205492817Y-120747764D01*
X205637833Y-120683793D01*
X205760611Y-120633289D01*
X205851716Y-120600136D01*
X205901712Y-120588222D01*
X205938016Y-120598419D01*
X206024919Y-120636770D01*
X206158362Y-120703098D01*
X206337313Y-120796860D01*
X206560741Y-120917515D01*
X206827615Y-121064520D01*
X207136901Y-121237333D01*
X207357997Y-121361244D01*
X207578764Y-121484256D01*
X207780277Y-121595809D01*
X207957557Y-121693181D01*
X208105625Y-121773652D01*
X208219499Y-121834500D01*
X208294202Y-121873005D01*
X208324752Y-121886444D01*
X208331065Y-121883565D01*
X208373551Y-121851104D01*
X208449589Y-121786329D01*
X208553875Y-121693974D01*
X208681102Y-121578774D01*
X208825968Y-121445464D01*
X208983166Y-121298778D01*
X209023596Y-121260809D01*
X209215839Y-121080415D01*
X209434800Y-120875152D01*
X209668717Y-120656037D01*
X209905824Y-120434086D01*
X210134358Y-120220316D01*
X210342556Y-120025743D01*
X210498628Y-119879028D01*
X210655019Y-119729954D01*
X210792877Y-119596383D01*
X210907607Y-119482865D01*
X210994615Y-119393950D01*
X211049308Y-119334189D01*
X211067090Y-119308131D01*
X211055921Y-119282280D01*
X211022605Y-119209687D01*
X210969648Y-119095966D01*
X210899488Y-118946304D01*
X210814564Y-118765891D01*
X210717314Y-118559915D01*
X210610177Y-118333564D01*
X210495590Y-118092027D01*
X210426554Y-117946150D01*
X210307610Y-117692141D01*
X210201520Y-117462049D01*
X210110266Y-117260341D01*
X210035836Y-117091486D01*
X209980214Y-116959951D01*
X209945384Y-116870203D01*
X209933334Y-116826710D01*
X209933941Y-116818609D01*
X209954614Y-116751249D01*
X210002614Y-116643636D01*
X210075118Y-116501695D01*
X210169304Y-116331349D01*
X210211791Y-116256495D01*
X210303018Y-116093840D01*
X210390806Y-115935010D01*
X210466890Y-115795020D01*
X210523002Y-115688887D01*
X210547447Y-115643174D01*
X210607591Y-115543085D01*
X210662702Y-115466643D01*
X210703309Y-115427574D01*
X210739792Y-115418423D01*
X210827506Y-115403295D01*
X210960004Y-115383346D01*
X211131476Y-115359368D01*
X211336111Y-115332149D01*
X211568099Y-115302480D01*
X211821626Y-115271151D01*
X212090884Y-115238951D01*
X212352761Y-115207944D01*
X212602691Y-115177953D01*
X212829689Y-115150310D01*
X213028234Y-115125709D01*
X213192802Y-115104840D01*
X213317871Y-115088396D01*
X213397916Y-115077068D01*
X213427415Y-115071548D01*
X213430955Y-115058821D01*
X213444466Y-114997026D01*
X213466783Y-114889025D01*
X213496814Y-114740422D01*
X213533472Y-114556824D01*
X213575667Y-114343836D01*
X213622310Y-114107064D01*
X213672312Y-113852113D01*
X213724583Y-113584589D01*
X213778034Y-113310097D01*
X213831577Y-113034244D01*
X213884121Y-112762634D01*
X213934578Y-112500874D01*
X213981859Y-112254569D01*
X214024875Y-112029325D01*
X214062535Y-111830747D01*
X214093752Y-111664441D01*
X214117435Y-111536012D01*
X214132497Y-111451067D01*
X214137846Y-111415210D01*
X214137762Y-111414432D01*
X214109962Y-111388189D01*
X214033106Y-111336815D01*
X213908274Y-111260938D01*
X213736548Y-111161188D01*
X213519009Y-111038193D01*
X213256738Y-110892581D01*
X212950817Y-110724982D01*
X212853245Y-110671761D01*
X212572846Y-110517992D01*
X212338475Y-110387978D01*
X212147077Y-110279920D01*
X211995593Y-110192023D01*
X211880968Y-110122489D01*
X211800144Y-110069523D01*
X211750064Y-110031327D01*
X211727672Y-110006105D01*
X211727527Y-110005809D01*
X211710994Y-109949951D01*
X211692242Y-109851737D01*
X211673565Y-109724938D01*
X211657256Y-109583323D01*
X211645180Y-109468759D01*
X211621810Y-109267414D01*
X211595727Y-109060495D01*
X211570652Y-108878288D01*
X211558232Y-108790656D01*
X211541825Y-108655501D01*
X211535558Y-108560365D01*
X211538981Y-108495065D01*
X211551641Y-108449418D01*
X211574462Y-108420137D01*
X211635594Y-108355308D01*
X211730309Y-108260347D01*
X211854332Y-108139380D01*
X212003388Y-107996534D01*
X212173201Y-107835936D01*
X212359497Y-107661713D01*
X212558000Y-107477990D01*
X212744409Y-107306115D01*
X212929296Y-107135170D01*
X213097271Y-106979378D01*
X213244222Y-106842576D01*
X213366039Y-106728599D01*
X213458611Y-106641284D01*
X213517826Y-106584469D01*
X213539572Y-106561989D01*
X213533040Y-106543960D01*
X213505152Y-106479442D01*
X213457581Y-106373093D01*
X213392721Y-106230067D01*
X213312968Y-106055515D01*
X213220715Y-105854591D01*
X213118357Y-105632447D01*
X213008289Y-105394237D01*
X212892905Y-105145112D01*
X212774600Y-104890225D01*
X212655768Y-104634729D01*
X212538805Y-104383778D01*
X212426104Y-104142522D01*
X212320060Y-103916116D01*
X212223067Y-103709712D01*
X212137521Y-103528462D01*
X212065816Y-103377519D01*
X212010346Y-103262036D01*
X211973506Y-103187166D01*
X211957691Y-103158061D01*
X211957663Y-103158036D01*
X211927279Y-103158849D01*
X211846491Y-103166420D01*
X211720804Y-103180098D01*
X211555719Y-103199232D01*
X211356741Y-103223171D01*
X211129373Y-103251264D01*
X210879117Y-103282860D01*
X210611477Y-103317309D01*
X210347748Y-103351106D01*
X210093392Y-103382783D01*
X209860381Y-103410882D01*
X209654482Y-103434750D01*
X209481463Y-103453737D01*
X209347088Y-103467190D01*
X209257126Y-103474458D01*
X209217342Y-103474888D01*
X209202782Y-103468551D01*
X209146477Y-103426474D01*
X209071783Y-103355880D01*
X208990836Y-103267861D01*
X208947456Y-103218515D01*
X208851613Y-103113030D01*
X208733870Y-102986384D01*
X208605204Y-102850345D01*
X208476596Y-102716679D01*
X208454701Y-102694124D01*
X208332408Y-102566623D01*
X208244293Y-102470700D01*
X208185029Y-102399471D01*
X208149288Y-102346054D01*
X208131743Y-102303566D01*
X208127066Y-102265124D01*
X208131000Y-102229381D01*
X208145106Y-102141114D01*
X208168399Y-102008572D01*
X208199766Y-101837724D01*
X208238091Y-101634538D01*
X208282261Y-101404983D01*
X208331161Y-101155028D01*
X208383677Y-100890642D01*
X208393420Y-100841943D01*
X208451748Y-100549722D01*
X208499724Y-100307279D01*
X208538100Y-100109802D01*
X208567628Y-99952475D01*
X208589059Y-99830485D01*
X208603146Y-99739019D01*
X208610639Y-99673261D01*
X208612291Y-99628399D01*
X208608852Y-99599618D01*
X208601075Y-99582105D01*
X208589711Y-99571045D01*
X208579688Y-99564329D01*
X208521769Y-99529516D01*
X208422889Y-99472614D01*
X208288066Y-99396370D01*
X208122318Y-99303534D01*
X207930661Y-99196854D01*
X207718114Y-99079080D01*
X207489694Y-98952959D01*
X207250418Y-98821241D01*
X207005304Y-98686674D01*
X206759370Y-98552007D01*
X206517632Y-98419989D01*
X206285110Y-98293369D01*
X206066819Y-98174895D01*
X205867778Y-98067317D01*
X205693004Y-97973382D01*
X205547514Y-97895840D01*
X205436327Y-97837440D01*
X205364459Y-97800930D01*
X205336928Y-97789059D01*
X205335917Y-97789527D01*
X205308954Y-97810626D01*
X205250386Y-97862393D01*
X205159081Y-97945887D01*
X205033907Y-98062170D01*
X204873732Y-98212301D01*
X204677425Y-98397341D01*
X204443854Y-98618351D01*
X204171887Y-98876390D01*
X203860392Y-99172519D01*
X203788216Y-99241291D01*
X203642486Y-99379705D01*
X203527448Y-99485106D01*
X203435324Y-99561008D01*
X203358338Y-99610927D01*
X203288712Y-99638379D01*
X203218669Y-99646877D01*
X203140431Y-99639938D01*
X203046220Y-99621076D01*
X202928260Y-99593807D01*
X202818446Y-99570118D01*
X202663091Y-99539047D01*
X202492369Y-99506771D01*
X202327445Y-99477393D01*
X202170923Y-99451114D01*
X202018684Y-99425024D01*
X201905822Y-99401094D01*
X201823616Y-99373724D01*
X201763343Y-99337316D01*
X201716281Y-99286270D01*
X201673707Y-99214987D01*
X201626899Y-99117868D01*
X201567136Y-98989312D01*
X201542815Y-98937711D01*
X201477283Y-98797603D01*
X201394925Y-98620492D01*
X201300213Y-98416042D01*
X201197620Y-98193914D01*
X201091619Y-97963771D01*
X200986681Y-97735278D01*
X200909357Y-97568050D01*
X200817978Y-97374196D01*
X200735057Y-97202385D01*
X200663531Y-97058506D01*
X200606338Y-96948446D01*
X200566414Y-96878093D01*
X200546696Y-96853333D01*
X200527814Y-96854817D01*
X200457067Y-96862447D01*
X200340623Y-96875936D01*
X200184134Y-96894576D01*
X199993251Y-96917660D01*
X199773624Y-96944481D01*
X199530906Y-96974332D01*
X199270748Y-97006506D01*
X198998800Y-97040296D01*
X198720713Y-97074995D01*
X198442140Y-97109895D01*
X198168731Y-97144291D01*
X197906137Y-97177474D01*
X197660010Y-97208737D01*
X197436000Y-97237374D01*
X197239760Y-97262677D01*
X197076939Y-97283940D01*
X196953190Y-97300456D01*
X196874164Y-97311516D01*
X196845511Y-97316415D01*
X196845387Y-97316597D01*
X196837685Y-97348304D01*
X196820738Y-97429812D01*
X196795597Y-97555705D01*
X196763317Y-97720571D01*
X196724950Y-97918996D01*
X196681549Y-98145566D01*
X196634168Y-98394867D01*
X196583859Y-98661486D01*
X196543509Y-98875204D01*
X196487391Y-99168453D01*
X196439604Y-99412197D01*
X196399333Y-99610171D01*
X196365764Y-99766109D01*
X196338081Y-99883745D01*
X196315470Y-99966813D01*
X196297117Y-100019048D01*
X196282207Y-100044183D01*
X196253429Y-100064540D01*
X196177690Y-100106199D01*
X196072725Y-100157134D01*
X195952040Y-100210540D01*
X195949655Y-100211548D01*
X195812565Y-100271751D01*
X195646503Y-100348018D01*
X195472200Y-100430670D01*
X195310387Y-100510033D01*
X195265871Y-100532068D01*
X195132740Y-100594765D01*
X195015605Y-100645391D01*
X194925795Y-100679228D01*
X194874636Y-100691555D01*
X194870846Y-100690904D01*
X194825191Y-100671994D01*
X194737455Y-100629284D01*
X194613482Y-100565952D01*
X194459116Y-100485175D01*
X194280201Y-100390129D01*
X194082581Y-100283991D01*
X193872100Y-100169937D01*
X193654601Y-100051145D01*
X193435929Y-99930791D01*
X193221928Y-99812051D01*
X193018442Y-99698104D01*
X192831315Y-99592124D01*
X192666391Y-99497290D01*
X192529514Y-99416777D01*
X192440027Y-99363270D01*
X191541736Y-100202561D01*
X191355716Y-100376384D01*
X191049665Y-100662481D01*
X190781523Y-100913320D01*
X190549101Y-101130968D01*
X190350207Y-101317489D01*
X190182653Y-101474951D01*
X190044247Y-101605419D01*
X189932800Y-101710960D01*
X189846122Y-101793641D01*
X189782023Y-101855527D01*
X189738312Y-101898685D01*
X189712800Y-101925181D01*
X189703296Y-101937081D01*
X189703240Y-101937323D01*
X189714221Y-101968400D01*
X189747089Y-102045174D01*
X189799537Y-102162615D01*
X189869260Y-102315693D01*
X189953953Y-102499380D01*
X190051310Y-102708647D01*
X190159026Y-102938464D01*
X190274796Y-103183802D01*
X190278524Y-103191679D01*
X190394446Y-103437385D01*
X190502537Y-103668031D01*
X190600446Y-103878489D01*
X190685820Y-104063632D01*
X190756308Y-104218334D01*
X190809558Y-104337468D01*
X190843219Y-104415907D01*
X190854938Y-104448523D01*
X190854408Y-104462016D01*
X190850542Y-104480683D01*
X190839812Y-104508007D01*
X190818678Y-104550705D01*
X190783602Y-104615493D01*
X190731045Y-104709086D01*
X190657468Y-104838202D01*
X190559334Y-105009555D01*
X190534156Y-105053650D01*
X190446459Y-105209453D01*
X190361259Y-105363813D01*
X190287201Y-105500959D01*
X190232930Y-105605118D01*
X190217832Y-105634670D01*
X190153822Y-105746601D01*
X190098685Y-105815769D01*
X190045499Y-105851265D01*
X190009919Y-105859439D01*
X189921880Y-105874025D01*
X189788940Y-105893474D01*
X189617051Y-105916994D01*
X189412167Y-105943791D01*
X189180242Y-105973072D01*
X188927229Y-106004045D01*
X188659082Y-106035917D01*
X188413006Y-106064904D01*
X188163942Y-106094611D01*
X187937604Y-106121986D01*
X187739550Y-106146339D01*
X187575337Y-106166979D01*
X187450523Y-106183216D01*
X187370666Y-106194358D01*
X187341323Y-106199714D01*
X187334475Y-106221859D01*
X187317868Y-106294536D01*
X187293096Y-106412248D01*
X187261212Y-106569414D01*
X187223270Y-106760453D01*
X187180322Y-106979787D01*
X187133423Y-107221836D01*
X187083625Y-107481020D01*
X187031982Y-107751758D01*
X186979548Y-108028472D01*
X186927376Y-108305581D01*
X186876518Y-108577506D01*
X186828029Y-108838666D01*
X186782962Y-109083483D01*
X186742370Y-109306376D01*
X186707306Y-109501765D01*
X186678824Y-109664071D01*
X186657977Y-109787714D01*
X186645819Y-109867114D01*
X186643403Y-109896692D01*
X186108653Y-109896692D01*
X186124551Y-109806630D01*
X186154979Y-109639934D01*
X186192440Y-109438526D01*
X186235903Y-109207711D01*
X186284337Y-108952792D01*
X186336708Y-108679074D01*
X186391987Y-108391862D01*
X186449140Y-108096458D01*
X186507136Y-107798167D01*
X186564944Y-107502294D01*
X186621531Y-107214141D01*
X186675865Y-106939014D01*
X186726916Y-106682217D01*
X186773651Y-106449052D01*
X186815038Y-106244826D01*
X186850045Y-106074841D01*
X186877642Y-105944402D01*
X186896796Y-105858812D01*
X186906474Y-105823377D01*
X186929584Y-105791588D01*
X186987409Y-105744006D01*
X186988467Y-105743515D01*
X187030807Y-105734070D01*
X187123113Y-105719040D01*
X187259726Y-105699179D01*
X187434986Y-105675246D01*
X187643231Y-105647997D01*
X187878800Y-105618188D01*
X188136035Y-105586577D01*
X188409273Y-105553920D01*
X189777244Y-105392677D01*
X189838911Y-105264616D01*
X189843253Y-105255728D01*
X189884468Y-105176166D01*
X189945250Y-105063655D01*
X190018127Y-104931881D01*
X190095622Y-104794531D01*
X190118530Y-104754177D01*
X190186173Y-104632667D01*
X190240818Y-104530984D01*
X190277353Y-104458791D01*
X190290667Y-104425752D01*
X190290666Y-104425689D01*
X190278637Y-104395036D01*
X190244656Y-104318591D01*
X190191086Y-104201430D01*
X190120289Y-104048633D01*
X190034631Y-103865277D01*
X189936472Y-103656440D01*
X189828178Y-103427200D01*
X189712111Y-103182635D01*
X189701326Y-103159954D01*
X189547580Y-102834669D01*
X189418910Y-102558422D01*
X189314799Y-102330038D01*
X189234726Y-102148340D01*
X189178175Y-102012153D01*
X189144624Y-101920299D01*
X189133556Y-101871604D01*
X189133580Y-101867850D01*
X189139506Y-101822470D01*
X189160475Y-101775605D01*
X189203173Y-101718141D01*
X189274286Y-101640963D01*
X189380500Y-101534956D01*
X189415159Y-101501180D01*
X189519961Y-101400346D01*
X189652965Y-101273711D01*
X189810091Y-101125066D01*
X189987262Y-100958203D01*
X190180399Y-100776912D01*
X190385422Y-100584985D01*
X190598253Y-100386213D01*
X190814813Y-100184387D01*
X191031024Y-99983298D01*
X191242807Y-99786738D01*
X191446083Y-99598497D01*
X191636774Y-99422368D01*
X191810800Y-99262140D01*
X191964083Y-99121606D01*
X192092545Y-99004556D01*
X192192106Y-98914781D01*
X192258688Y-98856074D01*
X192288212Y-98832224D01*
X192332872Y-98814200D01*
X192408063Y-98800666D01*
X192409397Y-98800782D01*
X192449748Y-98816665D01*
X192533723Y-98857478D01*
X192656307Y-98920543D01*
X192812486Y-99003184D01*
X192997245Y-99102723D01*
X193205571Y-99216482D01*
X193432448Y-99341785D01*
X193672863Y-99475955D01*
X194876778Y-100151243D01*
X195218250Y-99986567D01*
X195224832Y-99983395D01*
X195367956Y-99915171D01*
X195507312Y-99850013D01*
X195627255Y-99795165D01*
X195712139Y-99757872D01*
X195779622Y-99729510D01*
X195842998Y-99702832D01*
X195869332Y-99691686D01*
X195875166Y-99664999D01*
X195890282Y-99588163D01*
X195913642Y-99466594D01*
X195944221Y-99305707D01*
X195980995Y-99110915D01*
X196022938Y-98887634D01*
X196069024Y-98641278D01*
X196118229Y-98377261D01*
X196165067Y-98127024D01*
X196213142Y-97873429D01*
X196257968Y-97640240D01*
X196298391Y-97433308D01*
X196333255Y-97258486D01*
X196361407Y-97121626D01*
X196381689Y-97028581D01*
X196392949Y-96985202D01*
X196428754Y-96922120D01*
X196482719Y-96868115D01*
X196493908Y-96864134D01*
X196557637Y-96850983D01*
X196672945Y-96831946D01*
X196836762Y-96807441D01*
X197046019Y-96777890D01*
X197297649Y-96743711D01*
X197588582Y-96705326D01*
X197915749Y-96663154D01*
X198276083Y-96617616D01*
X198666515Y-96569132D01*
X200791140Y-96307439D01*
X200866715Y-96363864D01*
X200868690Y-96365421D01*
X200895657Y-96397263D01*
X200934304Y-96458986D01*
X200986187Y-96553711D01*
X201052863Y-96684561D01*
X201135888Y-96854657D01*
X201236817Y-97067122D01*
X201357207Y-97325077D01*
X201498614Y-97631644D01*
X201606640Y-97866598D01*
X201713120Y-98097648D01*
X201810595Y-98308608D01*
X201896648Y-98494274D01*
X201968862Y-98649442D01*
X202024821Y-98768908D01*
X202062107Y-98847466D01*
X202078303Y-98879911D01*
X202104480Y-98891960D01*
X202177021Y-98913200D01*
X202285102Y-98940477D01*
X202418196Y-98971529D01*
X202565777Y-99004098D01*
X202717320Y-99035923D01*
X202862299Y-99064743D01*
X202990188Y-99088299D01*
X203090462Y-99104331D01*
X203152595Y-99110579D01*
X203179473Y-99091846D01*
X203243016Y-99037895D01*
X203339078Y-98952515D01*
X203463515Y-98839497D01*
X203612186Y-98702629D01*
X203780948Y-98545703D01*
X203965661Y-98372508D01*
X204162180Y-98186833D01*
X204352310Y-98007275D01*
X204541332Y-97830286D01*
X204716069Y-97668201D01*
X204872106Y-97525042D01*
X205005030Y-97404831D01*
X205110425Y-97311590D01*
X205183879Y-97249340D01*
X205220976Y-97222104D01*
X205221221Y-97221986D01*
X205282647Y-97198633D01*
X205336157Y-97201377D01*
X205409940Y-97231641D01*
X205414113Y-97233653D01*
X205478832Y-97266846D01*
X205584830Y-97323305D01*
X205727333Y-97400373D01*
X205901564Y-97495392D01*
X206102750Y-97605707D01*
X206326114Y-97728659D01*
X206566881Y-97861592D01*
X206820277Y-98001850D01*
X207081525Y-98146775D01*
X207345851Y-98293710D01*
X207608480Y-98439999D01*
X207864636Y-98582984D01*
X208109543Y-98720009D01*
X208338428Y-98848416D01*
X208546514Y-98965550D01*
X208729026Y-99068752D01*
X208881190Y-99155367D01*
X208998229Y-99222737D01*
X209075369Y-99268205D01*
X209107834Y-99289115D01*
X209146193Y-99338166D01*
X209172594Y-99433530D01*
X209167940Y-99474922D01*
X209153184Y-99566866D01*
X209129387Y-99702710D01*
X209097634Y-99876601D01*
X209059008Y-100082683D01*
X209014597Y-100315101D01*
X208965484Y-100568002D01*
X208912756Y-100835529D01*
X208651657Y-102150726D01*
X209017329Y-102550659D01*
X209383000Y-102950592D01*
X209524111Y-102940003D01*
X209556296Y-102936904D01*
X209647147Y-102926627D01*
X209783171Y-102910324D01*
X209957883Y-102888804D01*
X210164800Y-102862875D01*
X210397439Y-102833346D01*
X210649314Y-102801025D01*
X210913943Y-102766720D01*
X210948006Y-102762276D01*
X211251313Y-102722306D01*
X211504186Y-102689125D01*
X211711782Y-102663386D01*
X211879258Y-102645742D01*
X212011769Y-102636847D01*
X212114474Y-102637354D01*
X212192527Y-102647917D01*
X212251086Y-102669187D01*
X212295306Y-102701820D01*
X212330345Y-102746467D01*
X212361360Y-102803783D01*
X212393505Y-102874421D01*
X212431938Y-102959033D01*
X212509342Y-103123263D01*
X212710368Y-103550580D01*
X212903186Y-103961578D01*
X213086462Y-104353367D01*
X213258865Y-104723058D01*
X213419062Y-105067761D01*
X213565720Y-105384586D01*
X213697506Y-105670645D01*
X213813089Y-105923047D01*
X213911136Y-106138903D01*
X213990313Y-106315323D01*
X214049290Y-106449418D01*
X214086732Y-106538298D01*
X214101308Y-106579073D01*
X214102904Y-106655660D01*
X214084527Y-106726389D01*
X214065010Y-106749569D01*
X214006928Y-106809055D01*
X213915118Y-106899167D01*
X213793883Y-107015800D01*
X213647526Y-107154848D01*
X213480348Y-107312203D01*
X213296652Y-107483758D01*
X213100741Y-107665409D01*
X212937309Y-107816426D01*
X212750288Y-107989278D01*
X212578469Y-108148123D01*
X212426228Y-108288912D01*
X212297941Y-108407597D01*
X212197987Y-108500129D01*
X212130742Y-108562458D01*
X212100583Y-108590538D01*
X212097023Y-108593991D01*
X212081918Y-108613440D01*
X212072569Y-108641338D01*
X212069265Y-108685602D01*
X212072296Y-108754147D01*
X212081950Y-108854889D01*
X212098517Y-108995744D01*
X212122286Y-109184629D01*
X212125358Y-109208691D01*
X212146931Y-109375134D01*
X212166236Y-109519850D01*
X212182088Y-109634268D01*
X212193306Y-109709818D01*
X212198704Y-109737930D01*
X212198752Y-109737963D01*
X212225244Y-109752636D01*
X212296354Y-109791589D01*
X212407245Y-109852184D01*
X212553079Y-109931781D01*
X212729020Y-110027742D01*
X212930230Y-110137426D01*
X213151872Y-110258194D01*
X213389108Y-110387408D01*
X213624777Y-110516204D01*
X213850262Y-110640341D01*
X214056650Y-110754868D01*
X214238846Y-110856918D01*
X214391756Y-110943619D01*
X214510286Y-111012103D01*
X214589342Y-111059500D01*
X214623830Y-111082941D01*
X214658747Y-111142603D01*
X214674667Y-111238838D01*
X214674183Y-111246662D01*
X214665829Y-111306900D01*
X214647940Y-111415210D01*
X214647905Y-111415424D01*
G37*
G36*
X215023919Y-122161997D02*
G01*
X215021756Y-122282522D01*
X215016373Y-122434961D01*
X215008356Y-122609501D01*
X214998287Y-122796329D01*
X214986749Y-122985630D01*
X214974327Y-123167591D01*
X214961604Y-123332399D01*
X214949162Y-123470239D01*
X214937587Y-123571299D01*
X214927461Y-123625765D01*
X214894969Y-123693927D01*
X214805085Y-123793789D01*
X214683978Y-123867839D01*
X214546523Y-123908050D01*
X214407594Y-123906390D01*
X214387919Y-123902085D01*
X214334774Y-123883156D01*
X214277264Y-123849722D01*
X214210107Y-123796962D01*
X214128024Y-123720053D01*
X214025735Y-123614175D01*
X213897960Y-123474505D01*
X213739417Y-123296222D01*
X213390556Y-122900673D01*
X213369674Y-123063836D01*
X213365482Y-123102599D01*
X213356644Y-123206149D01*
X213346076Y-123349718D01*
X213334481Y-123523096D01*
X213322558Y-123716075D01*
X213311009Y-123918444D01*
X213307431Y-123983038D01*
X213294297Y-124201327D01*
X213281909Y-124371441D01*
X213269548Y-124499940D01*
X213256499Y-124593384D01*
X213242044Y-124658334D01*
X213225466Y-124701352D01*
X213220051Y-124710036D01*
X213175432Y-124762868D01*
X213097179Y-124844040D01*
X212992506Y-124946946D01*
X212868625Y-125064980D01*
X212732749Y-125191537D01*
X212592091Y-125320011D01*
X212453864Y-125443797D01*
X212325282Y-125556289D01*
X212213557Y-125650881D01*
X212125903Y-125720968D01*
X212069532Y-125759944D01*
X211983740Y-125795804D01*
X211839458Y-125811469D01*
X211697047Y-125777588D01*
X211566629Y-125697247D01*
X211458328Y-125573534D01*
X211388768Y-125466548D01*
X211342389Y-125602993D01*
X211292356Y-125732200D01*
X211147595Y-126001765D01*
X210960267Y-126247723D01*
X210739750Y-126456787D01*
X210668053Y-126510276D01*
X210513103Y-126612639D01*
X210329748Y-126722108D01*
X210132812Y-126830641D01*
X209937122Y-126930198D01*
X209757502Y-127012737D01*
X209608778Y-127070217D01*
X209535610Y-127093235D01*
X209432384Y-127119485D01*
X209328471Y-127135390D01*
X209205308Y-127143446D01*
X209044334Y-127146151D01*
X208913689Y-127144783D01*
X208711498Y-127130456D01*
X208529985Y-127096870D01*
X208347091Y-127039311D01*
X208140755Y-126953065D01*
X207942733Y-126863316D01*
X207943200Y-127034825D01*
X207943197Y-127035696D01*
X207943101Y-127064578D01*
X207940685Y-127114975D01*
X207932693Y-127164203D01*
X207915968Y-127219457D01*
X207887355Y-127287932D01*
X207843697Y-127376825D01*
X207781837Y-127493328D01*
X207698620Y-127644639D01*
X207590889Y-127837951D01*
X207580473Y-127856583D01*
X207450278Y-128085680D01*
X207343089Y-128266378D01*
X207257470Y-128400939D01*
X207191985Y-128491628D01*
X207145199Y-128540708D01*
X207077548Y-128580330D01*
X206947320Y-128619606D01*
X206809070Y-128628452D01*
X206687975Y-128603415D01*
X206662466Y-128591474D01*
X206552360Y-128506914D01*
X206462141Y-128384497D01*
X206403548Y-128239252D01*
X206387872Y-128183950D01*
X206364463Y-128120173D01*
X206347200Y-128095333D01*
X206345740Y-128095546D01*
X206321718Y-128122584D01*
X206292191Y-128181149D01*
X206249964Y-128265712D01*
X206175933Y-128376542D01*
X206093960Y-128470150D01*
X206018057Y-128528771D01*
X205997149Y-128538235D01*
X205913861Y-128568423D01*
X205793253Y-128606700D01*
X205647728Y-128649647D01*
X205489684Y-128693848D01*
X205331522Y-128735883D01*
X205185643Y-128772334D01*
X205064447Y-128799785D01*
X204980334Y-128814815D01*
X204896599Y-128821399D01*
X204665914Y-128805662D01*
X204427837Y-128746756D01*
X204194522Y-128650343D01*
X203978123Y-128522085D01*
X203790795Y-128367642D01*
X203644692Y-128192676D01*
X203559804Y-128064518D01*
X203471997Y-128229260D01*
X203326733Y-128459551D01*
X203113662Y-128705175D01*
X202862635Y-128915896D01*
X202581445Y-129084232D01*
X202454421Y-129143364D01*
X202313728Y-129197808D01*
X202169924Y-129238742D01*
X202009679Y-129269200D01*
X201819664Y-129292220D01*
X201586550Y-129310835D01*
X201536368Y-129314012D01*
X201201589Y-129322582D01*
X200908111Y-129303941D01*
X200647317Y-129255219D01*
X200410587Y-129173545D01*
X200189303Y-129056051D01*
X199974849Y-128899865D01*
X199758606Y-128702118D01*
X199750456Y-128693957D01*
X199546903Y-128464102D01*
X199391252Y-128227979D01*
X199278776Y-127975048D01*
X199204754Y-127694773D01*
X199164462Y-127376615D01*
X199164226Y-127373381D01*
X199157829Y-127271689D01*
X199632222Y-127271689D01*
X199635593Y-127389877D01*
X199676175Y-127672870D01*
X199764835Y-127930032D01*
X199904234Y-128167779D01*
X200097031Y-128392524D01*
X200308322Y-128575407D01*
X200547685Y-128720082D01*
X200804617Y-128814119D01*
X200877910Y-128828868D01*
X201034214Y-128845483D01*
X201222591Y-128853076D01*
X201428426Y-128852109D01*
X201637105Y-128843047D01*
X201834014Y-128826354D01*
X202004538Y-128802492D01*
X202134064Y-128771927D01*
X202313048Y-128700664D01*
X202558106Y-128556946D01*
X202777452Y-128373015D01*
X202963585Y-128156666D01*
X203109004Y-127915692D01*
X203206208Y-127657889D01*
X203207990Y-127651055D01*
X203231089Y-127512386D01*
X203241944Y-127341087D01*
X203240662Y-127158332D01*
X203227349Y-126985293D01*
X203202111Y-126843143D01*
X203159714Y-126702479D01*
X203073707Y-126506522D01*
X202955164Y-126326478D01*
X202793816Y-126144784D01*
X202760280Y-126112424D01*
X203533238Y-126112424D01*
X203533470Y-126325375D01*
X203575978Y-126539854D01*
X203657535Y-126740761D01*
X203774915Y-126912995D01*
X203803852Y-126946711D01*
X203836013Y-126993585D01*
X203851058Y-127043540D01*
X203853044Y-127114291D01*
X203846027Y-127223554D01*
X203846965Y-127341087D01*
X203847657Y-127427801D01*
X203895453Y-127660068D01*
X203990590Y-127868038D01*
X204129802Y-128046572D01*
X204309819Y-128190532D01*
X204527374Y-128294779D01*
X204559818Y-128305608D01*
X204694196Y-128337070D01*
X204836510Y-128346415D01*
X204997427Y-128332919D01*
X205187615Y-128295861D01*
X205417739Y-128234519D01*
X205466181Y-128220287D01*
X205597935Y-128179918D01*
X205705359Y-128144569D01*
X205778444Y-128117634D01*
X205807179Y-128102506D01*
X205809466Y-128097801D01*
X205833238Y-128053445D01*
X205879040Y-127969841D01*
X205942703Y-127854546D01*
X206020060Y-127715117D01*
X206106941Y-127559111D01*
X206137349Y-127504450D01*
X206219827Y-127354494D01*
X206290054Y-127224323D01*
X206344155Y-127121279D01*
X206378253Y-127052703D01*
X206388473Y-127025934D01*
X206386843Y-127025657D01*
X206348135Y-127033187D01*
X206263504Y-127054162D01*
X206139855Y-127086735D01*
X205984091Y-127129062D01*
X205803118Y-127179298D01*
X205603840Y-127235597D01*
X205461039Y-127276118D01*
X205259211Y-127332487D01*
X205102169Y-127374716D01*
X204984083Y-127404115D01*
X204899123Y-127421992D01*
X204841459Y-127429659D01*
X204805261Y-127428424D01*
X204784701Y-127419596D01*
X204754195Y-127381204D01*
X204743169Y-127312998D01*
X204775813Y-127254447D01*
X204776897Y-127253657D01*
X204817014Y-127237025D01*
X204902004Y-127208369D01*
X205023628Y-127170054D01*
X205173644Y-127124447D01*
X205343810Y-127073914D01*
X205525886Y-127020820D01*
X205711631Y-126967532D01*
X205892803Y-126916415D01*
X206061161Y-126869836D01*
X206208464Y-126830160D01*
X206326471Y-126799753D01*
X206406941Y-126780981D01*
X206441633Y-126776211D01*
X206452371Y-126793835D01*
X206477848Y-126859298D01*
X206514087Y-126965964D01*
X206558662Y-127106363D01*
X206609150Y-127273028D01*
X206663126Y-127458490D01*
X206704486Y-127602698D01*
X206754310Y-127774467D01*
X206797694Y-127921838D01*
X206832408Y-128037333D01*
X206856226Y-128113471D01*
X206866920Y-128142772D01*
X206871731Y-128139744D01*
X206899229Y-128100661D01*
X206946241Y-128023976D01*
X207008102Y-127918137D01*
X207080151Y-127791593D01*
X207157723Y-127652791D01*
X207236155Y-127510181D01*
X207310784Y-127372211D01*
X207376946Y-127247329D01*
X207429978Y-127143984D01*
X207465218Y-127070623D01*
X207478000Y-127035696D01*
X207477799Y-127033415D01*
X207467960Y-126989755D01*
X207444701Y-126900089D01*
X207409923Y-126771109D01*
X207365529Y-126609508D01*
X207313421Y-126421980D01*
X207255500Y-126215215D01*
X207193669Y-125995909D01*
X207129829Y-125770752D01*
X207065882Y-125546439D01*
X207003731Y-125329660D01*
X206945276Y-125127111D01*
X206901381Y-124976272D01*
X207442096Y-124976272D01*
X207445794Y-125256742D01*
X207499696Y-125532387D01*
X207603136Y-125796981D01*
X207755447Y-126044300D01*
X207955960Y-126268118D01*
X208121237Y-126402860D01*
X208367471Y-126543156D01*
X208648096Y-126640801D01*
X208659450Y-126643601D01*
X208776790Y-126664059D01*
X208918817Y-126678340D01*
X209057319Y-126683500D01*
X209140765Y-126681335D01*
X209294432Y-126664904D01*
X209447627Y-126629218D01*
X209611714Y-126570564D01*
X209798051Y-126485227D01*
X210018000Y-126369495D01*
X210123086Y-126309145D01*
X210397920Y-126119552D01*
X210620095Y-125911883D01*
X210790772Y-125684365D01*
X210911115Y-125435228D01*
X210982284Y-125162702D01*
X211005443Y-124865015D01*
X211003769Y-124789366D01*
X210965842Y-124503483D01*
X210876872Y-124238982D01*
X210866252Y-124220474D01*
X211384049Y-124220474D01*
X211389884Y-124278278D01*
X211409004Y-124342268D01*
X211432484Y-124380716D01*
X211450279Y-124368993D01*
X211457334Y-124305089D01*
X211456964Y-124284152D01*
X211445212Y-124220176D01*
X211414463Y-124200666D01*
X211407299Y-124201030D01*
X211384049Y-124220474D01*
X210866252Y-124220474D01*
X210735436Y-123992485D01*
X210540111Y-123760613D01*
X210392090Y-123626038D01*
X210160116Y-123471240D01*
X209908092Y-123367129D01*
X209631728Y-123312095D01*
X209326735Y-123304524D01*
X209275397Y-123307345D01*
X209143839Y-123319331D01*
X209026738Y-123340332D01*
X208911639Y-123374542D01*
X208786083Y-123426152D01*
X208637616Y-123499355D01*
X208453779Y-123598344D01*
X208400107Y-123628165D01*
X208206818Y-123741932D01*
X208053554Y-123845612D01*
X207930113Y-123947401D01*
X207826292Y-124055491D01*
X207731889Y-124178076D01*
X207587986Y-124425754D01*
X207489271Y-124697201D01*
X207442096Y-124976272D01*
X206901381Y-124976272D01*
X206892421Y-124945482D01*
X206847067Y-124791467D01*
X206811116Y-124671759D01*
X206786470Y-124593049D01*
X206775032Y-124562032D01*
X206774263Y-124561672D01*
X206738640Y-124567071D01*
X206654705Y-124586637D01*
X206527733Y-124618955D01*
X206362997Y-124662611D01*
X206165770Y-124716189D01*
X205941328Y-124778275D01*
X205694943Y-124847455D01*
X205431889Y-124922313D01*
X205364739Y-124941556D01*
X205064848Y-125027833D01*
X204813436Y-125100926D01*
X204605593Y-125162438D01*
X204436407Y-125213973D01*
X204300968Y-125257133D01*
X204194367Y-125293520D01*
X204111693Y-125324739D01*
X204048036Y-125352391D01*
X203998485Y-125378079D01*
X203958131Y-125403408D01*
X203927323Y-125425764D01*
X203779885Y-125568166D01*
X203656294Y-125746782D01*
X203568183Y-125945444D01*
X203533238Y-126112424D01*
X202760280Y-126112424D01*
X202709966Y-126063875D01*
X202515644Y-125909515D01*
X202308901Y-125794769D01*
X202071969Y-125708907D01*
X202028271Y-125697091D01*
X201953798Y-125682187D01*
X201869105Y-125673298D01*
X201762666Y-125669839D01*
X201622954Y-125671228D01*
X201438445Y-125676883D01*
X201202454Y-125689506D01*
X200954148Y-125716568D01*
X200744183Y-125759536D01*
X200563024Y-125821834D01*
X200531856Y-125838210D01*
X200401135Y-125906891D01*
X200248983Y-126018132D01*
X200097031Y-126158985D01*
X200011041Y-126251106D01*
X199840919Y-126479814D01*
X199723026Y-126721477D01*
X199654436Y-126983100D01*
X199632222Y-127271689D01*
X199157829Y-127271689D01*
X199157355Y-127264151D01*
X199149374Y-127188589D01*
X199131282Y-127139055D01*
X199094078Y-127107909D01*
X199028761Y-127087510D01*
X198926330Y-127070218D01*
X198777784Y-127048392D01*
X198752062Y-127044624D01*
X198650083Y-127032969D01*
X198573903Y-127029427D01*
X198538416Y-127034843D01*
X198537076Y-127037522D01*
X198526369Y-127081382D01*
X198508205Y-127173404D01*
X198483666Y-127307463D01*
X198453830Y-127477434D01*
X198419778Y-127677193D01*
X198382588Y-127900616D01*
X198343340Y-128141578D01*
X198311553Y-128338213D01*
X198271816Y-128580936D01*
X198238735Y-128777323D01*
X198211132Y-128932971D01*
X198187833Y-129053474D01*
X198167661Y-129144430D01*
X198149440Y-129211434D01*
X198131995Y-129260084D01*
X198114150Y-129295974D01*
X198094727Y-129324701D01*
X198045448Y-129382784D01*
X197942505Y-129461468D01*
X197811889Y-129506111D01*
X197752752Y-129514844D01*
X197605115Y-129499363D01*
X197466954Y-129428419D01*
X197337937Y-129301866D01*
X197284252Y-129232635D01*
X197208744Y-129131628D01*
X197117581Y-129007459D01*
X197016902Y-128868705D01*
X196912845Y-128723945D01*
X196811550Y-128581757D01*
X196719155Y-128450719D01*
X196641798Y-128339408D01*
X196585619Y-128256402D01*
X196556757Y-128210281D01*
X196546969Y-128188856D01*
X196530970Y-128125962D01*
X196525108Y-128040226D01*
X196529787Y-127925193D01*
X196545409Y-127774406D01*
X196572377Y-127581410D01*
X196611094Y-127339748D01*
X196637053Y-127181612D01*
X196661087Y-127029987D01*
X196680104Y-126904331D01*
X196692611Y-126814536D01*
X196697111Y-126770491D01*
X196694957Y-126747106D01*
X196682192Y-126727760D01*
X196649779Y-126711726D01*
X196588686Y-126696010D01*
X196489882Y-126677617D01*
X196344334Y-126653555D01*
X196295040Y-126645266D01*
X196206467Y-126625317D01*
X196140811Y-126596030D01*
X196077903Y-126546483D01*
X195997573Y-126465752D01*
X195981366Y-126448957D01*
X195912060Y-126380164D01*
X195861033Y-126334360D01*
X195838359Y-126320723D01*
X195830499Y-126340960D01*
X195806821Y-126409417D01*
X195769543Y-126520210D01*
X195720722Y-126667140D01*
X195662416Y-126844011D01*
X195596684Y-127044622D01*
X195525583Y-127262778D01*
X195470162Y-127432313D01*
X195399335Y-127646231D01*
X195333645Y-127841629D01*
X195275511Y-128011461D01*
X195227349Y-128148681D01*
X195191579Y-128246243D01*
X195170619Y-128297100D01*
X195161030Y-128314939D01*
X195066540Y-128426814D01*
X194937148Y-128497575D01*
X194780195Y-128522974D01*
X194766176Y-128522510D01*
X194679090Y-128509246D01*
X194554924Y-128480435D01*
X194405158Y-128439735D01*
X194241272Y-128390803D01*
X194074743Y-128337296D01*
X193917052Y-128282873D01*
X193779677Y-128231190D01*
X193674097Y-128185906D01*
X193611792Y-128150679D01*
X193531296Y-128058791D01*
X193473150Y-127931057D01*
X193451556Y-127792973D01*
X193453036Y-127768302D01*
X193920339Y-127768302D01*
X193927142Y-127775647D01*
X193976291Y-127800670D01*
X194065194Y-127837272D01*
X194184711Y-127881795D01*
X194325704Y-127930580D01*
X194401398Y-127955768D01*
X194535554Y-127999815D01*
X194645482Y-128035128D01*
X194721435Y-128058597D01*
X194753662Y-128067111D01*
X194756324Y-128063553D01*
X194774517Y-128019676D01*
X194807021Y-127930896D01*
X194851700Y-127803687D01*
X194906416Y-127644525D01*
X194969033Y-127459884D01*
X195037415Y-127256237D01*
X195109424Y-127040059D01*
X195182925Y-126817824D01*
X195255780Y-126596008D01*
X195325853Y-126381083D01*
X195391008Y-126179524D01*
X195449108Y-125997806D01*
X195498015Y-125842404D01*
X195535595Y-125719790D01*
X195559710Y-125636440D01*
X195568222Y-125598829D01*
X195567855Y-125595562D01*
X195551922Y-125550482D01*
X195515669Y-125467538D01*
X195463548Y-125355614D01*
X195400010Y-125223598D01*
X195378640Y-125180187D01*
X195660349Y-125180187D01*
X195687203Y-125237585D01*
X195749348Y-125338256D01*
X195846597Y-125481901D01*
X195929539Y-125598829D01*
X195978762Y-125668222D01*
X196018190Y-125722766D01*
X196121759Y-125864366D01*
X196213791Y-125987825D01*
X196288990Y-126086178D01*
X196342062Y-126152463D01*
X196367712Y-126179716D01*
X196378602Y-126183426D01*
X196438477Y-126196797D01*
X196538665Y-126215576D01*
X196668436Y-126237808D01*
X196817056Y-126261538D01*
X196859471Y-126268133D01*
X197013651Y-126293555D01*
X197120808Y-126314617D01*
X197188289Y-126333248D01*
X197223442Y-126351376D01*
X197233613Y-126370933D01*
X197233480Y-126373967D01*
X197227616Y-126421778D01*
X197213899Y-126516434D01*
X197193487Y-126650435D01*
X197167537Y-126816278D01*
X197137206Y-127006462D01*
X197103651Y-127213485D01*
X196973410Y-128010859D01*
X197336205Y-128517973D01*
X197385152Y-128586202D01*
X197486886Y-128726743D01*
X197575580Y-128847562D01*
X197646335Y-128942079D01*
X197694248Y-129003711D01*
X197714419Y-129025877D01*
X197719976Y-129007826D01*
X197734071Y-128939522D01*
X197755296Y-128825555D01*
X197782682Y-128671467D01*
X197815264Y-128482797D01*
X197852075Y-128265086D01*
X197892147Y-128023874D01*
X197934513Y-127764702D01*
X197968991Y-127553027D01*
X198009448Y-127307035D01*
X198046709Y-127083077D01*
X198079815Y-126886767D01*
X198107811Y-126723724D01*
X198129740Y-126599563D01*
X198144645Y-126519902D01*
X198151570Y-126490356D01*
X198163611Y-126489840D01*
X198223514Y-126495915D01*
X198326386Y-126509647D01*
X198464324Y-126529903D01*
X198629422Y-126555547D01*
X198813778Y-126585444D01*
X198926506Y-126603809D01*
X199100610Y-126630999D01*
X199250910Y-126653019D01*
X199369449Y-126668774D01*
X199448269Y-126677166D01*
X199479417Y-126677102D01*
X199482701Y-126671290D01*
X199496471Y-126621424D01*
X199514485Y-126532365D01*
X199534966Y-126415957D01*
X199556136Y-126284044D01*
X199576217Y-126148470D01*
X199593433Y-126021077D01*
X199606004Y-125913709D01*
X199612153Y-125838210D01*
X199610104Y-125806423D01*
X199605773Y-125804786D01*
X199557596Y-125794330D01*
X199460936Y-125776287D01*
X199321261Y-125751543D01*
X199144038Y-125720988D01*
X198934735Y-125685508D01*
X198698817Y-125645990D01*
X198441754Y-125603322D01*
X198169011Y-125558391D01*
X197886056Y-125512085D01*
X197598357Y-125465292D01*
X197311380Y-125418898D01*
X197030594Y-125373791D01*
X196761464Y-125330859D01*
X196509459Y-125290989D01*
X196280046Y-125255068D01*
X196078691Y-125223984D01*
X195910862Y-125198625D01*
X195782027Y-125179877D01*
X195697653Y-125168629D01*
X195663206Y-125165767D01*
X195660349Y-125180187D01*
X195378640Y-125180187D01*
X195329505Y-125080375D01*
X195256486Y-124934831D01*
X195185403Y-124795854D01*
X195120707Y-124672329D01*
X195066850Y-124573142D01*
X195028283Y-124507180D01*
X195009457Y-124483329D01*
X194999610Y-124506061D01*
X194973849Y-124577106D01*
X194934164Y-124690977D01*
X194882411Y-124842074D01*
X194820448Y-125024798D01*
X194750129Y-125233550D01*
X194685809Y-125425447D01*
X194673312Y-125462732D01*
X194591853Y-125706744D01*
X194507608Y-125959986D01*
X194422433Y-126216860D01*
X194338186Y-126471767D01*
X194256721Y-126719107D01*
X194179897Y-126953282D01*
X194109568Y-127168692D01*
X194047592Y-127359738D01*
X193995825Y-127520821D01*
X193956123Y-127646342D01*
X193930342Y-127730702D01*
X193920339Y-127768302D01*
X193453036Y-127768302D01*
X193453072Y-127767700D01*
X193468830Y-127675246D01*
X193498059Y-127556940D01*
X193536222Y-127432111D01*
X193556480Y-127371612D01*
X193589565Y-127269910D01*
X193612384Y-127195771D01*
X193620889Y-127162100D01*
X193610812Y-127161661D01*
X193560758Y-127179641D01*
X193478246Y-127216237D01*
X193373945Y-127266921D01*
X193362537Y-127272640D01*
X193102766Y-127386456D01*
X192855773Y-127458646D01*
X192602372Y-127493369D01*
X192323379Y-127494788D01*
X192227095Y-127489390D01*
X192062288Y-127473228D01*
X191925493Y-127447666D01*
X191797736Y-127409631D01*
X191767100Y-127397647D01*
X191676209Y-127357432D01*
X191545520Y-127296244D01*
X191381648Y-127217387D01*
X191191206Y-127124163D01*
X190980810Y-127019878D01*
X190757073Y-126907833D01*
X190526609Y-126791333D01*
X190296034Y-126673681D01*
X190071961Y-126558179D01*
X189861004Y-126448133D01*
X189669778Y-126346845D01*
X189598948Y-126311511D01*
X189490486Y-126264718D01*
X189401667Y-126234339D01*
X189384343Y-126228134D01*
X189339891Y-126204226D01*
X189276262Y-126162051D01*
X189190517Y-126099279D01*
X189079716Y-126013576D01*
X188962072Y-125919521D01*
X189895556Y-125919521D01*
X189909884Y-125932000D01*
X189968494Y-125967858D01*
X190066338Y-126022816D01*
X190196954Y-126093571D01*
X190353879Y-126176816D01*
X190530650Y-126269249D01*
X190720806Y-126367563D01*
X190917883Y-126468454D01*
X191115420Y-126568618D01*
X191306952Y-126664750D01*
X191486019Y-126753545D01*
X191646158Y-126831698D01*
X191780905Y-126895905D01*
X191883799Y-126942861D01*
X191948377Y-126969261D01*
X192117390Y-127012096D01*
X192330660Y-127036506D01*
X192548437Y-127035869D01*
X192746000Y-127008956D01*
X192887108Y-126970841D01*
X193162325Y-126855382D01*
X193406397Y-126693956D01*
X193616703Y-126488902D01*
X193790619Y-126242558D01*
X193925524Y-125957261D01*
X193950110Y-125882645D01*
X193992679Y-125664031D01*
X194004324Y-125425447D01*
X193984870Y-125186685D01*
X193934146Y-124967533D01*
X193867760Y-124798163D01*
X193724755Y-124547031D01*
X193542181Y-124327320D01*
X193327044Y-124148484D01*
X193317741Y-124142461D01*
X193254741Y-124105754D01*
X193152677Y-124049624D01*
X193017484Y-123977113D01*
X192855100Y-123891264D01*
X192671461Y-123795120D01*
X192472504Y-123691723D01*
X192264166Y-123584118D01*
X192052382Y-123475345D01*
X191843091Y-123368449D01*
X191642228Y-123266473D01*
X191455730Y-123172458D01*
X191289535Y-123089449D01*
X191149577Y-123020487D01*
X191041795Y-122968616D01*
X190972125Y-122936879D01*
X190946503Y-122928318D01*
X190946344Y-122930810D01*
X190955595Y-122972390D01*
X190979181Y-123055922D01*
X191014029Y-123171853D01*
X191022379Y-123198778D01*
X191057068Y-123310633D01*
X191105226Y-123462711D01*
X191155430Y-123618536D01*
X191204610Y-123768557D01*
X191249693Y-123903223D01*
X191287608Y-124012983D01*
X191315282Y-124088287D01*
X191329645Y-124119583D01*
X191332210Y-124121376D01*
X191372230Y-124143843D01*
X191454532Y-124187786D01*
X191572638Y-124249815D01*
X191720071Y-124326543D01*
X191890352Y-124414581D01*
X192077005Y-124510540D01*
X192109714Y-124527337D01*
X192298663Y-124625402D01*
X192473373Y-124717763D01*
X192626614Y-124800474D01*
X192751153Y-124869593D01*
X192839760Y-124921177D01*
X192885203Y-124951280D01*
X192905913Y-124969930D01*
X193000720Y-125095627D01*
X193064150Y-125251434D01*
X193093133Y-125421278D01*
X193091742Y-125448647D01*
X193084603Y-125589084D01*
X193035492Y-125738778D01*
X192926522Y-125899055D01*
X192782111Y-126021037D01*
X192608384Y-126094932D01*
X192406930Y-126119778D01*
X192387817Y-126119682D01*
X192344007Y-126117853D01*
X192299744Y-126111838D01*
X192249499Y-126099239D01*
X192187739Y-126077663D01*
X192108935Y-126044714D01*
X192007554Y-125997997D01*
X191878065Y-125935117D01*
X191714939Y-125853678D01*
X191512642Y-125751285D01*
X191265646Y-125625543D01*
X190295911Y-125131308D01*
X190197763Y-125308043D01*
X190127921Y-125436495D01*
X190057862Y-125570260D01*
X189994499Y-125695759D01*
X189942929Y-125802678D01*
X189908249Y-125880704D01*
X189895556Y-125919521D01*
X188962072Y-125919521D01*
X188940920Y-125902610D01*
X188771190Y-125764050D01*
X188567587Y-125595562D01*
X188327170Y-125394815D01*
X188047000Y-125159476D01*
X187878081Y-125017023D01*
X187654686Y-124827838D01*
X187445090Y-124649448D01*
X187253505Y-124485485D01*
X187084144Y-124339581D01*
X186941219Y-124215370D01*
X186828943Y-124116484D01*
X186751528Y-124046557D01*
X186713188Y-124009222D01*
X186630320Y-123907191D01*
X186502390Y-123699244D01*
X186416834Y-123471176D01*
X186367752Y-123209324D01*
X186357911Y-123081580D01*
X186360807Y-123029444D01*
X186833445Y-123029444D01*
X186835696Y-123140305D01*
X186853414Y-123306701D01*
X186893482Y-123443518D01*
X186961507Y-123566968D01*
X187063098Y-123693265D01*
X187071424Y-123701965D01*
X187126014Y-123753355D01*
X187218054Y-123835790D01*
X187342988Y-123945341D01*
X187496263Y-124078077D01*
X187673325Y-124230067D01*
X187869619Y-124397380D01*
X188080591Y-124576086D01*
X188301687Y-124762255D01*
X188380949Y-124828792D01*
X188595588Y-125008916D01*
X188796738Y-125177643D01*
X188980153Y-125331416D01*
X189141585Y-125466675D01*
X189276787Y-125579863D01*
X189381510Y-125667422D01*
X189451507Y-125725793D01*
X189482531Y-125751419D01*
X189500409Y-125765018D01*
X189521380Y-125771589D01*
X189525603Y-125742123D01*
X189517105Y-125666752D01*
X189511175Y-125615948D01*
X189500344Y-125510652D01*
X189486864Y-125370711D01*
X189471891Y-125208185D01*
X189456581Y-125035135D01*
X189443226Y-124886208D01*
X189429705Y-124746186D01*
X189900516Y-124746186D01*
X189906440Y-124804300D01*
X189932697Y-124821639D01*
X189967928Y-124790394D01*
X189982979Y-124774038D01*
X190045845Y-124734261D01*
X190133425Y-124695070D01*
X190224974Y-124665063D01*
X190299746Y-124652842D01*
X190327564Y-124659353D01*
X190406641Y-124689999D01*
X190529052Y-124744153D01*
X190691018Y-124820033D01*
X190888759Y-124915858D01*
X191118496Y-125029849D01*
X191376448Y-125160222D01*
X191438747Y-125191903D01*
X191656462Y-125301663D01*
X191858605Y-125402133D01*
X192039414Y-125490543D01*
X192193126Y-125564125D01*
X192313976Y-125620111D01*
X192396202Y-125655733D01*
X192434040Y-125668222D01*
X192482380Y-125657327D01*
X192554970Y-125606551D01*
X192610789Y-125530842D01*
X192633111Y-125448647D01*
X192621247Y-125387861D01*
X192569611Y-125310417D01*
X192561841Y-125304237D01*
X192505295Y-125268038D01*
X192409311Y-125212535D01*
X192282404Y-125142455D01*
X192133092Y-125062525D01*
X191969889Y-124977474D01*
X191949045Y-124966756D01*
X191772594Y-124876013D01*
X191599039Y-124786751D01*
X191440206Y-124705053D01*
X191307919Y-124637000D01*
X191214005Y-124588676D01*
X191126724Y-124541781D01*
X191035036Y-124482699D01*
X190971857Y-124423821D01*
X190922783Y-124353513D01*
X190851223Y-124231406D01*
X190705001Y-124350286D01*
X190641366Y-124398587D01*
X190453656Y-124511805D01*
X190253459Y-124597230D01*
X190062263Y-124645007D01*
X189999430Y-124654941D01*
X189939299Y-124671867D01*
X189911283Y-124698619D01*
X189900737Y-124744190D01*
X189900516Y-124746186D01*
X189429705Y-124746186D01*
X189429139Y-124740329D01*
X189416681Y-124622679D01*
X189406846Y-124542599D01*
X189400630Y-124509432D01*
X189399231Y-124507830D01*
X189367589Y-124479167D01*
X189298385Y-124419109D01*
X189196379Y-124331707D01*
X189066326Y-124221013D01*
X188912986Y-124091079D01*
X188741117Y-123945957D01*
X188555475Y-123789699D01*
X188520588Y-123760339D01*
X188336863Y-123604373D01*
X188168587Y-123459315D01*
X188020432Y-123329346D01*
X187897069Y-123218648D01*
X187803170Y-123131401D01*
X187743405Y-123071789D01*
X187722445Y-123043991D01*
X187727313Y-123013347D01*
X187769627Y-122954711D01*
X187838496Y-122930666D01*
X187846157Y-122933210D01*
X187893778Y-122963421D01*
X187976438Y-123024166D01*
X188088424Y-123110970D01*
X188224025Y-123219355D01*
X188377530Y-123344846D01*
X188543227Y-123482967D01*
X188590368Y-123522517D01*
X188760569Y-123663468D01*
X188921935Y-123794386D01*
X189067663Y-123909931D01*
X189190950Y-124004762D01*
X189284992Y-124073536D01*
X189342987Y-124110911D01*
X189406336Y-124142190D01*
X189471795Y-124165711D01*
X189545671Y-124179080D01*
X189643962Y-124185039D01*
X189782667Y-124186333D01*
X189862073Y-124185850D01*
X189982254Y-124181568D01*
X190070074Y-124170824D01*
X190141401Y-124151174D01*
X190212106Y-124120172D01*
X190368136Y-124025355D01*
X190547709Y-123860729D01*
X190687835Y-123659390D01*
X190693048Y-123649758D01*
X190735888Y-123566373D01*
X190762748Y-123497259D01*
X190777338Y-123424738D01*
X190783370Y-123331137D01*
X190784556Y-123198778D01*
X190784162Y-123125145D01*
X190779779Y-123007075D01*
X190768105Y-122918938D01*
X190746148Y-122842952D01*
X190710914Y-122761333D01*
X190709955Y-122759314D01*
X190684301Y-122707355D01*
X190657104Y-122659395D01*
X190624184Y-122611419D01*
X190581361Y-122559411D01*
X190524456Y-122499356D01*
X190449288Y-122427236D01*
X190351678Y-122339037D01*
X190227446Y-122230742D01*
X190072411Y-122098336D01*
X189882395Y-121937802D01*
X189653218Y-121745126D01*
X189527634Y-121639618D01*
X189323264Y-121467778D01*
X189120167Y-121296850D01*
X188926737Y-121133908D01*
X188751369Y-120986024D01*
X188602456Y-120860270D01*
X188488394Y-120763720D01*
X188381996Y-120674096D01*
X188272695Y-120583500D01*
X188185160Y-120512591D01*
X188126421Y-120467054D01*
X188103507Y-120452569D01*
X188103040Y-120455207D01*
X188104382Y-120498005D01*
X188110172Y-120586319D01*
X188119771Y-120711690D01*
X188132541Y-120865662D01*
X188147843Y-121039778D01*
X188151515Y-121080586D01*
X188167002Y-121254609D01*
X188180490Y-121409227D01*
X188191195Y-121535239D01*
X188198333Y-121623444D01*
X188201119Y-121664640D01*
X188202555Y-121668437D01*
X188233984Y-121704728D01*
X188303017Y-121771819D01*
X188404986Y-121865535D01*
X188535225Y-121981700D01*
X188689067Y-122116138D01*
X188861844Y-122264675D01*
X189048889Y-122423135D01*
X189050883Y-122424812D01*
X189251429Y-122594708D01*
X189431891Y-122749923D01*
X189588344Y-122886938D01*
X189716861Y-123002231D01*
X189813519Y-123092281D01*
X189874393Y-123153568D01*
X189895556Y-123182572D01*
X189890969Y-123212991D01*
X189849306Y-123272951D01*
X189781033Y-123297555D01*
X189779261Y-123297304D01*
X189741601Y-123275683D01*
X189667798Y-123222501D01*
X189563819Y-123142435D01*
X189435634Y-123040163D01*
X189289208Y-122920362D01*
X189130511Y-122787709D01*
X188923846Y-122613651D01*
X188752893Y-122471038D01*
X188614240Y-122357493D01*
X188502648Y-122269100D01*
X188412879Y-122201939D01*
X188339694Y-122152092D01*
X188277854Y-122115641D01*
X188222120Y-122088668D01*
X188167255Y-122067255D01*
X188127066Y-122054884D01*
X187970060Y-122029295D01*
X187791341Y-122026030D01*
X187613740Y-122044539D01*
X187460086Y-122084271D01*
X187388284Y-122115512D01*
X187212624Y-122229449D01*
X187055834Y-122384331D01*
X186930041Y-122569067D01*
X186924928Y-122578514D01*
X186882107Y-122661853D01*
X186855256Y-122730946D01*
X186840667Y-122803462D01*
X186834632Y-122897072D01*
X186833445Y-123029444D01*
X186360807Y-123029444D01*
X186373834Y-122794878D01*
X186443045Y-122524164D01*
X186564493Y-122272752D01*
X186737130Y-122043953D01*
X186849546Y-121932690D01*
X187082897Y-121759982D01*
X187341994Y-121635116D01*
X187620266Y-121561680D01*
X187729754Y-121543849D01*
X187713405Y-121397646D01*
X187710050Y-121365350D01*
X187700678Y-121263509D01*
X187689001Y-121126029D01*
X187676183Y-120966845D01*
X187663392Y-120799889D01*
X187652281Y-120643606D01*
X187644794Y-120509968D01*
X187642955Y-120413521D01*
X187646940Y-120344155D01*
X187656926Y-120291758D01*
X187673091Y-120246220D01*
X187679052Y-120232881D01*
X187761802Y-120115604D01*
X187877555Y-120030152D01*
X188012717Y-119981630D01*
X188153693Y-119975141D01*
X188286889Y-120015789D01*
X188319311Y-120036653D01*
X188397459Y-120094767D01*
X188509697Y-120183005D01*
X188651176Y-120297238D01*
X188817045Y-120433337D01*
X189002455Y-120587173D01*
X189202555Y-120754616D01*
X189412495Y-120931539D01*
X189627426Y-121113811D01*
X189842497Y-121297304D01*
X190052858Y-121477889D01*
X190253658Y-121651437D01*
X190440049Y-121813818D01*
X190607180Y-121960904D01*
X190750201Y-122088566D01*
X190864261Y-122192675D01*
X190944511Y-122269102D01*
X190986101Y-122313717D01*
X191006899Y-122340792D01*
X191034541Y-122373601D01*
X191066425Y-122405270D01*
X191107153Y-122438482D01*
X191161327Y-122475920D01*
X191233549Y-122520264D01*
X191328421Y-122574198D01*
X191450545Y-122640404D01*
X191604524Y-122721564D01*
X191794960Y-122820360D01*
X192026455Y-122939474D01*
X192303610Y-123081589D01*
X192433589Y-123148409D01*
X192700360Y-123286962D01*
X192946261Y-123416588D01*
X193166344Y-123534590D01*
X193355663Y-123638275D01*
X193509268Y-123724947D01*
X193622211Y-123791911D01*
X193689545Y-123836472D01*
X193831635Y-123956951D01*
X194040173Y-124188277D01*
X194217154Y-124457006D01*
X194355774Y-124753771D01*
X194365164Y-124776706D01*
X194378501Y-124794722D01*
X194393568Y-124785248D01*
X194414166Y-124741695D01*
X194444097Y-124657475D01*
X194487160Y-124526000D01*
X194487852Y-124523861D01*
X194554113Y-124340400D01*
X194620801Y-124204868D01*
X194694128Y-124109135D01*
X194780303Y-124045073D01*
X194885538Y-124004552D01*
X195018145Y-123989464D01*
X195170675Y-124020133D01*
X195305884Y-124099421D01*
X195328623Y-124123037D01*
X195383665Y-124198698D01*
X195446891Y-124302563D01*
X195508657Y-124419418D01*
X195632537Y-124672811D01*
X195819102Y-124705097D01*
X195820435Y-124705327D01*
X195882337Y-124715850D01*
X195973090Y-124730986D01*
X196095382Y-124751174D01*
X196251898Y-124776851D01*
X196445328Y-124808456D01*
X196678357Y-124846426D01*
X196953673Y-124891199D01*
X197273964Y-124943214D01*
X197641917Y-125002907D01*
X198060218Y-125070717D01*
X198531556Y-125147082D01*
X198614840Y-125160570D01*
X198903203Y-125207287D01*
X199142291Y-125246293D01*
X199337208Y-125278724D01*
X199493057Y-125305721D01*
X199614941Y-125328423D01*
X199707965Y-125347969D01*
X199777230Y-125365497D01*
X199827841Y-125382147D01*
X199864900Y-125399057D01*
X199893511Y-125417368D01*
X199918777Y-125438217D01*
X199945802Y-125462745D01*
X200052815Y-125559425D01*
X200287019Y-125444771D01*
X200428702Y-125379400D01*
X200570048Y-125325511D01*
X200713970Y-125285226D01*
X200873931Y-125255482D01*
X201063395Y-125233218D01*
X201295823Y-125215372D01*
X201332990Y-125213098D01*
X201685274Y-125205888D01*
X201996057Y-125228873D01*
X202272053Y-125283844D01*
X202519977Y-125372591D01*
X202746546Y-125496904D01*
X202958473Y-125658573D01*
X202963650Y-125663091D01*
X203036964Y-125724567D01*
X203091179Y-125765564D01*
X203114890Y-125777417D01*
X203117923Y-125772634D01*
X203141550Y-125729847D01*
X203182168Y-125653593D01*
X203233172Y-125556225D01*
X203297163Y-125445145D01*
X203454072Y-125237566D01*
X203637966Y-125063463D01*
X203837786Y-124934216D01*
X203852568Y-124927295D01*
X203934303Y-124895461D01*
X204060112Y-124852026D01*
X204223460Y-124798876D01*
X204417816Y-124737897D01*
X204636645Y-124670975D01*
X204873416Y-124599995D01*
X205121594Y-124526843D01*
X205374648Y-124453404D01*
X205626043Y-124381565D01*
X205869248Y-124313212D01*
X206097728Y-124250229D01*
X206304952Y-124194503D01*
X206484386Y-124147920D01*
X206629497Y-124112364D01*
X206733751Y-124089723D01*
X206790617Y-124081882D01*
X206836963Y-124083942D01*
X206974334Y-124118939D01*
X207097388Y-124202848D01*
X207115191Y-124218430D01*
X207141260Y-124231671D01*
X207165661Y-124217730D01*
X207197513Y-124168913D01*
X207245934Y-124077530D01*
X207315233Y-123956193D01*
X207435337Y-123790872D01*
X207583012Y-123636060D01*
X207765053Y-123485700D01*
X207988255Y-123333735D01*
X208259414Y-123174106D01*
X208399276Y-123099199D01*
X208683572Y-122968569D01*
X208947843Y-122880639D01*
X209201139Y-122833408D01*
X209452512Y-122824874D01*
X209711011Y-122853034D01*
X209772628Y-122863890D01*
X209888511Y-122885407D01*
X209980264Y-122903875D01*
X210032111Y-122916192D01*
X210054808Y-122921695D01*
X210076136Y-122913612D01*
X210082596Y-122873898D01*
X210078728Y-122790296D01*
X210080717Y-122652461D01*
X210553736Y-122652461D01*
X210560512Y-122873557D01*
X210613060Y-123085806D01*
X210649245Y-123169221D01*
X210769191Y-123353423D01*
X210927173Y-123507597D01*
X211113919Y-123626582D01*
X211320158Y-123705221D01*
X211536619Y-123738351D01*
X211754029Y-123720813D01*
X211823579Y-123708339D01*
X211895653Y-123700805D01*
X211930307Y-123704676D01*
X211931764Y-123710105D01*
X211933570Y-123759831D01*
X211932553Y-123853597D01*
X211929119Y-123982409D01*
X211923671Y-124137276D01*
X211916784Y-124305089D01*
X211916615Y-124309204D01*
X211908356Y-124489202D01*
X211899299Y-124668277D01*
X211889848Y-124837437D01*
X211888115Y-124865015D01*
X211880408Y-124987689D01*
X211871385Y-125110041D01*
X211863182Y-125195500D01*
X211859162Y-125240871D01*
X211860150Y-125303839D01*
X211870963Y-125327775D01*
X211876619Y-125324916D01*
X211917735Y-125293353D01*
X211991686Y-125231345D01*
X212092051Y-125144430D01*
X212212408Y-125038143D01*
X212346334Y-124918019D01*
X212468679Y-124807264D01*
X212587720Y-124698098D01*
X212674545Y-124615281D01*
X212734610Y-124552529D01*
X212773366Y-124503560D01*
X212796267Y-124462091D01*
X212808765Y-124421839D01*
X212816314Y-124376521D01*
X212818376Y-124358147D01*
X212824896Y-124278810D01*
X212833631Y-124152780D01*
X212844171Y-123986785D01*
X212856110Y-123787550D01*
X212869039Y-123561802D01*
X212882552Y-123316265D01*
X212896240Y-123057666D01*
X212903000Y-122929325D01*
X212916616Y-122681887D01*
X212929924Y-122453819D01*
X212942520Y-122251288D01*
X212953997Y-122080463D01*
X212963949Y-121947511D01*
X212971971Y-121858601D01*
X212977658Y-121819901D01*
X212983473Y-121813763D01*
X213003022Y-121818700D01*
X213038009Y-121844209D01*
X213091510Y-121893446D01*
X213166601Y-121969563D01*
X213266359Y-122075715D01*
X213393860Y-122215055D01*
X213552181Y-122390738D01*
X213744398Y-122605916D01*
X214491222Y-123444362D01*
X214509533Y-123208681D01*
X214510527Y-123195650D01*
X214519023Y-123070497D01*
X214528567Y-122910680D01*
X214538064Y-122735381D01*
X214546416Y-122563778D01*
X214564987Y-122154555D01*
X213700080Y-121187560D01*
X212835173Y-120220565D01*
X212759551Y-120284449D01*
X212717458Y-120320372D01*
X212613459Y-120410825D01*
X212482938Y-120525906D01*
X212331178Y-120660831D01*
X212163458Y-120810815D01*
X211985060Y-120971076D01*
X211801264Y-121136829D01*
X211617352Y-121303291D01*
X211438604Y-121465676D01*
X211270301Y-121619202D01*
X211117724Y-121759084D01*
X210986154Y-121880539D01*
X210880873Y-121978783D01*
X210807160Y-122049031D01*
X210770296Y-122086500D01*
X210669249Y-122236171D01*
X210590670Y-122435629D01*
X210553736Y-122652461D01*
X210080717Y-122652461D01*
X210081252Y-122615358D01*
X210121426Y-122380530D01*
X210197402Y-122147056D01*
X210303240Y-121932320D01*
X210432998Y-121753705D01*
X210441546Y-121744532D01*
X210499681Y-121687027D01*
X210591902Y-121600061D01*
X210713151Y-121488126D01*
X210858366Y-121355714D01*
X211022488Y-121207316D01*
X211200457Y-121047426D01*
X211387213Y-120880534D01*
X211577696Y-120711132D01*
X211766847Y-120543713D01*
X211949605Y-120382768D01*
X212120910Y-120232790D01*
X212275704Y-120098270D01*
X212408925Y-119983700D01*
X212515514Y-119893571D01*
X212590411Y-119832377D01*
X212628556Y-119804608D01*
X212689351Y-119780300D01*
X212818349Y-119760636D01*
X212950064Y-119771961D01*
X213059207Y-119813739D01*
X213084253Y-119835900D01*
X213144798Y-119897079D01*
X213234290Y-119991195D01*
X213348125Y-120113152D01*
X213481704Y-120257857D01*
X213630423Y-120420215D01*
X213789681Y-120595130D01*
X213954876Y-120777508D01*
X214121408Y-120962254D01*
X214284673Y-121144274D01*
X214440071Y-121318473D01*
X214583000Y-121479755D01*
X214708857Y-121623027D01*
X214813042Y-121743193D01*
X214890953Y-121835159D01*
X214937987Y-121893830D01*
X214946690Y-121905985D01*
X214993669Y-121988911D01*
X215020279Y-122064689D01*
X215022281Y-122083201D01*
X215023764Y-122154555D01*
X215023919Y-122161997D01*
G37*
D12*
X177350900Y-79207400D02*
G75*
G02*
X176588900Y-79207400I-381000J0D01*
G01*
X176588900Y-79207400D02*
G75*
G02*
X177350900Y-79207400I381000J0D01*
G01*
X177481000Y-90307400D02*
G75*
G02*
X176719000Y-90307400I-381000J0D01*
G01*
X176719000Y-90307400D02*
G75*
G02*
X177481000Y-90307400I381000J0D01*
G01*
%LPC*%
D13*
X222500000Y-108000000D03*
D14*
X193125000Y-114340000D03*
D15*
X192875000Y-116880000D03*
X193125000Y-119420000D03*
X192850000Y-121960000D03*
X193125000Y-124500000D03*
X192850000Y-127040000D03*
X193125000Y-129580000D03*
X192850000Y-132120000D03*
X193125000Y-134660000D03*
X192850000Y-137200000D03*
X193125000Y-139740000D03*
X192850000Y-142280000D03*
X193100000Y-144820000D03*
X192875000Y-147360000D03*
X193100000Y-149900000D03*
X208100000Y-149900000D03*
X208325000Y-147360000D03*
X208100000Y-144820000D03*
X208325000Y-142280000D03*
X208100000Y-139740000D03*
X208325000Y-137200000D03*
X208100000Y-134660000D03*
X208325000Y-132120000D03*
X208100000Y-129580000D03*
X208325000Y-127040000D03*
X208100000Y-124500000D03*
X208325000Y-121960000D03*
X208100000Y-119420000D03*
X208325000Y-116880000D03*
X208100000Y-114340000D03*
D13*
X177500000Y-112000000D03*
D16*
X222500000Y-98500000D03*
D13*
X177500000Y-117500000D03*
D17*
X185000000Y-135000000D03*
D18*
X181500000Y-135000000D03*
D16*
X222500000Y-132500000D03*
D19*
X176969900Y-81493400D03*
X176969900Y-84033400D03*
X176969900Y-86573400D03*
X191500000Y-76270000D03*
X191500000Y-76270000D03*
X191500000Y-78810000D03*
X191500000Y-78810000D03*
X191500000Y-81190000D03*
X191500000Y-81190000D03*
X191500000Y-83730000D03*
X191500000Y-83730000D03*
X209500000Y-76270000D03*
X209500000Y-76270000D03*
X209500000Y-78810000D03*
X209500000Y-78810000D03*
X209500000Y-81190000D03*
X209500000Y-81190000D03*
X209500000Y-83730000D03*
X209500000Y-83730000D03*
D13*
X222500000Y-121500000D03*
D19*
X177100000Y-92593400D03*
X177100000Y-95133400D03*
X177100000Y-97673400D03*
D13*
X222500000Y-103500000D03*
X222500000Y-127000000D03*
%LPD*%
M02*
