%TF.GenerationSoftware,KiCad,Pcbnew,9.0.0*%
%TF.CreationDate,2025-04-14T19:38:06-04:00*%
%TF.ProjectId,brainfreeze,62726169-6e66-4726-9565-7a652e6b6963,rev?*%
%TF.SameCoordinates,Original*%
%TF.FileFunction,Copper,L1,Top*%
%TF.FilePolarity,Positive*%
%FSLAX46Y46*%
G04 Gerber Fmt 4.6, Leading zero omitted, Abs format (unit mm)*
G04 Created by KiCad (PCBNEW 9.0.0) date 2025-04-14 19:38:06*
%MOMM*%
%LPD*%
G01*
G04 APERTURE LIST*
G04 Aperture macros list*
%AMRoundRect*
0 Rectangle with rounded corners*
0 $1 Rounding radius*
0 $2 $3 $4 $5 $6 $7 $8 $9 X,Y pos of 4 corners*
0 Add a 4 corners polygon primitive as box body*
4,1,4,$2,$3,$4,$5,$6,$7,$8,$9,$2,$3,0*
0 Add four circle primitives for the rounded corners*
1,1,$1+$1,$2,$3*
1,1,$1+$1,$4,$5*
1,1,$1+$1,$6,$7*
1,1,$1+$1,$8,$9*
0 Add four rect primitives between the rounded corners*
20,1,$1+$1,$2,$3,$4,$5,0*
20,1,$1+$1,$4,$5,$6,$7,0*
20,1,$1+$1,$6,$7,$8,$9,0*
20,1,$1+$1,$8,$9,$2,$3,0*%
G04 Aperture macros list end*
%TA.AperFunction,SMDPad,CuDef*%
%ADD10RoundRect,0.150000X-0.512500X-0.150000X0.512500X-0.150000X0.512500X0.150000X-0.512500X0.150000X0*%
%TD*%
%TA.AperFunction,SMDPad,CuDef*%
%ADD11RoundRect,0.250000X-0.250000X-0.475000X0.250000X-0.475000X0.250000X0.475000X-0.250000X0.475000X0*%
%TD*%
%TA.AperFunction,ComponentPad*%
%ADD12RoundRect,0.250000X-1.125000X-1.125000X1.125000X-1.125000X1.125000X1.125000X-1.125000X1.125000X0*%
%TD*%
%TA.AperFunction,SMDPad,CuDef*%
%ADD13RoundRect,0.140000X-0.170000X0.140000X-0.170000X-0.140000X0.170000X-0.140000X0.170000X0.140000X0*%
%TD*%
%TA.AperFunction,ComponentPad*%
%ADD14R,1.600000X1.600000*%
%TD*%
%TA.AperFunction,ComponentPad*%
%ADD15O,1.600000X1.600000*%
%TD*%
%TA.AperFunction,ComponentPad*%
%ADD16RoundRect,0.250001X-0.799999X-0.799999X0.799999X-0.799999X0.799999X0.799999X-0.799999X0.799999X0*%
%TD*%
%TA.AperFunction,SMDPad,CuDef*%
%ADD17RoundRect,0.250000X0.325000X0.650000X-0.325000X0.650000X-0.325000X-0.650000X0.325000X-0.650000X0*%
%TD*%
%TA.AperFunction,ComponentPad*%
%ADD18R,1.800000X1.800000*%
%TD*%
%TA.AperFunction,ComponentPad*%
%ADD19C,1.800000*%
%TD*%
%TA.AperFunction,SMDPad,CuDef*%
%ADD20R,0.558800X1.270000*%
%TD*%
%TA.AperFunction,ComponentPad*%
%ADD21C,1.524000*%
%TD*%
%TA.AperFunction,SMDPad,CuDef*%
%ADD22RoundRect,0.218750X-0.218750X-0.256250X0.218750X-0.256250X0.218750X0.256250X-0.218750X0.256250X0*%
%TD*%
%TA.AperFunction,SMDPad,CuDef*%
%ADD23RoundRect,0.200000X-0.200000X-0.275000X0.200000X-0.275000X0.200000X0.275000X-0.200000X0.275000X0*%
%TD*%
%TA.AperFunction,SMDPad,CuDef*%
%ADD24RoundRect,0.250000X-0.375000X-1.075000X0.375000X-1.075000X0.375000X1.075000X-0.375000X1.075000X0*%
%TD*%
%TA.AperFunction,ViaPad*%
%ADD25C,0.685800*%
%TD*%
%TA.AperFunction,Conductor*%
%ADD26C,0.762000*%
%TD*%
%TA.AperFunction,Conductor*%
%ADD27C,0.800000*%
%TD*%
%TA.AperFunction,Conductor*%
%ADD28C,0.254000*%
%TD*%
%TA.AperFunction,Conductor*%
%ADD29C,0.508000*%
%TD*%
G04 APERTURE END LIST*
D10*
X197462500Y-97050000D03*
X197462500Y-98000000D03*
X197462500Y-98950000D03*
X199737500Y-98950000D03*
X199737500Y-98000000D03*
X199737500Y-97050000D03*
D11*
X196550000Y-101500000D03*
X198450000Y-101500000D03*
D12*
X222500000Y-108000000D03*
D13*
X201500000Y-97040000D03*
X201500000Y-98000000D03*
D14*
X193125000Y-114340000D03*
D15*
X192875000Y-116880000D03*
X193125000Y-119420000D03*
X192850000Y-121960000D03*
X193125000Y-124500000D03*
X192850000Y-127040000D03*
X193125000Y-129580000D03*
X192850000Y-132120000D03*
X193125000Y-134660000D03*
X192850000Y-137200000D03*
X193125000Y-139740000D03*
X192850000Y-142280000D03*
X193100000Y-144820000D03*
X192875000Y-147360000D03*
X193100000Y-149900000D03*
X208100000Y-149900000D03*
X208325000Y-147360000D03*
X208100000Y-144820000D03*
X208325000Y-142280000D03*
X208100000Y-139740000D03*
X208325000Y-137200000D03*
X208100000Y-134660000D03*
X208325000Y-132120000D03*
X208100000Y-129580000D03*
X208325000Y-127040000D03*
X208100000Y-124500000D03*
X208325000Y-121960000D03*
X208100000Y-119420000D03*
X208325000Y-116880000D03*
X208100000Y-114340000D03*
D12*
X177500000Y-112000000D03*
D16*
X222500000Y-98500000D03*
D12*
X177500000Y-117500000D03*
D17*
X204475000Y-101500000D03*
X201525000Y-101500000D03*
D18*
X185000000Y-135000000D03*
D19*
X181500000Y-135000000D03*
D20*
X185170002Y-125500000D03*
X187000000Y-125500000D03*
X186085001Y-123569600D03*
D16*
X222500000Y-132500000D03*
D17*
X204475000Y-105000000D03*
X201525000Y-105000000D03*
D21*
X176969900Y-81493400D03*
X176969900Y-84033400D03*
X176969900Y-86573400D03*
X191500000Y-76270000D03*
X191500000Y-76270000D03*
X191500000Y-78810000D03*
X191500000Y-78810000D03*
X191500000Y-81190000D03*
X191500000Y-81190000D03*
X191500000Y-83730000D03*
X191500000Y-83730000D03*
X209500000Y-76270000D03*
X209500000Y-76270000D03*
X209500000Y-78810000D03*
X209500000Y-78810000D03*
X209500000Y-81190000D03*
X209500000Y-81190000D03*
X209500000Y-83730000D03*
X209500000Y-83730000D03*
D12*
X222500000Y-121500000D03*
D22*
X179425000Y-150000000D03*
X181000000Y-150000000D03*
D23*
X185850000Y-150000000D03*
X187500000Y-150000000D03*
D24*
X203500000Y-98000000D03*
X206300000Y-98000000D03*
D21*
X177100000Y-92593400D03*
X177100000Y-95133400D03*
X177100000Y-97673400D03*
D12*
X222500000Y-103500000D03*
X222500000Y-127000000D03*
D25*
X209000000Y-103000000D03*
X196000000Y-93600000D03*
X194100000Y-95900000D03*
X209500000Y-100000000D03*
X210500000Y-91500000D03*
X211000000Y-102000000D03*
X200230000Y-85000000D03*
X190000000Y-119000000D03*
X188800000Y-126100000D03*
X200000000Y-100500000D03*
X199500000Y-103500000D03*
X179500000Y-146500000D03*
X216500000Y-97000000D03*
X212000000Y-92403100D03*
X199500000Y-86500000D03*
X190500000Y-95500000D03*
X205000000Y-120500000D03*
X185800000Y-129400000D03*
X194500000Y-102000000D03*
X194500000Y-100000000D03*
D26*
X197462500Y-95500000D02*
X197462500Y-95062500D01*
X197462500Y-96500000D02*
X197462500Y-96037500D01*
X197462500Y-97050000D02*
X197462500Y-96500000D01*
X194500000Y-95500000D02*
X194100000Y-95900000D01*
X204475000Y-105000000D02*
X204475000Y-101500000D01*
X197462500Y-96037500D02*
X198500000Y-95000000D01*
X197462500Y-96500000D02*
X197462500Y-95500000D01*
X204825000Y-101500000D02*
X206300000Y-100025000D01*
X206300000Y-96900000D02*
X206300000Y-98000000D01*
X197462500Y-95062500D02*
X196000000Y-93600000D01*
X204475000Y-101500000D02*
X207500000Y-101500000D01*
X198500000Y-95000000D02*
X204400000Y-95000000D01*
X207500000Y-101500000D02*
X209000000Y-103000000D01*
X197462500Y-95500000D02*
X194500000Y-95500000D01*
X204400000Y-95000000D02*
X206300000Y-96900000D01*
X206300000Y-100025000D02*
X206300000Y-98000000D01*
X206300000Y-98000000D02*
X207500000Y-98000000D01*
D27*
X207500000Y-98000000D02*
X209500000Y-100000000D01*
D28*
X211000000Y-92000000D02*
X211000000Y-102000000D01*
X200230000Y-85000000D02*
X191500000Y-76270000D01*
X210500000Y-91500000D02*
X211000000Y-92000000D01*
X190500000Y-97500000D02*
X190000000Y-98000000D01*
X209500000Y-83730000D02*
X204270000Y-83730000D01*
X204270000Y-83730000D02*
X190500000Y-97500000D01*
X190000000Y-98000000D02*
X190000000Y-119000000D01*
X222500000Y-132500000D02*
X222340000Y-132660000D01*
X222500000Y-135680000D02*
X208240000Y-149940000D01*
X222500000Y-132500000D02*
X222500000Y-135680000D01*
X177100000Y-95133400D02*
X188800000Y-106833400D01*
X188800000Y-106833400D02*
X188800000Y-126100000D01*
X179425000Y-146575000D02*
X179500000Y-146500000D01*
X179425000Y-150000000D02*
X179425000Y-146575000D01*
X193000000Y-134500000D02*
X193000000Y-134700000D01*
X191500000Y-78810000D02*
X199190000Y-86500000D01*
X199190000Y-86500000D02*
X199500000Y-86500000D01*
X212000000Y-92403100D02*
X212000000Y-92500000D01*
X212000000Y-92500000D02*
X216500000Y-97000000D01*
D29*
X189500000Y-83190000D02*
X191500000Y-81190000D01*
X205000000Y-120500000D02*
X205000000Y-144160000D01*
X189500000Y-90500000D02*
X189500000Y-83190000D01*
X190483000Y-91483000D02*
X189500000Y-90500000D01*
D28*
X190500000Y-91500000D02*
X190483000Y-91483000D01*
D29*
X190500000Y-95500000D02*
X190500000Y-91500000D01*
X205000000Y-144160000D02*
X208240000Y-147400000D01*
D28*
X188000000Y-150000000D02*
X188060000Y-149940000D01*
X188060000Y-149940000D02*
X193000000Y-149940000D01*
X187500000Y-150000000D02*
X188000000Y-150000000D01*
X185170002Y-125500000D02*
X185170002Y-128770002D01*
X185170002Y-128770002D02*
X185800000Y-129400000D01*
X193080000Y-117000000D02*
X193000000Y-116920000D01*
X222500000Y-98500000D02*
X217000000Y-98500000D01*
X198500000Y-117000000D02*
X193080000Y-117000000D01*
X217000000Y-98500000D02*
X198500000Y-117000000D01*
D26*
X203500000Y-98000000D02*
X202540000Y-97040000D01*
X201490000Y-97050000D02*
X201500000Y-97040000D01*
D29*
X199737500Y-97050000D02*
X201490000Y-97050000D01*
D26*
X202540000Y-97040000D02*
X201500000Y-97040000D01*
D29*
X199737500Y-98000000D02*
X201500000Y-98000000D01*
D26*
X196550000Y-99862500D02*
X197462500Y-98950000D01*
X177500000Y-112000000D02*
X183000000Y-112000000D01*
X196550000Y-101500000D02*
X196550000Y-99862500D01*
X196550000Y-101500000D02*
X196000000Y-101500000D01*
X183000000Y-112000000D02*
X186085001Y-115085001D01*
X197462500Y-98950000D02*
X197462500Y-99037500D01*
X195000000Y-101500000D02*
X194500000Y-102000000D01*
X196550000Y-101500000D02*
X195000000Y-101500000D01*
X186085001Y-115085001D02*
X186085001Y-123569600D01*
X196000000Y-101500000D02*
X194500000Y-100000000D01*
X197462500Y-98000000D02*
X197462500Y-98950000D01*
D28*
X181000000Y-150000000D02*
X185850000Y-150000000D01*
D29*
X187000000Y-133000000D02*
X185000000Y-135000000D01*
X187000000Y-125500000D02*
X187000000Y-133000000D01*
D28*
X189402100Y-96465600D02*
X189402100Y-138722100D01*
X176969900Y-84033400D02*
X189402100Y-96465600D01*
X189402100Y-138722100D02*
X193000000Y-142320000D01*
%TA.AperFunction,Conductor*%
G36*
X201380039Y-98519685D02*
G01*
X201412200Y-98549600D01*
X201858203Y-99144271D01*
X201882494Y-99207445D01*
X201951342Y-99964774D01*
X201937807Y-100033320D01*
X201889363Y-100083668D01*
X201827851Y-100100000D01*
X201775000Y-100100000D01*
X201775000Y-102899999D01*
X201899972Y-102899999D01*
X201899986Y-102899998D01*
X202002695Y-102889506D01*
X202062606Y-102869653D01*
X202132434Y-102867251D01*
X202192476Y-102902982D01*
X202223670Y-102965502D01*
X202225102Y-102976133D01*
X202274338Y-103517730D01*
X202260803Y-103586276D01*
X202212359Y-103636624D01*
X202144385Y-103652787D01*
X202111843Y-103646662D01*
X202002697Y-103610494D01*
X202002690Y-103610493D01*
X201899986Y-103600000D01*
X201775000Y-103600000D01*
X201775000Y-104876000D01*
X201755315Y-104943039D01*
X201702511Y-104988794D01*
X201651000Y-105000000D01*
X201525000Y-105000000D01*
X201525000Y-105126000D01*
X201505315Y-105193039D01*
X201452511Y-105238794D01*
X201401000Y-105250000D01*
X200450000Y-105250000D01*
X200450000Y-105276922D01*
X200430315Y-105343961D01*
X200377511Y-105389716D01*
X200308353Y-105399660D01*
X200246617Y-105372181D01*
X199070548Y-104392123D01*
X198960016Y-104300013D01*
X200450000Y-104300013D01*
X200450000Y-104750000D01*
X201275000Y-104750000D01*
X201275000Y-103600000D01*
X201150027Y-103600000D01*
X201150012Y-103600001D01*
X201047302Y-103610494D01*
X200880880Y-103665641D01*
X200880875Y-103665643D01*
X200731654Y-103757684D01*
X200607684Y-103881654D01*
X200515643Y-104030875D01*
X200515641Y-104030880D01*
X200460494Y-104197302D01*
X200460493Y-104197309D01*
X200450000Y-104300013D01*
X198960016Y-104300013D01*
X198044617Y-103537180D01*
X198005718Y-103479141D01*
X198000000Y-103441921D01*
X198000000Y-102846987D01*
X198019685Y-102779948D01*
X198072489Y-102734193D01*
X198136605Y-102723629D01*
X198150021Y-102724999D01*
X198700000Y-102724999D01*
X198749972Y-102724999D01*
X198749986Y-102724998D01*
X198852697Y-102714505D01*
X199019119Y-102659358D01*
X199019124Y-102659356D01*
X199168345Y-102567315D01*
X199292315Y-102443345D01*
X199384356Y-102294124D01*
X199384358Y-102294119D01*
X199415551Y-102199986D01*
X200450001Y-102199986D01*
X200460494Y-102302697D01*
X200515641Y-102469119D01*
X200515643Y-102469124D01*
X200607684Y-102618345D01*
X200731654Y-102742315D01*
X200880875Y-102834356D01*
X200880880Y-102834358D01*
X201047302Y-102889505D01*
X201047309Y-102889506D01*
X201150019Y-102899999D01*
X201274999Y-102899999D01*
X201275000Y-102899998D01*
X201275000Y-101750000D01*
X200450001Y-101750000D01*
X200450001Y-102199986D01*
X199415551Y-102199986D01*
X199439505Y-102127697D01*
X199439506Y-102127690D01*
X199449999Y-102024986D01*
X199450000Y-102024973D01*
X199450000Y-101750000D01*
X198700000Y-101750000D01*
X198700000Y-102724999D01*
X198150021Y-102724999D01*
X198199999Y-102724998D01*
X198200000Y-102724998D01*
X198200000Y-101250000D01*
X198700000Y-101250000D01*
X199449999Y-101250000D01*
X199449999Y-100975028D01*
X199449998Y-100975013D01*
X199439505Y-100872300D01*
X199427436Y-100835878D01*
X199427432Y-100835868D01*
X199415551Y-100800013D01*
X200450000Y-100800013D01*
X200450000Y-101250000D01*
X201275000Y-101250000D01*
X201275000Y-100100000D01*
X201150027Y-100100000D01*
X201150012Y-100100001D01*
X201047302Y-100110494D01*
X200880880Y-100165641D01*
X200880875Y-100165643D01*
X200731654Y-100257684D01*
X200607684Y-100381654D01*
X200515643Y-100530875D01*
X200515641Y-100530880D01*
X200460494Y-100697302D01*
X200460493Y-100697309D01*
X200450000Y-100800013D01*
X199415551Y-100800013D01*
X199384358Y-100705880D01*
X199384356Y-100705875D01*
X199292315Y-100556654D01*
X199168345Y-100432684D01*
X199019124Y-100340643D01*
X199019119Y-100340641D01*
X198852697Y-100285494D01*
X198852690Y-100285493D01*
X198749986Y-100275000D01*
X198700000Y-100275000D01*
X198700000Y-101250000D01*
X198200000Y-101250000D01*
X198200000Y-100270958D01*
X198171377Y-100218537D01*
X198174943Y-100168696D01*
X198176362Y-100148847D01*
X198181624Y-100136750D01*
X198492774Y-99514451D01*
X198540357Y-99463297D01*
X198608049Y-99445987D01*
X198674353Y-99468022D01*
X198700957Y-99496617D01*
X198702537Y-99495393D01*
X198707321Y-99501561D01*
X198823438Y-99617678D01*
X198823447Y-99617685D01*
X198964803Y-99701282D01*
X198964806Y-99701283D01*
X199122504Y-99747099D01*
X199122510Y-99747100D01*
X199159350Y-99749999D01*
X199159366Y-99750000D01*
X199487500Y-99750000D01*
X199987500Y-99750000D01*
X200315634Y-99750000D01*
X200315649Y-99749999D01*
X200352489Y-99747100D01*
X200352495Y-99747099D01*
X200510193Y-99701283D01*
X200510196Y-99701282D01*
X200651552Y-99617685D01*
X200651561Y-99617678D01*
X200767678Y-99501561D01*
X200767685Y-99501552D01*
X200851281Y-99360198D01*
X200897100Y-99202486D01*
X200897295Y-99200001D01*
X200897295Y-99200000D01*
X199987500Y-99200000D01*
X199987500Y-99750000D01*
X199487500Y-99750000D01*
X199487500Y-99074000D01*
X199507185Y-99006961D01*
X199559989Y-98961206D01*
X199611500Y-98950000D01*
X199737500Y-98950000D01*
X199737500Y-98824000D01*
X199757185Y-98756961D01*
X199809989Y-98711206D01*
X199861500Y-98700000D01*
X200897295Y-98700000D01*
X200897295Y-98699998D01*
X200897100Y-98697511D01*
X200885794Y-98658594D01*
X200885994Y-98588724D01*
X200923937Y-98530055D01*
X200987576Y-98501212D01*
X201004871Y-98500000D01*
X201313000Y-98500000D01*
X201380039Y-98519685D01*
G37*
%TD.AperFunction*%
M02*
