%TF.GenerationSoftware,KiCad,Pcbnew,9.0.0*%
%TF.CreationDate,2025-04-14T19:38:06-04:00*%
%TF.ProjectId,brainfreeze,62726169-6e66-4726-9565-7a652e6b6963,rev?*%
%TF.SameCoordinates,Original*%
%TF.FileFunction,Copper,L4,Bot*%
%TF.FilePolarity,Positive*%
%FSLAX46Y46*%
G04 Gerber Fmt 4.6, Leading zero omitted, Abs format (unit mm)*
G04 Created by KiCad (PCBNEW 9.0.0) date 2025-04-14 19:38:06*
%MOMM*%
%LPD*%
G01*
G04 APERTURE LIST*
G04 Aperture macros list*
%AMRoundRect*
0 Rectangle with rounded corners*
0 $1 Rounding radius*
0 $2 $3 $4 $5 $6 $7 $8 $9 X,Y pos of 4 corners*
0 Add a 4 corners polygon primitive as box body*
4,1,4,$2,$3,$4,$5,$6,$7,$8,$9,$2,$3,0*
0 Add four circle primitives for the rounded corners*
1,1,$1+$1,$2,$3*
1,1,$1+$1,$4,$5*
1,1,$1+$1,$6,$7*
1,1,$1+$1,$8,$9*
0 Add four rect primitives between the rounded corners*
20,1,$1+$1,$2,$3,$4,$5,0*
20,1,$1+$1,$4,$5,$6,$7,0*
20,1,$1+$1,$6,$7,$8,$9,0*
20,1,$1+$1,$8,$9,$2,$3,0*%
G04 Aperture macros list end*
%TA.AperFunction,ComponentPad*%
%ADD10RoundRect,0.250000X-1.125000X-1.125000X1.125000X-1.125000X1.125000X1.125000X-1.125000X1.125000X0*%
%TD*%
%TA.AperFunction,ComponentPad*%
%ADD11R,1.600000X1.600000*%
%TD*%
%TA.AperFunction,ComponentPad*%
%ADD12O,1.600000X1.600000*%
%TD*%
%TA.AperFunction,ComponentPad*%
%ADD13RoundRect,0.250001X-0.799999X-0.799999X0.799999X-0.799999X0.799999X0.799999X-0.799999X0.799999X0*%
%TD*%
%TA.AperFunction,ComponentPad*%
%ADD14R,1.800000X1.800000*%
%TD*%
%TA.AperFunction,ComponentPad*%
%ADD15C,1.800000*%
%TD*%
%TA.AperFunction,ComponentPad*%
%ADD16C,1.524000*%
%TD*%
%TA.AperFunction,ViaPad*%
%ADD17C,0.685800*%
%TD*%
%TA.AperFunction,Conductor*%
%ADD18C,0.254000*%
%TD*%
%TA.AperFunction,Conductor*%
%ADD19C,0.508000*%
%TD*%
G04 APERTURE END LIST*
D10*
X222500000Y-108000000D03*
D11*
X193125000Y-114340000D03*
D12*
X192875000Y-116880000D03*
X193125000Y-119420000D03*
X192850000Y-121960000D03*
X193125000Y-124500000D03*
X192850000Y-127040000D03*
X193125000Y-129580000D03*
X192850000Y-132120000D03*
X193125000Y-134660000D03*
X192850000Y-137200000D03*
X193125000Y-139740000D03*
X192850000Y-142280000D03*
X193100000Y-144820000D03*
X192875000Y-147360000D03*
X193100000Y-149900000D03*
X208100000Y-149900000D03*
X208325000Y-147360000D03*
X208100000Y-144820000D03*
X208325000Y-142280000D03*
X208100000Y-139740000D03*
X208325000Y-137200000D03*
X208100000Y-134660000D03*
X208325000Y-132120000D03*
X208100000Y-129580000D03*
X208325000Y-127040000D03*
X208100000Y-124500000D03*
X208325000Y-121960000D03*
X208100000Y-119420000D03*
X208325000Y-116880000D03*
X208100000Y-114340000D03*
D10*
X177500000Y-112000000D03*
D13*
X222500000Y-98500000D03*
D10*
X177500000Y-117500000D03*
D14*
X185000000Y-135000000D03*
D15*
X181500000Y-135000000D03*
D13*
X222500000Y-132500000D03*
D16*
X176969900Y-81493400D03*
X176969900Y-84033400D03*
X176969900Y-86573400D03*
X191500000Y-76270000D03*
X191500000Y-76270000D03*
X191500000Y-78810000D03*
X191500000Y-78810000D03*
X191500000Y-81190000D03*
X191500000Y-81190000D03*
X191500000Y-83730000D03*
X191500000Y-83730000D03*
X209500000Y-76270000D03*
X209500000Y-76270000D03*
X209500000Y-78810000D03*
X209500000Y-78810000D03*
X209500000Y-81190000D03*
X209500000Y-81190000D03*
X209500000Y-83730000D03*
X209500000Y-83730000D03*
D10*
X222500000Y-121500000D03*
D16*
X177100000Y-92593400D03*
X177100000Y-95133400D03*
X177100000Y-97673400D03*
D10*
X222500000Y-103500000D03*
X222500000Y-127000000D03*
D17*
X209000000Y-103000000D03*
X196000000Y-93600000D03*
X194100000Y-95900000D03*
X209500000Y-100000000D03*
X210500000Y-91500000D03*
X211000000Y-102000000D03*
X200230000Y-85000000D03*
X190000000Y-119000000D03*
X188800000Y-126100000D03*
X200000000Y-100500000D03*
X199500000Y-103500000D03*
X179500000Y-146500000D03*
X216500000Y-97000000D03*
X212000000Y-92403100D03*
X199500000Y-86500000D03*
X190500000Y-95500000D03*
X205000000Y-120500000D03*
X185800000Y-129400000D03*
X194500000Y-102000000D03*
X194500000Y-100000000D03*
D18*
X205040230Y-91500000D02*
X201000000Y-87459770D01*
X201000000Y-87459770D02*
X201000000Y-85770000D01*
X211000000Y-126860000D02*
X208240000Y-129620000D01*
X211000000Y-102000000D02*
X211000000Y-126860000D01*
X201000000Y-85770000D02*
X200230000Y-85000000D01*
X210500000Y-91500000D02*
X205040230Y-91500000D01*
X190000000Y-119000000D02*
X190000000Y-124080000D01*
X190000000Y-124080000D02*
X193000000Y-127080000D01*
X191100000Y-137880000D02*
X193000000Y-139780000D01*
X188800000Y-126100000D02*
X191100000Y-128400000D01*
X191100000Y-128400000D02*
X191100000Y-137880000D01*
X216500000Y-123900000D02*
X208240000Y-132160000D01*
X216500000Y-97000000D02*
X216500000Y-123900000D01*
X199500000Y-86500000D02*
X205403100Y-92403100D01*
X205403100Y-92403100D02*
X212000000Y-92403100D01*
D19*
X191000000Y-106500000D02*
X205000000Y-120500000D01*
X191000000Y-96000000D02*
X191000000Y-106500000D01*
X190500000Y-95500000D02*
X191000000Y-96000000D01*
D18*
X186800000Y-130400000D02*
X189200000Y-130400000D01*
X190500000Y-131600000D02*
X190500000Y-144900000D01*
X190500000Y-144900000D02*
X193000000Y-147400000D01*
X185800000Y-129400000D02*
X186800000Y-130400000D01*
X189200000Y-130400000D02*
X190400000Y-131600000D01*
X190400000Y-131600000D02*
X190500000Y-131600000D01*
M02*
