%TF.GenerationSoftware,KiCad,Pcbnew,9.0.0*%
%TF.CreationDate,2025-04-14T19:38:07-04:00*%
%TF.ProjectId,brainfreeze,62726169-6e66-4726-9565-7a652e6b6963,rev?*%
%TF.SameCoordinates,Original*%
%TF.FileFunction,Legend,Top*%
%TF.FilePolarity,Positive*%
%FSLAX46Y46*%
G04 Gerber Fmt 4.6, Leading zero omitted, Abs format (unit mm)*
G04 Created by KiCad (PCBNEW 9.0.0) date 2025-04-14 19:38:07*
%MOMM*%
%LPD*%
G01*
G04 APERTURE LIST*
G04 Aperture macros list*
%AMRoundRect*
0 Rectangle with rounded corners*
0 $1 Rounding radius*
0 $2 $3 $4 $5 $6 $7 $8 $9 X,Y pos of 4 corners*
0 Add a 4 corners polygon primitive as box body*
4,1,4,$2,$3,$4,$5,$6,$7,$8,$9,$2,$3,0*
0 Add four circle primitives for the rounded corners*
1,1,$1+$1,$2,$3*
1,1,$1+$1,$4,$5*
1,1,$1+$1,$6,$7*
1,1,$1+$1,$8,$9*
0 Add four rect primitives between the rounded corners*
20,1,$1+$1,$2,$3,$4,$5,0*
20,1,$1+$1,$4,$5,$6,$7,0*
20,1,$1+$1,$6,$7,$8,$9,0*
20,1,$1+$1,$8,$9,$2,$3,0*%
G04 Aperture macros list end*
%ADD10C,0.152400*%
%ADD11C,0.120000*%
%ADD12C,0.100000*%
%ADD13C,0.150000*%
%ADD14C,0.127000*%
%ADD15C,0.508000*%
%ADD16RoundRect,0.150000X-0.512500X-0.150000X0.512500X-0.150000X0.512500X0.150000X-0.512500X0.150000X0*%
%ADD17RoundRect,0.250000X-0.250000X-0.475000X0.250000X-0.475000X0.250000X0.475000X-0.250000X0.475000X0*%
%ADD18RoundRect,0.250000X-1.125000X-1.125000X1.125000X-1.125000X1.125000X1.125000X-1.125000X1.125000X0*%
%ADD19RoundRect,0.140000X-0.170000X0.140000X-0.170000X-0.140000X0.170000X-0.140000X0.170000X0.140000X0*%
%ADD20R,1.600000X1.600000*%
%ADD21O,1.600000X1.600000*%
%ADD22RoundRect,0.250001X-0.799999X-0.799999X0.799999X-0.799999X0.799999X0.799999X-0.799999X0.799999X0*%
%ADD23RoundRect,0.250000X0.325000X0.650000X-0.325000X0.650000X-0.325000X-0.650000X0.325000X-0.650000X0*%
%ADD24RoundRect,0.102000X0.900000X0.900000X-0.900000X0.900000X-0.900000X-0.900000X0.900000X-0.900000X0*%
%ADD25C,2.004000*%
%ADD26R,0.558800X1.270000*%
%ADD27C,1.524000*%
%ADD28RoundRect,0.218750X-0.218750X-0.256250X0.218750X-0.256250X0.218750X0.256250X-0.218750X0.256250X0*%
%ADD29RoundRect,0.200000X-0.200000X-0.275000X0.200000X-0.275000X0.200000X0.275000X-0.200000X0.275000X0*%
%ADD30RoundRect,0.250000X-0.375000X-1.075000X0.375000X-1.075000X0.375000X1.075000X-0.375000X1.075000X0*%
G04 APERTURE END LIST*
D10*
X194564720Y-93466851D02*
X194680834Y-93505556D01*
X194680834Y-93505556D02*
X194719539Y-93544260D01*
X194719539Y-93544260D02*
X194758243Y-93621670D01*
X194758243Y-93621670D02*
X194758243Y-93737784D01*
X194758243Y-93737784D02*
X194719539Y-93815194D01*
X194719539Y-93815194D02*
X194680834Y-93853899D01*
X194680834Y-93853899D02*
X194603424Y-93892603D01*
X194603424Y-93892603D02*
X194293786Y-93892603D01*
X194293786Y-93892603D02*
X194293786Y-93079803D01*
X194293786Y-93079803D02*
X194564720Y-93079803D01*
X194564720Y-93079803D02*
X194642129Y-93118508D01*
X194642129Y-93118508D02*
X194680834Y-93157213D01*
X194680834Y-93157213D02*
X194719539Y-93234622D01*
X194719539Y-93234622D02*
X194719539Y-93312032D01*
X194719539Y-93312032D02*
X194680834Y-93389441D01*
X194680834Y-93389441D02*
X194642129Y-93428146D01*
X194642129Y-93428146D02*
X194564720Y-93466851D01*
X194564720Y-93466851D02*
X194293786Y-93466851D01*
X195106586Y-93079803D02*
X195106586Y-93737784D01*
X195106586Y-93737784D02*
X195145291Y-93815194D01*
X195145291Y-93815194D02*
X195183996Y-93853899D01*
X195183996Y-93853899D02*
X195261405Y-93892603D01*
X195261405Y-93892603D02*
X195416224Y-93892603D01*
X195416224Y-93892603D02*
X195493634Y-93853899D01*
X195493634Y-93853899D02*
X195532339Y-93815194D01*
X195532339Y-93815194D02*
X195571043Y-93737784D01*
X195571043Y-93737784D02*
X195571043Y-93079803D01*
X196422548Y-93815194D02*
X196383844Y-93853899D01*
X196383844Y-93853899D02*
X196267729Y-93892603D01*
X196267729Y-93892603D02*
X196190320Y-93892603D01*
X196190320Y-93892603D02*
X196074206Y-93853899D01*
X196074206Y-93853899D02*
X195996796Y-93776489D01*
X195996796Y-93776489D02*
X195958091Y-93699079D01*
X195958091Y-93699079D02*
X195919387Y-93544260D01*
X195919387Y-93544260D02*
X195919387Y-93428146D01*
X195919387Y-93428146D02*
X195958091Y-93273327D01*
X195958091Y-93273327D02*
X195996796Y-93195918D01*
X195996796Y-93195918D02*
X196074206Y-93118508D01*
X196074206Y-93118508D02*
X196190320Y-93079803D01*
X196190320Y-93079803D02*
X196267729Y-93079803D01*
X196267729Y-93079803D02*
X196383844Y-93118508D01*
X196383844Y-93118508D02*
X196422548Y-93157213D01*
X196770891Y-93892603D02*
X196770891Y-93079803D01*
X197235348Y-93892603D02*
X196887006Y-93428146D01*
X197235348Y-93079803D02*
X196770891Y-93544260D01*
X198667424Y-93815194D02*
X198628720Y-93853899D01*
X198628720Y-93853899D02*
X198512605Y-93892603D01*
X198512605Y-93892603D02*
X198435196Y-93892603D01*
X198435196Y-93892603D02*
X198319082Y-93853899D01*
X198319082Y-93853899D02*
X198241672Y-93776489D01*
X198241672Y-93776489D02*
X198202967Y-93699079D01*
X198202967Y-93699079D02*
X198164263Y-93544260D01*
X198164263Y-93544260D02*
X198164263Y-93428146D01*
X198164263Y-93428146D02*
X198202967Y-93273327D01*
X198202967Y-93273327D02*
X198241672Y-93195918D01*
X198241672Y-93195918D02*
X198319082Y-93118508D01*
X198319082Y-93118508D02*
X198435196Y-93079803D01*
X198435196Y-93079803D02*
X198512605Y-93079803D01*
X198512605Y-93079803D02*
X198628720Y-93118508D01*
X198628720Y-93118508D02*
X198667424Y-93157213D01*
X199170586Y-93079803D02*
X199325405Y-93079803D01*
X199325405Y-93079803D02*
X199402815Y-93118508D01*
X199402815Y-93118508D02*
X199480224Y-93195918D01*
X199480224Y-93195918D02*
X199518929Y-93350737D01*
X199518929Y-93350737D02*
X199518929Y-93621670D01*
X199518929Y-93621670D02*
X199480224Y-93776489D01*
X199480224Y-93776489D02*
X199402815Y-93853899D01*
X199402815Y-93853899D02*
X199325405Y-93892603D01*
X199325405Y-93892603D02*
X199170586Y-93892603D01*
X199170586Y-93892603D02*
X199093177Y-93853899D01*
X199093177Y-93853899D02*
X199015767Y-93776489D01*
X199015767Y-93776489D02*
X198977063Y-93621670D01*
X198977063Y-93621670D02*
X198977063Y-93350737D01*
X198977063Y-93350737D02*
X199015767Y-93195918D01*
X199015767Y-93195918D02*
X199093177Y-93118508D01*
X199093177Y-93118508D02*
X199170586Y-93079803D01*
X199867272Y-93892603D02*
X199867272Y-93079803D01*
X199867272Y-93079803D02*
X200331729Y-93892603D01*
X200331729Y-93892603D02*
X200331729Y-93079803D01*
X200602663Y-93079803D02*
X200873596Y-93892603D01*
X200873596Y-93892603D02*
X201144530Y-93079803D01*
X201415463Y-93466851D02*
X201686397Y-93466851D01*
X201802511Y-93892603D02*
X201415463Y-93892603D01*
X201415463Y-93892603D02*
X201415463Y-93079803D01*
X201415463Y-93079803D02*
X201802511Y-93079803D01*
X202615310Y-93892603D02*
X202344377Y-93505556D01*
X202150853Y-93892603D02*
X202150853Y-93079803D01*
X202150853Y-93079803D02*
X202460491Y-93079803D01*
X202460491Y-93079803D02*
X202537901Y-93118508D01*
X202537901Y-93118508D02*
X202576606Y-93157213D01*
X202576606Y-93157213D02*
X202615310Y-93234622D01*
X202615310Y-93234622D02*
X202615310Y-93350737D01*
X202615310Y-93350737D02*
X202576606Y-93428146D01*
X202576606Y-93428146D02*
X202537901Y-93466851D01*
X202537901Y-93466851D02*
X202460491Y-93505556D01*
X202460491Y-93505556D02*
X202150853Y-93505556D01*
X202847539Y-93079803D02*
X203311996Y-93079803D01*
X203079768Y-93892603D02*
X203079768Y-93079803D01*
X203582929Y-93466851D02*
X203853863Y-93466851D01*
X203969977Y-93892603D02*
X203582929Y-93892603D01*
X203582929Y-93892603D02*
X203582929Y-93079803D01*
X203582929Y-93079803D02*
X203969977Y-93079803D01*
X204782776Y-93892603D02*
X204511843Y-93505556D01*
X204318319Y-93892603D02*
X204318319Y-93079803D01*
X204318319Y-93079803D02*
X204627957Y-93079803D01*
X204627957Y-93079803D02*
X204705367Y-93118508D01*
X204705367Y-93118508D02*
X204744072Y-93157213D01*
X204744072Y-93157213D02*
X204782776Y-93234622D01*
X204782776Y-93234622D02*
X204782776Y-93350737D01*
X204782776Y-93350737D02*
X204744072Y-93428146D01*
X204744072Y-93428146D02*
X204705367Y-93466851D01*
X204705367Y-93466851D02*
X204627957Y-93505556D01*
X204627957Y-93505556D02*
X204318319Y-93505556D01*
X206214852Y-93815194D02*
X206176148Y-93853899D01*
X206176148Y-93853899D02*
X206060033Y-93892603D01*
X206060033Y-93892603D02*
X205982624Y-93892603D01*
X205982624Y-93892603D02*
X205866510Y-93853899D01*
X205866510Y-93853899D02*
X205789100Y-93776489D01*
X205789100Y-93776489D02*
X205750395Y-93699079D01*
X205750395Y-93699079D02*
X205711691Y-93544260D01*
X205711691Y-93544260D02*
X205711691Y-93428146D01*
X205711691Y-93428146D02*
X205750395Y-93273327D01*
X205750395Y-93273327D02*
X205789100Y-93195918D01*
X205789100Y-93195918D02*
X205866510Y-93118508D01*
X205866510Y-93118508D02*
X205982624Y-93079803D01*
X205982624Y-93079803D02*
X206060033Y-93079803D01*
X206060033Y-93079803D02*
X206176148Y-93118508D01*
X206176148Y-93118508D02*
X206214852Y-93157213D01*
X206563195Y-93892603D02*
X206563195Y-93079803D01*
X207414700Y-93892603D02*
X207143767Y-93505556D01*
X206950243Y-93892603D02*
X206950243Y-93079803D01*
X206950243Y-93079803D02*
X207259881Y-93079803D01*
X207259881Y-93079803D02*
X207337291Y-93118508D01*
X207337291Y-93118508D02*
X207375996Y-93157213D01*
X207375996Y-93157213D02*
X207414700Y-93234622D01*
X207414700Y-93234622D02*
X207414700Y-93350737D01*
X207414700Y-93350737D02*
X207375996Y-93428146D01*
X207375996Y-93428146D02*
X207337291Y-93466851D01*
X207337291Y-93466851D02*
X207259881Y-93505556D01*
X207259881Y-93505556D02*
X206950243Y-93505556D01*
X208227500Y-93815194D02*
X208188796Y-93853899D01*
X208188796Y-93853899D02*
X208072681Y-93892603D01*
X208072681Y-93892603D02*
X207995272Y-93892603D01*
X207995272Y-93892603D02*
X207879158Y-93853899D01*
X207879158Y-93853899D02*
X207801748Y-93776489D01*
X207801748Y-93776489D02*
X207763043Y-93699079D01*
X207763043Y-93699079D02*
X207724339Y-93544260D01*
X207724339Y-93544260D02*
X207724339Y-93428146D01*
X207724339Y-93428146D02*
X207763043Y-93273327D01*
X207763043Y-93273327D02*
X207801748Y-93195918D01*
X207801748Y-93195918D02*
X207879158Y-93118508D01*
X207879158Y-93118508D02*
X207995272Y-93079803D01*
X207995272Y-93079803D02*
X208072681Y-93079803D01*
X208072681Y-93079803D02*
X208188796Y-93118508D01*
X208188796Y-93118508D02*
X208227500Y-93157213D01*
X208575843Y-93079803D02*
X208575843Y-93737784D01*
X208575843Y-93737784D02*
X208614548Y-93815194D01*
X208614548Y-93815194D02*
X208653253Y-93853899D01*
X208653253Y-93853899D02*
X208730662Y-93892603D01*
X208730662Y-93892603D02*
X208885481Y-93892603D01*
X208885481Y-93892603D02*
X208962891Y-93853899D01*
X208962891Y-93853899D02*
X209001596Y-93815194D01*
X209001596Y-93815194D02*
X209040300Y-93737784D01*
X209040300Y-93737784D02*
X209040300Y-93079803D01*
X209427348Y-93892603D02*
X209427348Y-93079803D01*
X209698282Y-93079803D02*
X210162739Y-93079803D01*
X209930511Y-93892603D02*
X209930511Y-93079803D01*
X219118508Y-108280460D02*
X219079803Y-108357870D01*
X219079803Y-108357870D02*
X219079803Y-108473984D01*
X219079803Y-108473984D02*
X219118508Y-108590098D01*
X219118508Y-108590098D02*
X219195918Y-108667508D01*
X219195918Y-108667508D02*
X219273327Y-108706213D01*
X219273327Y-108706213D02*
X219428146Y-108744917D01*
X219428146Y-108744917D02*
X219544260Y-108744917D01*
X219544260Y-108744917D02*
X219699079Y-108706213D01*
X219699079Y-108706213D02*
X219776489Y-108667508D01*
X219776489Y-108667508D02*
X219853899Y-108590098D01*
X219853899Y-108590098D02*
X219892603Y-108473984D01*
X219892603Y-108473984D02*
X219892603Y-108396575D01*
X219892603Y-108396575D02*
X219853899Y-108280460D01*
X219853899Y-108280460D02*
X219815194Y-108241756D01*
X219815194Y-108241756D02*
X219544260Y-108241756D01*
X219544260Y-108241756D02*
X219544260Y-108396575D01*
X219892603Y-107893413D02*
X219079803Y-107893413D01*
X219079803Y-107893413D02*
X219892603Y-107428956D01*
X219892603Y-107428956D02*
X219079803Y-107428956D01*
X219892603Y-107041908D02*
X219079803Y-107041908D01*
X219079803Y-107041908D02*
X219079803Y-106848384D01*
X219079803Y-106848384D02*
X219118508Y-106732270D01*
X219118508Y-106732270D02*
X219195918Y-106654860D01*
X219195918Y-106654860D02*
X219273327Y-106616155D01*
X219273327Y-106616155D02*
X219428146Y-106577451D01*
X219428146Y-106577451D02*
X219544260Y-106577451D01*
X219544260Y-106577451D02*
X219699079Y-106616155D01*
X219699079Y-106616155D02*
X219776489Y-106654860D01*
X219776489Y-106654860D02*
X219853899Y-106732270D01*
X219853899Y-106732270D02*
X219892603Y-106848384D01*
X219892603Y-106848384D02*
X219892603Y-107041908D01*
X219753899Y-99244917D02*
X219792603Y-99128803D01*
X219792603Y-99128803D02*
X219792603Y-98935279D01*
X219792603Y-98935279D02*
X219753899Y-98857870D01*
X219753899Y-98857870D02*
X219715194Y-98819165D01*
X219715194Y-98819165D02*
X219637784Y-98780460D01*
X219637784Y-98780460D02*
X219560375Y-98780460D01*
X219560375Y-98780460D02*
X219482965Y-98819165D01*
X219482965Y-98819165D02*
X219444260Y-98857870D01*
X219444260Y-98857870D02*
X219405556Y-98935279D01*
X219405556Y-98935279D02*
X219366851Y-99090098D01*
X219366851Y-99090098D02*
X219328146Y-99167508D01*
X219328146Y-99167508D02*
X219289441Y-99206213D01*
X219289441Y-99206213D02*
X219212032Y-99244917D01*
X219212032Y-99244917D02*
X219134622Y-99244917D01*
X219134622Y-99244917D02*
X219057213Y-99206213D01*
X219057213Y-99206213D02*
X219018508Y-99167508D01*
X219018508Y-99167508D02*
X218979803Y-99090098D01*
X218979803Y-99090098D02*
X218979803Y-98896575D01*
X218979803Y-98896575D02*
X219018508Y-98780460D01*
X219792603Y-98432118D02*
X218979803Y-98432118D01*
X219018508Y-97619317D02*
X218979803Y-97696727D01*
X218979803Y-97696727D02*
X218979803Y-97812841D01*
X218979803Y-97812841D02*
X219018508Y-97928955D01*
X219018508Y-97928955D02*
X219095918Y-98006365D01*
X219095918Y-98006365D02*
X219173327Y-98045070D01*
X219173327Y-98045070D02*
X219328146Y-98083774D01*
X219328146Y-98083774D02*
X219444260Y-98083774D01*
X219444260Y-98083774D02*
X219599079Y-98045070D01*
X219599079Y-98045070D02*
X219676489Y-98006365D01*
X219676489Y-98006365D02*
X219753899Y-97928955D01*
X219753899Y-97928955D02*
X219792603Y-97812841D01*
X219792603Y-97812841D02*
X219792603Y-97735432D01*
X219792603Y-97735432D02*
X219753899Y-97619317D01*
X219753899Y-97619317D02*
X219715194Y-97580613D01*
X219715194Y-97580613D02*
X219444260Y-97580613D01*
X219444260Y-97580613D02*
X219444260Y-97735432D01*
X195755082Y-68660375D02*
X196142129Y-68660375D01*
X195677672Y-68892603D02*
X195948605Y-68079803D01*
X195948605Y-68079803D02*
X196219539Y-68892603D01*
X196954929Y-68815194D02*
X196916225Y-68853899D01*
X196916225Y-68853899D02*
X196800110Y-68892603D01*
X196800110Y-68892603D02*
X196722701Y-68892603D01*
X196722701Y-68892603D02*
X196606587Y-68853899D01*
X196606587Y-68853899D02*
X196529177Y-68776489D01*
X196529177Y-68776489D02*
X196490472Y-68699079D01*
X196490472Y-68699079D02*
X196451768Y-68544260D01*
X196451768Y-68544260D02*
X196451768Y-68428146D01*
X196451768Y-68428146D02*
X196490472Y-68273327D01*
X196490472Y-68273327D02*
X196529177Y-68195918D01*
X196529177Y-68195918D02*
X196606587Y-68118508D01*
X196606587Y-68118508D02*
X196722701Y-68079803D01*
X196722701Y-68079803D02*
X196800110Y-68079803D01*
X196800110Y-68079803D02*
X196916225Y-68118508D01*
X196916225Y-68118508D02*
X196954929Y-68157213D01*
X197767729Y-68815194D02*
X197729025Y-68853899D01*
X197729025Y-68853899D02*
X197612910Y-68892603D01*
X197612910Y-68892603D02*
X197535501Y-68892603D01*
X197535501Y-68892603D02*
X197419387Y-68853899D01*
X197419387Y-68853899D02*
X197341977Y-68776489D01*
X197341977Y-68776489D02*
X197303272Y-68699079D01*
X197303272Y-68699079D02*
X197264568Y-68544260D01*
X197264568Y-68544260D02*
X197264568Y-68428146D01*
X197264568Y-68428146D02*
X197303272Y-68273327D01*
X197303272Y-68273327D02*
X197341977Y-68195918D01*
X197341977Y-68195918D02*
X197419387Y-68118508D01*
X197419387Y-68118508D02*
X197535501Y-68079803D01*
X197535501Y-68079803D02*
X197612910Y-68079803D01*
X197612910Y-68079803D02*
X197729025Y-68118508D01*
X197729025Y-68118508D02*
X197767729Y-68157213D01*
X198116072Y-68466851D02*
X198387006Y-68466851D01*
X198503120Y-68892603D02*
X198116072Y-68892603D01*
X198116072Y-68892603D02*
X198116072Y-68079803D01*
X198116072Y-68079803D02*
X198503120Y-68079803D01*
X199238510Y-68892603D02*
X198851462Y-68892603D01*
X198851462Y-68892603D02*
X198851462Y-68079803D01*
X199509443Y-68466851D02*
X199780377Y-68466851D01*
X199896491Y-68892603D02*
X199509443Y-68892603D01*
X199509443Y-68892603D02*
X199509443Y-68079803D01*
X199509443Y-68079803D02*
X199896491Y-68079803D01*
X200709290Y-68892603D02*
X200438357Y-68505556D01*
X200244833Y-68892603D02*
X200244833Y-68079803D01*
X200244833Y-68079803D02*
X200554471Y-68079803D01*
X200554471Y-68079803D02*
X200631881Y-68118508D01*
X200631881Y-68118508D02*
X200670586Y-68157213D01*
X200670586Y-68157213D02*
X200709290Y-68234622D01*
X200709290Y-68234622D02*
X200709290Y-68350737D01*
X200709290Y-68350737D02*
X200670586Y-68428146D01*
X200670586Y-68428146D02*
X200631881Y-68466851D01*
X200631881Y-68466851D02*
X200554471Y-68505556D01*
X200554471Y-68505556D02*
X200244833Y-68505556D01*
X201212452Y-68079803D02*
X201367271Y-68079803D01*
X201367271Y-68079803D02*
X201444681Y-68118508D01*
X201444681Y-68118508D02*
X201522090Y-68195918D01*
X201522090Y-68195918D02*
X201560795Y-68350737D01*
X201560795Y-68350737D02*
X201560795Y-68621670D01*
X201560795Y-68621670D02*
X201522090Y-68776489D01*
X201522090Y-68776489D02*
X201444681Y-68853899D01*
X201444681Y-68853899D02*
X201367271Y-68892603D01*
X201367271Y-68892603D02*
X201212452Y-68892603D01*
X201212452Y-68892603D02*
X201135043Y-68853899D01*
X201135043Y-68853899D02*
X201057633Y-68776489D01*
X201057633Y-68776489D02*
X201018929Y-68621670D01*
X201018929Y-68621670D02*
X201018929Y-68350737D01*
X201018929Y-68350737D02*
X201057633Y-68195918D01*
X201057633Y-68195918D02*
X201135043Y-68118508D01*
X201135043Y-68118508D02*
X201212452Y-68079803D01*
X201909138Y-68892603D02*
X201909138Y-68079803D01*
X201909138Y-68079803D02*
X202180072Y-68660375D01*
X202180072Y-68660375D02*
X202451005Y-68079803D01*
X202451005Y-68079803D02*
X202451005Y-68892603D01*
X202838052Y-68466851D02*
X203108986Y-68466851D01*
X203225100Y-68892603D02*
X202838052Y-68892603D01*
X202838052Y-68892603D02*
X202838052Y-68079803D01*
X202838052Y-68079803D02*
X203225100Y-68079803D01*
X203457328Y-68079803D02*
X203921785Y-68079803D01*
X203689557Y-68892603D02*
X203689557Y-68079803D01*
X204192718Y-68466851D02*
X204463652Y-68466851D01*
X204579766Y-68892603D02*
X204192718Y-68892603D01*
X204192718Y-68892603D02*
X204192718Y-68079803D01*
X204192718Y-68079803D02*
X204579766Y-68079803D01*
X205392565Y-68892603D02*
X205121632Y-68505556D01*
X204928108Y-68892603D02*
X204928108Y-68079803D01*
X204928108Y-68079803D02*
X205237746Y-68079803D01*
X205237746Y-68079803D02*
X205315156Y-68118508D01*
X205315156Y-68118508D02*
X205353861Y-68157213D01*
X205353861Y-68157213D02*
X205392565Y-68234622D01*
X205392565Y-68234622D02*
X205392565Y-68350737D01*
X205392565Y-68350737D02*
X205353861Y-68428146D01*
X205353861Y-68428146D02*
X205315156Y-68466851D01*
X205315156Y-68466851D02*
X205237746Y-68505556D01*
X205237746Y-68505556D02*
X204928108Y-68505556D01*
D11*
X179321804Y-81994288D02*
X179321804Y-81181488D01*
X179321804Y-81181488D02*
X179550375Y-81181488D01*
X179550375Y-81181488D02*
X179607518Y-81220193D01*
X179607518Y-81220193D02*
X179636089Y-81258898D01*
X179636089Y-81258898D02*
X179664661Y-81336307D01*
X179664661Y-81336307D02*
X179664661Y-81452422D01*
X179664661Y-81452422D02*
X179636089Y-81529831D01*
X179636089Y-81529831D02*
X179607518Y-81568536D01*
X179607518Y-81568536D02*
X179550375Y-81607241D01*
X179550375Y-81607241D02*
X179321804Y-81607241D01*
X179864661Y-81181488D02*
X180007518Y-81994288D01*
X180007518Y-81994288D02*
X180121804Y-81413717D01*
X180121804Y-81413717D02*
X180236089Y-81994288D01*
X180236089Y-81994288D02*
X180378947Y-81181488D01*
X180950375Y-81994288D02*
X180750375Y-81607241D01*
X180607518Y-81994288D02*
X180607518Y-81181488D01*
X180607518Y-81181488D02*
X180836089Y-81181488D01*
X180836089Y-81181488D02*
X180893232Y-81220193D01*
X180893232Y-81220193D02*
X180921803Y-81258898D01*
X180921803Y-81258898D02*
X180950375Y-81336307D01*
X180950375Y-81336307D02*
X180950375Y-81452422D01*
X180950375Y-81452422D02*
X180921803Y-81529831D01*
X180921803Y-81529831D02*
X180893232Y-81568536D01*
X180893232Y-81568536D02*
X180836089Y-81607241D01*
X180836089Y-81607241D02*
X180607518Y-81607241D01*
D10*
X219792603Y-122506213D02*
X218979803Y-122506213D01*
X218979803Y-122506213D02*
X218979803Y-122196575D01*
X218979803Y-122196575D02*
X219018508Y-122119165D01*
X219018508Y-122119165D02*
X219057213Y-122080460D01*
X219057213Y-122080460D02*
X219134622Y-122041756D01*
X219134622Y-122041756D02*
X219250737Y-122041756D01*
X219250737Y-122041756D02*
X219328146Y-122080460D01*
X219328146Y-122080460D02*
X219366851Y-122119165D01*
X219366851Y-122119165D02*
X219405556Y-122196575D01*
X219405556Y-122196575D02*
X219405556Y-122506213D01*
X218979803Y-121770822D02*
X219792603Y-121577298D01*
X219792603Y-121577298D02*
X219212032Y-121422479D01*
X219212032Y-121422479D02*
X219792603Y-121267660D01*
X219792603Y-121267660D02*
X218979803Y-121074137D01*
X219792603Y-120300042D02*
X219405556Y-120570975D01*
X219792603Y-120764499D02*
X218979803Y-120764499D01*
X218979803Y-120764499D02*
X218979803Y-120454861D01*
X218979803Y-120454861D02*
X219018508Y-120377451D01*
X219018508Y-120377451D02*
X219057213Y-120338746D01*
X219057213Y-120338746D02*
X219134622Y-120300042D01*
X219134622Y-120300042D02*
X219250737Y-120300042D01*
X219250737Y-120300042D02*
X219328146Y-120338746D01*
X219328146Y-120338746D02*
X219366851Y-120377451D01*
X219366851Y-120377451D02*
X219405556Y-120454861D01*
X219405556Y-120454861D02*
X219405556Y-120764499D01*
D11*
X179905711Y-111221804D02*
X180718511Y-111221804D01*
X180718511Y-111221804D02*
X180718511Y-111450375D01*
X180718511Y-111450375D02*
X180679806Y-111507518D01*
X180679806Y-111507518D02*
X180641101Y-111536089D01*
X180641101Y-111536089D02*
X180563692Y-111564661D01*
X180563692Y-111564661D02*
X180447577Y-111564661D01*
X180447577Y-111564661D02*
X180370168Y-111536089D01*
X180370168Y-111536089D02*
X180331463Y-111507518D01*
X180331463Y-111507518D02*
X180292758Y-111450375D01*
X180292758Y-111450375D02*
X180292758Y-111221804D01*
X180718511Y-111764661D02*
X179905711Y-111907518D01*
X179905711Y-111907518D02*
X180486282Y-112021804D01*
X180486282Y-112021804D02*
X179905711Y-112136089D01*
X179905711Y-112136089D02*
X180718511Y-112278947D01*
X179905711Y-112850375D02*
X180292758Y-112650375D01*
X179905711Y-112507518D02*
X180718511Y-112507518D01*
X180718511Y-112507518D02*
X180718511Y-112736089D01*
X180718511Y-112736089D02*
X180679806Y-112793232D01*
X180679806Y-112793232D02*
X180641101Y-112821803D01*
X180641101Y-112821803D02*
X180563692Y-112850375D01*
X180563692Y-112850375D02*
X180447577Y-112850375D01*
X180447577Y-112850375D02*
X180370168Y-112821803D01*
X180370168Y-112821803D02*
X180331463Y-112793232D01*
X180331463Y-112793232D02*
X180292758Y-112736089D01*
X180292758Y-112736089D02*
X180292758Y-112507518D01*
X180979806Y-117036089D02*
X181018511Y-116978947D01*
X181018511Y-116978947D02*
X181018511Y-116893232D01*
X181018511Y-116893232D02*
X180979806Y-116807518D01*
X180979806Y-116807518D02*
X180902396Y-116750375D01*
X180902396Y-116750375D02*
X180824987Y-116721804D01*
X180824987Y-116721804D02*
X180670168Y-116693232D01*
X180670168Y-116693232D02*
X180554054Y-116693232D01*
X180554054Y-116693232D02*
X180399235Y-116721804D01*
X180399235Y-116721804D02*
X180321825Y-116750375D01*
X180321825Y-116750375D02*
X180244416Y-116807518D01*
X180244416Y-116807518D02*
X180205711Y-116893232D01*
X180205711Y-116893232D02*
X180205711Y-116950375D01*
X180205711Y-116950375D02*
X180244416Y-117036089D01*
X180244416Y-117036089D02*
X180283120Y-117064661D01*
X180283120Y-117064661D02*
X180554054Y-117064661D01*
X180554054Y-117064661D02*
X180554054Y-116950375D01*
X180205711Y-117321804D02*
X181018511Y-117321804D01*
X181018511Y-117321804D02*
X180205711Y-117664661D01*
X180205711Y-117664661D02*
X181018511Y-117664661D01*
X180205711Y-117950375D02*
X181018511Y-117950375D01*
X181018511Y-117950375D02*
X181018511Y-118093232D01*
X181018511Y-118093232D02*
X180979806Y-118178946D01*
X180979806Y-118178946D02*
X180902396Y-118236089D01*
X180902396Y-118236089D02*
X180824987Y-118264660D01*
X180824987Y-118264660D02*
X180670168Y-118293232D01*
X180670168Y-118293232D02*
X180554054Y-118293232D01*
X180554054Y-118293232D02*
X180399235Y-118264660D01*
X180399235Y-118264660D02*
X180321825Y-118236089D01*
X180321825Y-118236089D02*
X180244416Y-118178946D01*
X180244416Y-118178946D02*
X180205711Y-118093232D01*
X180205711Y-118093232D02*
X180205711Y-117950375D01*
D10*
X184241710Y-93593786D02*
X184241710Y-93864720D01*
X183815958Y-93980834D02*
X183815958Y-93593786D01*
X183815958Y-93593786D02*
X184628758Y-93593786D01*
X184628758Y-93593786D02*
X184628758Y-93980834D01*
X183854663Y-94290472D02*
X183815958Y-94406586D01*
X183815958Y-94406586D02*
X183815958Y-94600110D01*
X183815958Y-94600110D02*
X183854663Y-94677519D01*
X183854663Y-94677519D02*
X183893367Y-94716224D01*
X183893367Y-94716224D02*
X183970777Y-94754929D01*
X183970777Y-94754929D02*
X184048186Y-94754929D01*
X184048186Y-94754929D02*
X184125596Y-94716224D01*
X184125596Y-94716224D02*
X184164301Y-94677519D01*
X184164301Y-94677519D02*
X184203005Y-94600110D01*
X184203005Y-94600110D02*
X184241710Y-94445291D01*
X184241710Y-94445291D02*
X184280415Y-94367881D01*
X184280415Y-94367881D02*
X184319120Y-94329176D01*
X184319120Y-94329176D02*
X184396529Y-94290472D01*
X184396529Y-94290472D02*
X184473939Y-94290472D01*
X184473939Y-94290472D02*
X184551348Y-94329176D01*
X184551348Y-94329176D02*
X184590053Y-94367881D01*
X184590053Y-94367881D02*
X184628758Y-94445291D01*
X184628758Y-94445291D02*
X184628758Y-94638814D01*
X184628758Y-94638814D02*
X184590053Y-94754929D01*
X183893367Y-95567728D02*
X183854663Y-95529024D01*
X183854663Y-95529024D02*
X183815958Y-95412909D01*
X183815958Y-95412909D02*
X183815958Y-95335500D01*
X183815958Y-95335500D02*
X183854663Y-95219386D01*
X183854663Y-95219386D02*
X183932072Y-95141976D01*
X183932072Y-95141976D02*
X184009482Y-95103271D01*
X184009482Y-95103271D02*
X184164301Y-95064567D01*
X184164301Y-95064567D02*
X184280415Y-95064567D01*
X184280415Y-95064567D02*
X184435234Y-95103271D01*
X184435234Y-95103271D02*
X184512643Y-95141976D01*
X184512643Y-95141976D02*
X184590053Y-95219386D01*
X184590053Y-95219386D02*
X184628758Y-95335500D01*
X184628758Y-95335500D02*
X184628758Y-95412909D01*
X184628758Y-95412909D02*
X184590053Y-95529024D01*
X184590053Y-95529024D02*
X184551348Y-95567728D01*
X183738548Y-95722548D02*
X183738548Y-96341824D01*
X184551348Y-96496643D02*
X184590053Y-96535347D01*
X184590053Y-96535347D02*
X184628758Y-96612757D01*
X184628758Y-96612757D02*
X184628758Y-96806281D01*
X184628758Y-96806281D02*
X184590053Y-96883690D01*
X184590053Y-96883690D02*
X184551348Y-96922395D01*
X184551348Y-96922395D02*
X184473939Y-96961100D01*
X184473939Y-96961100D02*
X184396529Y-96961100D01*
X184396529Y-96961100D02*
X184280415Y-96922395D01*
X184280415Y-96922395D02*
X183815958Y-96457938D01*
X183815958Y-96457938D02*
X183815958Y-96961100D01*
X219853899Y-133144917D02*
X219892603Y-133028803D01*
X219892603Y-133028803D02*
X219892603Y-132835279D01*
X219892603Y-132835279D02*
X219853899Y-132757870D01*
X219853899Y-132757870D02*
X219815194Y-132719165D01*
X219815194Y-132719165D02*
X219737784Y-132680460D01*
X219737784Y-132680460D02*
X219660375Y-132680460D01*
X219660375Y-132680460D02*
X219582965Y-132719165D01*
X219582965Y-132719165D02*
X219544260Y-132757870D01*
X219544260Y-132757870D02*
X219505556Y-132835279D01*
X219505556Y-132835279D02*
X219466851Y-132990098D01*
X219466851Y-132990098D02*
X219428146Y-133067508D01*
X219428146Y-133067508D02*
X219389441Y-133106213D01*
X219389441Y-133106213D02*
X219312032Y-133144917D01*
X219312032Y-133144917D02*
X219234622Y-133144917D01*
X219234622Y-133144917D02*
X219157213Y-133106213D01*
X219157213Y-133106213D02*
X219118508Y-133067508D01*
X219118508Y-133067508D02*
X219079803Y-132990098D01*
X219079803Y-132990098D02*
X219079803Y-132796575D01*
X219079803Y-132796575D02*
X219118508Y-132680460D01*
X219892603Y-132332118D02*
X219079803Y-132332118D01*
X219118508Y-131519317D02*
X219079803Y-131596727D01*
X219079803Y-131596727D02*
X219079803Y-131712841D01*
X219079803Y-131712841D02*
X219118508Y-131828955D01*
X219118508Y-131828955D02*
X219195918Y-131906365D01*
X219195918Y-131906365D02*
X219273327Y-131945070D01*
X219273327Y-131945070D02*
X219428146Y-131983774D01*
X219428146Y-131983774D02*
X219544260Y-131983774D01*
X219544260Y-131983774D02*
X219699079Y-131945070D01*
X219699079Y-131945070D02*
X219776489Y-131906365D01*
X219776489Y-131906365D02*
X219853899Y-131828955D01*
X219853899Y-131828955D02*
X219892603Y-131712841D01*
X219892603Y-131712841D02*
X219892603Y-131635432D01*
X219892603Y-131635432D02*
X219853899Y-131519317D01*
X219853899Y-131519317D02*
X219815194Y-131480613D01*
X219815194Y-131480613D02*
X219544260Y-131480613D01*
X219544260Y-131480613D02*
X219544260Y-131635432D01*
D11*
X179736089Y-86220193D02*
X179678947Y-86181488D01*
X179678947Y-86181488D02*
X179593232Y-86181488D01*
X179593232Y-86181488D02*
X179507518Y-86220193D01*
X179507518Y-86220193D02*
X179450375Y-86297603D01*
X179450375Y-86297603D02*
X179421804Y-86375012D01*
X179421804Y-86375012D02*
X179393232Y-86529831D01*
X179393232Y-86529831D02*
X179393232Y-86645945D01*
X179393232Y-86645945D02*
X179421804Y-86800764D01*
X179421804Y-86800764D02*
X179450375Y-86878174D01*
X179450375Y-86878174D02*
X179507518Y-86955584D01*
X179507518Y-86955584D02*
X179593232Y-86994288D01*
X179593232Y-86994288D02*
X179650375Y-86994288D01*
X179650375Y-86994288D02*
X179736089Y-86955584D01*
X179736089Y-86955584D02*
X179764661Y-86916879D01*
X179764661Y-86916879D02*
X179764661Y-86645945D01*
X179764661Y-86645945D02*
X179650375Y-86645945D01*
X180021804Y-86994288D02*
X180021804Y-86181488D01*
X180021804Y-86181488D02*
X180364661Y-86994288D01*
X180364661Y-86994288D02*
X180364661Y-86181488D01*
X180650375Y-86994288D02*
X180650375Y-86181488D01*
X180650375Y-86181488D02*
X180793232Y-86181488D01*
X180793232Y-86181488D02*
X180878946Y-86220193D01*
X180878946Y-86220193D02*
X180936089Y-86297603D01*
X180936089Y-86297603D02*
X180964660Y-86375012D01*
X180964660Y-86375012D02*
X180993232Y-86529831D01*
X180993232Y-86529831D02*
X180993232Y-86645945D01*
X180993232Y-86645945D02*
X180964660Y-86800764D01*
X180964660Y-86800764D02*
X180936089Y-86878174D01*
X180936089Y-86878174D02*
X180878946Y-86955584D01*
X180878946Y-86955584D02*
X180793232Y-86994288D01*
X180793232Y-86994288D02*
X180650375Y-86994288D01*
X187593232Y-76855584D02*
X187678947Y-76894288D01*
X187678947Y-76894288D02*
X187821804Y-76894288D01*
X187821804Y-76894288D02*
X187878947Y-76855584D01*
X187878947Y-76855584D02*
X187907518Y-76816879D01*
X187907518Y-76816879D02*
X187936089Y-76739469D01*
X187936089Y-76739469D02*
X187936089Y-76662060D01*
X187936089Y-76662060D02*
X187907518Y-76584650D01*
X187907518Y-76584650D02*
X187878947Y-76545945D01*
X187878947Y-76545945D02*
X187821804Y-76507241D01*
X187821804Y-76507241D02*
X187707518Y-76468536D01*
X187707518Y-76468536D02*
X187650375Y-76429831D01*
X187650375Y-76429831D02*
X187621804Y-76391126D01*
X187621804Y-76391126D02*
X187593232Y-76313717D01*
X187593232Y-76313717D02*
X187593232Y-76236307D01*
X187593232Y-76236307D02*
X187621804Y-76158898D01*
X187621804Y-76158898D02*
X187650375Y-76120193D01*
X187650375Y-76120193D02*
X187707518Y-76081488D01*
X187707518Y-76081488D02*
X187850375Y-76081488D01*
X187850375Y-76081488D02*
X187936089Y-76120193D01*
X188536090Y-76816879D02*
X188507518Y-76855584D01*
X188507518Y-76855584D02*
X188421804Y-76894288D01*
X188421804Y-76894288D02*
X188364661Y-76894288D01*
X188364661Y-76894288D02*
X188278947Y-76855584D01*
X188278947Y-76855584D02*
X188221804Y-76778174D01*
X188221804Y-76778174D02*
X188193233Y-76700764D01*
X188193233Y-76700764D02*
X188164661Y-76545945D01*
X188164661Y-76545945D02*
X188164661Y-76429831D01*
X188164661Y-76429831D02*
X188193233Y-76275012D01*
X188193233Y-76275012D02*
X188221804Y-76197603D01*
X188221804Y-76197603D02*
X188278947Y-76120193D01*
X188278947Y-76120193D02*
X188364661Y-76081488D01*
X188364661Y-76081488D02*
X188421804Y-76081488D01*
X188421804Y-76081488D02*
X188507518Y-76120193D01*
X188507518Y-76120193D02*
X188536090Y-76158898D01*
X189078947Y-76894288D02*
X188793233Y-76894288D01*
X188793233Y-76894288D02*
X188793233Y-76081488D01*
D10*
X219018508Y-127580460D02*
X218979803Y-127657870D01*
X218979803Y-127657870D02*
X218979803Y-127773984D01*
X218979803Y-127773984D02*
X219018508Y-127890098D01*
X219018508Y-127890098D02*
X219095918Y-127967508D01*
X219095918Y-127967508D02*
X219173327Y-128006213D01*
X219173327Y-128006213D02*
X219328146Y-128044917D01*
X219328146Y-128044917D02*
X219444260Y-128044917D01*
X219444260Y-128044917D02*
X219599079Y-128006213D01*
X219599079Y-128006213D02*
X219676489Y-127967508D01*
X219676489Y-127967508D02*
X219753899Y-127890098D01*
X219753899Y-127890098D02*
X219792603Y-127773984D01*
X219792603Y-127773984D02*
X219792603Y-127696575D01*
X219792603Y-127696575D02*
X219753899Y-127580460D01*
X219753899Y-127580460D02*
X219715194Y-127541756D01*
X219715194Y-127541756D02*
X219444260Y-127541756D01*
X219444260Y-127541756D02*
X219444260Y-127696575D01*
X219792603Y-127193413D02*
X218979803Y-127193413D01*
X218979803Y-127193413D02*
X219792603Y-126728956D01*
X219792603Y-126728956D02*
X218979803Y-126728956D01*
X219792603Y-126341908D02*
X218979803Y-126341908D01*
X218979803Y-126341908D02*
X218979803Y-126148384D01*
X218979803Y-126148384D02*
X219018508Y-126032270D01*
X219018508Y-126032270D02*
X219095918Y-125954860D01*
X219095918Y-125954860D02*
X219173327Y-125916155D01*
X219173327Y-125916155D02*
X219328146Y-125877451D01*
X219328146Y-125877451D02*
X219444260Y-125877451D01*
X219444260Y-125877451D02*
X219599079Y-125916155D01*
X219599079Y-125916155D02*
X219676489Y-125954860D01*
X219676489Y-125954860D02*
X219753899Y-126032270D01*
X219753899Y-126032270D02*
X219792603Y-126148384D01*
X219792603Y-126148384D02*
X219792603Y-126341908D01*
D11*
X187593232Y-79155584D02*
X187678947Y-79194288D01*
X187678947Y-79194288D02*
X187821804Y-79194288D01*
X187821804Y-79194288D02*
X187878947Y-79155584D01*
X187878947Y-79155584D02*
X187907518Y-79116879D01*
X187907518Y-79116879D02*
X187936089Y-79039469D01*
X187936089Y-79039469D02*
X187936089Y-78962060D01*
X187936089Y-78962060D02*
X187907518Y-78884650D01*
X187907518Y-78884650D02*
X187878947Y-78845945D01*
X187878947Y-78845945D02*
X187821804Y-78807241D01*
X187821804Y-78807241D02*
X187707518Y-78768536D01*
X187707518Y-78768536D02*
X187650375Y-78729831D01*
X187650375Y-78729831D02*
X187621804Y-78691126D01*
X187621804Y-78691126D02*
X187593232Y-78613717D01*
X187593232Y-78613717D02*
X187593232Y-78536307D01*
X187593232Y-78536307D02*
X187621804Y-78458898D01*
X187621804Y-78458898D02*
X187650375Y-78420193D01*
X187650375Y-78420193D02*
X187707518Y-78381488D01*
X187707518Y-78381488D02*
X187850375Y-78381488D01*
X187850375Y-78381488D02*
X187936089Y-78420193D01*
X188193233Y-79194288D02*
X188193233Y-78381488D01*
X188193233Y-78381488D02*
X188336090Y-78381488D01*
X188336090Y-78381488D02*
X188421804Y-78420193D01*
X188421804Y-78420193D02*
X188478947Y-78497603D01*
X188478947Y-78497603D02*
X188507518Y-78575012D01*
X188507518Y-78575012D02*
X188536090Y-78729831D01*
X188536090Y-78729831D02*
X188536090Y-78845945D01*
X188536090Y-78845945D02*
X188507518Y-79000764D01*
X188507518Y-79000764D02*
X188478947Y-79078174D01*
X188478947Y-79078174D02*
X188421804Y-79155584D01*
X188421804Y-79155584D02*
X188336090Y-79194288D01*
X188336090Y-79194288D02*
X188193233Y-79194288D01*
X188764661Y-78962060D02*
X189050376Y-78962060D01*
X188707518Y-79194288D02*
X188907518Y-78381488D01*
X188907518Y-78381488D02*
X189107518Y-79194288D01*
X187936089Y-83420193D02*
X187878947Y-83381488D01*
X187878947Y-83381488D02*
X187793232Y-83381488D01*
X187793232Y-83381488D02*
X187707518Y-83420193D01*
X187707518Y-83420193D02*
X187650375Y-83497603D01*
X187650375Y-83497603D02*
X187621804Y-83575012D01*
X187621804Y-83575012D02*
X187593232Y-83729831D01*
X187593232Y-83729831D02*
X187593232Y-83845945D01*
X187593232Y-83845945D02*
X187621804Y-84000764D01*
X187621804Y-84000764D02*
X187650375Y-84078174D01*
X187650375Y-84078174D02*
X187707518Y-84155584D01*
X187707518Y-84155584D02*
X187793232Y-84194288D01*
X187793232Y-84194288D02*
X187850375Y-84194288D01*
X187850375Y-84194288D02*
X187936089Y-84155584D01*
X187936089Y-84155584D02*
X187964661Y-84116879D01*
X187964661Y-84116879D02*
X187964661Y-83845945D01*
X187964661Y-83845945D02*
X187850375Y-83845945D01*
X188221804Y-84194288D02*
X188221804Y-83381488D01*
X188221804Y-83381488D02*
X188564661Y-84194288D01*
X188564661Y-84194288D02*
X188564661Y-83381488D01*
X188850375Y-84194288D02*
X188850375Y-83381488D01*
X188850375Y-83381488D02*
X188993232Y-83381488D01*
X188993232Y-83381488D02*
X189078946Y-83420193D01*
X189078946Y-83420193D02*
X189136089Y-83497603D01*
X189136089Y-83497603D02*
X189164660Y-83575012D01*
X189164660Y-83575012D02*
X189193232Y-83729831D01*
X189193232Y-83729831D02*
X189193232Y-83845945D01*
X189193232Y-83845945D02*
X189164660Y-84000764D01*
X189164660Y-84000764D02*
X189136089Y-84078174D01*
X189136089Y-84078174D02*
X189078946Y-84155584D01*
X189078946Y-84155584D02*
X188993232Y-84194288D01*
X188993232Y-84194288D02*
X188850375Y-84194288D01*
D10*
X184233148Y-82393786D02*
X184233148Y-82664720D01*
X183807396Y-82780834D02*
X183807396Y-82393786D01*
X183807396Y-82393786D02*
X184620196Y-82393786D01*
X184620196Y-82393786D02*
X184620196Y-82780834D01*
X183846101Y-83090472D02*
X183807396Y-83206586D01*
X183807396Y-83206586D02*
X183807396Y-83400110D01*
X183807396Y-83400110D02*
X183846101Y-83477519D01*
X183846101Y-83477519D02*
X183884805Y-83516224D01*
X183884805Y-83516224D02*
X183962215Y-83554929D01*
X183962215Y-83554929D02*
X184039624Y-83554929D01*
X184039624Y-83554929D02*
X184117034Y-83516224D01*
X184117034Y-83516224D02*
X184155739Y-83477519D01*
X184155739Y-83477519D02*
X184194443Y-83400110D01*
X184194443Y-83400110D02*
X184233148Y-83245291D01*
X184233148Y-83245291D02*
X184271853Y-83167881D01*
X184271853Y-83167881D02*
X184310558Y-83129176D01*
X184310558Y-83129176D02*
X184387967Y-83090472D01*
X184387967Y-83090472D02*
X184465377Y-83090472D01*
X184465377Y-83090472D02*
X184542786Y-83129176D01*
X184542786Y-83129176D02*
X184581491Y-83167881D01*
X184581491Y-83167881D02*
X184620196Y-83245291D01*
X184620196Y-83245291D02*
X184620196Y-83438814D01*
X184620196Y-83438814D02*
X184581491Y-83554929D01*
X183884805Y-84367728D02*
X183846101Y-84329024D01*
X183846101Y-84329024D02*
X183807396Y-84212909D01*
X183807396Y-84212909D02*
X183807396Y-84135500D01*
X183807396Y-84135500D02*
X183846101Y-84019386D01*
X183846101Y-84019386D02*
X183923510Y-83941976D01*
X183923510Y-83941976D02*
X184000920Y-83903271D01*
X184000920Y-83903271D02*
X184155739Y-83864567D01*
X184155739Y-83864567D02*
X184271853Y-83864567D01*
X184271853Y-83864567D02*
X184426672Y-83903271D01*
X184426672Y-83903271D02*
X184504081Y-83941976D01*
X184504081Y-83941976D02*
X184581491Y-84019386D01*
X184581491Y-84019386D02*
X184620196Y-84135500D01*
X184620196Y-84135500D02*
X184620196Y-84212909D01*
X184620196Y-84212909D02*
X184581491Y-84329024D01*
X184581491Y-84329024D02*
X184542786Y-84367728D01*
X183729986Y-84522548D02*
X183729986Y-85141824D01*
X183807396Y-85761100D02*
X183807396Y-85296643D01*
X183807396Y-85528871D02*
X184620196Y-85528871D01*
X184620196Y-85528871D02*
X184504081Y-85451462D01*
X184504081Y-85451462D02*
X184426672Y-85374052D01*
X184426672Y-85374052D02*
X184387967Y-85296643D01*
X219884041Y-104406213D02*
X219071241Y-104406213D01*
X219071241Y-104406213D02*
X219071241Y-104096575D01*
X219071241Y-104096575D02*
X219109946Y-104019165D01*
X219109946Y-104019165D02*
X219148651Y-103980460D01*
X219148651Y-103980460D02*
X219226060Y-103941756D01*
X219226060Y-103941756D02*
X219342175Y-103941756D01*
X219342175Y-103941756D02*
X219419584Y-103980460D01*
X219419584Y-103980460D02*
X219458289Y-104019165D01*
X219458289Y-104019165D02*
X219496994Y-104096575D01*
X219496994Y-104096575D02*
X219496994Y-104406213D01*
X219071241Y-103670822D02*
X219884041Y-103477298D01*
X219884041Y-103477298D02*
X219303470Y-103322479D01*
X219303470Y-103322479D02*
X219884041Y-103167660D01*
X219884041Y-103167660D02*
X219071241Y-102974137D01*
X219884041Y-102200042D02*
X219496994Y-102470975D01*
X219884041Y-102664499D02*
X219071241Y-102664499D01*
X219071241Y-102664499D02*
X219071241Y-102354861D01*
X219071241Y-102354861D02*
X219109946Y-102277451D01*
X219109946Y-102277451D02*
X219148651Y-102238746D01*
X219148651Y-102238746D02*
X219226060Y-102200042D01*
X219226060Y-102200042D02*
X219342175Y-102200042D01*
X219342175Y-102200042D02*
X219419584Y-102238746D01*
X219419584Y-102238746D02*
X219458289Y-102277451D01*
X219458289Y-102277451D02*
X219496994Y-102354861D01*
X219496994Y-102354861D02*
X219496994Y-102664499D01*
D11*
X179493232Y-95255584D02*
X179578947Y-95294288D01*
X179578947Y-95294288D02*
X179721804Y-95294288D01*
X179721804Y-95294288D02*
X179778947Y-95255584D01*
X179778947Y-95255584D02*
X179807518Y-95216879D01*
X179807518Y-95216879D02*
X179836089Y-95139469D01*
X179836089Y-95139469D02*
X179836089Y-95062060D01*
X179836089Y-95062060D02*
X179807518Y-94984650D01*
X179807518Y-94984650D02*
X179778947Y-94945945D01*
X179778947Y-94945945D02*
X179721804Y-94907241D01*
X179721804Y-94907241D02*
X179607518Y-94868536D01*
X179607518Y-94868536D02*
X179550375Y-94829831D01*
X179550375Y-94829831D02*
X179521804Y-94791126D01*
X179521804Y-94791126D02*
X179493232Y-94713717D01*
X179493232Y-94713717D02*
X179493232Y-94636307D01*
X179493232Y-94636307D02*
X179521804Y-94558898D01*
X179521804Y-94558898D02*
X179550375Y-94520193D01*
X179550375Y-94520193D02*
X179607518Y-94481488D01*
X179607518Y-94481488D02*
X179750375Y-94481488D01*
X179750375Y-94481488D02*
X179836089Y-94520193D01*
X180093233Y-95294288D02*
X180093233Y-94481488D01*
X180693232Y-94520193D02*
X180636090Y-94481488D01*
X180636090Y-94481488D02*
X180550375Y-94481488D01*
X180550375Y-94481488D02*
X180464661Y-94520193D01*
X180464661Y-94520193D02*
X180407518Y-94597603D01*
X180407518Y-94597603D02*
X180378947Y-94675012D01*
X180378947Y-94675012D02*
X180350375Y-94829831D01*
X180350375Y-94829831D02*
X180350375Y-94945945D01*
X180350375Y-94945945D02*
X180378947Y-95100764D01*
X180378947Y-95100764D02*
X180407518Y-95178174D01*
X180407518Y-95178174D02*
X180464661Y-95255584D01*
X180464661Y-95255584D02*
X180550375Y-95294288D01*
X180550375Y-95294288D02*
X180607518Y-95294288D01*
X180607518Y-95294288D02*
X180693232Y-95255584D01*
X180693232Y-95255584D02*
X180721804Y-95216879D01*
X180721804Y-95216879D02*
X180721804Y-94945945D01*
X180721804Y-94945945D02*
X180607518Y-94945945D01*
X179393232Y-84355584D02*
X179478947Y-84394288D01*
X179478947Y-84394288D02*
X179621804Y-84394288D01*
X179621804Y-84394288D02*
X179678947Y-84355584D01*
X179678947Y-84355584D02*
X179707518Y-84316879D01*
X179707518Y-84316879D02*
X179736089Y-84239469D01*
X179736089Y-84239469D02*
X179736089Y-84162060D01*
X179736089Y-84162060D02*
X179707518Y-84084650D01*
X179707518Y-84084650D02*
X179678947Y-84045945D01*
X179678947Y-84045945D02*
X179621804Y-84007241D01*
X179621804Y-84007241D02*
X179507518Y-83968536D01*
X179507518Y-83968536D02*
X179450375Y-83929831D01*
X179450375Y-83929831D02*
X179421804Y-83891126D01*
X179421804Y-83891126D02*
X179393232Y-83813717D01*
X179393232Y-83813717D02*
X179393232Y-83736307D01*
X179393232Y-83736307D02*
X179421804Y-83658898D01*
X179421804Y-83658898D02*
X179450375Y-83620193D01*
X179450375Y-83620193D02*
X179507518Y-83581488D01*
X179507518Y-83581488D02*
X179650375Y-83581488D01*
X179650375Y-83581488D02*
X179736089Y-83620193D01*
X179993233Y-84394288D02*
X179993233Y-83581488D01*
X180593232Y-83620193D02*
X180536090Y-83581488D01*
X180536090Y-83581488D02*
X180450375Y-83581488D01*
X180450375Y-83581488D02*
X180364661Y-83620193D01*
X180364661Y-83620193D02*
X180307518Y-83697603D01*
X180307518Y-83697603D02*
X180278947Y-83775012D01*
X180278947Y-83775012D02*
X180250375Y-83929831D01*
X180250375Y-83929831D02*
X180250375Y-84045945D01*
X180250375Y-84045945D02*
X180278947Y-84200764D01*
X180278947Y-84200764D02*
X180307518Y-84278174D01*
X180307518Y-84278174D02*
X180364661Y-84355584D01*
X180364661Y-84355584D02*
X180450375Y-84394288D01*
X180450375Y-84394288D02*
X180507518Y-84394288D01*
X180507518Y-84394288D02*
X180593232Y-84355584D01*
X180593232Y-84355584D02*
X180621804Y-84316879D01*
X180621804Y-84316879D02*
X180621804Y-84045945D01*
X180621804Y-84045945D02*
X180507518Y-84045945D01*
X187564661Y-80781488D02*
X187936089Y-80781488D01*
X187936089Y-80781488D02*
X187736089Y-81091126D01*
X187736089Y-81091126D02*
X187821804Y-81091126D01*
X187821804Y-81091126D02*
X187878947Y-81129831D01*
X187878947Y-81129831D02*
X187907518Y-81168536D01*
X187907518Y-81168536D02*
X187936089Y-81245945D01*
X187936089Y-81245945D02*
X187936089Y-81439469D01*
X187936089Y-81439469D02*
X187907518Y-81516879D01*
X187907518Y-81516879D02*
X187878947Y-81555584D01*
X187878947Y-81555584D02*
X187821804Y-81594288D01*
X187821804Y-81594288D02*
X187650375Y-81594288D01*
X187650375Y-81594288D02*
X187593232Y-81555584D01*
X187593232Y-81555584D02*
X187564661Y-81516879D01*
X188107518Y-80781488D02*
X188307518Y-81594288D01*
X188307518Y-81594288D02*
X188507518Y-80781488D01*
X188650376Y-80781488D02*
X189021804Y-80781488D01*
X189021804Y-80781488D02*
X188821804Y-81091126D01*
X188821804Y-81091126D02*
X188907519Y-81091126D01*
X188907519Y-81091126D02*
X188964662Y-81129831D01*
X188964662Y-81129831D02*
X188993233Y-81168536D01*
X188993233Y-81168536D02*
X189021804Y-81245945D01*
X189021804Y-81245945D02*
X189021804Y-81439469D01*
X189021804Y-81439469D02*
X188993233Y-81516879D01*
X188993233Y-81516879D02*
X188964662Y-81555584D01*
X188964662Y-81555584D02*
X188907519Y-81594288D01*
X188907519Y-81594288D02*
X188736090Y-81594288D01*
X188736090Y-81594288D02*
X188678947Y-81555584D01*
X188678947Y-81555584D02*
X188650376Y-81516879D01*
D10*
X216153899Y-128444917D02*
X216192603Y-128328803D01*
X216192603Y-128328803D02*
X216192603Y-128135279D01*
X216192603Y-128135279D02*
X216153899Y-128057870D01*
X216153899Y-128057870D02*
X216115194Y-128019165D01*
X216115194Y-128019165D02*
X216037784Y-127980460D01*
X216037784Y-127980460D02*
X215960375Y-127980460D01*
X215960375Y-127980460D02*
X215882965Y-128019165D01*
X215882965Y-128019165D02*
X215844260Y-128057870D01*
X215844260Y-128057870D02*
X215805556Y-128135279D01*
X215805556Y-128135279D02*
X215766851Y-128290098D01*
X215766851Y-128290098D02*
X215728146Y-128367508D01*
X215728146Y-128367508D02*
X215689441Y-128406213D01*
X215689441Y-128406213D02*
X215612032Y-128444917D01*
X215612032Y-128444917D02*
X215534622Y-128444917D01*
X215534622Y-128444917D02*
X215457213Y-128406213D01*
X215457213Y-128406213D02*
X215418508Y-128367508D01*
X215418508Y-128367508D02*
X215379803Y-128290098D01*
X215379803Y-128290098D02*
X215379803Y-128096575D01*
X215379803Y-128096575D02*
X215418508Y-127980460D01*
X215379803Y-127748232D02*
X215379803Y-127283775D01*
X216192603Y-127516003D02*
X215379803Y-127516003D01*
X215960375Y-127051546D02*
X215960375Y-126664499D01*
X216192603Y-127128956D02*
X215379803Y-126858023D01*
X215379803Y-126858023D02*
X216192603Y-126587089D01*
X215379803Y-126432270D02*
X215379803Y-125967813D01*
X216192603Y-126200041D02*
X215379803Y-126200041D01*
X215379803Y-125696880D02*
X216037784Y-125696880D01*
X216037784Y-125696880D02*
X216115194Y-125658175D01*
X216115194Y-125658175D02*
X216153899Y-125619470D01*
X216153899Y-125619470D02*
X216192603Y-125542061D01*
X216192603Y-125542061D02*
X216192603Y-125387242D01*
X216192603Y-125387242D02*
X216153899Y-125309832D01*
X216153899Y-125309832D02*
X216115194Y-125271127D01*
X216115194Y-125271127D02*
X216037784Y-125232423D01*
X216037784Y-125232423D02*
X215379803Y-125232423D01*
X216153899Y-124884079D02*
X216192603Y-124767965D01*
X216192603Y-124767965D02*
X216192603Y-124574441D01*
X216192603Y-124574441D02*
X216153899Y-124497032D01*
X216153899Y-124497032D02*
X216115194Y-124458327D01*
X216115194Y-124458327D02*
X216037784Y-124419622D01*
X216037784Y-124419622D02*
X215960375Y-124419622D01*
X215960375Y-124419622D02*
X215882965Y-124458327D01*
X215882965Y-124458327D02*
X215844260Y-124497032D01*
X215844260Y-124497032D02*
X215805556Y-124574441D01*
X215805556Y-124574441D02*
X215766851Y-124729260D01*
X215766851Y-124729260D02*
X215728146Y-124806670D01*
X215728146Y-124806670D02*
X215689441Y-124845375D01*
X215689441Y-124845375D02*
X215612032Y-124884079D01*
X215612032Y-124884079D02*
X215534622Y-124884079D01*
X215534622Y-124884079D02*
X215457213Y-124845375D01*
X215457213Y-124845375D02*
X215418508Y-124806670D01*
X215418508Y-124806670D02*
X215379803Y-124729260D01*
X215379803Y-124729260D02*
X215379803Y-124535737D01*
X215379803Y-124535737D02*
X215418508Y-124419622D01*
X216192603Y-123064956D02*
X216192603Y-123452004D01*
X216192603Y-123452004D02*
X215379803Y-123452004D01*
X215766851Y-122794023D02*
X215766851Y-122523089D01*
X216192603Y-122406975D02*
X216192603Y-122794023D01*
X216192603Y-122794023D02*
X215379803Y-122794023D01*
X215379803Y-122794023D02*
X215379803Y-122406975D01*
X216192603Y-122058633D02*
X215379803Y-122058633D01*
X215379803Y-122058633D02*
X215379803Y-121865109D01*
X215379803Y-121865109D02*
X215418508Y-121748995D01*
X215418508Y-121748995D02*
X215495918Y-121671585D01*
X215495918Y-121671585D02*
X215573327Y-121632880D01*
X215573327Y-121632880D02*
X215728146Y-121594176D01*
X215728146Y-121594176D02*
X215844260Y-121594176D01*
X215844260Y-121594176D02*
X215999079Y-121632880D01*
X215999079Y-121632880D02*
X216076489Y-121671585D01*
X216076489Y-121671585D02*
X216153899Y-121748995D01*
X216153899Y-121748995D02*
X216192603Y-121865109D01*
X216192603Y-121865109D02*
X216192603Y-122058633D01*
D11*
X179421804Y-92894288D02*
X179421804Y-92081488D01*
X179421804Y-92081488D02*
X179650375Y-92081488D01*
X179650375Y-92081488D02*
X179707518Y-92120193D01*
X179707518Y-92120193D02*
X179736089Y-92158898D01*
X179736089Y-92158898D02*
X179764661Y-92236307D01*
X179764661Y-92236307D02*
X179764661Y-92352422D01*
X179764661Y-92352422D02*
X179736089Y-92429831D01*
X179736089Y-92429831D02*
X179707518Y-92468536D01*
X179707518Y-92468536D02*
X179650375Y-92507241D01*
X179650375Y-92507241D02*
X179421804Y-92507241D01*
X179964661Y-92081488D02*
X180107518Y-92894288D01*
X180107518Y-92894288D02*
X180221804Y-92313717D01*
X180221804Y-92313717D02*
X180336089Y-92894288D01*
X180336089Y-92894288D02*
X180478947Y-92081488D01*
X181050375Y-92894288D02*
X180850375Y-92507241D01*
X180707518Y-92894288D02*
X180707518Y-92081488D01*
X180707518Y-92081488D02*
X180936089Y-92081488D01*
X180936089Y-92081488D02*
X180993232Y-92120193D01*
X180993232Y-92120193D02*
X181021803Y-92158898D01*
X181021803Y-92158898D02*
X181050375Y-92236307D01*
X181050375Y-92236307D02*
X181050375Y-92352422D01*
X181050375Y-92352422D02*
X181021803Y-92429831D01*
X181021803Y-92429831D02*
X180993232Y-92468536D01*
X180993232Y-92468536D02*
X180936089Y-92507241D01*
X180936089Y-92507241D02*
X180707518Y-92507241D01*
D10*
X215792603Y-106441756D02*
X215405556Y-106712689D01*
X215792603Y-106906213D02*
X214979803Y-106906213D01*
X214979803Y-106906213D02*
X214979803Y-106596575D01*
X214979803Y-106596575D02*
X215018508Y-106519165D01*
X215018508Y-106519165D02*
X215057213Y-106480460D01*
X215057213Y-106480460D02*
X215134622Y-106441756D01*
X215134622Y-106441756D02*
X215250737Y-106441756D01*
X215250737Y-106441756D02*
X215328146Y-106480460D01*
X215328146Y-106480460D02*
X215366851Y-106519165D01*
X215366851Y-106519165D02*
X215405556Y-106596575D01*
X215405556Y-106596575D02*
X215405556Y-106906213D01*
X215366851Y-106093413D02*
X215366851Y-105822479D01*
X215792603Y-105706365D02*
X215792603Y-106093413D01*
X215792603Y-106093413D02*
X214979803Y-106093413D01*
X214979803Y-106093413D02*
X214979803Y-105706365D01*
X215715194Y-104893566D02*
X215753899Y-104932270D01*
X215753899Y-104932270D02*
X215792603Y-105048385D01*
X215792603Y-105048385D02*
X215792603Y-105125794D01*
X215792603Y-105125794D02*
X215753899Y-105241908D01*
X215753899Y-105241908D02*
X215676489Y-105319318D01*
X215676489Y-105319318D02*
X215599079Y-105358023D01*
X215599079Y-105358023D02*
X215444260Y-105396727D01*
X215444260Y-105396727D02*
X215328146Y-105396727D01*
X215328146Y-105396727D02*
X215173327Y-105358023D01*
X215173327Y-105358023D02*
X215095918Y-105319318D01*
X215095918Y-105319318D02*
X215018508Y-105241908D01*
X215018508Y-105241908D02*
X214979803Y-105125794D01*
X214979803Y-105125794D02*
X214979803Y-105048385D01*
X214979803Y-105048385D02*
X215018508Y-104932270D01*
X215018508Y-104932270D02*
X215057213Y-104893566D01*
X215792603Y-104545223D02*
X214979803Y-104545223D01*
X215366851Y-104158175D02*
X215366851Y-103887241D01*
X215792603Y-103771127D02*
X215792603Y-104158175D01*
X215792603Y-104158175D02*
X214979803Y-104158175D01*
X214979803Y-104158175D02*
X214979803Y-103771127D01*
X214979803Y-103538899D02*
X215792603Y-103267966D01*
X215792603Y-103267966D02*
X214979803Y-102997032D01*
X215366851Y-102726099D02*
X215366851Y-102455165D01*
X215792603Y-102339051D02*
X215792603Y-102726099D01*
X215792603Y-102726099D02*
X214979803Y-102726099D01*
X214979803Y-102726099D02*
X214979803Y-102339051D01*
X215792603Y-101526252D02*
X215405556Y-101797185D01*
X215792603Y-101990709D02*
X214979803Y-101990709D01*
X214979803Y-101990709D02*
X214979803Y-101681071D01*
X214979803Y-101681071D02*
X215018508Y-101603661D01*
X215018508Y-101603661D02*
X215057213Y-101564956D01*
X215057213Y-101564956D02*
X215134622Y-101526252D01*
X215134622Y-101526252D02*
X215250737Y-101526252D01*
X215250737Y-101526252D02*
X215328146Y-101564956D01*
X215328146Y-101564956D02*
X215366851Y-101603661D01*
X215366851Y-101603661D02*
X215405556Y-101681071D01*
X215405556Y-101681071D02*
X215405556Y-101990709D01*
D12*
X185130423Y-110608646D02*
X185091718Y-110694360D01*
X185091718Y-110694360D02*
X185053014Y-110722931D01*
X185053014Y-110722931D02*
X184975604Y-110751503D01*
X184975604Y-110751503D02*
X184859490Y-110751503D01*
X184859490Y-110751503D02*
X184782080Y-110722931D01*
X184782080Y-110722931D02*
X184743376Y-110694360D01*
X184743376Y-110694360D02*
X184704671Y-110637217D01*
X184704671Y-110637217D02*
X184704671Y-110408646D01*
X184704671Y-110408646D02*
X185517471Y-110408646D01*
X185517471Y-110408646D02*
X185517471Y-110608646D01*
X185517471Y-110608646D02*
X185478766Y-110665789D01*
X185478766Y-110665789D02*
X185440061Y-110694360D01*
X185440061Y-110694360D02*
X185362652Y-110722931D01*
X185362652Y-110722931D02*
X185285242Y-110722931D01*
X185285242Y-110722931D02*
X185207833Y-110694360D01*
X185207833Y-110694360D02*
X185169128Y-110665789D01*
X185169128Y-110665789D02*
X185130423Y-110608646D01*
X185130423Y-110608646D02*
X185130423Y-110408646D01*
X184936899Y-110980074D02*
X184936899Y-111265789D01*
X184704671Y-110922931D02*
X185517471Y-111122931D01*
X185517471Y-111122931D02*
X184704671Y-111322931D01*
X185517471Y-111437217D02*
X185517471Y-111780075D01*
X184704671Y-111608646D02*
X185517471Y-111608646D01*
X185517471Y-111894360D02*
X185517471Y-112237218D01*
X184704671Y-112065789D02*
X185517471Y-112065789D01*
X185130423Y-112437218D02*
X185130423Y-112637218D01*
X184704671Y-112722932D02*
X184704671Y-112437218D01*
X184704671Y-112437218D02*
X185517471Y-112437218D01*
X185517471Y-112437218D02*
X185517471Y-112722932D01*
X184704671Y-113322932D02*
X185091718Y-113122932D01*
X184704671Y-112980075D02*
X185517471Y-112980075D01*
X185517471Y-112980075D02*
X185517471Y-113208646D01*
X185517471Y-113208646D02*
X185478766Y-113265789D01*
X185478766Y-113265789D02*
X185440061Y-113294360D01*
X185440061Y-113294360D02*
X185362652Y-113322932D01*
X185362652Y-113322932D02*
X185246537Y-113322932D01*
X185246537Y-113322932D02*
X185169128Y-113294360D01*
X185169128Y-113294360D02*
X185130423Y-113265789D01*
X185130423Y-113265789D02*
X185091718Y-113208646D01*
X185091718Y-113208646D02*
X185091718Y-112980075D01*
X185091718Y-113694360D02*
X184704671Y-113694360D01*
X185517471Y-113494360D02*
X185091718Y-113694360D01*
X185091718Y-113694360D02*
X185517471Y-113894360D01*
X184782080Y-114894361D02*
X184743376Y-114865789D01*
X184743376Y-114865789D02*
X184704671Y-114780075D01*
X184704671Y-114780075D02*
X184704671Y-114722932D01*
X184704671Y-114722932D02*
X184743376Y-114637218D01*
X184743376Y-114637218D02*
X184820785Y-114580075D01*
X184820785Y-114580075D02*
X184898195Y-114551504D01*
X184898195Y-114551504D02*
X185053014Y-114522932D01*
X185053014Y-114522932D02*
X185169128Y-114522932D01*
X185169128Y-114522932D02*
X185323947Y-114551504D01*
X185323947Y-114551504D02*
X185401356Y-114580075D01*
X185401356Y-114580075D02*
X185478766Y-114637218D01*
X185478766Y-114637218D02*
X185517471Y-114722932D01*
X185517471Y-114722932D02*
X185517471Y-114780075D01*
X185517471Y-114780075D02*
X185478766Y-114865789D01*
X185478766Y-114865789D02*
X185440061Y-114894361D01*
X185517471Y-115265789D02*
X185517471Y-115380075D01*
X185517471Y-115380075D02*
X185478766Y-115437218D01*
X185478766Y-115437218D02*
X185401356Y-115494361D01*
X185401356Y-115494361D02*
X185246537Y-115522932D01*
X185246537Y-115522932D02*
X184975604Y-115522932D01*
X184975604Y-115522932D02*
X184820785Y-115494361D01*
X184820785Y-115494361D02*
X184743376Y-115437218D01*
X184743376Y-115437218D02*
X184704671Y-115380075D01*
X184704671Y-115380075D02*
X184704671Y-115265789D01*
X184704671Y-115265789D02*
X184743376Y-115208647D01*
X184743376Y-115208647D02*
X184820785Y-115151504D01*
X184820785Y-115151504D02*
X184975604Y-115122932D01*
X184975604Y-115122932D02*
X185246537Y-115122932D01*
X185246537Y-115122932D02*
X185401356Y-115151504D01*
X185401356Y-115151504D02*
X185478766Y-115208647D01*
X185478766Y-115208647D02*
X185517471Y-115265789D01*
X184704671Y-115780075D02*
X185517471Y-115780075D01*
X185517471Y-115780075D02*
X184704671Y-116122932D01*
X184704671Y-116122932D02*
X185517471Y-116122932D01*
X184704671Y-116408646D02*
X185517471Y-116408646D01*
X185517471Y-116408646D02*
X184704671Y-116751503D01*
X184704671Y-116751503D02*
X185517471Y-116751503D01*
X185130423Y-117037217D02*
X185130423Y-117237217D01*
X184704671Y-117322931D02*
X184704671Y-117037217D01*
X184704671Y-117037217D02*
X185517471Y-117037217D01*
X185517471Y-117037217D02*
X185517471Y-117322931D01*
X184782080Y-117922931D02*
X184743376Y-117894359D01*
X184743376Y-117894359D02*
X184704671Y-117808645D01*
X184704671Y-117808645D02*
X184704671Y-117751502D01*
X184704671Y-117751502D02*
X184743376Y-117665788D01*
X184743376Y-117665788D02*
X184820785Y-117608645D01*
X184820785Y-117608645D02*
X184898195Y-117580074D01*
X184898195Y-117580074D02*
X185053014Y-117551502D01*
X185053014Y-117551502D02*
X185169128Y-117551502D01*
X185169128Y-117551502D02*
X185323947Y-117580074D01*
X185323947Y-117580074D02*
X185401356Y-117608645D01*
X185401356Y-117608645D02*
X185478766Y-117665788D01*
X185478766Y-117665788D02*
X185517471Y-117751502D01*
X185517471Y-117751502D02*
X185517471Y-117808645D01*
X185517471Y-117808645D02*
X185478766Y-117894359D01*
X185478766Y-117894359D02*
X185440061Y-117922931D01*
X185517471Y-118094359D02*
X185517471Y-118437217D01*
X184704671Y-118265788D02*
X185517471Y-118265788D01*
X185517471Y-118751502D02*
X185517471Y-118865788D01*
X185517471Y-118865788D02*
X185478766Y-118922931D01*
X185478766Y-118922931D02*
X185401356Y-118980074D01*
X185401356Y-118980074D02*
X185246537Y-119008645D01*
X185246537Y-119008645D02*
X184975604Y-119008645D01*
X184975604Y-119008645D02*
X184820785Y-118980074D01*
X184820785Y-118980074D02*
X184743376Y-118922931D01*
X184743376Y-118922931D02*
X184704671Y-118865788D01*
X184704671Y-118865788D02*
X184704671Y-118751502D01*
X184704671Y-118751502D02*
X184743376Y-118694360D01*
X184743376Y-118694360D02*
X184820785Y-118637217D01*
X184820785Y-118637217D02*
X184975604Y-118608645D01*
X184975604Y-118608645D02*
X185246537Y-118608645D01*
X185246537Y-118608645D02*
X185401356Y-118637217D01*
X185401356Y-118637217D02*
X185478766Y-118694360D01*
X185478766Y-118694360D02*
X185517471Y-118751502D01*
X184704671Y-119608645D02*
X185091718Y-119408645D01*
X184704671Y-119265788D02*
X185517471Y-119265788D01*
X185517471Y-119265788D02*
X185517471Y-119494359D01*
X185517471Y-119494359D02*
X185478766Y-119551502D01*
X185478766Y-119551502D02*
X185440061Y-119580073D01*
X185440061Y-119580073D02*
X185362652Y-119608645D01*
X185362652Y-119608645D02*
X185246537Y-119608645D01*
X185246537Y-119608645D02*
X185169128Y-119580073D01*
X185169128Y-119580073D02*
X185130423Y-119551502D01*
X185130423Y-119551502D02*
X185091718Y-119494359D01*
X185091718Y-119494359D02*
X185091718Y-119265788D01*
D10*
X179293786Y-125392603D02*
X179293786Y-124579803D01*
X179293786Y-124579803D02*
X179564720Y-125160375D01*
X179564720Y-125160375D02*
X179835653Y-124579803D01*
X179835653Y-124579803D02*
X179835653Y-125392603D01*
X180377519Y-124579803D02*
X180532338Y-124579803D01*
X180532338Y-124579803D02*
X180609748Y-124618508D01*
X180609748Y-124618508D02*
X180687157Y-124695918D01*
X180687157Y-124695918D02*
X180725862Y-124850737D01*
X180725862Y-124850737D02*
X180725862Y-125121670D01*
X180725862Y-125121670D02*
X180687157Y-125276489D01*
X180687157Y-125276489D02*
X180609748Y-125353899D01*
X180609748Y-125353899D02*
X180532338Y-125392603D01*
X180532338Y-125392603D02*
X180377519Y-125392603D01*
X180377519Y-125392603D02*
X180300110Y-125353899D01*
X180300110Y-125353899D02*
X180222700Y-125276489D01*
X180222700Y-125276489D02*
X180183996Y-125121670D01*
X180183996Y-125121670D02*
X180183996Y-124850737D01*
X180183996Y-124850737D02*
X180222700Y-124695918D01*
X180222700Y-124695918D02*
X180300110Y-124618508D01*
X180300110Y-124618508D02*
X180377519Y-124579803D01*
X181035501Y-125353899D02*
X181151615Y-125392603D01*
X181151615Y-125392603D02*
X181345139Y-125392603D01*
X181345139Y-125392603D02*
X181422548Y-125353899D01*
X181422548Y-125353899D02*
X181461253Y-125315194D01*
X181461253Y-125315194D02*
X181499958Y-125237784D01*
X181499958Y-125237784D02*
X181499958Y-125160375D01*
X181499958Y-125160375D02*
X181461253Y-125082965D01*
X181461253Y-125082965D02*
X181422548Y-125044260D01*
X181422548Y-125044260D02*
X181345139Y-125005556D01*
X181345139Y-125005556D02*
X181190320Y-124966851D01*
X181190320Y-124966851D02*
X181112910Y-124928146D01*
X181112910Y-124928146D02*
X181074205Y-124889441D01*
X181074205Y-124889441D02*
X181035501Y-124812032D01*
X181035501Y-124812032D02*
X181035501Y-124734622D01*
X181035501Y-124734622D02*
X181074205Y-124657213D01*
X181074205Y-124657213D02*
X181112910Y-124618508D01*
X181112910Y-124618508D02*
X181190320Y-124579803D01*
X181190320Y-124579803D02*
X181383843Y-124579803D01*
X181383843Y-124579803D02*
X181499958Y-124618508D01*
X182119234Y-124966851D02*
X181848300Y-124966851D01*
X181848300Y-125392603D02*
X181848300Y-124579803D01*
X181848300Y-124579803D02*
X182235348Y-124579803D01*
X182544986Y-124966851D02*
X182815920Y-124966851D01*
X182932034Y-125392603D02*
X182544986Y-125392603D01*
X182544986Y-125392603D02*
X182544986Y-124579803D01*
X182544986Y-124579803D02*
X182932034Y-124579803D01*
X183164262Y-124579803D02*
X183628719Y-124579803D01*
X183396491Y-125392603D02*
X183396491Y-124579803D01*
D11*
X211221804Y-84194288D02*
X211221804Y-83381488D01*
X211507518Y-84194288D02*
X211507518Y-83381488D01*
X211507518Y-83381488D02*
X211850375Y-84194288D01*
X211850375Y-84194288D02*
X211850375Y-83381488D01*
X212050374Y-83381488D02*
X212393232Y-83381488D01*
X212221803Y-84194288D02*
X212221803Y-83381488D01*
X212907517Y-84194288D02*
X212564660Y-84194288D01*
X212736089Y-84194288D02*
X212736089Y-83381488D01*
X212736089Y-83381488D02*
X212678946Y-83497603D01*
X212678946Y-83497603D02*
X212621803Y-83575012D01*
X212621803Y-83575012D02*
X212564660Y-83613717D01*
X179836089Y-97120193D02*
X179778947Y-97081488D01*
X179778947Y-97081488D02*
X179693232Y-97081488D01*
X179693232Y-97081488D02*
X179607518Y-97120193D01*
X179607518Y-97120193D02*
X179550375Y-97197603D01*
X179550375Y-97197603D02*
X179521804Y-97275012D01*
X179521804Y-97275012D02*
X179493232Y-97429831D01*
X179493232Y-97429831D02*
X179493232Y-97545945D01*
X179493232Y-97545945D02*
X179521804Y-97700764D01*
X179521804Y-97700764D02*
X179550375Y-97778174D01*
X179550375Y-97778174D02*
X179607518Y-97855584D01*
X179607518Y-97855584D02*
X179693232Y-97894288D01*
X179693232Y-97894288D02*
X179750375Y-97894288D01*
X179750375Y-97894288D02*
X179836089Y-97855584D01*
X179836089Y-97855584D02*
X179864661Y-97816879D01*
X179864661Y-97816879D02*
X179864661Y-97545945D01*
X179864661Y-97545945D02*
X179750375Y-97545945D01*
X180121804Y-97894288D02*
X180121804Y-97081488D01*
X180121804Y-97081488D02*
X180464661Y-97894288D01*
X180464661Y-97894288D02*
X180464661Y-97081488D01*
X180750375Y-97894288D02*
X180750375Y-97081488D01*
X180750375Y-97081488D02*
X180893232Y-97081488D01*
X180893232Y-97081488D02*
X180978946Y-97120193D01*
X180978946Y-97120193D02*
X181036089Y-97197603D01*
X181036089Y-97197603D02*
X181064660Y-97275012D01*
X181064660Y-97275012D02*
X181093232Y-97429831D01*
X181093232Y-97429831D02*
X181093232Y-97545945D01*
X181093232Y-97545945D02*
X181064660Y-97700764D01*
X181064660Y-97700764D02*
X181036089Y-97778174D01*
X181036089Y-97778174D02*
X180978946Y-97855584D01*
X180978946Y-97855584D02*
X180893232Y-97894288D01*
X180893232Y-97894288D02*
X180750375Y-97894288D01*
D10*
X178293786Y-153184041D02*
X178293786Y-152371241D01*
X178293786Y-152371241D02*
X178603424Y-152371241D01*
X178603424Y-152371241D02*
X178680834Y-152409946D01*
X178680834Y-152409946D02*
X178719539Y-152448651D01*
X178719539Y-152448651D02*
X178758243Y-152526060D01*
X178758243Y-152526060D02*
X178758243Y-152642175D01*
X178758243Y-152642175D02*
X178719539Y-152719584D01*
X178719539Y-152719584D02*
X178680834Y-152758289D01*
X178680834Y-152758289D02*
X178603424Y-152796994D01*
X178603424Y-152796994D02*
X178293786Y-152796994D01*
X179029177Y-152371241D02*
X179222701Y-153184041D01*
X179222701Y-153184041D02*
X179377520Y-152603470D01*
X179377520Y-152603470D02*
X179532339Y-153184041D01*
X179532339Y-153184041D02*
X179725863Y-152371241D01*
X180499957Y-153184041D02*
X180229024Y-152796994D01*
X180035500Y-153184041D02*
X180035500Y-152371241D01*
X180035500Y-152371241D02*
X180345138Y-152371241D01*
X180345138Y-152371241D02*
X180422548Y-152409946D01*
X180422548Y-152409946D02*
X180461253Y-152448651D01*
X180461253Y-152448651D02*
X180499957Y-152526060D01*
X180499957Y-152526060D02*
X180499957Y-152642175D01*
X180499957Y-152642175D02*
X180461253Y-152719584D01*
X180461253Y-152719584D02*
X180422548Y-152758289D01*
X180422548Y-152758289D02*
X180345138Y-152796994D01*
X180345138Y-152796994D02*
X180035500Y-152796994D01*
X181467576Y-153184041D02*
X181467576Y-152371241D01*
X181854624Y-153184041D02*
X181854624Y-152371241D01*
X181854624Y-152371241D02*
X182319081Y-153184041D01*
X182319081Y-153184041D02*
X182319081Y-152371241D01*
X182706129Y-153184041D02*
X182706129Y-152371241D01*
X182706129Y-152371241D02*
X182899653Y-152371241D01*
X182899653Y-152371241D02*
X183015767Y-152409946D01*
X183015767Y-152409946D02*
X183093177Y-152487356D01*
X183093177Y-152487356D02*
X183131882Y-152564765D01*
X183131882Y-152564765D02*
X183170586Y-152719584D01*
X183170586Y-152719584D02*
X183170586Y-152835698D01*
X183170586Y-152835698D02*
X183131882Y-152990517D01*
X183131882Y-152990517D02*
X183093177Y-153067927D01*
X183093177Y-153067927D02*
X183015767Y-153145337D01*
X183015767Y-153145337D02*
X182899653Y-153184041D01*
X182899653Y-153184041D02*
X182706129Y-153184041D01*
X183518929Y-153184041D02*
X183518929Y-152371241D01*
X184370434Y-153106632D02*
X184331730Y-153145337D01*
X184331730Y-153145337D02*
X184215615Y-153184041D01*
X184215615Y-153184041D02*
X184138206Y-153184041D01*
X184138206Y-153184041D02*
X184022092Y-153145337D01*
X184022092Y-153145337D02*
X183944682Y-153067927D01*
X183944682Y-153067927D02*
X183905977Y-152990517D01*
X183905977Y-152990517D02*
X183867273Y-152835698D01*
X183867273Y-152835698D02*
X183867273Y-152719584D01*
X183867273Y-152719584D02*
X183905977Y-152564765D01*
X183905977Y-152564765D02*
X183944682Y-152487356D01*
X183944682Y-152487356D02*
X184022092Y-152409946D01*
X184022092Y-152409946D02*
X184138206Y-152371241D01*
X184138206Y-152371241D02*
X184215615Y-152371241D01*
X184215615Y-152371241D02*
X184331730Y-152409946D01*
X184331730Y-152409946D02*
X184370434Y-152448651D01*
X184680073Y-152951813D02*
X185067120Y-152951813D01*
X184602663Y-153184041D02*
X184873596Y-152371241D01*
X184873596Y-152371241D02*
X185144530Y-153184041D01*
X185299349Y-152371241D02*
X185763806Y-152371241D01*
X185531578Y-153184041D02*
X185531578Y-152371241D01*
X186189558Y-152371241D02*
X186344377Y-152371241D01*
X186344377Y-152371241D02*
X186421787Y-152409946D01*
X186421787Y-152409946D02*
X186499196Y-152487356D01*
X186499196Y-152487356D02*
X186537901Y-152642175D01*
X186537901Y-152642175D02*
X186537901Y-152913108D01*
X186537901Y-152913108D02*
X186499196Y-153067927D01*
X186499196Y-153067927D02*
X186421787Y-153145337D01*
X186421787Y-153145337D02*
X186344377Y-153184041D01*
X186344377Y-153184041D02*
X186189558Y-153184041D01*
X186189558Y-153184041D02*
X186112149Y-153145337D01*
X186112149Y-153145337D02*
X186034739Y-153067927D01*
X186034739Y-153067927D02*
X185996035Y-152913108D01*
X185996035Y-152913108D02*
X185996035Y-152642175D01*
X185996035Y-152642175D02*
X186034739Y-152487356D01*
X186034739Y-152487356D02*
X186112149Y-152409946D01*
X186112149Y-152409946D02*
X186189558Y-152371241D01*
X187350701Y-153184041D02*
X187079768Y-152796994D01*
X186886244Y-153184041D02*
X186886244Y-152371241D01*
X186886244Y-152371241D02*
X187195882Y-152371241D01*
X187195882Y-152371241D02*
X187273292Y-152409946D01*
X187273292Y-152409946D02*
X187311997Y-152448651D01*
X187311997Y-152448651D02*
X187350701Y-152526060D01*
X187350701Y-152526060D02*
X187350701Y-152642175D01*
X187350701Y-152642175D02*
X187311997Y-152719584D01*
X187311997Y-152719584D02*
X187273292Y-152758289D01*
X187273292Y-152758289D02*
X187195882Y-152796994D01*
X187195882Y-152796994D02*
X186886244Y-152796994D01*
X188705368Y-153184041D02*
X188318320Y-153184041D01*
X188318320Y-153184041D02*
X188318320Y-152371241D01*
X188976301Y-152758289D02*
X189247235Y-152758289D01*
X189363349Y-153184041D02*
X188976301Y-153184041D01*
X188976301Y-153184041D02*
X188976301Y-152371241D01*
X188976301Y-152371241D02*
X189363349Y-152371241D01*
X189711691Y-153184041D02*
X189711691Y-152371241D01*
X189711691Y-152371241D02*
X189905215Y-152371241D01*
X189905215Y-152371241D02*
X190021329Y-152409946D01*
X190021329Y-152409946D02*
X190098739Y-152487356D01*
X190098739Y-152487356D02*
X190137444Y-152564765D01*
X190137444Y-152564765D02*
X190176148Y-152719584D01*
X190176148Y-152719584D02*
X190176148Y-152835698D01*
X190176148Y-152835698D02*
X190137444Y-152990517D01*
X190137444Y-152990517D02*
X190098739Y-153067927D01*
X190098739Y-153067927D02*
X190021329Y-153145337D01*
X190021329Y-153145337D02*
X189905215Y-153184041D01*
X189905215Y-153184041D02*
X189711691Y-153184041D01*
X177292603Y-142706213D02*
X176479803Y-142706213D01*
X176866851Y-142706213D02*
X176866851Y-142241756D01*
X177292603Y-142241756D02*
X176479803Y-142241756D01*
X177292603Y-141854708D02*
X176479803Y-141854708D01*
X176982965Y-141467660D02*
X176982965Y-140848384D01*
X177292603Y-140461336D02*
X176479803Y-140461336D01*
X176479803Y-140461336D02*
X176479803Y-140151698D01*
X176479803Y-140151698D02*
X176518508Y-140074288D01*
X176518508Y-140074288D02*
X176557213Y-140035583D01*
X176557213Y-140035583D02*
X176634622Y-139996879D01*
X176634622Y-139996879D02*
X176750737Y-139996879D01*
X176750737Y-139996879D02*
X176828146Y-140035583D01*
X176828146Y-140035583D02*
X176866851Y-140074288D01*
X176866851Y-140074288D02*
X176905556Y-140151698D01*
X176905556Y-140151698D02*
X176905556Y-140461336D01*
X176479803Y-139725945D02*
X177292603Y-139532421D01*
X177292603Y-139532421D02*
X176712032Y-139377602D01*
X176712032Y-139377602D02*
X177292603Y-139222783D01*
X177292603Y-139222783D02*
X176479803Y-139029260D01*
X177292603Y-138255165D02*
X176905556Y-138526098D01*
X177292603Y-138719622D02*
X176479803Y-138719622D01*
X176479803Y-138719622D02*
X176479803Y-138409984D01*
X176479803Y-138409984D02*
X176518508Y-138332574D01*
X176518508Y-138332574D02*
X176557213Y-138293869D01*
X176557213Y-138293869D02*
X176634622Y-138255165D01*
X176634622Y-138255165D02*
X176750737Y-138255165D01*
X176750737Y-138255165D02*
X176828146Y-138293869D01*
X176828146Y-138293869D02*
X176866851Y-138332574D01*
X176866851Y-138332574D02*
X176905556Y-138409984D01*
X176905556Y-138409984D02*
X176905556Y-138719622D01*
X177292603Y-136900498D02*
X177292603Y-137287546D01*
X177292603Y-137287546D02*
X176479803Y-137287546D01*
X176866851Y-136629565D02*
X176866851Y-136358631D01*
X177292603Y-136242517D02*
X177292603Y-136629565D01*
X177292603Y-136629565D02*
X176479803Y-136629565D01*
X176479803Y-136629565D02*
X176479803Y-136242517D01*
X177292603Y-135894175D02*
X176479803Y-135894175D01*
X176479803Y-135894175D02*
X176479803Y-135700651D01*
X176479803Y-135700651D02*
X176518508Y-135584537D01*
X176518508Y-135584537D02*
X176595918Y-135507127D01*
X176595918Y-135507127D02*
X176673327Y-135468422D01*
X176673327Y-135468422D02*
X176828146Y-135429718D01*
X176828146Y-135429718D02*
X176944260Y-135429718D01*
X176944260Y-135429718D02*
X177099079Y-135468422D01*
X177099079Y-135468422D02*
X177176489Y-135507127D01*
X177176489Y-135507127D02*
X177253899Y-135584537D01*
X177253899Y-135584537D02*
X177292603Y-135700651D01*
X177292603Y-135700651D02*
X177292603Y-135894175D01*
X177253899Y-134500803D02*
X177292603Y-134384689D01*
X177292603Y-134384689D02*
X177292603Y-134191165D01*
X177292603Y-134191165D02*
X177253899Y-134113756D01*
X177253899Y-134113756D02*
X177215194Y-134075051D01*
X177215194Y-134075051D02*
X177137784Y-134036346D01*
X177137784Y-134036346D02*
X177060375Y-134036346D01*
X177060375Y-134036346D02*
X176982965Y-134075051D01*
X176982965Y-134075051D02*
X176944260Y-134113756D01*
X176944260Y-134113756D02*
X176905556Y-134191165D01*
X176905556Y-134191165D02*
X176866851Y-134345984D01*
X176866851Y-134345984D02*
X176828146Y-134423394D01*
X176828146Y-134423394D02*
X176789441Y-134462099D01*
X176789441Y-134462099D02*
X176712032Y-134500803D01*
X176712032Y-134500803D02*
X176634622Y-134500803D01*
X176634622Y-134500803D02*
X176557213Y-134462099D01*
X176557213Y-134462099D02*
X176518508Y-134423394D01*
X176518508Y-134423394D02*
X176479803Y-134345984D01*
X176479803Y-134345984D02*
X176479803Y-134152461D01*
X176479803Y-134152461D02*
X176518508Y-134036346D01*
X177215194Y-133223547D02*
X177253899Y-133262251D01*
X177253899Y-133262251D02*
X177292603Y-133378366D01*
X177292603Y-133378366D02*
X177292603Y-133455775D01*
X177292603Y-133455775D02*
X177253899Y-133571889D01*
X177253899Y-133571889D02*
X177176489Y-133649299D01*
X177176489Y-133649299D02*
X177099079Y-133688004D01*
X177099079Y-133688004D02*
X176944260Y-133726708D01*
X176944260Y-133726708D02*
X176828146Y-133726708D01*
X176828146Y-133726708D02*
X176673327Y-133688004D01*
X176673327Y-133688004D02*
X176595918Y-133649299D01*
X176595918Y-133649299D02*
X176518508Y-133571889D01*
X176518508Y-133571889D02*
X176479803Y-133455775D01*
X176479803Y-133455775D02*
X176479803Y-133378366D01*
X176479803Y-133378366D02*
X176518508Y-133262251D01*
X176518508Y-133262251D02*
X176557213Y-133223547D01*
X177292603Y-132410747D02*
X176905556Y-132681680D01*
X177292603Y-132875204D02*
X176479803Y-132875204D01*
X176479803Y-132875204D02*
X176479803Y-132565566D01*
X176479803Y-132565566D02*
X176518508Y-132488156D01*
X176518508Y-132488156D02*
X176557213Y-132449451D01*
X176557213Y-132449451D02*
X176634622Y-132410747D01*
X176634622Y-132410747D02*
X176750737Y-132410747D01*
X176750737Y-132410747D02*
X176828146Y-132449451D01*
X176828146Y-132449451D02*
X176866851Y-132488156D01*
X176866851Y-132488156D02*
X176905556Y-132565566D01*
X176905556Y-132565566D02*
X176905556Y-132875204D01*
X176866851Y-132062404D02*
X176866851Y-131791470D01*
X177292603Y-131675356D02*
X177292603Y-132062404D01*
X177292603Y-132062404D02*
X176479803Y-132062404D01*
X176479803Y-132062404D02*
X176479803Y-131675356D01*
X176479803Y-131404423D02*
X177292603Y-131210899D01*
X177292603Y-131210899D02*
X176712032Y-131056080D01*
X176712032Y-131056080D02*
X177292603Y-130901261D01*
X177292603Y-130901261D02*
X176479803Y-130707738D01*
X177215194Y-129314367D02*
X177253899Y-129353071D01*
X177253899Y-129353071D02*
X177292603Y-129469186D01*
X177292603Y-129469186D02*
X177292603Y-129546595D01*
X177292603Y-129546595D02*
X177253899Y-129662709D01*
X177253899Y-129662709D02*
X177176489Y-129740119D01*
X177176489Y-129740119D02*
X177099079Y-129778824D01*
X177099079Y-129778824D02*
X176944260Y-129817528D01*
X176944260Y-129817528D02*
X176828146Y-129817528D01*
X176828146Y-129817528D02*
X176673327Y-129778824D01*
X176673327Y-129778824D02*
X176595918Y-129740119D01*
X176595918Y-129740119D02*
X176518508Y-129662709D01*
X176518508Y-129662709D02*
X176479803Y-129546595D01*
X176479803Y-129546595D02*
X176479803Y-129469186D01*
X176479803Y-129469186D02*
X176518508Y-129353071D01*
X176518508Y-129353071D02*
X176557213Y-129314367D01*
X176479803Y-128811205D02*
X176479803Y-128656386D01*
X176479803Y-128656386D02*
X176518508Y-128578976D01*
X176518508Y-128578976D02*
X176595918Y-128501567D01*
X176595918Y-128501567D02*
X176750737Y-128462862D01*
X176750737Y-128462862D02*
X177021670Y-128462862D01*
X177021670Y-128462862D02*
X177176489Y-128501567D01*
X177176489Y-128501567D02*
X177253899Y-128578976D01*
X177253899Y-128578976D02*
X177292603Y-128656386D01*
X177292603Y-128656386D02*
X177292603Y-128811205D01*
X177292603Y-128811205D02*
X177253899Y-128888614D01*
X177253899Y-128888614D02*
X177176489Y-128966024D01*
X177176489Y-128966024D02*
X177021670Y-129004728D01*
X177021670Y-129004728D02*
X176750737Y-129004728D01*
X176750737Y-129004728D02*
X176595918Y-128966024D01*
X176595918Y-128966024D02*
X176518508Y-128888614D01*
X176518508Y-128888614D02*
X176479803Y-128811205D01*
X177292603Y-128114519D02*
X176479803Y-128114519D01*
X176479803Y-128114519D02*
X177292603Y-127650062D01*
X177292603Y-127650062D02*
X176479803Y-127650062D01*
D13*
X197838095Y-95054819D02*
X197838095Y-95864342D01*
X197838095Y-95864342D02*
X197885714Y-95959580D01*
X197885714Y-95959580D02*
X197933333Y-96007200D01*
X197933333Y-96007200D02*
X198028571Y-96054819D01*
X198028571Y-96054819D02*
X198219047Y-96054819D01*
X198219047Y-96054819D02*
X198314285Y-96007200D01*
X198314285Y-96007200D02*
X198361904Y-95959580D01*
X198361904Y-95959580D02*
X198409523Y-95864342D01*
X198409523Y-95864342D02*
X198409523Y-95054819D01*
X198790476Y-95054819D02*
X199409523Y-95054819D01*
X199409523Y-95054819D02*
X199076190Y-95435771D01*
X199076190Y-95435771D02*
X199219047Y-95435771D01*
X199219047Y-95435771D02*
X199314285Y-95483390D01*
X199314285Y-95483390D02*
X199361904Y-95531009D01*
X199361904Y-95531009D02*
X199409523Y-95626247D01*
X199409523Y-95626247D02*
X199409523Y-95864342D01*
X199409523Y-95864342D02*
X199361904Y-95959580D01*
X199361904Y-95959580D02*
X199314285Y-96007200D01*
X199314285Y-96007200D02*
X199219047Y-96054819D01*
X199219047Y-96054819D02*
X198933333Y-96054819D01*
X198933333Y-96054819D02*
X198838095Y-96007200D01*
X198838095Y-96007200D02*
X198790476Y-95959580D01*
X197333333Y-103859580D02*
X197285714Y-103907200D01*
X197285714Y-103907200D02*
X197142857Y-103954819D01*
X197142857Y-103954819D02*
X197047619Y-103954819D01*
X197047619Y-103954819D02*
X196904762Y-103907200D01*
X196904762Y-103907200D02*
X196809524Y-103811961D01*
X196809524Y-103811961D02*
X196761905Y-103716723D01*
X196761905Y-103716723D02*
X196714286Y-103526247D01*
X196714286Y-103526247D02*
X196714286Y-103383390D01*
X196714286Y-103383390D02*
X196761905Y-103192914D01*
X196761905Y-103192914D02*
X196809524Y-103097676D01*
X196809524Y-103097676D02*
X196904762Y-103002438D01*
X196904762Y-103002438D02*
X197047619Y-102954819D01*
X197047619Y-102954819D02*
X197142857Y-102954819D01*
X197142857Y-102954819D02*
X197285714Y-103002438D01*
X197285714Y-103002438D02*
X197333333Y-103050057D01*
X197666667Y-102954819D02*
X198285714Y-102954819D01*
X198285714Y-102954819D02*
X197952381Y-103335771D01*
X197952381Y-103335771D02*
X198095238Y-103335771D01*
X198095238Y-103335771D02*
X198190476Y-103383390D01*
X198190476Y-103383390D02*
X198238095Y-103431009D01*
X198238095Y-103431009D02*
X198285714Y-103526247D01*
X198285714Y-103526247D02*
X198285714Y-103764342D01*
X198285714Y-103764342D02*
X198238095Y-103859580D01*
X198238095Y-103859580D02*
X198190476Y-103907200D01*
X198190476Y-103907200D02*
X198095238Y-103954819D01*
X198095238Y-103954819D02*
X197809524Y-103954819D01*
X197809524Y-103954819D02*
X197714286Y-103907200D01*
X197714286Y-103907200D02*
X197666667Y-103859580D01*
X222166666Y-104874819D02*
X222166666Y-105589104D01*
X222166666Y-105589104D02*
X222119047Y-105731961D01*
X222119047Y-105731961D02*
X222023809Y-105827200D01*
X222023809Y-105827200D02*
X221880952Y-105874819D01*
X221880952Y-105874819D02*
X221785714Y-105874819D01*
X223119047Y-104874819D02*
X222642857Y-104874819D01*
X222642857Y-104874819D02*
X222595238Y-105351009D01*
X222595238Y-105351009D02*
X222642857Y-105303390D01*
X222642857Y-105303390D02*
X222738095Y-105255771D01*
X222738095Y-105255771D02*
X222976190Y-105255771D01*
X222976190Y-105255771D02*
X223071428Y-105303390D01*
X223071428Y-105303390D02*
X223119047Y-105351009D01*
X223119047Y-105351009D02*
X223166666Y-105446247D01*
X223166666Y-105446247D02*
X223166666Y-105684342D01*
X223166666Y-105684342D02*
X223119047Y-105779580D01*
X223119047Y-105779580D02*
X223071428Y-105827200D01*
X223071428Y-105827200D02*
X222976190Y-105874819D01*
X222976190Y-105874819D02*
X222738095Y-105874819D01*
X222738095Y-105874819D02*
X222642857Y-105827200D01*
X222642857Y-105827200D02*
X222595238Y-105779580D01*
X201333333Y-95899580D02*
X201285714Y-95947200D01*
X201285714Y-95947200D02*
X201142857Y-95994819D01*
X201142857Y-95994819D02*
X201047619Y-95994819D01*
X201047619Y-95994819D02*
X200904762Y-95947200D01*
X200904762Y-95947200D02*
X200809524Y-95851961D01*
X200809524Y-95851961D02*
X200761905Y-95756723D01*
X200761905Y-95756723D02*
X200714286Y-95566247D01*
X200714286Y-95566247D02*
X200714286Y-95423390D01*
X200714286Y-95423390D02*
X200761905Y-95232914D01*
X200761905Y-95232914D02*
X200809524Y-95137676D01*
X200809524Y-95137676D02*
X200904762Y-95042438D01*
X200904762Y-95042438D02*
X201047619Y-94994819D01*
X201047619Y-94994819D02*
X201142857Y-94994819D01*
X201142857Y-94994819D02*
X201285714Y-95042438D01*
X201285714Y-95042438D02*
X201333333Y-95090057D01*
X202285714Y-95994819D02*
X201714286Y-95994819D01*
X202000000Y-95994819D02*
X202000000Y-94994819D01*
X202000000Y-94994819D02*
X201904762Y-95137676D01*
X201904762Y-95137676D02*
X201809524Y-95232914D01*
X201809524Y-95232914D02*
X201714286Y-95280533D01*
X199358095Y-149354819D02*
X199358095Y-150164342D01*
X199358095Y-150164342D02*
X199405714Y-150259580D01*
X199405714Y-150259580D02*
X199453333Y-150307200D01*
X199453333Y-150307200D02*
X199548571Y-150354819D01*
X199548571Y-150354819D02*
X199739047Y-150354819D01*
X199739047Y-150354819D02*
X199834285Y-150307200D01*
X199834285Y-150307200D02*
X199881904Y-150259580D01*
X199881904Y-150259580D02*
X199929523Y-150164342D01*
X199929523Y-150164342D02*
X199929523Y-149354819D01*
X200358095Y-150307200D02*
X200500952Y-150354819D01*
X200500952Y-150354819D02*
X200739047Y-150354819D01*
X200739047Y-150354819D02*
X200834285Y-150307200D01*
X200834285Y-150307200D02*
X200881904Y-150259580D01*
X200881904Y-150259580D02*
X200929523Y-150164342D01*
X200929523Y-150164342D02*
X200929523Y-150069104D01*
X200929523Y-150069104D02*
X200881904Y-149973866D01*
X200881904Y-149973866D02*
X200834285Y-149926247D01*
X200834285Y-149926247D02*
X200739047Y-149878628D01*
X200739047Y-149878628D02*
X200548571Y-149831009D01*
X200548571Y-149831009D02*
X200453333Y-149783390D01*
X200453333Y-149783390D02*
X200405714Y-149735771D01*
X200405714Y-149735771D02*
X200358095Y-149640533D01*
X200358095Y-149640533D02*
X200358095Y-149545295D01*
X200358095Y-149545295D02*
X200405714Y-149450057D01*
X200405714Y-149450057D02*
X200453333Y-149402438D01*
X200453333Y-149402438D02*
X200548571Y-149354819D01*
X200548571Y-149354819D02*
X200786666Y-149354819D01*
X200786666Y-149354819D02*
X200929523Y-149402438D01*
X201691428Y-149831009D02*
X201834285Y-149878628D01*
X201834285Y-149878628D02*
X201881904Y-149926247D01*
X201881904Y-149926247D02*
X201929523Y-150021485D01*
X201929523Y-150021485D02*
X201929523Y-150164342D01*
X201929523Y-150164342D02*
X201881904Y-150259580D01*
X201881904Y-150259580D02*
X201834285Y-150307200D01*
X201834285Y-150307200D02*
X201739047Y-150354819D01*
X201739047Y-150354819D02*
X201358095Y-150354819D01*
X201358095Y-150354819D02*
X201358095Y-149354819D01*
X201358095Y-149354819D02*
X201691428Y-149354819D01*
X201691428Y-149354819D02*
X201786666Y-149402438D01*
X201786666Y-149402438D02*
X201834285Y-149450057D01*
X201834285Y-149450057D02*
X201881904Y-149545295D01*
X201881904Y-149545295D02*
X201881904Y-149640533D01*
X201881904Y-149640533D02*
X201834285Y-149735771D01*
X201834285Y-149735771D02*
X201786666Y-149783390D01*
X201786666Y-149783390D02*
X201691428Y-149831009D01*
X201691428Y-149831009D02*
X201358095Y-149831009D01*
X177166666Y-108874819D02*
X177166666Y-109589104D01*
X177166666Y-109589104D02*
X177119047Y-109731961D01*
X177119047Y-109731961D02*
X177023809Y-109827200D01*
X177023809Y-109827200D02*
X176880952Y-109874819D01*
X176880952Y-109874819D02*
X176785714Y-109874819D01*
X178166666Y-109874819D02*
X177595238Y-109874819D01*
X177880952Y-109874819D02*
X177880952Y-108874819D01*
X177880952Y-108874819D02*
X177785714Y-109017676D01*
X177785714Y-109017676D02*
X177690476Y-109112914D01*
X177690476Y-109112914D02*
X177595238Y-109160533D01*
X222166666Y-95704819D02*
X222166666Y-96419104D01*
X222166666Y-96419104D02*
X222119047Y-96561961D01*
X222119047Y-96561961D02*
X222023809Y-96657200D01*
X222023809Y-96657200D02*
X221880952Y-96704819D01*
X221880952Y-96704819D02*
X221785714Y-96704819D01*
X222785714Y-96133390D02*
X222690476Y-96085771D01*
X222690476Y-96085771D02*
X222642857Y-96038152D01*
X222642857Y-96038152D02*
X222595238Y-95942914D01*
X222595238Y-95942914D02*
X222595238Y-95895295D01*
X222595238Y-95895295D02*
X222642857Y-95800057D01*
X222642857Y-95800057D02*
X222690476Y-95752438D01*
X222690476Y-95752438D02*
X222785714Y-95704819D01*
X222785714Y-95704819D02*
X222976190Y-95704819D01*
X222976190Y-95704819D02*
X223071428Y-95752438D01*
X223071428Y-95752438D02*
X223119047Y-95800057D01*
X223119047Y-95800057D02*
X223166666Y-95895295D01*
X223166666Y-95895295D02*
X223166666Y-95942914D01*
X223166666Y-95942914D02*
X223119047Y-96038152D01*
X223119047Y-96038152D02*
X223071428Y-96085771D01*
X223071428Y-96085771D02*
X222976190Y-96133390D01*
X222976190Y-96133390D02*
X222785714Y-96133390D01*
X222785714Y-96133390D02*
X222690476Y-96181009D01*
X222690476Y-96181009D02*
X222642857Y-96228628D01*
X222642857Y-96228628D02*
X222595238Y-96323866D01*
X222595238Y-96323866D02*
X222595238Y-96514342D01*
X222595238Y-96514342D02*
X222642857Y-96609580D01*
X222642857Y-96609580D02*
X222690476Y-96657200D01*
X222690476Y-96657200D02*
X222785714Y-96704819D01*
X222785714Y-96704819D02*
X222976190Y-96704819D01*
X222976190Y-96704819D02*
X223071428Y-96657200D01*
X223071428Y-96657200D02*
X223119047Y-96609580D01*
X223119047Y-96609580D02*
X223166666Y-96514342D01*
X223166666Y-96514342D02*
X223166666Y-96323866D01*
X223166666Y-96323866D02*
X223119047Y-96228628D01*
X223119047Y-96228628D02*
X223071428Y-96181009D01*
X223071428Y-96181009D02*
X222976190Y-96133390D01*
X176690476Y-114374819D02*
X176690476Y-115089104D01*
X176690476Y-115089104D02*
X176642857Y-115231961D01*
X176642857Y-115231961D02*
X176547619Y-115327200D01*
X176547619Y-115327200D02*
X176404762Y-115374819D01*
X176404762Y-115374819D02*
X176309524Y-115374819D01*
X177690476Y-115374819D02*
X177119048Y-115374819D01*
X177404762Y-115374819D02*
X177404762Y-114374819D01*
X177404762Y-114374819D02*
X177309524Y-114517676D01*
X177309524Y-114517676D02*
X177214286Y-114612914D01*
X177214286Y-114612914D02*
X177119048Y-114660533D01*
X178642857Y-115374819D02*
X178071429Y-115374819D01*
X178357143Y-115374819D02*
X178357143Y-114374819D01*
X178357143Y-114374819D02*
X178261905Y-114517676D01*
X178261905Y-114517676D02*
X178166667Y-114612914D01*
X178166667Y-114612914D02*
X178071429Y-114660533D01*
X206333333Y-101859580D02*
X206285714Y-101907200D01*
X206285714Y-101907200D02*
X206142857Y-101954819D01*
X206142857Y-101954819D02*
X206047619Y-101954819D01*
X206047619Y-101954819D02*
X205904762Y-101907200D01*
X205904762Y-101907200D02*
X205809524Y-101811961D01*
X205809524Y-101811961D02*
X205761905Y-101716723D01*
X205761905Y-101716723D02*
X205714286Y-101526247D01*
X205714286Y-101526247D02*
X205714286Y-101383390D01*
X205714286Y-101383390D02*
X205761905Y-101192914D01*
X205761905Y-101192914D02*
X205809524Y-101097676D01*
X205809524Y-101097676D02*
X205904762Y-101002438D01*
X205904762Y-101002438D02*
X206047619Y-100954819D01*
X206047619Y-100954819D02*
X206142857Y-100954819D01*
X206142857Y-100954819D02*
X206285714Y-101002438D01*
X206285714Y-101002438D02*
X206333333Y-101050057D01*
X207190476Y-101288152D02*
X207190476Y-101954819D01*
X206952381Y-100907200D02*
X206714286Y-101621485D01*
X206714286Y-101621485D02*
X207333333Y-101621485D01*
X182511468Y-129955093D02*
X182511468Y-128954502D01*
X182511468Y-128954502D02*
X182892646Y-128954502D01*
X182892646Y-128954502D02*
X182987940Y-129002149D01*
X182987940Y-129002149D02*
X183035588Y-129049796D01*
X183035588Y-129049796D02*
X183083235Y-129145090D01*
X183083235Y-129145090D02*
X183083235Y-129288032D01*
X183083235Y-129288032D02*
X183035588Y-129383326D01*
X183035588Y-129383326D02*
X182987940Y-129430974D01*
X182987940Y-129430974D02*
X182892646Y-129478621D01*
X182892646Y-129478621D02*
X182511468Y-129478621D01*
X184036179Y-129955093D02*
X183464412Y-129955093D01*
X183750295Y-129955093D02*
X183750295Y-128954502D01*
X183750295Y-128954502D02*
X183655001Y-129097443D01*
X183655001Y-129097443D02*
X183559707Y-129192738D01*
X183559707Y-129192738D02*
X183464412Y-129240385D01*
X186180239Y-127019542D02*
X186275477Y-127067161D01*
X186275477Y-127067161D02*
X186370715Y-127162400D01*
X186370715Y-127162400D02*
X186513572Y-127305257D01*
X186513572Y-127305257D02*
X186608810Y-127352876D01*
X186608810Y-127352876D02*
X186704048Y-127352876D01*
X186656429Y-127114780D02*
X186751667Y-127162400D01*
X186751667Y-127162400D02*
X186846905Y-127257638D01*
X186846905Y-127257638D02*
X186894524Y-127448114D01*
X186894524Y-127448114D02*
X186894524Y-127781447D01*
X186894524Y-127781447D02*
X186846905Y-127971923D01*
X186846905Y-127971923D02*
X186751667Y-128067161D01*
X186751667Y-128067161D02*
X186656429Y-128114780D01*
X186656429Y-128114780D02*
X186465953Y-128114780D01*
X186465953Y-128114780D02*
X186370715Y-128067161D01*
X186370715Y-128067161D02*
X186275477Y-127971923D01*
X186275477Y-127971923D02*
X186227858Y-127781447D01*
X186227858Y-127781447D02*
X186227858Y-127448114D01*
X186227858Y-127448114D02*
X186275477Y-127257638D01*
X186275477Y-127257638D02*
X186370715Y-127162400D01*
X186370715Y-127162400D02*
X186465953Y-127114780D01*
X186465953Y-127114780D02*
X186656429Y-127114780D01*
X185275477Y-127114780D02*
X185846905Y-127114780D01*
X185561191Y-127114780D02*
X185561191Y-128114780D01*
X185561191Y-128114780D02*
X185656429Y-127971923D01*
X185656429Y-127971923D02*
X185751667Y-127876685D01*
X185751667Y-127876685D02*
X185846905Y-127829066D01*
X222166666Y-129704819D02*
X222166666Y-130419104D01*
X222166666Y-130419104D02*
X222119047Y-130561961D01*
X222119047Y-130561961D02*
X222023809Y-130657200D01*
X222023809Y-130657200D02*
X221880952Y-130704819D01*
X221880952Y-130704819D02*
X221785714Y-130704819D01*
X222595238Y-129800057D02*
X222642857Y-129752438D01*
X222642857Y-129752438D02*
X222738095Y-129704819D01*
X222738095Y-129704819D02*
X222976190Y-129704819D01*
X222976190Y-129704819D02*
X223071428Y-129752438D01*
X223071428Y-129752438D02*
X223119047Y-129800057D01*
X223119047Y-129800057D02*
X223166666Y-129895295D01*
X223166666Y-129895295D02*
X223166666Y-129990533D01*
X223166666Y-129990533D02*
X223119047Y-130133390D01*
X223119047Y-130133390D02*
X222547619Y-130704819D01*
X222547619Y-130704819D02*
X223166666Y-130704819D01*
X206333333Y-105359580D02*
X206285714Y-105407200D01*
X206285714Y-105407200D02*
X206142857Y-105454819D01*
X206142857Y-105454819D02*
X206047619Y-105454819D01*
X206047619Y-105454819D02*
X205904762Y-105407200D01*
X205904762Y-105407200D02*
X205809524Y-105311961D01*
X205809524Y-105311961D02*
X205761905Y-105216723D01*
X205761905Y-105216723D02*
X205714286Y-105026247D01*
X205714286Y-105026247D02*
X205714286Y-104883390D01*
X205714286Y-104883390D02*
X205761905Y-104692914D01*
X205761905Y-104692914D02*
X205809524Y-104597676D01*
X205809524Y-104597676D02*
X205904762Y-104502438D01*
X205904762Y-104502438D02*
X206047619Y-104454819D01*
X206047619Y-104454819D02*
X206142857Y-104454819D01*
X206142857Y-104454819D02*
X206285714Y-104502438D01*
X206285714Y-104502438D02*
X206333333Y-104550057D01*
X206714286Y-104550057D02*
X206761905Y-104502438D01*
X206761905Y-104502438D02*
X206857143Y-104454819D01*
X206857143Y-104454819D02*
X207095238Y-104454819D01*
X207095238Y-104454819D02*
X207190476Y-104502438D01*
X207190476Y-104502438D02*
X207238095Y-104550057D01*
X207238095Y-104550057D02*
X207285714Y-104645295D01*
X207285714Y-104645295D02*
X207285714Y-104740533D01*
X207285714Y-104740533D02*
X207238095Y-104883390D01*
X207238095Y-104883390D02*
X206666667Y-105454819D01*
X206666667Y-105454819D02*
X207285714Y-105454819D01*
X178454819Y-89633333D02*
X179169104Y-89633333D01*
X179169104Y-89633333D02*
X179311961Y-89680952D01*
X179311961Y-89680952D02*
X179407200Y-89776190D01*
X179407200Y-89776190D02*
X179454819Y-89919047D01*
X179454819Y-89919047D02*
X179454819Y-90014285D01*
X178454819Y-88728571D02*
X178454819Y-88919047D01*
X178454819Y-88919047D02*
X178502438Y-89014285D01*
X178502438Y-89014285D02*
X178550057Y-89061904D01*
X178550057Y-89061904D02*
X178692914Y-89157142D01*
X178692914Y-89157142D02*
X178883390Y-89204761D01*
X178883390Y-89204761D02*
X179264342Y-89204761D01*
X179264342Y-89204761D02*
X179359580Y-89157142D01*
X179359580Y-89157142D02*
X179407200Y-89109523D01*
X179407200Y-89109523D02*
X179454819Y-89014285D01*
X179454819Y-89014285D02*
X179454819Y-88823809D01*
X179454819Y-88823809D02*
X179407200Y-88728571D01*
X179407200Y-88728571D02*
X179359580Y-88680952D01*
X179359580Y-88680952D02*
X179264342Y-88633333D01*
X179264342Y-88633333D02*
X179026247Y-88633333D01*
X179026247Y-88633333D02*
X178931009Y-88680952D01*
X178931009Y-88680952D02*
X178883390Y-88728571D01*
X178883390Y-88728571D02*
X178835771Y-88823809D01*
X178835771Y-88823809D02*
X178835771Y-89014285D01*
X178835771Y-89014285D02*
X178883390Y-89109523D01*
X178883390Y-89109523D02*
X178931009Y-89157142D01*
X178931009Y-89157142D02*
X179026247Y-89204761D01*
D12*
X199738095Y-76157419D02*
X199738095Y-76966942D01*
X199738095Y-76966942D02*
X199785714Y-77062180D01*
X199785714Y-77062180D02*
X199833333Y-77109800D01*
X199833333Y-77109800D02*
X199928571Y-77157419D01*
X199928571Y-77157419D02*
X200119047Y-77157419D01*
X200119047Y-77157419D02*
X200214285Y-77109800D01*
X200214285Y-77109800D02*
X200261904Y-77062180D01*
X200261904Y-77062180D02*
X200309523Y-76966942D01*
X200309523Y-76966942D02*
X200309523Y-76157419D01*
X201309523Y-77157419D02*
X200738095Y-77157419D01*
X201023809Y-77157419D02*
X201023809Y-76157419D01*
X201023809Y-76157419D02*
X200928571Y-76300276D01*
X200928571Y-76300276D02*
X200833333Y-76395514D01*
X200833333Y-76395514D02*
X200738095Y-76443133D01*
D13*
X222166666Y-118374819D02*
X222166666Y-119089104D01*
X222166666Y-119089104D02*
X222119047Y-119231961D01*
X222119047Y-119231961D02*
X222023809Y-119327200D01*
X222023809Y-119327200D02*
X221880952Y-119374819D01*
X221880952Y-119374819D02*
X221785714Y-119374819D01*
X222547619Y-118374819D02*
X223166666Y-118374819D01*
X223166666Y-118374819D02*
X222833333Y-118755771D01*
X222833333Y-118755771D02*
X222976190Y-118755771D01*
X222976190Y-118755771D02*
X223071428Y-118803390D01*
X223071428Y-118803390D02*
X223119047Y-118851009D01*
X223119047Y-118851009D02*
X223166666Y-118946247D01*
X223166666Y-118946247D02*
X223166666Y-119184342D01*
X223166666Y-119184342D02*
X223119047Y-119279580D01*
X223119047Y-119279580D02*
X223071428Y-119327200D01*
X223071428Y-119327200D02*
X222976190Y-119374819D01*
X222976190Y-119374819D02*
X222690476Y-119374819D01*
X222690476Y-119374819D02*
X222595238Y-119327200D01*
X222595238Y-119327200D02*
X222547619Y-119279580D01*
X179474405Y-149024819D02*
X179474405Y-148024819D01*
X179474405Y-148024819D02*
X179712500Y-148024819D01*
X179712500Y-148024819D02*
X179855357Y-148072438D01*
X179855357Y-148072438D02*
X179950595Y-148167676D01*
X179950595Y-148167676D02*
X179998214Y-148262914D01*
X179998214Y-148262914D02*
X180045833Y-148453390D01*
X180045833Y-148453390D02*
X180045833Y-148596247D01*
X180045833Y-148596247D02*
X179998214Y-148786723D01*
X179998214Y-148786723D02*
X179950595Y-148881961D01*
X179950595Y-148881961D02*
X179855357Y-148977200D01*
X179855357Y-148977200D02*
X179712500Y-149024819D01*
X179712500Y-149024819D02*
X179474405Y-149024819D01*
X180998214Y-149024819D02*
X180426786Y-149024819D01*
X180712500Y-149024819D02*
X180712500Y-148024819D01*
X180712500Y-148024819D02*
X180617262Y-148167676D01*
X180617262Y-148167676D02*
X180522024Y-148262914D01*
X180522024Y-148262914D02*
X180426786Y-148310533D01*
X186508333Y-149024819D02*
X186175000Y-148548628D01*
X185936905Y-149024819D02*
X185936905Y-148024819D01*
X185936905Y-148024819D02*
X186317857Y-148024819D01*
X186317857Y-148024819D02*
X186413095Y-148072438D01*
X186413095Y-148072438D02*
X186460714Y-148120057D01*
X186460714Y-148120057D02*
X186508333Y-148215295D01*
X186508333Y-148215295D02*
X186508333Y-148358152D01*
X186508333Y-148358152D02*
X186460714Y-148453390D01*
X186460714Y-148453390D02*
X186413095Y-148501009D01*
X186413095Y-148501009D02*
X186317857Y-148548628D01*
X186317857Y-148548628D02*
X185936905Y-148548628D01*
X187460714Y-149024819D02*
X186889286Y-149024819D01*
X187175000Y-149024819D02*
X187175000Y-148024819D01*
X187175000Y-148024819D02*
X187079762Y-148167676D01*
X187079762Y-148167676D02*
X186984524Y-148262914D01*
X186984524Y-148262914D02*
X186889286Y-148310533D01*
X204733333Y-96174819D02*
X204257143Y-96174819D01*
X204257143Y-96174819D02*
X204257143Y-95174819D01*
X205590476Y-96174819D02*
X205019048Y-96174819D01*
X205304762Y-96174819D02*
X205304762Y-95174819D01*
X205304762Y-95174819D02*
X205209524Y-95317676D01*
X205209524Y-95317676D02*
X205114286Y-95412914D01*
X205114286Y-95412914D02*
X205019048Y-95460533D01*
X176554819Y-101533333D02*
X177269104Y-101533333D01*
X177269104Y-101533333D02*
X177411961Y-101580952D01*
X177411961Y-101580952D02*
X177507200Y-101676190D01*
X177507200Y-101676190D02*
X177554819Y-101819047D01*
X177554819Y-101819047D02*
X177554819Y-101914285D01*
X176554819Y-101152380D02*
X176554819Y-100485714D01*
X176554819Y-100485714D02*
X177554819Y-100914285D01*
X221690476Y-100374819D02*
X221690476Y-101089104D01*
X221690476Y-101089104D02*
X221642857Y-101231961D01*
X221642857Y-101231961D02*
X221547619Y-101327200D01*
X221547619Y-101327200D02*
X221404762Y-101374819D01*
X221404762Y-101374819D02*
X221309524Y-101374819D01*
X222690476Y-101374819D02*
X222119048Y-101374819D01*
X222404762Y-101374819D02*
X222404762Y-100374819D01*
X222404762Y-100374819D02*
X222309524Y-100517676D01*
X222309524Y-100517676D02*
X222214286Y-100612914D01*
X222214286Y-100612914D02*
X222119048Y-100660533D01*
X223309524Y-100374819D02*
X223404762Y-100374819D01*
X223404762Y-100374819D02*
X223500000Y-100422438D01*
X223500000Y-100422438D02*
X223547619Y-100470057D01*
X223547619Y-100470057D02*
X223595238Y-100565295D01*
X223595238Y-100565295D02*
X223642857Y-100755771D01*
X223642857Y-100755771D02*
X223642857Y-100993866D01*
X223642857Y-100993866D02*
X223595238Y-101184342D01*
X223595238Y-101184342D02*
X223547619Y-101279580D01*
X223547619Y-101279580D02*
X223500000Y-101327200D01*
X223500000Y-101327200D02*
X223404762Y-101374819D01*
X223404762Y-101374819D02*
X223309524Y-101374819D01*
X223309524Y-101374819D02*
X223214286Y-101327200D01*
X223214286Y-101327200D02*
X223166667Y-101279580D01*
X223166667Y-101279580D02*
X223119048Y-101184342D01*
X223119048Y-101184342D02*
X223071429Y-100993866D01*
X223071429Y-100993866D02*
X223071429Y-100755771D01*
X223071429Y-100755771D02*
X223119048Y-100565295D01*
X223119048Y-100565295D02*
X223166667Y-100470057D01*
X223166667Y-100470057D02*
X223214286Y-100422438D01*
X223214286Y-100422438D02*
X223309524Y-100374819D01*
X222166666Y-123874819D02*
X222166666Y-124589104D01*
X222166666Y-124589104D02*
X222119047Y-124731961D01*
X222119047Y-124731961D02*
X222023809Y-124827200D01*
X222023809Y-124827200D02*
X221880952Y-124874819D01*
X221880952Y-124874819D02*
X221785714Y-124874819D01*
X223071428Y-124208152D02*
X223071428Y-124874819D01*
X222833333Y-123827200D02*
X222595238Y-124541485D01*
X222595238Y-124541485D02*
X223214285Y-124541485D01*
D11*
X198600000Y-96440000D02*
X197800000Y-96440000D01*
X198600000Y-96440000D02*
X199400000Y-96440000D01*
X198600000Y-99560000D02*
X197800000Y-99560000D01*
X198600000Y-99560000D02*
X199400000Y-99560000D01*
X197300000Y-96490000D02*
X197060000Y-96160000D01*
X197540000Y-96160000D01*
X197300000Y-96490000D01*
G36*
X197300000Y-96490000D02*
G01*
X197060000Y-96160000D01*
X197540000Y-96160000D01*
X197300000Y-96490000D01*
G37*
X197238748Y-100765000D02*
X197761252Y-100765000D01*
X197238748Y-102235000D02*
X197761252Y-102235000D01*
X201140000Y-97412164D02*
X201140000Y-97627836D01*
X201860000Y-97412164D02*
X201860000Y-97627836D01*
X191600000Y-110400000D02*
X191600000Y-113070000D01*
X191600000Y-115610000D02*
X191600000Y-153840000D01*
X191600000Y-153840000D02*
X196680000Y-153840000D01*
X194270000Y-113070000D02*
X191600000Y-113070000D01*
X194270000Y-115610000D02*
X191600000Y-115610000D01*
X194270000Y-115610000D02*
X194270000Y-113070000D01*
X194270000Y-115610000D02*
X194270000Y-151170000D01*
X194270000Y-151170000D02*
X191600000Y-151170000D01*
X196680000Y-145960000D02*
X204560000Y-145960000D01*
X196680000Y-156380000D02*
X196680000Y-145960000D01*
X204560000Y-145960000D02*
X204560000Y-156380000D01*
X204560000Y-156380000D02*
X196680000Y-156380000D01*
X206970000Y-113070000D02*
X206970000Y-151170000D01*
X206970000Y-113070000D02*
X209640000Y-113070000D01*
X206970000Y-151170000D02*
X209640000Y-151170000D01*
X209640000Y-110400000D02*
X191600000Y-110400000D01*
X209640000Y-153840000D02*
X204560000Y-153840000D01*
X209640000Y-153840000D02*
X209640000Y-110400000D01*
X203711252Y-100590000D02*
X202288748Y-100590000D01*
X203711252Y-102410000D02*
X202288748Y-102410000D01*
D14*
X179200000Y-131400000D02*
X187300000Y-131400000D01*
X179200000Y-138400000D02*
X179200000Y-131400000D01*
X187300000Y-131400000D02*
X187300000Y-138400000D01*
X187300000Y-138400000D02*
X179200000Y-138400000D01*
D10*
X184459401Y-123709300D02*
X184459401Y-125360300D01*
X185472861Y-123709300D02*
X184459401Y-123709300D01*
X185782142Y-125360300D02*
X186387860Y-125360300D01*
X187710601Y-123709300D02*
X186697141Y-123709300D01*
X187710601Y-125360300D02*
X187710601Y-123709300D01*
D11*
X203711252Y-104090000D02*
X202288748Y-104090000D01*
X203711252Y-105910000D02*
X202288748Y-105910000D01*
D10*
X175572900Y-79842400D02*
X175572900Y-88224400D01*
X175572900Y-88224400D02*
X178366900Y-88224400D01*
X178366900Y-79842400D02*
X175572900Y-79842400D01*
X178366900Y-88224400D02*
X178366900Y-79842400D01*
D15*
X177350900Y-79207400D02*
G75*
G02*
X176588900Y-79207400I-381000J0D01*
G01*
X176588900Y-79207400D02*
G75*
G02*
X177350900Y-79207400I381000J0D01*
G01*
D12*
X190500000Y-70000000D02*
X210500000Y-70000000D01*
X210500000Y-90000000D01*
X190500000Y-90000000D01*
X190500000Y-70000000D01*
X190500000Y-70000000D02*
X210500000Y-70000000D01*
X210500000Y-90000000D01*
X190500000Y-90000000D01*
X190500000Y-70000000D01*
D11*
X178727500Y-149265000D02*
X178727500Y-150735000D01*
X178727500Y-150735000D02*
X181012500Y-150735000D01*
X181012500Y-149265000D02*
X178727500Y-149265000D01*
X186437742Y-149477500D02*
X186912258Y-149477500D01*
X186437742Y-150522500D02*
X186912258Y-150522500D01*
X204297936Y-96640000D02*
X205502064Y-96640000D01*
X204297936Y-99360000D02*
X205502064Y-99360000D01*
D10*
X175703000Y-90942400D02*
X175703000Y-99324400D01*
X175703000Y-99324400D02*
X178497000Y-99324400D01*
X178497000Y-90942400D02*
X175703000Y-90942400D01*
X178497000Y-99324400D02*
X178497000Y-90942400D01*
D15*
X177481000Y-90307400D02*
G75*
G02*
X176719000Y-90307400I-381000J0D01*
G01*
X176719000Y-90307400D02*
G75*
G02*
X177481000Y-90307400I381000J0D01*
G01*
%LPC*%
D16*
X197462500Y-97050000D03*
X197462500Y-98000000D03*
X197462500Y-98950000D03*
X199737500Y-98950000D03*
X199737500Y-98000000D03*
X199737500Y-97050000D03*
D17*
X196550000Y-101500000D03*
X198450000Y-101500000D03*
D18*
X222500000Y-108000000D03*
D19*
X201500000Y-97040000D03*
X201500000Y-98000000D03*
D20*
X193125000Y-114340000D03*
D21*
X192875000Y-116880000D03*
X193125000Y-119420000D03*
X192850000Y-121960000D03*
X193125000Y-124500000D03*
X192850000Y-127040000D03*
X193125000Y-129580000D03*
X192850000Y-132120000D03*
X193125000Y-134660000D03*
X192850000Y-137200000D03*
X193125000Y-139740000D03*
X192850000Y-142280000D03*
X193100000Y-144820000D03*
X192875000Y-147360000D03*
X193100000Y-149900000D03*
X208100000Y-149900000D03*
X208325000Y-147360000D03*
X208100000Y-144820000D03*
X208325000Y-142280000D03*
X208100000Y-139740000D03*
X208325000Y-137200000D03*
X208100000Y-134660000D03*
X208325000Y-132120000D03*
X208100000Y-129580000D03*
X208325000Y-127040000D03*
X208100000Y-124500000D03*
X208325000Y-121960000D03*
X208100000Y-119420000D03*
X208325000Y-116880000D03*
X208100000Y-114340000D03*
D18*
X177500000Y-112000000D03*
D22*
X222500000Y-98500000D03*
D18*
X177500000Y-117500000D03*
D23*
X204475000Y-101500000D03*
X201525000Y-101500000D03*
D24*
X185000000Y-135000000D03*
D25*
X181500000Y-135000000D03*
D26*
X185170002Y-125500000D03*
X187000000Y-125500000D03*
X186085001Y-123569600D03*
D22*
X222500000Y-132500000D03*
D23*
X204475000Y-105000000D03*
X201525000Y-105000000D03*
D27*
X176969900Y-81493400D03*
X176969900Y-84033400D03*
X176969900Y-86573400D03*
X191500000Y-76270000D03*
X191500000Y-76270000D03*
X191500000Y-78810000D03*
X191500000Y-78810000D03*
X191500000Y-81190000D03*
X191500000Y-81190000D03*
X191500000Y-83730000D03*
X191500000Y-83730000D03*
X209500000Y-76270000D03*
X209500000Y-76270000D03*
X209500000Y-78810000D03*
X209500000Y-78810000D03*
X209500000Y-81190000D03*
X209500000Y-81190000D03*
X209500000Y-83730000D03*
X209500000Y-83730000D03*
D18*
X222500000Y-121500000D03*
D28*
X179425000Y-150000000D03*
X181000000Y-150000000D03*
D29*
X185850000Y-150000000D03*
X187500000Y-150000000D03*
D30*
X203500000Y-98000000D03*
X206300000Y-98000000D03*
D27*
X177100000Y-92593400D03*
X177100000Y-95133400D03*
X177100000Y-97673400D03*
D18*
X222500000Y-103500000D03*
X222500000Y-127000000D03*
%LPD*%
M02*
