M48
; DRILL file {KiCad 9.0.0} date 2025-04-14T19:39:01-0400
; FORMAT={-:-/ absolute / metric / decimal}
; #@! TF.CreationDate,2025-04-14T19:39:01-04:00
; #@! TF.GenerationSoftware,Kicad,Pcbnew,9.0.0
; #@! TF.FileFunction,Plated,1,4,PTH
FMAT,2
METRIC
; #@! TA.AperFunction,Plated,PTH,ViaDrill
T1C0.330
; #@! TA.AperFunction,Plated,PTH,ComponentDrill
T2C0.762
; #@! TA.AperFunction,Plated,PTH,ComponentDrill
T3C1.000
; #@! TA.AperFunction,Plated,PTH,ComponentDrill
T4C1.016
; #@! TA.AperFunction,Plated,PTH,ComponentDrill
T5C1.100
; #@! TA.AperFunction,Plated,PTH,ComponentDrill
T6C1.200
; #@! TA.AperFunction,Plated,PTH,ComponentDrill
T7C1.750
%
G90
G05
T1
X179.5Y-146.5
X185.8Y-129.4
X188.8Y-126.1
X190.0Y-119.0
X190.5Y-95.5
X194.1Y-95.9
X194.5Y-100.0
X194.5Y-102.0
X196.0Y-93.6
X199.5Y-86.5
X199.5Y-103.5
X200.0Y-100.5
X200.23Y-85.0
X205.0Y-120.5
X209.0Y-103.0
X209.5Y-100.0
X210.5Y-91.5
X211.0Y-102.0
X212.0Y-92.403
X216.5Y-97.0
T2
X191.5Y-76.27
X191.5Y-76.27
X191.5Y-78.81
X191.5Y-78.81
X191.5Y-81.19
X191.5Y-81.19
X191.5Y-83.73
X191.5Y-83.73
X209.5Y-76.27
X209.5Y-76.27
X209.5Y-78.81
X209.5Y-78.81
X209.5Y-81.19
X209.5Y-81.19
X209.5Y-83.73
X209.5Y-83.73
T3
X192.85Y-121.96
X192.85Y-127.04
X192.85Y-132.12
X192.85Y-137.2
X192.85Y-142.28
X192.875Y-116.88
X192.875Y-147.36
X193.1Y-144.82
X193.1Y-149.9
X193.125Y-114.34
X193.125Y-119.42
X193.125Y-124.5
X193.125Y-129.58
X193.125Y-134.66
X193.125Y-139.74
X208.1Y-114.34
X208.1Y-119.42
X208.1Y-124.5
X208.1Y-129.58
X208.1Y-134.66
X208.1Y-139.74
X208.1Y-144.82
X208.1Y-149.9
X208.325Y-116.88
X208.325Y-121.96
X208.325Y-127.04
X208.325Y-132.12
X208.325Y-137.2
X208.325Y-142.28
X208.325Y-147.36
T4
X176.97Y-81.493
X176.97Y-84.033
X176.97Y-86.573
X177.1Y-92.593
X177.1Y-95.133
X177.1Y-97.673
T5
X222.5Y-98.5
X222.5Y-132.5
T6
X181.5Y-135.0
X185.0Y-135.0
T7
X177.5Y-112.0
X177.5Y-117.5
X222.5Y-103.5
X222.5Y-108.0
X222.5Y-121.5
X222.5Y-127.0
M30
