%TF.GenerationSoftware,KiCad,Pcbnew,9.0.0*%
%TF.CreationDate,2025-04-21T16:07:22-04:00*%
%TF.ProjectId,brainfreeze,62726169-6e66-4726-9565-7a652e6b6963,rev?*%
%TF.SameCoordinates,Original*%
%TF.FileFunction,Copper,L3,Inr*%
%TF.FilePolarity,Positive*%
%FSLAX46Y46*%
G04 Gerber Fmt 4.6, Leading zero omitted, Abs format (unit mm)*
G04 Created by KiCad (PCBNEW 9.0.0) date 2025-04-21 16:07:22*
%MOMM*%
%LPD*%
G01*
G04 APERTURE LIST*
G04 Aperture macros list*
%AMRoundRect*
0 Rectangle with rounded corners*
0 $1 Rounding radius*
0 $2 $3 $4 $5 $6 $7 $8 $9 X,Y pos of 4 corners*
0 Add a 4 corners polygon primitive as box body*
4,1,4,$2,$3,$4,$5,$6,$7,$8,$9,$2,$3,0*
0 Add four circle primitives for the rounded corners*
1,1,$1+$1,$2,$3*
1,1,$1+$1,$4,$5*
1,1,$1+$1,$6,$7*
1,1,$1+$1,$8,$9*
0 Add four rect primitives between the rounded corners*
20,1,$1+$1,$2,$3,$4,$5,0*
20,1,$1+$1,$4,$5,$6,$7,0*
20,1,$1+$1,$6,$7,$8,$9,0*
20,1,$1+$1,$8,$9,$2,$3,0*%
G04 Aperture macros list end*
%TA.AperFunction,ComponentPad*%
%ADD10RoundRect,0.250000X-1.125000X-1.125000X1.125000X-1.125000X1.125000X1.125000X-1.125000X1.125000X0*%
%TD*%
%TA.AperFunction,ComponentPad*%
%ADD11R,1.600000X1.600000*%
%TD*%
%TA.AperFunction,ComponentPad*%
%ADD12O,1.600000X1.600000*%
%TD*%
%TA.AperFunction,ComponentPad*%
%ADD13RoundRect,0.250001X-0.799999X-0.799999X0.799999X-0.799999X0.799999X0.799999X-0.799999X0.799999X0*%
%TD*%
%TA.AperFunction,ComponentPad*%
%ADD14R,1.800000X1.800000*%
%TD*%
%TA.AperFunction,ComponentPad*%
%ADD15C,1.800000*%
%TD*%
%TA.AperFunction,ComponentPad*%
%ADD16C,1.524000*%
%TD*%
%TA.AperFunction,ViaPad*%
%ADD17C,0.685800*%
%TD*%
G04 APERTURE END LIST*
D10*
X222400000Y-106400000D03*
D11*
X193025000Y-112740000D03*
D12*
X192775000Y-115280000D03*
X193025000Y-117820000D03*
X192750000Y-120360000D03*
X193025000Y-122900000D03*
X192750000Y-125440000D03*
X193025000Y-127980000D03*
X192750000Y-130520000D03*
X193025000Y-133060000D03*
X192750000Y-135600000D03*
X193025000Y-138140000D03*
X192750000Y-140680000D03*
X193000000Y-143220000D03*
X192775000Y-145760000D03*
X193000000Y-148300000D03*
X208000000Y-148300000D03*
X208225000Y-145760000D03*
X208000000Y-143220000D03*
X208225000Y-140680000D03*
X208000000Y-138140000D03*
X208225000Y-135600000D03*
X208000000Y-133060000D03*
X208225000Y-130520000D03*
X208000000Y-127980000D03*
X208225000Y-125440000D03*
X208000000Y-122900000D03*
X208225000Y-120360000D03*
X208000000Y-117820000D03*
X208225000Y-115280000D03*
X208000000Y-112740000D03*
D10*
X177400000Y-110400000D03*
D13*
X222400000Y-96900000D03*
D10*
X177400000Y-115900000D03*
D14*
X184900000Y-133400000D03*
D15*
X181400000Y-133400000D03*
D13*
X222400000Y-128000000D03*
D16*
X177369900Y-79893400D03*
X177369900Y-82433400D03*
X177369900Y-84973400D03*
X191400000Y-74670000D03*
X191400000Y-74670000D03*
X191400000Y-77210000D03*
X191400000Y-77210000D03*
X191400000Y-79590000D03*
X191400000Y-79590000D03*
X191400000Y-82130000D03*
X191400000Y-82130000D03*
X209400000Y-74670000D03*
X209400000Y-74670000D03*
X209400000Y-77210000D03*
X209400000Y-77210000D03*
X209400000Y-79590000D03*
X209400000Y-79590000D03*
X209400000Y-82130000D03*
X209400000Y-82130000D03*
D10*
X222400000Y-119900000D03*
D16*
X177500000Y-90993400D03*
X177500000Y-93533400D03*
X177500000Y-96073400D03*
D10*
X222400000Y-101900000D03*
X222400000Y-124000000D03*
D17*
X208900000Y-101400000D03*
X195900000Y-92000000D03*
X194000000Y-94300000D03*
X209400000Y-98400000D03*
X210400000Y-89900000D03*
X210900000Y-100400000D03*
X200130000Y-83400000D03*
X189900000Y-117400000D03*
X188700000Y-124500000D03*
X199900000Y-98900000D03*
X199400000Y-101900000D03*
X180000000Y-142000000D03*
X216400000Y-95400000D03*
X211900000Y-90803100D03*
X199400000Y-84900000D03*
X190400000Y-93900000D03*
X204900000Y-118900000D03*
X185700000Y-127800000D03*
X194400000Y-100400000D03*
X194400000Y-98400000D03*
%TA.AperFunction,Conductor*%
G36*
X223004418Y-65500816D02*
G01*
X223204561Y-65515130D01*
X223222063Y-65517647D01*
X223413797Y-65559355D01*
X223430755Y-65564334D01*
X223614609Y-65632909D01*
X223630701Y-65640259D01*
X223802904Y-65734288D01*
X223817784Y-65743849D01*
X223974867Y-65861441D01*
X223988237Y-65873027D01*
X224126972Y-66011762D01*
X224138558Y-66025132D01*
X224256146Y-66182210D01*
X224265711Y-66197095D01*
X224359740Y-66369298D01*
X224367090Y-66385390D01*
X224435662Y-66569236D01*
X224440646Y-66586212D01*
X224482351Y-66777931D01*
X224484869Y-66795442D01*
X224499184Y-66995580D01*
X224499500Y-67004427D01*
X224499500Y-105063043D01*
X224479815Y-105130082D01*
X224427011Y-105175837D01*
X224357853Y-105185781D01*
X224294297Y-105156756D01*
X224257794Y-105102047D01*
X224209358Y-104955880D01*
X224209356Y-104955875D01*
X224117315Y-104806654D01*
X223993345Y-104682684D01*
X223844124Y-104590643D01*
X223844119Y-104590641D01*
X223677697Y-104535494D01*
X223677690Y-104535493D01*
X223574986Y-104525000D01*
X222650000Y-104525000D01*
X222650000Y-105557586D01*
X222486180Y-105525000D01*
X222313820Y-105525000D01*
X222150000Y-105557586D01*
X222150000Y-104525000D01*
X221225028Y-104525000D01*
X221225012Y-104525001D01*
X221122302Y-104535494D01*
X220955880Y-104590641D01*
X220955875Y-104590643D01*
X220806654Y-104682684D01*
X220682684Y-104806654D01*
X220590643Y-104955875D01*
X220590641Y-104955880D01*
X220535494Y-105122302D01*
X220535493Y-105122309D01*
X220525000Y-105225013D01*
X220525000Y-106150000D01*
X221557586Y-106150000D01*
X221525000Y-106313820D01*
X221525000Y-106486180D01*
X221557586Y-106650000D01*
X220525001Y-106650000D01*
X220525001Y-107574986D01*
X220535494Y-107677697D01*
X220590641Y-107844119D01*
X220590643Y-107844124D01*
X220682684Y-107993345D01*
X220806654Y-108117315D01*
X220955875Y-108209356D01*
X220955880Y-108209358D01*
X221122302Y-108264505D01*
X221122309Y-108264506D01*
X221225019Y-108274999D01*
X222149999Y-108274999D01*
X222150000Y-108274998D01*
X222150000Y-107242413D01*
X222313820Y-107275000D01*
X222486180Y-107275000D01*
X222650000Y-107242413D01*
X222650000Y-108274999D01*
X223574972Y-108274999D01*
X223574986Y-108274998D01*
X223677697Y-108264505D01*
X223844119Y-108209358D01*
X223844124Y-108209356D01*
X223993345Y-108117315D01*
X224117315Y-107993345D01*
X224209356Y-107844124D01*
X224209358Y-107844119D01*
X224257794Y-107697950D01*
X224297566Y-107640505D01*
X224362082Y-107613682D01*
X224430858Y-107625997D01*
X224482058Y-107673540D01*
X224499500Y-107736954D01*
X224499500Y-122663043D01*
X224479815Y-122730082D01*
X224427011Y-122775837D01*
X224357853Y-122785781D01*
X224294297Y-122756756D01*
X224257794Y-122702047D01*
X224209358Y-122555880D01*
X224209356Y-122555875D01*
X224117315Y-122406654D01*
X223993345Y-122282684D01*
X223844124Y-122190643D01*
X223844119Y-122190641D01*
X223677697Y-122135494D01*
X223677690Y-122135493D01*
X223574986Y-122125000D01*
X222650000Y-122125000D01*
X222650000Y-123157586D01*
X222486180Y-123125000D01*
X222313820Y-123125000D01*
X222150000Y-123157586D01*
X222150000Y-122125000D01*
X221225028Y-122125000D01*
X221225012Y-122125001D01*
X221122302Y-122135494D01*
X220955880Y-122190641D01*
X220955875Y-122190643D01*
X220806654Y-122282684D01*
X220682684Y-122406654D01*
X220590643Y-122555875D01*
X220590641Y-122555880D01*
X220535494Y-122722302D01*
X220535493Y-122722309D01*
X220525000Y-122825013D01*
X220525000Y-123750000D01*
X221557586Y-123750000D01*
X221525000Y-123913820D01*
X221525000Y-124086180D01*
X221557586Y-124250000D01*
X220525001Y-124250000D01*
X220525001Y-125174986D01*
X220535494Y-125277697D01*
X220590641Y-125444119D01*
X220590643Y-125444124D01*
X220682684Y-125593345D01*
X220806654Y-125717315D01*
X220955875Y-125809356D01*
X220955880Y-125809358D01*
X221122302Y-125864505D01*
X221122309Y-125864506D01*
X221225019Y-125874999D01*
X222149999Y-125874999D01*
X222150000Y-125874998D01*
X222150000Y-124842413D01*
X222313820Y-124875000D01*
X222486180Y-124875000D01*
X222650000Y-124842413D01*
X222650000Y-125874999D01*
X223574972Y-125874999D01*
X223574986Y-125874998D01*
X223677697Y-125864505D01*
X223844119Y-125809358D01*
X223844124Y-125809356D01*
X223993345Y-125717315D01*
X224117315Y-125593345D01*
X224209356Y-125444124D01*
X224209358Y-125444119D01*
X224257794Y-125297950D01*
X224297566Y-125240505D01*
X224362082Y-125213682D01*
X224430858Y-125225997D01*
X224482058Y-125273540D01*
X224499500Y-125336954D01*
X224499500Y-152995572D01*
X224499184Y-153004418D01*
X224499184Y-153004419D01*
X224484869Y-153204557D01*
X224482351Y-153222068D01*
X224440646Y-153413787D01*
X224435662Y-153430763D01*
X224367090Y-153614609D01*
X224359740Y-153630701D01*
X224265711Y-153802904D01*
X224256146Y-153817789D01*
X224138558Y-153974867D01*
X224126972Y-153988237D01*
X223988237Y-154126972D01*
X223974867Y-154138558D01*
X223817789Y-154256146D01*
X223802904Y-154265711D01*
X223630701Y-154359740D01*
X223614609Y-154367090D01*
X223430763Y-154435662D01*
X223413787Y-154440646D01*
X223222068Y-154482351D01*
X223204557Y-154484869D01*
X223023779Y-154497799D01*
X223004417Y-154499184D01*
X222995572Y-154499500D01*
X177004428Y-154499500D01*
X176995582Y-154499184D01*
X176973622Y-154497613D01*
X176795442Y-154484869D01*
X176777931Y-154482351D01*
X176586212Y-154440646D01*
X176569236Y-154435662D01*
X176385390Y-154367090D01*
X176369298Y-154359740D01*
X176197095Y-154265711D01*
X176182210Y-154256146D01*
X176025132Y-154138558D01*
X176011762Y-154126972D01*
X175873027Y-153988237D01*
X175861441Y-153974867D01*
X175743849Y-153817784D01*
X175734288Y-153802904D01*
X175640259Y-153630701D01*
X175632909Y-153614609D01*
X175590348Y-153500499D01*
X175564334Y-153430755D01*
X175559355Y-153413797D01*
X175517647Y-153222063D01*
X175515130Y-153204556D01*
X175500816Y-153004418D01*
X175500500Y-152995572D01*
X175500500Y-150859568D01*
X176499500Y-150859568D01*
X176499500Y-151140431D01*
X176530942Y-151419494D01*
X176530945Y-151419512D01*
X176593439Y-151693317D01*
X176593443Y-151693329D01*
X176686200Y-151958411D01*
X176808053Y-152211442D01*
X176808055Y-152211445D01*
X176957477Y-152449248D01*
X177132584Y-152668825D01*
X177331175Y-152867416D01*
X177550752Y-153042523D01*
X177788555Y-153191945D01*
X178041592Y-153313801D01*
X178240680Y-153383465D01*
X178306670Y-153406556D01*
X178306682Y-153406560D01*
X178580491Y-153469055D01*
X178580497Y-153469055D01*
X178580505Y-153469057D01*
X178766547Y-153490018D01*
X178859569Y-153500499D01*
X178859572Y-153500500D01*
X178859575Y-153500500D01*
X179140428Y-153500500D01*
X179140429Y-153500499D01*
X179283055Y-153484429D01*
X179419494Y-153469057D01*
X179419499Y-153469056D01*
X179419509Y-153469055D01*
X179693318Y-153406560D01*
X179958408Y-153313801D01*
X180211445Y-153191945D01*
X180449248Y-153042523D01*
X180668825Y-152867416D01*
X180867416Y-152668825D01*
X181042523Y-152449248D01*
X181191945Y-152211445D01*
X181313801Y-151958408D01*
X181406560Y-151693318D01*
X181469055Y-151419509D01*
X181500500Y-151140425D01*
X181500500Y-150859575D01*
X181500499Y-150859568D01*
X218499500Y-150859568D01*
X218499500Y-151140431D01*
X218530942Y-151419494D01*
X218530945Y-151419512D01*
X218593439Y-151693317D01*
X218593443Y-151693329D01*
X218686200Y-151958411D01*
X218808053Y-152211442D01*
X218808055Y-152211445D01*
X218957477Y-152449248D01*
X219132584Y-152668825D01*
X219331175Y-152867416D01*
X219550752Y-153042523D01*
X219788555Y-153191945D01*
X220041592Y-153313801D01*
X220240680Y-153383465D01*
X220306670Y-153406556D01*
X220306682Y-153406560D01*
X220580491Y-153469055D01*
X220580497Y-153469055D01*
X220580505Y-153469057D01*
X220766547Y-153490018D01*
X220859569Y-153500499D01*
X220859572Y-153500500D01*
X220859575Y-153500500D01*
X221140428Y-153500500D01*
X221140429Y-153500499D01*
X221283055Y-153484429D01*
X221419494Y-153469057D01*
X221419499Y-153469056D01*
X221419509Y-153469055D01*
X221693318Y-153406560D01*
X221958408Y-153313801D01*
X222211445Y-153191945D01*
X222449248Y-153042523D01*
X222668825Y-152867416D01*
X222867416Y-152668825D01*
X223042523Y-152449248D01*
X223191945Y-152211445D01*
X223313801Y-151958408D01*
X223406560Y-151693318D01*
X223469055Y-151419509D01*
X223500500Y-151140425D01*
X223500500Y-150859575D01*
X223469055Y-150580491D01*
X223406560Y-150306682D01*
X223313801Y-150041592D01*
X223191945Y-149788555D01*
X223042523Y-149550752D01*
X222867416Y-149331175D01*
X222668825Y-149132584D01*
X222449248Y-148957477D01*
X222211445Y-148808055D01*
X222211442Y-148808053D01*
X221958411Y-148686200D01*
X221693329Y-148593443D01*
X221693317Y-148593439D01*
X221419512Y-148530945D01*
X221419494Y-148530942D01*
X221140431Y-148499500D01*
X221140425Y-148499500D01*
X220859575Y-148499500D01*
X220859568Y-148499500D01*
X220580505Y-148530942D01*
X220580487Y-148530945D01*
X220306682Y-148593439D01*
X220306670Y-148593443D01*
X220041588Y-148686200D01*
X219788557Y-148808053D01*
X219550753Y-148957476D01*
X219331175Y-149132583D01*
X219132583Y-149331175D01*
X218957476Y-149550753D01*
X218808053Y-149788557D01*
X218686200Y-150041588D01*
X218593443Y-150306670D01*
X218593439Y-150306682D01*
X218530945Y-150580487D01*
X218530942Y-150580505D01*
X218499500Y-150859568D01*
X181500499Y-150859568D01*
X181469055Y-150580491D01*
X181406560Y-150306682D01*
X181313801Y-150041592D01*
X181191945Y-149788555D01*
X181042523Y-149550752D01*
X180867416Y-149331175D01*
X180668825Y-149132584D01*
X180449248Y-148957477D01*
X180211445Y-148808055D01*
X180211442Y-148808053D01*
X179958411Y-148686200D01*
X179693329Y-148593443D01*
X179693317Y-148593439D01*
X179419512Y-148530945D01*
X179419494Y-148530942D01*
X179140431Y-148499500D01*
X179140425Y-148499500D01*
X178859575Y-148499500D01*
X178859568Y-148499500D01*
X178580505Y-148530942D01*
X178580487Y-148530945D01*
X178306682Y-148593439D01*
X178306670Y-148593443D01*
X178041588Y-148686200D01*
X177788557Y-148808053D01*
X177550753Y-148957476D01*
X177331175Y-149132583D01*
X177132583Y-149331175D01*
X176957476Y-149550753D01*
X176808053Y-149788557D01*
X176686200Y-150041588D01*
X176593443Y-150306670D01*
X176593439Y-150306682D01*
X176530945Y-150580487D01*
X176530942Y-150580505D01*
X176499500Y-150859568D01*
X175500500Y-150859568D01*
X175500500Y-148208644D01*
X192072500Y-148208644D01*
X192072500Y-148391355D01*
X192108141Y-148570534D01*
X192108143Y-148570542D01*
X192178058Y-148739333D01*
X192178063Y-148739342D01*
X192279563Y-148891246D01*
X192279566Y-148891250D01*
X192408749Y-149020433D01*
X192408753Y-149020436D01*
X192560657Y-149121936D01*
X192560663Y-149121939D01*
X192560664Y-149121940D01*
X192729458Y-149191857D01*
X192908644Y-149227499D01*
X192908648Y-149227500D01*
X192908649Y-149227500D01*
X193091352Y-149227500D01*
X193091353Y-149227499D01*
X193270542Y-149191857D01*
X193439336Y-149121940D01*
X193591247Y-149020436D01*
X193720436Y-148891247D01*
X193821940Y-148739336D01*
X193891857Y-148570542D01*
X193927500Y-148391351D01*
X193927500Y-148208649D01*
X193927499Y-148208644D01*
X207072500Y-148208644D01*
X207072500Y-148391355D01*
X207108141Y-148570534D01*
X207108143Y-148570542D01*
X207178058Y-148739333D01*
X207178063Y-148739342D01*
X207279563Y-148891246D01*
X207279566Y-148891250D01*
X207408749Y-149020433D01*
X207408753Y-149020436D01*
X207560657Y-149121936D01*
X207560663Y-149121939D01*
X207560664Y-149121940D01*
X207729458Y-149191857D01*
X207908644Y-149227499D01*
X207908648Y-149227500D01*
X207908649Y-149227500D01*
X208091352Y-149227500D01*
X208091353Y-149227499D01*
X208270542Y-149191857D01*
X208439336Y-149121940D01*
X208591247Y-149020436D01*
X208720436Y-148891247D01*
X208821940Y-148739336D01*
X208891857Y-148570542D01*
X208927500Y-148391351D01*
X208927500Y-148208649D01*
X208891857Y-148029458D01*
X208821940Y-147860664D01*
X208821939Y-147860663D01*
X208821936Y-147860657D01*
X208720436Y-147708753D01*
X208720433Y-147708749D01*
X208591250Y-147579566D01*
X208591246Y-147579563D01*
X208439342Y-147478063D01*
X208439333Y-147478058D01*
X208270542Y-147408143D01*
X208270534Y-147408141D01*
X208091355Y-147372500D01*
X208091351Y-147372500D01*
X207908649Y-147372500D01*
X207908644Y-147372500D01*
X207729465Y-147408141D01*
X207729457Y-147408143D01*
X207560666Y-147478058D01*
X207560657Y-147478063D01*
X207408753Y-147579563D01*
X207408749Y-147579566D01*
X207279566Y-147708749D01*
X207279563Y-147708753D01*
X207178063Y-147860657D01*
X207178058Y-147860666D01*
X207108143Y-148029457D01*
X207108141Y-148029465D01*
X207072500Y-148208644D01*
X193927499Y-148208644D01*
X193891857Y-148029458D01*
X193821940Y-147860664D01*
X193821939Y-147860663D01*
X193821936Y-147860657D01*
X193720436Y-147708753D01*
X193720433Y-147708749D01*
X193591250Y-147579566D01*
X193591246Y-147579563D01*
X193439342Y-147478063D01*
X193439333Y-147478058D01*
X193270542Y-147408143D01*
X193270534Y-147408141D01*
X193091355Y-147372500D01*
X193091351Y-147372500D01*
X192908649Y-147372500D01*
X192908644Y-147372500D01*
X192729465Y-147408141D01*
X192729457Y-147408143D01*
X192560666Y-147478058D01*
X192560657Y-147478063D01*
X192408753Y-147579563D01*
X192408749Y-147579566D01*
X192279566Y-147708749D01*
X192279563Y-147708753D01*
X192178063Y-147860657D01*
X192178058Y-147860666D01*
X192108143Y-148029457D01*
X192108141Y-148029465D01*
X192072500Y-148208644D01*
X175500500Y-148208644D01*
X175500500Y-145668644D01*
X191847500Y-145668644D01*
X191847500Y-145851355D01*
X191883141Y-146030534D01*
X191883143Y-146030542D01*
X191953058Y-146199333D01*
X191953063Y-146199342D01*
X192054563Y-146351246D01*
X192054566Y-146351250D01*
X192183749Y-146480433D01*
X192183753Y-146480436D01*
X192335657Y-146581936D01*
X192335663Y-146581939D01*
X192335664Y-146581940D01*
X192504458Y-146651857D01*
X192683644Y-146687499D01*
X192683648Y-146687500D01*
X192683649Y-146687500D01*
X192866352Y-146687500D01*
X192866353Y-146687499D01*
X193045542Y-146651857D01*
X193214336Y-146581940D01*
X193366247Y-146480436D01*
X193495436Y-146351247D01*
X193596940Y-146199336D01*
X193666857Y-146030542D01*
X193702500Y-145851351D01*
X193702500Y-145668649D01*
X193702499Y-145668644D01*
X207297500Y-145668644D01*
X207297500Y-145851355D01*
X207333141Y-146030534D01*
X207333143Y-146030542D01*
X207403058Y-146199333D01*
X207403063Y-146199342D01*
X207504563Y-146351246D01*
X207504566Y-146351250D01*
X207633749Y-146480433D01*
X207633753Y-146480436D01*
X207785657Y-146581936D01*
X207785663Y-146581939D01*
X207785664Y-146581940D01*
X207954458Y-146651857D01*
X208133644Y-146687499D01*
X208133648Y-146687500D01*
X208133649Y-146687500D01*
X208316352Y-146687500D01*
X208316353Y-146687499D01*
X208495542Y-146651857D01*
X208664336Y-146581940D01*
X208816247Y-146480436D01*
X208945436Y-146351247D01*
X209046940Y-146199336D01*
X209116857Y-146030542D01*
X209152500Y-145851351D01*
X209152500Y-145668649D01*
X209116857Y-145489458D01*
X209046940Y-145320664D01*
X209046939Y-145320663D01*
X209046936Y-145320657D01*
X208945436Y-145168753D01*
X208945433Y-145168749D01*
X208816250Y-145039566D01*
X208816246Y-145039563D01*
X208664342Y-144938063D01*
X208664333Y-144938058D01*
X208495542Y-144868143D01*
X208495534Y-144868141D01*
X208316355Y-144832500D01*
X208316351Y-144832500D01*
X208133649Y-144832500D01*
X208133644Y-144832500D01*
X207954465Y-144868141D01*
X207954457Y-144868143D01*
X207785666Y-144938058D01*
X207785657Y-144938063D01*
X207633753Y-145039563D01*
X207633749Y-145039566D01*
X207504566Y-145168749D01*
X207504563Y-145168753D01*
X207403063Y-145320657D01*
X207403058Y-145320666D01*
X207333143Y-145489457D01*
X207333141Y-145489465D01*
X207297500Y-145668644D01*
X193702499Y-145668644D01*
X193666857Y-145489458D01*
X193596940Y-145320664D01*
X193596939Y-145320663D01*
X193596936Y-145320657D01*
X193495436Y-145168753D01*
X193495433Y-145168749D01*
X193366250Y-145039566D01*
X193366246Y-145039563D01*
X193214342Y-144938063D01*
X193214333Y-144938058D01*
X193045542Y-144868143D01*
X193045534Y-144868141D01*
X192866355Y-144832500D01*
X192866351Y-144832500D01*
X192683649Y-144832500D01*
X192683644Y-144832500D01*
X192504465Y-144868141D01*
X192504457Y-144868143D01*
X192335666Y-144938058D01*
X192335657Y-144938063D01*
X192183753Y-145039563D01*
X192183749Y-145039566D01*
X192054566Y-145168749D01*
X192054563Y-145168753D01*
X191953063Y-145320657D01*
X191953058Y-145320666D01*
X191883143Y-145489457D01*
X191883141Y-145489465D01*
X191847500Y-145668644D01*
X175500500Y-145668644D01*
X175500500Y-143128644D01*
X192072500Y-143128644D01*
X192072500Y-143311355D01*
X192108141Y-143490534D01*
X192108143Y-143490542D01*
X192178058Y-143659333D01*
X192178063Y-143659342D01*
X192279563Y-143811246D01*
X192279566Y-143811250D01*
X192408749Y-143940433D01*
X192408753Y-143940436D01*
X192560657Y-144041936D01*
X192560663Y-144041939D01*
X192560664Y-144041940D01*
X192729458Y-144111857D01*
X192908644Y-144147499D01*
X192908648Y-144147500D01*
X192908649Y-144147500D01*
X193091352Y-144147500D01*
X193091353Y-144147499D01*
X193270542Y-144111857D01*
X193439336Y-144041940D01*
X193591247Y-143940436D01*
X193720436Y-143811247D01*
X193821940Y-143659336D01*
X193891857Y-143490542D01*
X193927500Y-143311351D01*
X193927500Y-143128649D01*
X193927499Y-143128644D01*
X207072500Y-143128644D01*
X207072500Y-143311355D01*
X207108141Y-143490534D01*
X207108143Y-143490542D01*
X207178058Y-143659333D01*
X207178063Y-143659342D01*
X207279563Y-143811246D01*
X207279566Y-143811250D01*
X207408749Y-143940433D01*
X207408753Y-143940436D01*
X207560657Y-144041936D01*
X207560663Y-144041939D01*
X207560664Y-144041940D01*
X207729458Y-144111857D01*
X207908644Y-144147499D01*
X207908648Y-144147500D01*
X207908649Y-144147500D01*
X208091352Y-144147500D01*
X208091353Y-144147499D01*
X208270542Y-144111857D01*
X208439336Y-144041940D01*
X208591247Y-143940436D01*
X208720436Y-143811247D01*
X208821940Y-143659336D01*
X208891857Y-143490542D01*
X208927500Y-143311351D01*
X208927500Y-143128649D01*
X208891857Y-142949458D01*
X208821940Y-142780664D01*
X208821939Y-142780663D01*
X208821936Y-142780657D01*
X208720436Y-142628753D01*
X208720433Y-142628749D01*
X208591250Y-142499566D01*
X208591246Y-142499563D01*
X208439342Y-142398063D01*
X208439333Y-142398058D01*
X208270542Y-142328143D01*
X208270534Y-142328141D01*
X208091355Y-142292500D01*
X208091351Y-142292500D01*
X207908649Y-142292500D01*
X207908644Y-142292500D01*
X207729465Y-142328141D01*
X207729457Y-142328143D01*
X207560666Y-142398058D01*
X207560657Y-142398063D01*
X207408753Y-142499563D01*
X207408749Y-142499566D01*
X207279566Y-142628749D01*
X207279563Y-142628753D01*
X207178063Y-142780657D01*
X207178058Y-142780666D01*
X207108143Y-142949457D01*
X207108141Y-142949465D01*
X207072500Y-143128644D01*
X193927499Y-143128644D01*
X193891857Y-142949458D01*
X193821940Y-142780664D01*
X193821939Y-142780663D01*
X193821936Y-142780657D01*
X193720436Y-142628753D01*
X193720433Y-142628749D01*
X193591250Y-142499566D01*
X193591246Y-142499563D01*
X193439342Y-142398063D01*
X193439333Y-142398058D01*
X193270542Y-142328143D01*
X193270534Y-142328141D01*
X193091355Y-142292500D01*
X193091351Y-142292500D01*
X192908649Y-142292500D01*
X192908644Y-142292500D01*
X192729465Y-142328141D01*
X192729457Y-142328143D01*
X192560666Y-142398058D01*
X192560657Y-142398063D01*
X192408753Y-142499563D01*
X192408749Y-142499566D01*
X192279566Y-142628749D01*
X192279563Y-142628753D01*
X192178063Y-142780657D01*
X192178058Y-142780666D01*
X192108143Y-142949457D01*
X192108141Y-142949465D01*
X192072500Y-143128644D01*
X175500500Y-143128644D01*
X175500500Y-140588644D01*
X191822500Y-140588644D01*
X191822500Y-140771355D01*
X191858141Y-140950534D01*
X191858143Y-140950542D01*
X191928058Y-141119333D01*
X191928063Y-141119342D01*
X192029563Y-141271246D01*
X192029566Y-141271250D01*
X192158749Y-141400433D01*
X192158753Y-141400436D01*
X192310657Y-141501936D01*
X192310663Y-141501939D01*
X192310664Y-141501940D01*
X192479458Y-141571857D01*
X192658644Y-141607499D01*
X192658648Y-141607500D01*
X192658649Y-141607500D01*
X192841352Y-141607500D01*
X192841353Y-141607499D01*
X193020542Y-141571857D01*
X193189336Y-141501940D01*
X193341247Y-141400436D01*
X193470436Y-141271247D01*
X193571940Y-141119336D01*
X193641857Y-140950542D01*
X193677500Y-140771351D01*
X193677500Y-140588649D01*
X193677499Y-140588644D01*
X207297500Y-140588644D01*
X207297500Y-140771355D01*
X207333141Y-140950534D01*
X207333143Y-140950542D01*
X207403058Y-141119333D01*
X207403063Y-141119342D01*
X207504563Y-141271246D01*
X207504566Y-141271250D01*
X207633749Y-141400433D01*
X207633753Y-141400436D01*
X207785657Y-141501936D01*
X207785663Y-141501939D01*
X207785664Y-141501940D01*
X207954458Y-141571857D01*
X208133644Y-141607499D01*
X208133648Y-141607500D01*
X208133649Y-141607500D01*
X208316352Y-141607500D01*
X208316353Y-141607499D01*
X208495542Y-141571857D01*
X208664336Y-141501940D01*
X208816247Y-141400436D01*
X208945436Y-141271247D01*
X209046940Y-141119336D01*
X209116857Y-140950542D01*
X209152500Y-140771351D01*
X209152500Y-140588649D01*
X209116857Y-140409458D01*
X209046940Y-140240664D01*
X209046939Y-140240663D01*
X209046936Y-140240657D01*
X208945436Y-140088753D01*
X208945433Y-140088749D01*
X208816250Y-139959566D01*
X208816246Y-139959563D01*
X208664342Y-139858063D01*
X208664333Y-139858058D01*
X208495542Y-139788143D01*
X208495534Y-139788141D01*
X208316355Y-139752500D01*
X208316351Y-139752500D01*
X208133649Y-139752500D01*
X208133644Y-139752500D01*
X207954465Y-139788141D01*
X207954457Y-139788143D01*
X207785666Y-139858058D01*
X207785657Y-139858063D01*
X207633753Y-139959563D01*
X207633749Y-139959566D01*
X207504566Y-140088749D01*
X207504563Y-140088753D01*
X207403063Y-140240657D01*
X207403058Y-140240666D01*
X207333143Y-140409457D01*
X207333141Y-140409465D01*
X207297500Y-140588644D01*
X193677499Y-140588644D01*
X193641857Y-140409458D01*
X193571940Y-140240664D01*
X193571939Y-140240663D01*
X193571936Y-140240657D01*
X193470436Y-140088753D01*
X193470433Y-140088749D01*
X193341250Y-139959566D01*
X193341246Y-139959563D01*
X193189342Y-139858063D01*
X193189333Y-139858058D01*
X193020542Y-139788143D01*
X193020534Y-139788141D01*
X192841355Y-139752500D01*
X192841351Y-139752500D01*
X192658649Y-139752500D01*
X192658644Y-139752500D01*
X192479465Y-139788141D01*
X192479457Y-139788143D01*
X192310666Y-139858058D01*
X192310657Y-139858063D01*
X192158753Y-139959563D01*
X192158749Y-139959566D01*
X192029566Y-140088749D01*
X192029563Y-140088753D01*
X191928063Y-140240657D01*
X191928058Y-140240666D01*
X191858143Y-140409457D01*
X191858141Y-140409465D01*
X191822500Y-140588644D01*
X175500500Y-140588644D01*
X175500500Y-138048644D01*
X192097500Y-138048644D01*
X192097500Y-138231355D01*
X192133141Y-138410534D01*
X192133143Y-138410542D01*
X192203058Y-138579333D01*
X192203063Y-138579342D01*
X192304563Y-138731246D01*
X192304566Y-138731250D01*
X192433749Y-138860433D01*
X192433753Y-138860436D01*
X192585657Y-138961936D01*
X192585663Y-138961939D01*
X192585664Y-138961940D01*
X192754458Y-139031857D01*
X192933644Y-139067499D01*
X192933648Y-139067500D01*
X192933649Y-139067500D01*
X193116352Y-139067500D01*
X193116353Y-139067499D01*
X193295542Y-139031857D01*
X193464336Y-138961940D01*
X193616247Y-138860436D01*
X193745436Y-138731247D01*
X193846940Y-138579336D01*
X193916857Y-138410542D01*
X193952500Y-138231351D01*
X193952500Y-138048649D01*
X193952499Y-138048644D01*
X207072500Y-138048644D01*
X207072500Y-138231355D01*
X207108141Y-138410534D01*
X207108143Y-138410542D01*
X207178058Y-138579333D01*
X207178063Y-138579342D01*
X207279563Y-138731246D01*
X207279566Y-138731250D01*
X207408749Y-138860433D01*
X207408753Y-138860436D01*
X207560657Y-138961936D01*
X207560663Y-138961939D01*
X207560664Y-138961940D01*
X207729458Y-139031857D01*
X207908644Y-139067499D01*
X207908648Y-139067500D01*
X207908649Y-139067500D01*
X208091352Y-139067500D01*
X208091353Y-139067499D01*
X208270542Y-139031857D01*
X208439336Y-138961940D01*
X208591247Y-138860436D01*
X208720436Y-138731247D01*
X208821940Y-138579336D01*
X208891857Y-138410542D01*
X208927500Y-138231351D01*
X208927500Y-138048649D01*
X208891857Y-137869458D01*
X208821940Y-137700664D01*
X208821939Y-137700663D01*
X208821936Y-137700657D01*
X208720436Y-137548753D01*
X208720433Y-137548749D01*
X208591250Y-137419566D01*
X208591246Y-137419563D01*
X208439342Y-137318063D01*
X208439333Y-137318058D01*
X208270542Y-137248143D01*
X208270534Y-137248141D01*
X208091355Y-137212500D01*
X208091351Y-137212500D01*
X207908649Y-137212500D01*
X207908644Y-137212500D01*
X207729465Y-137248141D01*
X207729457Y-137248143D01*
X207560666Y-137318058D01*
X207560657Y-137318063D01*
X207408753Y-137419563D01*
X207408749Y-137419566D01*
X207279566Y-137548749D01*
X207279563Y-137548753D01*
X207178063Y-137700657D01*
X207178058Y-137700666D01*
X207108143Y-137869457D01*
X207108141Y-137869465D01*
X207072500Y-138048644D01*
X193952499Y-138048644D01*
X193916857Y-137869458D01*
X193846940Y-137700664D01*
X193846939Y-137700663D01*
X193846936Y-137700657D01*
X193745436Y-137548753D01*
X193745433Y-137548749D01*
X193616250Y-137419566D01*
X193616246Y-137419563D01*
X193464342Y-137318063D01*
X193464333Y-137318058D01*
X193295542Y-137248143D01*
X193295534Y-137248141D01*
X193116355Y-137212500D01*
X193116351Y-137212500D01*
X192933649Y-137212500D01*
X192933644Y-137212500D01*
X192754465Y-137248141D01*
X192754457Y-137248143D01*
X192585666Y-137318058D01*
X192585657Y-137318063D01*
X192433753Y-137419563D01*
X192433749Y-137419566D01*
X192304566Y-137548749D01*
X192304563Y-137548753D01*
X192203063Y-137700657D01*
X192203058Y-137700666D01*
X192133143Y-137869457D01*
X192133141Y-137869465D01*
X192097500Y-138048644D01*
X175500500Y-138048644D01*
X175500500Y-135508644D01*
X191822500Y-135508644D01*
X191822500Y-135691355D01*
X191858141Y-135870534D01*
X191858143Y-135870542D01*
X191928058Y-136039333D01*
X191928063Y-136039342D01*
X192029563Y-136191246D01*
X192029566Y-136191250D01*
X192158749Y-136320433D01*
X192158753Y-136320436D01*
X192310657Y-136421936D01*
X192310663Y-136421939D01*
X192310664Y-136421940D01*
X192479458Y-136491857D01*
X192658644Y-136527499D01*
X192658648Y-136527500D01*
X192658649Y-136527500D01*
X192841352Y-136527500D01*
X192841353Y-136527499D01*
X193020542Y-136491857D01*
X193189336Y-136421940D01*
X193341247Y-136320436D01*
X193470436Y-136191247D01*
X193571940Y-136039336D01*
X193641857Y-135870542D01*
X193677500Y-135691351D01*
X193677500Y-135508649D01*
X193677499Y-135508644D01*
X207297500Y-135508644D01*
X207297500Y-135691355D01*
X207333141Y-135870534D01*
X207333143Y-135870542D01*
X207403058Y-136039333D01*
X207403063Y-136039342D01*
X207504563Y-136191246D01*
X207504566Y-136191250D01*
X207633749Y-136320433D01*
X207633753Y-136320436D01*
X207785657Y-136421936D01*
X207785663Y-136421939D01*
X207785664Y-136421940D01*
X207954458Y-136491857D01*
X208133644Y-136527499D01*
X208133648Y-136527500D01*
X208133649Y-136527500D01*
X208316352Y-136527500D01*
X208316353Y-136527499D01*
X208495542Y-136491857D01*
X208664336Y-136421940D01*
X208816247Y-136320436D01*
X208945436Y-136191247D01*
X209046940Y-136039336D01*
X209116857Y-135870542D01*
X209152500Y-135691351D01*
X209152500Y-135508649D01*
X209116857Y-135329458D01*
X209046940Y-135160664D01*
X209046939Y-135160663D01*
X209046936Y-135160657D01*
X208945436Y-135008753D01*
X208945433Y-135008749D01*
X208816250Y-134879566D01*
X208816246Y-134879563D01*
X208664342Y-134778063D01*
X208664333Y-134778058D01*
X208495542Y-134708143D01*
X208495534Y-134708141D01*
X208316355Y-134672500D01*
X208316351Y-134672500D01*
X208133649Y-134672500D01*
X208133644Y-134672500D01*
X207954465Y-134708141D01*
X207954457Y-134708143D01*
X207785666Y-134778058D01*
X207785657Y-134778063D01*
X207633753Y-134879563D01*
X207633749Y-134879566D01*
X207504566Y-135008749D01*
X207504563Y-135008753D01*
X207403063Y-135160657D01*
X207403058Y-135160666D01*
X207333143Y-135329457D01*
X207333141Y-135329465D01*
X207297500Y-135508644D01*
X193677499Y-135508644D01*
X193641857Y-135329458D01*
X193571940Y-135160664D01*
X193571939Y-135160663D01*
X193571936Y-135160657D01*
X193470436Y-135008753D01*
X193470433Y-135008749D01*
X193341250Y-134879566D01*
X193341246Y-134879563D01*
X193189342Y-134778063D01*
X193189333Y-134778058D01*
X193020542Y-134708143D01*
X193020534Y-134708141D01*
X192841355Y-134672500D01*
X192841351Y-134672500D01*
X192658649Y-134672500D01*
X192658644Y-134672500D01*
X192479465Y-134708141D01*
X192479457Y-134708143D01*
X192310666Y-134778058D01*
X192310657Y-134778063D01*
X192158753Y-134879563D01*
X192158749Y-134879566D01*
X192029566Y-135008749D01*
X192029563Y-135008753D01*
X191928063Y-135160657D01*
X191928058Y-135160666D01*
X191858143Y-135329457D01*
X191858141Y-135329465D01*
X191822500Y-135508644D01*
X175500500Y-135508644D01*
X175500500Y-133289818D01*
X180000000Y-133289818D01*
X180000000Y-133510181D01*
X180034473Y-133727835D01*
X180102567Y-133937410D01*
X180202611Y-134133756D01*
X180248932Y-134197513D01*
X180835387Y-133611058D01*
X180840889Y-133631591D01*
X180919881Y-133768408D01*
X181031592Y-133880119D01*
X181168409Y-133959111D01*
X181188939Y-133964612D01*
X180602485Y-134551065D01*
X180602485Y-134551066D01*
X180666243Y-134597388D01*
X180862589Y-134697432D01*
X181072164Y-134765526D01*
X181289819Y-134800000D01*
X181510181Y-134800000D01*
X181727835Y-134765526D01*
X181937410Y-134697432D01*
X182133760Y-134597386D01*
X182197513Y-134551066D01*
X182197514Y-134551066D01*
X181611059Y-133964612D01*
X181631591Y-133959111D01*
X181768408Y-133880119D01*
X181880119Y-133768408D01*
X181959111Y-133631591D01*
X181964612Y-133611060D01*
X182551066Y-134197514D01*
X182551066Y-134197513D01*
X182597386Y-134133760D01*
X182697432Y-133937410D01*
X182765526Y-133727835D01*
X182800000Y-133510181D01*
X182800000Y-133289818D01*
X182765526Y-133072164D01*
X182697432Y-132862589D01*
X182597388Y-132666243D01*
X182551066Y-132602485D01*
X181964612Y-133188939D01*
X181959111Y-133168409D01*
X181880119Y-133031592D01*
X181768408Y-132919881D01*
X181631591Y-132840889D01*
X181611057Y-132835387D01*
X181959004Y-132487441D01*
X183872500Y-132487441D01*
X183872500Y-134312558D01*
X183879898Y-134349749D01*
X183908077Y-134391922D01*
X183950250Y-134420101D01*
X183950252Y-134420102D01*
X183978205Y-134425662D01*
X183987441Y-134427500D01*
X183987442Y-134427500D01*
X185812559Y-134427500D01*
X185819957Y-134426028D01*
X185849748Y-134420102D01*
X185891922Y-134391922D01*
X185920102Y-134349748D01*
X185927500Y-134312558D01*
X185927500Y-132968644D01*
X192097500Y-132968644D01*
X192097500Y-133151355D01*
X192133141Y-133330534D01*
X192133143Y-133330542D01*
X192203058Y-133499333D01*
X192203063Y-133499342D01*
X192304563Y-133651246D01*
X192304566Y-133651250D01*
X192433749Y-133780433D01*
X192433753Y-133780436D01*
X192585657Y-133881936D01*
X192585663Y-133881939D01*
X192585664Y-133881940D01*
X192754458Y-133951857D01*
X192933644Y-133987499D01*
X192933648Y-133987500D01*
X192933649Y-133987500D01*
X193116352Y-133987500D01*
X193116353Y-133987499D01*
X193295542Y-133951857D01*
X193464336Y-133881940D01*
X193616247Y-133780436D01*
X193745436Y-133651247D01*
X193846940Y-133499336D01*
X193916857Y-133330542D01*
X193952500Y-133151351D01*
X193952500Y-132968649D01*
X193952499Y-132968644D01*
X207072500Y-132968644D01*
X207072500Y-133151355D01*
X207108141Y-133330534D01*
X207108143Y-133330542D01*
X207178058Y-133499333D01*
X207178063Y-133499342D01*
X207279563Y-133651246D01*
X207279566Y-133651250D01*
X207408749Y-133780433D01*
X207408753Y-133780436D01*
X207560657Y-133881936D01*
X207560663Y-133881939D01*
X207560664Y-133881940D01*
X207729458Y-133951857D01*
X207908644Y-133987499D01*
X207908648Y-133987500D01*
X207908649Y-133987500D01*
X208091352Y-133987500D01*
X208091353Y-133987499D01*
X208270542Y-133951857D01*
X208439336Y-133881940D01*
X208591247Y-133780436D01*
X208720436Y-133651247D01*
X208821940Y-133499336D01*
X208891857Y-133330542D01*
X208927500Y-133151351D01*
X208927500Y-132968649D01*
X208891857Y-132789458D01*
X208821940Y-132620664D01*
X208821939Y-132620663D01*
X208821936Y-132620657D01*
X208720436Y-132468753D01*
X208720433Y-132468749D01*
X208591250Y-132339566D01*
X208591246Y-132339563D01*
X208439342Y-132238063D01*
X208439333Y-132238058D01*
X208270542Y-132168143D01*
X208270534Y-132168141D01*
X208091355Y-132132500D01*
X208091351Y-132132500D01*
X207908649Y-132132500D01*
X207908644Y-132132500D01*
X207729465Y-132168141D01*
X207729457Y-132168143D01*
X207560666Y-132238058D01*
X207560657Y-132238063D01*
X207408753Y-132339563D01*
X207408749Y-132339566D01*
X207279566Y-132468749D01*
X207279563Y-132468753D01*
X207178063Y-132620657D01*
X207178058Y-132620666D01*
X207108143Y-132789457D01*
X207108141Y-132789465D01*
X207072500Y-132968644D01*
X193952499Y-132968644D01*
X193916857Y-132789458D01*
X193846940Y-132620664D01*
X193846939Y-132620663D01*
X193846936Y-132620657D01*
X193745436Y-132468753D01*
X193745433Y-132468749D01*
X193616250Y-132339566D01*
X193616246Y-132339563D01*
X193464342Y-132238063D01*
X193464333Y-132238058D01*
X193295542Y-132168143D01*
X193295534Y-132168141D01*
X193116355Y-132132500D01*
X193116351Y-132132500D01*
X192933649Y-132132500D01*
X192933644Y-132132500D01*
X192754465Y-132168141D01*
X192754457Y-132168143D01*
X192585666Y-132238058D01*
X192585657Y-132238063D01*
X192433753Y-132339563D01*
X192433749Y-132339566D01*
X192304566Y-132468749D01*
X192304563Y-132468753D01*
X192203063Y-132620657D01*
X192203058Y-132620666D01*
X192133143Y-132789457D01*
X192133141Y-132789465D01*
X192097500Y-132968644D01*
X185927500Y-132968644D01*
X185927500Y-132487442D01*
X185920102Y-132450252D01*
X185920101Y-132450250D01*
X185891922Y-132408077D01*
X185849749Y-132379898D01*
X185812559Y-132372500D01*
X185812558Y-132372500D01*
X183987442Y-132372500D01*
X183987441Y-132372500D01*
X183950250Y-132379898D01*
X183908077Y-132408077D01*
X183879898Y-132450250D01*
X183872500Y-132487441D01*
X181959004Y-132487441D01*
X182197513Y-132248932D01*
X182133756Y-132202611D01*
X181937410Y-132102567D01*
X181727835Y-132034473D01*
X181510181Y-132000000D01*
X181289819Y-132000000D01*
X181072164Y-132034473D01*
X180862589Y-132102567D01*
X180666233Y-132202616D01*
X180602485Y-132248931D01*
X180602485Y-132248932D01*
X181188940Y-132835387D01*
X181168409Y-132840889D01*
X181031592Y-132919881D01*
X180919881Y-133031592D01*
X180840889Y-133168409D01*
X180835387Y-133188940D01*
X180248932Y-132602485D01*
X180248931Y-132602485D01*
X180202616Y-132666233D01*
X180102567Y-132862589D01*
X180034473Y-133072164D01*
X180000000Y-133289818D01*
X175500500Y-133289818D01*
X175500500Y-130428644D01*
X191822500Y-130428644D01*
X191822500Y-130611355D01*
X191858141Y-130790534D01*
X191858143Y-130790542D01*
X191928058Y-130959333D01*
X191928063Y-130959342D01*
X192029563Y-131111246D01*
X192029566Y-131111250D01*
X192158749Y-131240433D01*
X192158753Y-131240436D01*
X192310657Y-131341936D01*
X192310663Y-131341939D01*
X192310664Y-131341940D01*
X192479458Y-131411857D01*
X192658644Y-131447499D01*
X192658648Y-131447500D01*
X192658649Y-131447500D01*
X192841352Y-131447500D01*
X192841353Y-131447499D01*
X193020542Y-131411857D01*
X193189336Y-131341940D01*
X193341247Y-131240436D01*
X193470436Y-131111247D01*
X193571940Y-130959336D01*
X193641857Y-130790542D01*
X193677500Y-130611351D01*
X193677500Y-130428649D01*
X193677499Y-130428644D01*
X207297500Y-130428644D01*
X207297500Y-130611355D01*
X207333141Y-130790534D01*
X207333143Y-130790542D01*
X207403058Y-130959333D01*
X207403063Y-130959342D01*
X207504563Y-131111246D01*
X207504566Y-131111250D01*
X207633749Y-131240433D01*
X207633753Y-131240436D01*
X207785657Y-131341936D01*
X207785663Y-131341939D01*
X207785664Y-131341940D01*
X207954458Y-131411857D01*
X208133644Y-131447499D01*
X208133648Y-131447500D01*
X208133649Y-131447500D01*
X208316352Y-131447500D01*
X208316353Y-131447499D01*
X208495542Y-131411857D01*
X208664336Y-131341940D01*
X208816247Y-131240436D01*
X208945436Y-131111247D01*
X209046940Y-130959336D01*
X209116857Y-130790542D01*
X209152500Y-130611351D01*
X209152500Y-130428649D01*
X209116857Y-130249458D01*
X209046940Y-130080664D01*
X209046939Y-130080663D01*
X209046936Y-130080657D01*
X208945436Y-129928753D01*
X208945433Y-129928749D01*
X208816250Y-129799566D01*
X208816246Y-129799563D01*
X208664342Y-129698063D01*
X208664333Y-129698058D01*
X208495542Y-129628143D01*
X208495534Y-129628141D01*
X208316355Y-129592500D01*
X208316351Y-129592500D01*
X208133649Y-129592500D01*
X208133644Y-129592500D01*
X207954465Y-129628141D01*
X207954457Y-129628143D01*
X207785666Y-129698058D01*
X207785657Y-129698063D01*
X207633753Y-129799563D01*
X207633749Y-129799566D01*
X207504566Y-129928749D01*
X207504563Y-129928753D01*
X207403063Y-130080657D01*
X207403058Y-130080666D01*
X207333143Y-130249457D01*
X207333141Y-130249465D01*
X207297500Y-130428644D01*
X193677499Y-130428644D01*
X193641857Y-130249458D01*
X193571940Y-130080664D01*
X193571939Y-130080663D01*
X193571936Y-130080657D01*
X193470436Y-129928753D01*
X193470433Y-129928749D01*
X193341250Y-129799566D01*
X193341246Y-129799563D01*
X193189342Y-129698063D01*
X193189333Y-129698058D01*
X193020542Y-129628143D01*
X193020534Y-129628141D01*
X192841355Y-129592500D01*
X192841351Y-129592500D01*
X192658649Y-129592500D01*
X192658644Y-129592500D01*
X192479465Y-129628141D01*
X192479457Y-129628143D01*
X192310666Y-129698058D01*
X192310657Y-129698063D01*
X192158753Y-129799563D01*
X192158749Y-129799566D01*
X192029566Y-129928749D01*
X192029563Y-129928753D01*
X191928063Y-130080657D01*
X191928058Y-130080666D01*
X191858143Y-130249457D01*
X191858141Y-130249465D01*
X191822500Y-130428644D01*
X175500500Y-130428644D01*
X175500500Y-127738071D01*
X185229600Y-127738071D01*
X185229600Y-127861929D01*
X185261657Y-127981568D01*
X185323586Y-128088832D01*
X185411168Y-128176414D01*
X185518432Y-128238343D01*
X185638071Y-128270400D01*
X185638073Y-128270400D01*
X185761927Y-128270400D01*
X185761929Y-128270400D01*
X185881568Y-128238343D01*
X185988832Y-128176414D01*
X186076414Y-128088832D01*
X186138343Y-127981568D01*
X186163242Y-127888644D01*
X192097500Y-127888644D01*
X192097500Y-128071355D01*
X192133141Y-128250534D01*
X192133143Y-128250542D01*
X192203058Y-128419333D01*
X192203063Y-128419342D01*
X192304563Y-128571246D01*
X192304566Y-128571250D01*
X192433749Y-128700433D01*
X192433753Y-128700436D01*
X192585657Y-128801936D01*
X192585663Y-128801939D01*
X192585664Y-128801940D01*
X192754458Y-128871857D01*
X192933644Y-128907499D01*
X192933648Y-128907500D01*
X192933649Y-128907500D01*
X193116352Y-128907500D01*
X193116353Y-128907499D01*
X193295542Y-128871857D01*
X193464336Y-128801940D01*
X193616247Y-128700436D01*
X193745436Y-128571247D01*
X193846940Y-128419336D01*
X193916857Y-128250542D01*
X193952500Y-128071351D01*
X193952500Y-127888649D01*
X193952499Y-127888644D01*
X207072500Y-127888644D01*
X207072500Y-128071355D01*
X207108141Y-128250534D01*
X207108143Y-128250542D01*
X207178058Y-128419333D01*
X207178063Y-128419342D01*
X207279563Y-128571246D01*
X207279566Y-128571250D01*
X207408749Y-128700433D01*
X207408753Y-128700436D01*
X207560657Y-128801936D01*
X207560663Y-128801939D01*
X207560664Y-128801940D01*
X207729458Y-128871857D01*
X207908644Y-128907499D01*
X207908648Y-128907500D01*
X207908649Y-128907500D01*
X208091352Y-128907500D01*
X208091353Y-128907499D01*
X208270542Y-128871857D01*
X208439336Y-128801940D01*
X208591247Y-128700436D01*
X208720436Y-128571247D01*
X208821940Y-128419336D01*
X208891857Y-128250542D01*
X208927500Y-128071351D01*
X208927500Y-127888649D01*
X208891857Y-127709458D01*
X208821940Y-127540664D01*
X208821939Y-127540663D01*
X208821936Y-127540657D01*
X208720436Y-127388753D01*
X208720433Y-127388749D01*
X208591247Y-127259563D01*
X208448486Y-127164173D01*
X221222500Y-127164173D01*
X221222500Y-128835826D01*
X221233190Y-128909201D01*
X221288525Y-129022391D01*
X221377608Y-129111474D01*
X221377609Y-129111474D01*
X221377611Y-129111476D01*
X221490797Y-129166809D01*
X221527485Y-129172154D01*
X221564173Y-129177500D01*
X221564174Y-129177500D01*
X223235827Y-129177500D01*
X223260285Y-129173936D01*
X223309203Y-129166809D01*
X223422389Y-129111476D01*
X223511476Y-129022389D01*
X223566809Y-128909203D01*
X223577500Y-128835826D01*
X223577500Y-127164174D01*
X223566809Y-127090797D01*
X223511476Y-126977611D01*
X223511474Y-126977609D01*
X223511474Y-126977608D01*
X223422391Y-126888525D01*
X223309201Y-126833190D01*
X223235827Y-126822500D01*
X223235826Y-126822500D01*
X221564174Y-126822500D01*
X221564173Y-126822500D01*
X221490798Y-126833190D01*
X221377608Y-126888525D01*
X221288525Y-126977608D01*
X221233190Y-127090798D01*
X221222500Y-127164173D01*
X208448486Y-127164173D01*
X208439342Y-127158063D01*
X208439333Y-127158058D01*
X208270542Y-127088143D01*
X208270534Y-127088141D01*
X208091355Y-127052500D01*
X208091351Y-127052500D01*
X207908649Y-127052500D01*
X207908644Y-127052500D01*
X207729465Y-127088141D01*
X207729457Y-127088143D01*
X207560666Y-127158058D01*
X207560657Y-127158063D01*
X207408753Y-127259563D01*
X207408749Y-127259566D01*
X207279566Y-127388749D01*
X207279563Y-127388753D01*
X207178063Y-127540657D01*
X207178058Y-127540666D01*
X207108143Y-127709457D01*
X207108141Y-127709465D01*
X207072500Y-127888644D01*
X193952499Y-127888644D01*
X193916857Y-127709458D01*
X193846940Y-127540664D01*
X193846939Y-127540663D01*
X193846936Y-127540657D01*
X193745436Y-127388753D01*
X193745433Y-127388749D01*
X193616250Y-127259566D01*
X193616246Y-127259563D01*
X193464342Y-127158063D01*
X193464333Y-127158058D01*
X193295542Y-127088143D01*
X193295534Y-127088141D01*
X193116355Y-127052500D01*
X193116351Y-127052500D01*
X192933649Y-127052500D01*
X192933644Y-127052500D01*
X192754465Y-127088141D01*
X192754457Y-127088143D01*
X192585666Y-127158058D01*
X192585657Y-127158063D01*
X192433753Y-127259563D01*
X192433749Y-127259566D01*
X192304566Y-127388749D01*
X192304563Y-127388753D01*
X192203063Y-127540657D01*
X192203058Y-127540666D01*
X192133143Y-127709457D01*
X192133141Y-127709465D01*
X192097500Y-127888644D01*
X186163242Y-127888644D01*
X186170400Y-127861929D01*
X186170400Y-127738071D01*
X186138343Y-127618432D01*
X186076414Y-127511168D01*
X185988832Y-127423586D01*
X185881568Y-127361657D01*
X185761929Y-127329600D01*
X185638071Y-127329600D01*
X185518432Y-127361657D01*
X185518429Y-127361658D01*
X185411171Y-127423584D01*
X185411165Y-127423588D01*
X185323588Y-127511165D01*
X185323584Y-127511171D01*
X185261658Y-127618429D01*
X185261657Y-127618432D01*
X185229600Y-127738071D01*
X175500500Y-127738071D01*
X175500500Y-125348644D01*
X191822500Y-125348644D01*
X191822500Y-125531355D01*
X191858141Y-125710534D01*
X191858143Y-125710542D01*
X191928058Y-125879333D01*
X191928063Y-125879342D01*
X192029563Y-126031246D01*
X192029566Y-126031250D01*
X192158749Y-126160433D01*
X192158753Y-126160436D01*
X192310657Y-126261936D01*
X192310663Y-126261939D01*
X192310664Y-126261940D01*
X192479458Y-126331857D01*
X192658644Y-126367499D01*
X192658648Y-126367500D01*
X192658649Y-126367500D01*
X192841352Y-126367500D01*
X192841353Y-126367499D01*
X193020542Y-126331857D01*
X193189336Y-126261940D01*
X193341247Y-126160436D01*
X193470436Y-126031247D01*
X193571940Y-125879336D01*
X193641857Y-125710542D01*
X193677500Y-125531351D01*
X193677500Y-125348649D01*
X193677499Y-125348644D01*
X207297500Y-125348644D01*
X207297500Y-125531355D01*
X207333141Y-125710534D01*
X207333143Y-125710542D01*
X207403058Y-125879333D01*
X207403063Y-125879342D01*
X207504563Y-126031246D01*
X207504566Y-126031250D01*
X207633749Y-126160433D01*
X207633753Y-126160436D01*
X207785657Y-126261936D01*
X207785663Y-126261939D01*
X207785664Y-126261940D01*
X207954458Y-126331857D01*
X208133644Y-126367499D01*
X208133648Y-126367500D01*
X208133649Y-126367500D01*
X208316352Y-126367500D01*
X208316353Y-126367499D01*
X208495542Y-126331857D01*
X208664336Y-126261940D01*
X208816247Y-126160436D01*
X208945436Y-126031247D01*
X209046940Y-125879336D01*
X209116857Y-125710542D01*
X209152500Y-125531351D01*
X209152500Y-125348649D01*
X209116857Y-125169458D01*
X209046940Y-125000664D01*
X209046939Y-125000663D01*
X209046936Y-125000657D01*
X208945436Y-124848753D01*
X208945433Y-124848749D01*
X208816250Y-124719566D01*
X208816246Y-124719563D01*
X208664342Y-124618063D01*
X208664333Y-124618058D01*
X208495542Y-124548143D01*
X208495534Y-124548141D01*
X208316355Y-124512500D01*
X208316351Y-124512500D01*
X208133649Y-124512500D01*
X208133644Y-124512500D01*
X207954465Y-124548141D01*
X207954457Y-124548143D01*
X207785666Y-124618058D01*
X207785657Y-124618063D01*
X207633753Y-124719563D01*
X207633749Y-124719566D01*
X207504566Y-124848749D01*
X207504563Y-124848753D01*
X207403063Y-125000657D01*
X207403058Y-125000666D01*
X207333143Y-125169457D01*
X207333141Y-125169465D01*
X207297500Y-125348644D01*
X193677499Y-125348644D01*
X193641857Y-125169458D01*
X193571940Y-125000664D01*
X193571939Y-125000663D01*
X193571936Y-125000657D01*
X193470436Y-124848753D01*
X193470433Y-124848749D01*
X193341250Y-124719566D01*
X193341246Y-124719563D01*
X193189342Y-124618063D01*
X193189333Y-124618058D01*
X193020542Y-124548143D01*
X193020534Y-124548141D01*
X192841355Y-124512500D01*
X192841351Y-124512500D01*
X192658649Y-124512500D01*
X192658644Y-124512500D01*
X192479465Y-124548141D01*
X192479457Y-124548143D01*
X192310666Y-124618058D01*
X192310657Y-124618063D01*
X192158753Y-124719563D01*
X192158749Y-124719566D01*
X192029566Y-124848749D01*
X192029563Y-124848753D01*
X191928063Y-125000657D01*
X191928058Y-125000666D01*
X191858143Y-125169457D01*
X191858141Y-125169465D01*
X191822500Y-125348644D01*
X175500500Y-125348644D01*
X175500500Y-124438071D01*
X188229600Y-124438071D01*
X188229600Y-124561929D01*
X188261657Y-124681568D01*
X188323586Y-124788832D01*
X188411168Y-124876414D01*
X188518432Y-124938343D01*
X188638071Y-124970400D01*
X188638073Y-124970400D01*
X188761927Y-124970400D01*
X188761929Y-124970400D01*
X188881568Y-124938343D01*
X188988832Y-124876414D01*
X189076414Y-124788832D01*
X189138343Y-124681568D01*
X189170400Y-124561929D01*
X189170400Y-124438071D01*
X189138343Y-124318432D01*
X189076414Y-124211168D01*
X188988832Y-124123586D01*
X188881568Y-124061657D01*
X188761929Y-124029600D01*
X188638071Y-124029600D01*
X188518432Y-124061657D01*
X188518429Y-124061658D01*
X188411171Y-124123584D01*
X188411165Y-124123588D01*
X188323588Y-124211165D01*
X188323584Y-124211171D01*
X188261658Y-124318429D01*
X188261657Y-124318432D01*
X188229600Y-124438071D01*
X175500500Y-124438071D01*
X175500500Y-122808644D01*
X192097500Y-122808644D01*
X192097500Y-122991355D01*
X192133141Y-123170534D01*
X192133143Y-123170542D01*
X192203058Y-123339333D01*
X192203063Y-123339342D01*
X192304563Y-123491246D01*
X192304566Y-123491250D01*
X192433749Y-123620433D01*
X192433753Y-123620436D01*
X192585657Y-123721936D01*
X192585663Y-123721939D01*
X192585664Y-123721940D01*
X192754458Y-123791857D01*
X192933644Y-123827499D01*
X192933648Y-123827500D01*
X192933649Y-123827500D01*
X193116352Y-123827500D01*
X193116353Y-123827499D01*
X193295542Y-123791857D01*
X193464336Y-123721940D01*
X193616247Y-123620436D01*
X193745436Y-123491247D01*
X193846940Y-123339336D01*
X193916857Y-123170542D01*
X193952500Y-122991351D01*
X193952500Y-122808649D01*
X193952499Y-122808644D01*
X207072500Y-122808644D01*
X207072500Y-122991355D01*
X207108141Y-123170534D01*
X207108143Y-123170542D01*
X207178058Y-123339333D01*
X207178063Y-123339342D01*
X207279563Y-123491246D01*
X207279566Y-123491250D01*
X207408749Y-123620433D01*
X207408753Y-123620436D01*
X207560657Y-123721936D01*
X207560663Y-123721939D01*
X207560664Y-123721940D01*
X207729458Y-123791857D01*
X207908644Y-123827499D01*
X207908648Y-123827500D01*
X207908649Y-123827500D01*
X208091352Y-123827500D01*
X208091353Y-123827499D01*
X208270542Y-123791857D01*
X208439336Y-123721940D01*
X208591247Y-123620436D01*
X208720436Y-123491247D01*
X208821940Y-123339336D01*
X208891857Y-123170542D01*
X208927500Y-122991351D01*
X208927500Y-122808649D01*
X208891857Y-122629458D01*
X208821940Y-122460664D01*
X208821939Y-122460663D01*
X208821936Y-122460657D01*
X208720436Y-122308753D01*
X208720433Y-122308749D01*
X208591250Y-122179566D01*
X208591246Y-122179563D01*
X208439342Y-122078063D01*
X208439333Y-122078058D01*
X208270542Y-122008143D01*
X208270534Y-122008141D01*
X208091355Y-121972500D01*
X208091351Y-121972500D01*
X207908649Y-121972500D01*
X207908644Y-121972500D01*
X207729465Y-122008141D01*
X207729457Y-122008143D01*
X207560666Y-122078058D01*
X207560657Y-122078063D01*
X207408753Y-122179563D01*
X207408749Y-122179566D01*
X207279566Y-122308749D01*
X207279563Y-122308753D01*
X207178063Y-122460657D01*
X207178058Y-122460666D01*
X207108143Y-122629457D01*
X207108141Y-122629465D01*
X207072500Y-122808644D01*
X193952499Y-122808644D01*
X193916857Y-122629458D01*
X193846940Y-122460664D01*
X193846939Y-122460663D01*
X193846936Y-122460657D01*
X193745436Y-122308753D01*
X193745433Y-122308749D01*
X193616250Y-122179566D01*
X193616246Y-122179563D01*
X193464342Y-122078063D01*
X193464333Y-122078058D01*
X193295542Y-122008143D01*
X193295534Y-122008141D01*
X193116355Y-121972500D01*
X193116351Y-121972500D01*
X192933649Y-121972500D01*
X192933644Y-121972500D01*
X192754465Y-122008141D01*
X192754457Y-122008143D01*
X192585666Y-122078058D01*
X192585657Y-122078063D01*
X192433753Y-122179563D01*
X192433749Y-122179566D01*
X192304566Y-122308749D01*
X192304563Y-122308753D01*
X192203063Y-122460657D01*
X192203058Y-122460666D01*
X192133143Y-122629457D01*
X192133141Y-122629465D01*
X192097500Y-122808644D01*
X175500500Y-122808644D01*
X175500500Y-120110000D01*
X191473391Y-120110000D01*
X192316988Y-120110000D01*
X192284075Y-120167007D01*
X192250000Y-120294174D01*
X192250000Y-120425826D01*
X192284075Y-120552993D01*
X192316988Y-120610000D01*
X191473391Y-120610000D01*
X191482009Y-120664413D01*
X191545244Y-120859029D01*
X191638140Y-121041349D01*
X191758417Y-121206894D01*
X191758417Y-121206895D01*
X191903104Y-121351582D01*
X192068650Y-121471859D01*
X192250968Y-121564754D01*
X192445578Y-121627988D01*
X192500000Y-121636607D01*
X192500000Y-120793012D01*
X192557007Y-120825925D01*
X192684174Y-120860000D01*
X192815826Y-120860000D01*
X192942993Y-120825925D01*
X193000000Y-120793012D01*
X193000000Y-121636606D01*
X193054421Y-121627988D01*
X193249031Y-121564754D01*
X193431349Y-121471859D01*
X193596894Y-121351582D01*
X193596895Y-121351582D01*
X193741582Y-121206895D01*
X193741582Y-121206894D01*
X193861859Y-121041349D01*
X193954755Y-120859029D01*
X194017990Y-120664413D01*
X194026609Y-120610000D01*
X193183012Y-120610000D01*
X193215925Y-120552993D01*
X193250000Y-120425826D01*
X193250000Y-120294174D01*
X193243159Y-120268644D01*
X207297500Y-120268644D01*
X207297500Y-120451355D01*
X207333141Y-120630534D01*
X207333143Y-120630542D01*
X207403058Y-120799333D01*
X207403063Y-120799342D01*
X207504563Y-120951246D01*
X207504566Y-120951250D01*
X207633749Y-121080433D01*
X207633753Y-121080436D01*
X207785657Y-121181936D01*
X207785663Y-121181939D01*
X207785664Y-121181940D01*
X207954458Y-121251857D01*
X208133644Y-121287499D01*
X208133648Y-121287500D01*
X208133649Y-121287500D01*
X208316352Y-121287500D01*
X208316353Y-121287499D01*
X208495542Y-121251857D01*
X208664336Y-121181940D01*
X208816247Y-121080436D01*
X208945436Y-120951247D01*
X209046940Y-120799336D01*
X209116857Y-120630542D01*
X209152500Y-120451351D01*
X209152500Y-120268649D01*
X209116857Y-120089458D01*
X209046940Y-119920664D01*
X209046939Y-119920663D01*
X209046936Y-119920657D01*
X208945436Y-119768753D01*
X208945433Y-119768749D01*
X208816250Y-119639566D01*
X208816246Y-119639563D01*
X208664342Y-119538063D01*
X208664333Y-119538058D01*
X208495542Y-119468143D01*
X208495534Y-119468141D01*
X208316355Y-119432500D01*
X208316351Y-119432500D01*
X208133649Y-119432500D01*
X208133644Y-119432500D01*
X207954465Y-119468141D01*
X207954457Y-119468143D01*
X207785666Y-119538058D01*
X207785657Y-119538063D01*
X207633753Y-119639563D01*
X207633749Y-119639566D01*
X207504566Y-119768749D01*
X207504563Y-119768753D01*
X207403063Y-119920657D01*
X207403058Y-119920666D01*
X207333143Y-120089457D01*
X207333141Y-120089465D01*
X207297500Y-120268644D01*
X193243159Y-120268644D01*
X193215925Y-120167007D01*
X193183012Y-120110000D01*
X194026609Y-120110000D01*
X194017990Y-120055586D01*
X193954755Y-119860970D01*
X193861859Y-119678650D01*
X193741582Y-119513105D01*
X193741582Y-119513104D01*
X193596895Y-119368417D01*
X193431349Y-119248140D01*
X193249029Y-119155244D01*
X193054413Y-119092009D01*
X193000000Y-119083390D01*
X193000000Y-119926988D01*
X192942993Y-119894075D01*
X192815826Y-119860000D01*
X192684174Y-119860000D01*
X192557007Y-119894075D01*
X192500000Y-119926988D01*
X192500000Y-119083390D01*
X192445586Y-119092009D01*
X192250970Y-119155244D01*
X192068650Y-119248140D01*
X191903105Y-119368417D01*
X191903104Y-119368417D01*
X191758417Y-119513104D01*
X191758417Y-119513105D01*
X191638140Y-119678650D01*
X191545244Y-119860970D01*
X191482009Y-120055586D01*
X191473391Y-120110000D01*
X175500500Y-120110000D01*
X175500500Y-118838071D01*
X204429600Y-118838071D01*
X204429600Y-118961929D01*
X204461657Y-119081568D01*
X204523586Y-119188832D01*
X204611168Y-119276414D01*
X204718432Y-119338343D01*
X204838071Y-119370400D01*
X204838073Y-119370400D01*
X204961927Y-119370400D01*
X204961929Y-119370400D01*
X205081568Y-119338343D01*
X205188832Y-119276414D01*
X205276414Y-119188832D01*
X205338343Y-119081568D01*
X205370400Y-118961929D01*
X205370400Y-118838071D01*
X205338343Y-118718432D01*
X205276414Y-118611168D01*
X205188832Y-118523586D01*
X205117322Y-118482300D01*
X205081570Y-118461658D01*
X205081569Y-118461657D01*
X205081568Y-118461657D01*
X204961929Y-118429600D01*
X204838071Y-118429600D01*
X204718432Y-118461657D01*
X204718429Y-118461658D01*
X204611171Y-118523584D01*
X204611165Y-118523588D01*
X204523588Y-118611165D01*
X204523584Y-118611171D01*
X204461658Y-118718429D01*
X204461657Y-118718432D01*
X204429600Y-118838071D01*
X175500500Y-118838071D01*
X175500500Y-117610523D01*
X175520185Y-117543484D01*
X175572989Y-117497729D01*
X175642147Y-117487785D01*
X175705703Y-117516810D01*
X175712181Y-117522842D01*
X175806654Y-117617315D01*
X175955875Y-117709356D01*
X175955880Y-117709358D01*
X176122302Y-117764505D01*
X176122309Y-117764506D01*
X176225019Y-117774999D01*
X177149999Y-117774999D01*
X177150000Y-117774998D01*
X177150000Y-116742413D01*
X177313820Y-116775000D01*
X177486180Y-116775000D01*
X177650000Y-116742413D01*
X177650000Y-117774999D01*
X178574972Y-117774999D01*
X178574986Y-117774998D01*
X178677697Y-117764505D01*
X178844119Y-117709358D01*
X178844124Y-117709356D01*
X178993345Y-117617315D01*
X179117315Y-117493345D01*
X179209356Y-117344124D01*
X179209359Y-117344117D01*
X179211362Y-117338071D01*
X189429600Y-117338071D01*
X189429600Y-117461929D01*
X189461657Y-117581568D01*
X189523586Y-117688832D01*
X189611168Y-117776414D01*
X189718432Y-117838343D01*
X189838071Y-117870400D01*
X189838073Y-117870400D01*
X189961927Y-117870400D01*
X189961929Y-117870400D01*
X190081568Y-117838343D01*
X190188832Y-117776414D01*
X190236602Y-117728644D01*
X192097500Y-117728644D01*
X192097500Y-117911355D01*
X192133141Y-118090534D01*
X192133143Y-118090542D01*
X192203058Y-118259333D01*
X192203063Y-118259342D01*
X192304563Y-118411246D01*
X192304566Y-118411250D01*
X192433749Y-118540433D01*
X192433753Y-118540436D01*
X192585657Y-118641936D01*
X192585663Y-118641939D01*
X192585664Y-118641940D01*
X192754458Y-118711857D01*
X192891781Y-118739172D01*
X192933644Y-118747499D01*
X192933648Y-118747500D01*
X192933649Y-118747500D01*
X193116352Y-118747500D01*
X193116353Y-118747499D01*
X193295542Y-118711857D01*
X193464336Y-118641940D01*
X193616247Y-118540436D01*
X193745436Y-118411247D01*
X193846940Y-118259336D01*
X193916857Y-118090542D01*
X193952500Y-117911351D01*
X193952500Y-117728649D01*
X193952499Y-117728644D01*
X207072500Y-117728644D01*
X207072500Y-117911355D01*
X207108141Y-118090534D01*
X207108143Y-118090542D01*
X207178058Y-118259333D01*
X207178063Y-118259342D01*
X207279563Y-118411246D01*
X207279566Y-118411250D01*
X207408749Y-118540433D01*
X207408753Y-118540436D01*
X207560657Y-118641936D01*
X207560663Y-118641939D01*
X207560664Y-118641940D01*
X207729458Y-118711857D01*
X207866781Y-118739172D01*
X207908644Y-118747499D01*
X207908648Y-118747500D01*
X207908649Y-118747500D01*
X208091352Y-118747500D01*
X208091353Y-118747499D01*
X208133217Y-118739172D01*
X220897500Y-118739172D01*
X220897500Y-121060825D01*
X220908191Y-121134204D01*
X220963525Y-121247392D01*
X221052607Y-121336474D01*
X221052608Y-121336474D01*
X221052610Y-121336476D01*
X221165796Y-121391809D01*
X221239173Y-121402500D01*
X223560826Y-121402499D01*
X223634204Y-121391809D01*
X223747390Y-121336476D01*
X223836476Y-121247390D01*
X223891809Y-121134204D01*
X223902500Y-121060827D01*
X223902499Y-118739174D01*
X223891809Y-118665796D01*
X223836476Y-118552610D01*
X223836474Y-118552608D01*
X223836474Y-118552607D01*
X223747392Y-118463525D01*
X223634202Y-118408190D01*
X223560827Y-118397500D01*
X221239174Y-118397500D01*
X221165795Y-118408191D01*
X221052607Y-118463525D01*
X220963525Y-118552607D01*
X220908190Y-118665797D01*
X220897500Y-118739172D01*
X208133217Y-118739172D01*
X208270542Y-118711857D01*
X208439336Y-118641940D01*
X208439343Y-118641935D01*
X208439347Y-118641933D01*
X208454832Y-118631586D01*
X208454836Y-118631584D01*
X208573027Y-118552610D01*
X208591247Y-118540436D01*
X208720436Y-118411247D01*
X208821940Y-118259336D01*
X208891857Y-118090542D01*
X208927500Y-117911351D01*
X208927500Y-117728649D01*
X208891857Y-117549458D01*
X208821940Y-117380664D01*
X208821939Y-117380663D01*
X208821936Y-117380657D01*
X208720436Y-117228753D01*
X208720433Y-117228749D01*
X208591250Y-117099566D01*
X208591246Y-117099563D01*
X208439342Y-116998063D01*
X208439333Y-116998058D01*
X208270542Y-116928143D01*
X208270534Y-116928141D01*
X208091355Y-116892500D01*
X208091351Y-116892500D01*
X207908649Y-116892500D01*
X207908644Y-116892500D01*
X207729465Y-116928141D01*
X207729457Y-116928143D01*
X207560666Y-116998058D01*
X207560657Y-116998063D01*
X207408753Y-117099563D01*
X207408749Y-117099566D01*
X207279566Y-117228749D01*
X207279563Y-117228753D01*
X207178063Y-117380657D01*
X207178058Y-117380666D01*
X207108143Y-117549457D01*
X207108141Y-117549465D01*
X207072500Y-117728644D01*
X193952499Y-117728644D01*
X193916857Y-117549458D01*
X193846940Y-117380664D01*
X193846939Y-117380663D01*
X193846936Y-117380657D01*
X193745436Y-117228753D01*
X193745433Y-117228749D01*
X193616250Y-117099566D01*
X193616246Y-117099563D01*
X193464342Y-116998063D01*
X193464333Y-116998058D01*
X193295542Y-116928143D01*
X193295534Y-116928141D01*
X193116355Y-116892500D01*
X193116351Y-116892500D01*
X192933649Y-116892500D01*
X192933644Y-116892500D01*
X192754465Y-116928141D01*
X192754457Y-116928143D01*
X192585666Y-116998058D01*
X192585657Y-116998063D01*
X192433753Y-117099563D01*
X192433749Y-117099566D01*
X192304566Y-117228749D01*
X192304563Y-117228753D01*
X192203063Y-117380657D01*
X192203058Y-117380666D01*
X192133143Y-117549457D01*
X192133141Y-117549465D01*
X192097500Y-117728644D01*
X190236602Y-117728644D01*
X190276414Y-117688832D01*
X190338343Y-117581568D01*
X190370400Y-117461929D01*
X190370400Y-117338071D01*
X190338343Y-117218432D01*
X190276414Y-117111168D01*
X190188832Y-117023586D01*
X190081568Y-116961657D01*
X189961929Y-116929600D01*
X189838071Y-116929600D01*
X189718432Y-116961657D01*
X189718429Y-116961658D01*
X189611171Y-117023584D01*
X189611165Y-117023588D01*
X189523588Y-117111165D01*
X189523584Y-117111171D01*
X189461658Y-117218429D01*
X189461657Y-117218432D01*
X189429600Y-117338071D01*
X179211362Y-117338071D01*
X179226980Y-117290941D01*
X179226980Y-117290940D01*
X179264505Y-117177697D01*
X179264506Y-117177690D01*
X179274999Y-117074986D01*
X179275000Y-117074973D01*
X179275000Y-116150000D01*
X178242414Y-116150000D01*
X178275000Y-115986180D01*
X178275000Y-115813820D01*
X178242414Y-115650000D01*
X179274999Y-115650000D01*
X179274999Y-115188644D01*
X191847500Y-115188644D01*
X191847500Y-115371355D01*
X191883141Y-115550534D01*
X191883143Y-115550542D01*
X191953058Y-115719333D01*
X191953063Y-115719342D01*
X192054563Y-115871246D01*
X192054566Y-115871250D01*
X192183749Y-116000433D01*
X192183753Y-116000436D01*
X192335657Y-116101936D01*
X192335663Y-116101939D01*
X192335664Y-116101940D01*
X192504458Y-116171857D01*
X192683644Y-116207499D01*
X192683648Y-116207500D01*
X192683649Y-116207500D01*
X192866352Y-116207500D01*
X192866353Y-116207499D01*
X193045542Y-116171857D01*
X193214336Y-116101940D01*
X193366247Y-116000436D01*
X193495436Y-115871247D01*
X193596940Y-115719336D01*
X193666857Y-115550542D01*
X193671577Y-115526808D01*
X193683122Y-115468774D01*
X193683127Y-115468746D01*
X193702499Y-115371355D01*
X193702500Y-115371351D01*
X193702500Y-115188649D01*
X193683127Y-115091253D01*
X193683127Y-115091251D01*
X193670943Y-115030000D01*
X206948391Y-115030000D01*
X207791988Y-115030000D01*
X207759075Y-115087007D01*
X207725000Y-115214174D01*
X207725000Y-115345826D01*
X207759075Y-115472993D01*
X207791988Y-115530000D01*
X206948391Y-115530000D01*
X206957009Y-115584413D01*
X207020244Y-115779029D01*
X207113140Y-115961349D01*
X207233417Y-116126894D01*
X207233417Y-116126895D01*
X207378104Y-116271582D01*
X207543650Y-116391859D01*
X207725968Y-116484754D01*
X207920578Y-116547988D01*
X207975000Y-116556607D01*
X207975000Y-115713012D01*
X208032007Y-115745925D01*
X208159174Y-115780000D01*
X208290826Y-115780000D01*
X208417993Y-115745925D01*
X208475000Y-115713012D01*
X208475000Y-116556606D01*
X208529421Y-116547988D01*
X208724031Y-116484754D01*
X208906349Y-116391859D01*
X209071894Y-116271582D01*
X209071895Y-116271582D01*
X209216582Y-116126895D01*
X209216582Y-116126894D01*
X209336859Y-115961349D01*
X209429755Y-115779029D01*
X209492990Y-115584413D01*
X209501609Y-115530000D01*
X208658012Y-115530000D01*
X208690925Y-115472993D01*
X208725000Y-115345826D01*
X208725000Y-115214174D01*
X208690925Y-115087007D01*
X208658012Y-115030000D01*
X209501609Y-115030000D01*
X209492990Y-114975586D01*
X209429755Y-114780970D01*
X209336859Y-114598650D01*
X209216582Y-114433105D01*
X209216582Y-114433104D01*
X209071895Y-114288417D01*
X208906349Y-114168140D01*
X208724029Y-114075244D01*
X208529413Y-114012009D01*
X208475000Y-114003390D01*
X208475000Y-114846988D01*
X208417993Y-114814075D01*
X208290826Y-114780000D01*
X208159174Y-114780000D01*
X208032007Y-114814075D01*
X207975000Y-114846988D01*
X207975000Y-114003390D01*
X207920586Y-114012009D01*
X207725970Y-114075244D01*
X207543650Y-114168140D01*
X207378105Y-114288417D01*
X207378104Y-114288417D01*
X207233417Y-114433104D01*
X207233417Y-114433105D01*
X207113140Y-114598650D01*
X207020244Y-114780970D01*
X206957009Y-114975586D01*
X206948391Y-115030000D01*
X193670943Y-115030000D01*
X193666858Y-115009463D01*
X193666857Y-115009462D01*
X193666857Y-115009458D01*
X193596940Y-114840664D01*
X193596939Y-114840663D01*
X193596936Y-114840657D01*
X193495436Y-114688753D01*
X193495433Y-114688749D01*
X193366250Y-114559566D01*
X193366246Y-114559563D01*
X193214342Y-114458063D01*
X193214333Y-114458058D01*
X193045542Y-114388143D01*
X193045534Y-114388141D01*
X192866355Y-114352500D01*
X192866351Y-114352500D01*
X192683649Y-114352500D01*
X192683644Y-114352500D01*
X192504465Y-114388141D01*
X192504457Y-114388143D01*
X192335666Y-114458058D01*
X192335657Y-114458063D01*
X192183753Y-114559563D01*
X192183749Y-114559566D01*
X192054566Y-114688749D01*
X192054563Y-114688753D01*
X191953063Y-114840657D01*
X191953058Y-114840666D01*
X191883143Y-115009457D01*
X191883141Y-115009465D01*
X191847500Y-115188644D01*
X179274999Y-115188644D01*
X179274999Y-114725028D01*
X179274998Y-114725013D01*
X179264505Y-114622302D01*
X179209358Y-114455880D01*
X179209356Y-114455875D01*
X179117315Y-114306654D01*
X178993345Y-114182684D01*
X178844124Y-114090643D01*
X178844119Y-114090641D01*
X178677697Y-114035494D01*
X178677690Y-114035493D01*
X178574986Y-114025000D01*
X177650000Y-114025000D01*
X177650000Y-115057586D01*
X177486180Y-115025000D01*
X177313820Y-115025000D01*
X177150000Y-115057586D01*
X177150000Y-114025000D01*
X176225028Y-114025000D01*
X176225012Y-114025001D01*
X176122302Y-114035494D01*
X175955880Y-114090641D01*
X175955875Y-114090643D01*
X175806654Y-114182684D01*
X175712181Y-114277158D01*
X175650858Y-114310643D01*
X175581166Y-114305659D01*
X175525233Y-114263787D01*
X175500816Y-114198323D01*
X175500500Y-114189477D01*
X175500500Y-111927441D01*
X192097500Y-111927441D01*
X192097500Y-113552558D01*
X192104898Y-113589749D01*
X192133077Y-113631922D01*
X192175250Y-113660101D01*
X192175252Y-113660102D01*
X192203205Y-113665662D01*
X192212441Y-113667500D01*
X192212442Y-113667500D01*
X193837559Y-113667500D01*
X193844957Y-113666028D01*
X193874748Y-113660102D01*
X193916922Y-113631922D01*
X193945102Y-113589748D01*
X193952500Y-113552558D01*
X193952500Y-112648644D01*
X207072500Y-112648644D01*
X207072500Y-112831355D01*
X207108141Y-113010534D01*
X207108143Y-113010542D01*
X207178058Y-113179333D01*
X207178063Y-113179342D01*
X207279563Y-113331246D01*
X207279566Y-113331250D01*
X207408749Y-113460433D01*
X207408753Y-113460436D01*
X207560657Y-113561936D01*
X207560663Y-113561939D01*
X207560664Y-113561940D01*
X207729458Y-113631857D01*
X207908644Y-113667499D01*
X207908648Y-113667500D01*
X207908649Y-113667500D01*
X208091352Y-113667500D01*
X208091353Y-113667499D01*
X208270542Y-113631857D01*
X208439336Y-113561940D01*
X208591247Y-113460436D01*
X208720436Y-113331247D01*
X208821940Y-113179336D01*
X208891857Y-113010542D01*
X208927500Y-112831351D01*
X208927500Y-112648649D01*
X208891857Y-112469458D01*
X208821940Y-112300664D01*
X208821939Y-112300663D01*
X208821936Y-112300657D01*
X208720436Y-112148753D01*
X208720433Y-112148749D01*
X208591250Y-112019566D01*
X208591246Y-112019563D01*
X208439342Y-111918063D01*
X208439333Y-111918058D01*
X208270542Y-111848143D01*
X208270534Y-111848141D01*
X208091355Y-111812500D01*
X208091351Y-111812500D01*
X207908649Y-111812500D01*
X207908644Y-111812500D01*
X207729465Y-111848141D01*
X207729457Y-111848143D01*
X207560666Y-111918058D01*
X207560657Y-111918063D01*
X207408753Y-112019563D01*
X207408749Y-112019566D01*
X207279566Y-112148749D01*
X207279563Y-112148753D01*
X207178063Y-112300657D01*
X207178058Y-112300666D01*
X207108143Y-112469457D01*
X207108141Y-112469465D01*
X207072500Y-112648644D01*
X193952500Y-112648644D01*
X193952500Y-111927442D01*
X193945102Y-111890252D01*
X193945101Y-111890250D01*
X193916922Y-111848077D01*
X193874749Y-111819898D01*
X193837559Y-111812500D01*
X193837558Y-111812500D01*
X192212442Y-111812500D01*
X192212441Y-111812500D01*
X192175250Y-111819898D01*
X192133077Y-111848077D01*
X192104898Y-111890250D01*
X192097500Y-111927441D01*
X175500500Y-111927441D01*
X175500500Y-109239172D01*
X175897500Y-109239172D01*
X175897500Y-111560825D01*
X175908191Y-111634204D01*
X175963525Y-111747392D01*
X176052607Y-111836474D01*
X176052608Y-111836474D01*
X176052610Y-111836476D01*
X176165796Y-111891809D01*
X176239173Y-111902500D01*
X178560826Y-111902499D01*
X178634204Y-111891809D01*
X178747390Y-111836476D01*
X178747392Y-111836474D01*
X178750198Y-111833669D01*
X178836474Y-111747392D01*
X178836476Y-111747390D01*
X178891809Y-111634204D01*
X178902500Y-111560827D01*
X178902499Y-109239174D01*
X178891809Y-109165796D01*
X178836476Y-109052610D01*
X178836474Y-109052608D01*
X178836474Y-109052607D01*
X178747392Y-108963525D01*
X178634202Y-108908190D01*
X178560827Y-108897500D01*
X176239174Y-108897500D01*
X176165795Y-108908191D01*
X176052607Y-108963525D01*
X175963525Y-109052607D01*
X175908190Y-109165797D01*
X175897500Y-109239172D01*
X175500500Y-109239172D01*
X175500500Y-101338071D01*
X208429600Y-101338071D01*
X208429600Y-101461929D01*
X208461657Y-101581568D01*
X208523586Y-101688832D01*
X208611168Y-101776414D01*
X208718432Y-101838343D01*
X208838071Y-101870400D01*
X208838073Y-101870400D01*
X208961927Y-101870400D01*
X208961929Y-101870400D01*
X209081568Y-101838343D01*
X209188832Y-101776414D01*
X209276414Y-101688832D01*
X209338343Y-101581568D01*
X209370400Y-101461929D01*
X209370400Y-101338071D01*
X209338343Y-101218432D01*
X209276414Y-101111168D01*
X209188832Y-101023586D01*
X209081568Y-100961657D01*
X208961929Y-100929600D01*
X208838071Y-100929600D01*
X208718432Y-100961657D01*
X208718429Y-100961658D01*
X208611171Y-101023584D01*
X208611165Y-101023588D01*
X208523588Y-101111165D01*
X208523584Y-101111171D01*
X208461658Y-101218429D01*
X208461657Y-101218432D01*
X208429600Y-101338071D01*
X175500500Y-101338071D01*
X175500500Y-100338071D01*
X193929600Y-100338071D01*
X193929600Y-100461929D01*
X193961657Y-100581568D01*
X194023586Y-100688832D01*
X194111168Y-100776414D01*
X194218432Y-100838343D01*
X194338071Y-100870400D01*
X194338073Y-100870400D01*
X194461927Y-100870400D01*
X194461929Y-100870400D01*
X194581568Y-100838343D01*
X194688832Y-100776414D01*
X194776414Y-100688832D01*
X194838343Y-100581568D01*
X194870400Y-100461929D01*
X194870400Y-100338071D01*
X210429600Y-100338071D01*
X210429600Y-100461929D01*
X210461657Y-100581568D01*
X210523586Y-100688832D01*
X210611168Y-100776414D01*
X210718432Y-100838343D01*
X210838071Y-100870400D01*
X210838073Y-100870400D01*
X210961927Y-100870400D01*
X210961929Y-100870400D01*
X211081568Y-100838343D01*
X211188832Y-100776414D01*
X211226074Y-100739172D01*
X220897500Y-100739172D01*
X220897500Y-103060825D01*
X220908191Y-103134204D01*
X220963525Y-103247392D01*
X221052607Y-103336474D01*
X221052608Y-103336474D01*
X221052610Y-103336476D01*
X221165796Y-103391809D01*
X221239173Y-103402500D01*
X223560826Y-103402499D01*
X223634204Y-103391809D01*
X223747390Y-103336476D01*
X223836476Y-103247390D01*
X223891809Y-103134204D01*
X223902500Y-103060827D01*
X223902499Y-100739174D01*
X223891809Y-100665796D01*
X223836476Y-100552610D01*
X223836474Y-100552608D01*
X223836474Y-100552607D01*
X223747392Y-100463525D01*
X223634202Y-100408190D01*
X223560827Y-100397500D01*
X221239174Y-100397500D01*
X221165795Y-100408191D01*
X221052607Y-100463525D01*
X220963525Y-100552607D01*
X220908190Y-100665797D01*
X220897500Y-100739172D01*
X211226074Y-100739172D01*
X211276414Y-100688832D01*
X211338343Y-100581568D01*
X211370400Y-100461929D01*
X211370400Y-100338071D01*
X211338343Y-100218432D01*
X211276414Y-100111168D01*
X211188832Y-100023586D01*
X211081568Y-99961657D01*
X210961929Y-99929600D01*
X210838071Y-99929600D01*
X210718432Y-99961657D01*
X210718429Y-99961658D01*
X210611171Y-100023584D01*
X210611165Y-100023588D01*
X210523588Y-100111165D01*
X210523584Y-100111171D01*
X210461658Y-100218429D01*
X210461657Y-100218432D01*
X210429600Y-100338071D01*
X194870400Y-100338071D01*
X194838343Y-100218432D01*
X194776414Y-100111168D01*
X194688832Y-100023586D01*
X194581568Y-99961657D01*
X194461929Y-99929600D01*
X194338071Y-99929600D01*
X194218432Y-99961657D01*
X194218429Y-99961658D01*
X194111171Y-100023584D01*
X194111165Y-100023588D01*
X194023588Y-100111165D01*
X194023584Y-100111171D01*
X193961658Y-100218429D01*
X193961657Y-100218432D01*
X193929600Y-100338071D01*
X175500500Y-100338071D01*
X175500500Y-98338071D01*
X193929600Y-98338071D01*
X193929600Y-98461929D01*
X193961657Y-98581568D01*
X194023586Y-98688832D01*
X194111168Y-98776414D01*
X194218432Y-98838343D01*
X194338071Y-98870400D01*
X194338073Y-98870400D01*
X194461927Y-98870400D01*
X194461929Y-98870400D01*
X194581568Y-98838343D01*
X194688832Y-98776414D01*
X194776414Y-98688832D01*
X194838343Y-98581568D01*
X194870400Y-98461929D01*
X194870400Y-98338071D01*
X208929600Y-98338071D01*
X208929600Y-98461929D01*
X208961657Y-98581568D01*
X209023586Y-98688832D01*
X209111168Y-98776414D01*
X209218432Y-98838343D01*
X209338071Y-98870400D01*
X209338073Y-98870400D01*
X209461927Y-98870400D01*
X209461929Y-98870400D01*
X209581568Y-98838343D01*
X209688832Y-98776414D01*
X209776414Y-98688832D01*
X209838343Y-98581568D01*
X209870400Y-98461929D01*
X209870400Y-98338071D01*
X209838343Y-98218432D01*
X209776414Y-98111168D01*
X209688832Y-98023586D01*
X209581568Y-97961657D01*
X209461929Y-97929600D01*
X209338071Y-97929600D01*
X209218432Y-97961657D01*
X209218429Y-97961658D01*
X209111171Y-98023584D01*
X209111165Y-98023588D01*
X209023588Y-98111165D01*
X209023584Y-98111171D01*
X208961658Y-98218429D01*
X208961657Y-98218432D01*
X208929600Y-98338071D01*
X194870400Y-98338071D01*
X194838343Y-98218432D01*
X194776414Y-98111168D01*
X194688832Y-98023586D01*
X194581568Y-97961657D01*
X194461929Y-97929600D01*
X194338071Y-97929600D01*
X194218432Y-97961657D01*
X194218429Y-97961658D01*
X194111171Y-98023584D01*
X194111165Y-98023588D01*
X194023588Y-98111165D01*
X194023584Y-98111171D01*
X193961658Y-98218429D01*
X193961657Y-98218432D01*
X193929600Y-98338071D01*
X175500500Y-98338071D01*
X175500500Y-95974078D01*
X176238000Y-95974078D01*
X176238000Y-96172721D01*
X176269075Y-96368920D01*
X176269075Y-96368923D01*
X176330457Y-96557837D01*
X176420641Y-96734832D01*
X176447730Y-96772115D01*
X176447731Y-96772116D01*
X177010504Y-96209342D01*
X177026619Y-96269481D01*
X177093498Y-96385320D01*
X177188080Y-96479902D01*
X177303919Y-96546781D01*
X177364057Y-96562894D01*
X176801283Y-97125668D01*
X176801283Y-97125669D01*
X176838567Y-97152758D01*
X177015562Y-97242942D01*
X177204477Y-97304324D01*
X177400679Y-97335400D01*
X177599321Y-97335400D01*
X177795520Y-97304324D01*
X177795523Y-97304324D01*
X177984437Y-97242942D01*
X178161425Y-97152762D01*
X178198716Y-97125668D01*
X177635942Y-96562894D01*
X177696081Y-96546781D01*
X177811920Y-96479902D01*
X177906502Y-96385320D01*
X177973381Y-96269481D01*
X177989495Y-96209342D01*
X178552268Y-96772115D01*
X178579362Y-96734825D01*
X178669542Y-96557837D01*
X178730924Y-96368923D01*
X178730924Y-96368920D01*
X178762000Y-96172721D01*
X178762000Y-96064173D01*
X221222500Y-96064173D01*
X221222500Y-97735826D01*
X221233190Y-97809201D01*
X221288525Y-97922391D01*
X221377608Y-98011474D01*
X221377609Y-98011474D01*
X221377611Y-98011476D01*
X221490797Y-98066809D01*
X221527485Y-98072154D01*
X221564173Y-98077500D01*
X221564174Y-98077500D01*
X223235827Y-98077500D01*
X223260285Y-98073936D01*
X223309203Y-98066809D01*
X223422389Y-98011476D01*
X223511476Y-97922389D01*
X223566809Y-97809203D01*
X223577500Y-97735826D01*
X223577500Y-96064174D01*
X223566809Y-95990797D01*
X223511476Y-95877611D01*
X223511474Y-95877609D01*
X223511474Y-95877608D01*
X223422391Y-95788525D01*
X223309201Y-95733190D01*
X223235827Y-95722500D01*
X223235826Y-95722500D01*
X221564174Y-95722500D01*
X221564173Y-95722500D01*
X221490798Y-95733190D01*
X221377608Y-95788525D01*
X221288525Y-95877608D01*
X221233190Y-95990798D01*
X221222500Y-96064173D01*
X178762000Y-96064173D01*
X178762000Y-95974078D01*
X178730924Y-95777879D01*
X178730924Y-95777876D01*
X178669542Y-95588962D01*
X178579358Y-95411966D01*
X178572721Y-95402832D01*
X178572720Y-95402831D01*
X178552268Y-95374683D01*
X177989494Y-95937457D01*
X177973381Y-95877319D01*
X177906502Y-95761480D01*
X177811920Y-95666898D01*
X177696081Y-95600019D01*
X177635942Y-95583904D01*
X177881775Y-95338071D01*
X215929600Y-95338071D01*
X215929600Y-95461929D01*
X215961657Y-95581568D01*
X216023586Y-95688832D01*
X216111168Y-95776414D01*
X216218432Y-95838343D01*
X216338071Y-95870400D01*
X216338073Y-95870400D01*
X216461927Y-95870400D01*
X216461929Y-95870400D01*
X216581568Y-95838343D01*
X216688832Y-95776414D01*
X216776414Y-95688832D01*
X216838343Y-95581568D01*
X216870400Y-95461929D01*
X216870400Y-95338071D01*
X216838343Y-95218432D01*
X216776414Y-95111168D01*
X216688832Y-95023586D01*
X216581568Y-94961657D01*
X216461929Y-94929600D01*
X216338071Y-94929600D01*
X216218432Y-94961657D01*
X216218429Y-94961658D01*
X216111171Y-95023584D01*
X216111165Y-95023588D01*
X216023588Y-95111165D01*
X216023584Y-95111171D01*
X215961658Y-95218429D01*
X215961657Y-95218432D01*
X215929600Y-95338071D01*
X177881775Y-95338071D01*
X178198716Y-95021131D01*
X178198715Y-95021130D01*
X178161432Y-94994041D01*
X177984437Y-94903857D01*
X177795522Y-94842475D01*
X177599321Y-94811400D01*
X177400679Y-94811400D01*
X177204479Y-94842475D01*
X177204476Y-94842475D01*
X177015562Y-94903857D01*
X176838564Y-94994043D01*
X176801283Y-95021129D01*
X176801282Y-95021130D01*
X177364058Y-95583904D01*
X177303919Y-95600019D01*
X177188080Y-95666898D01*
X177093498Y-95761480D01*
X177026619Y-95877319D01*
X177010504Y-95937457D01*
X176447730Y-95374682D01*
X176447729Y-95374683D01*
X176420643Y-95411964D01*
X176330457Y-95588962D01*
X176269075Y-95777876D01*
X176269075Y-95777879D01*
X176238000Y-95974078D01*
X175500500Y-95974078D01*
X175500500Y-93445787D01*
X176610500Y-93445787D01*
X176610500Y-93621012D01*
X176644681Y-93792850D01*
X176644684Y-93792862D01*
X176711731Y-93954729D01*
X176711738Y-93954742D01*
X176809079Y-94100422D01*
X176809082Y-94100426D01*
X176932973Y-94224317D01*
X176932977Y-94224320D01*
X177078657Y-94321661D01*
X177078670Y-94321668D01*
X177240537Y-94388715D01*
X177240542Y-94388717D01*
X177412387Y-94422899D01*
X177412391Y-94422900D01*
X177412392Y-94422900D01*
X177587609Y-94422900D01*
X177587610Y-94422899D01*
X177759458Y-94388717D01*
X177921336Y-94321665D01*
X178067023Y-94224320D01*
X178190920Y-94100423D01*
X178288265Y-93954736D01*
X178336589Y-93838071D01*
X189929600Y-93838071D01*
X189929600Y-93961929D01*
X189961657Y-94081568D01*
X190023586Y-94188832D01*
X190111168Y-94276414D01*
X190218432Y-94338343D01*
X190338071Y-94370400D01*
X190338073Y-94370400D01*
X190461927Y-94370400D01*
X190461929Y-94370400D01*
X190581568Y-94338343D01*
X190688832Y-94276414D01*
X190727175Y-94238071D01*
X193529600Y-94238071D01*
X193529600Y-94361929D01*
X193561657Y-94481568D01*
X193623586Y-94588832D01*
X193711168Y-94676414D01*
X193818432Y-94738343D01*
X193938071Y-94770400D01*
X193938073Y-94770400D01*
X194061927Y-94770400D01*
X194061929Y-94770400D01*
X194181568Y-94738343D01*
X194288832Y-94676414D01*
X194376414Y-94588832D01*
X194438343Y-94481568D01*
X194470400Y-94361929D01*
X194470400Y-94238071D01*
X194438343Y-94118432D01*
X194376414Y-94011168D01*
X194288832Y-93923586D01*
X194181568Y-93861657D01*
X194061929Y-93829600D01*
X193938071Y-93829600D01*
X193818432Y-93861657D01*
X193818429Y-93861658D01*
X193711171Y-93923584D01*
X193711165Y-93923588D01*
X193623588Y-94011165D01*
X193623584Y-94011171D01*
X193561658Y-94118429D01*
X193561657Y-94118432D01*
X193529600Y-94238071D01*
X190727175Y-94238071D01*
X190776414Y-94188832D01*
X190838343Y-94081568D01*
X190870400Y-93961929D01*
X190870400Y-93838071D01*
X190838343Y-93718432D01*
X190776414Y-93611168D01*
X190688832Y-93523586D01*
X190581568Y-93461657D01*
X190461929Y-93429600D01*
X190338071Y-93429600D01*
X190218432Y-93461657D01*
X190218429Y-93461658D01*
X190111171Y-93523584D01*
X190111165Y-93523588D01*
X190023588Y-93611165D01*
X190023584Y-93611171D01*
X189961658Y-93718429D01*
X189961657Y-93718432D01*
X189929600Y-93838071D01*
X178336589Y-93838071D01*
X178355317Y-93792858D01*
X178389500Y-93621008D01*
X178389500Y-93445792D01*
X178355317Y-93273942D01*
X178355315Y-93273937D01*
X178288268Y-93112070D01*
X178288261Y-93112057D01*
X178190920Y-92966377D01*
X178190917Y-92966373D01*
X178067026Y-92842482D01*
X178067022Y-92842479D01*
X177921342Y-92745138D01*
X177921329Y-92745131D01*
X177759462Y-92678084D01*
X177759450Y-92678081D01*
X177587612Y-92643900D01*
X177587608Y-92643900D01*
X177412392Y-92643900D01*
X177412387Y-92643900D01*
X177240549Y-92678081D01*
X177240537Y-92678084D01*
X177078670Y-92745131D01*
X177078657Y-92745138D01*
X176932977Y-92842479D01*
X176932973Y-92842482D01*
X176809082Y-92966373D01*
X176809079Y-92966377D01*
X176711738Y-93112057D01*
X176711731Y-93112070D01*
X176644684Y-93273937D01*
X176644681Y-93273949D01*
X176610500Y-93445787D01*
X175500500Y-93445787D01*
X175500500Y-91938071D01*
X195429600Y-91938071D01*
X195429600Y-92061929D01*
X195461657Y-92181568D01*
X195523586Y-92288832D01*
X195611168Y-92376414D01*
X195718432Y-92438343D01*
X195838071Y-92470400D01*
X195838073Y-92470400D01*
X195961927Y-92470400D01*
X195961929Y-92470400D01*
X196081568Y-92438343D01*
X196188832Y-92376414D01*
X196276414Y-92288832D01*
X196338343Y-92181568D01*
X196370400Y-92061929D01*
X196370400Y-91938071D01*
X196338343Y-91818432D01*
X196276414Y-91711168D01*
X196188832Y-91623586D01*
X196081568Y-91561657D01*
X195961929Y-91529600D01*
X195838071Y-91529600D01*
X195718432Y-91561657D01*
X195718429Y-91561658D01*
X195611171Y-91623584D01*
X195611165Y-91623588D01*
X195523588Y-91711165D01*
X195523584Y-91711171D01*
X195461658Y-91818429D01*
X195461657Y-91818432D01*
X195429600Y-91938071D01*
X175500500Y-91938071D01*
X175500500Y-90905787D01*
X176610500Y-90905787D01*
X176610500Y-91081012D01*
X176644681Y-91252850D01*
X176644684Y-91252862D01*
X176711731Y-91414729D01*
X176711738Y-91414742D01*
X176809079Y-91560422D01*
X176809082Y-91560426D01*
X176932973Y-91684317D01*
X176932977Y-91684320D01*
X177078657Y-91781661D01*
X177078670Y-91781668D01*
X177167420Y-91818429D01*
X177240542Y-91848717D01*
X177412387Y-91882899D01*
X177412391Y-91882900D01*
X177412392Y-91882900D01*
X177587609Y-91882900D01*
X177587610Y-91882899D01*
X177759458Y-91848717D01*
X177921336Y-91781665D01*
X178067023Y-91684320D01*
X178190920Y-91560423D01*
X178288265Y-91414736D01*
X178355317Y-91252858D01*
X178389500Y-91081008D01*
X178389500Y-90905792D01*
X178381392Y-90865028D01*
X178359951Y-90757235D01*
X178356755Y-90741171D01*
X211429600Y-90741171D01*
X211429600Y-90865029D01*
X211461657Y-90984668D01*
X211523586Y-91091932D01*
X211611168Y-91179514D01*
X211718432Y-91241443D01*
X211838071Y-91273500D01*
X211838073Y-91273500D01*
X211961927Y-91273500D01*
X211961929Y-91273500D01*
X212081568Y-91241443D01*
X212188832Y-91179514D01*
X212276414Y-91091932D01*
X212338343Y-90984668D01*
X212370400Y-90865029D01*
X212370400Y-90741171D01*
X212338343Y-90621532D01*
X212276414Y-90514268D01*
X212188832Y-90426686D01*
X212081568Y-90364757D01*
X211961929Y-90332700D01*
X211838071Y-90332700D01*
X211718432Y-90364757D01*
X211718429Y-90364758D01*
X211611171Y-90426684D01*
X211611165Y-90426688D01*
X211523588Y-90514265D01*
X211523584Y-90514271D01*
X211461658Y-90621529D01*
X211461657Y-90621532D01*
X211429600Y-90741171D01*
X178356755Y-90741171D01*
X178355318Y-90733947D01*
X178355317Y-90733946D01*
X178355317Y-90733942D01*
X178355315Y-90733937D01*
X178288268Y-90572070D01*
X178288261Y-90572057D01*
X178190920Y-90426377D01*
X178190917Y-90426373D01*
X178067026Y-90302482D01*
X178067022Y-90302479D01*
X177921342Y-90205138D01*
X177921329Y-90205131D01*
X177759462Y-90138084D01*
X177759450Y-90138081D01*
X177587612Y-90103900D01*
X177587608Y-90103900D01*
X177412392Y-90103900D01*
X177412387Y-90103900D01*
X177240549Y-90138081D01*
X177240537Y-90138084D01*
X177078670Y-90205131D01*
X177078657Y-90205138D01*
X176932977Y-90302479D01*
X176932973Y-90302482D01*
X176809082Y-90426373D01*
X176809079Y-90426377D01*
X176711738Y-90572057D01*
X176711731Y-90572070D01*
X176644684Y-90733937D01*
X176644681Y-90733949D01*
X176610500Y-90905787D01*
X175500500Y-90905787D01*
X175500500Y-89838071D01*
X209929600Y-89838071D01*
X209929600Y-89961929D01*
X209961657Y-90081568D01*
X210023586Y-90188832D01*
X210111168Y-90276414D01*
X210218432Y-90338343D01*
X210338071Y-90370400D01*
X210338073Y-90370400D01*
X210461927Y-90370400D01*
X210461929Y-90370400D01*
X210581568Y-90338343D01*
X210688832Y-90276414D01*
X210776414Y-90188832D01*
X210838343Y-90081568D01*
X210870400Y-89961929D01*
X210870400Y-89838071D01*
X210838343Y-89718432D01*
X210776414Y-89611168D01*
X210688832Y-89523586D01*
X210581568Y-89461657D01*
X210461929Y-89429600D01*
X210338071Y-89429600D01*
X210218432Y-89461657D01*
X210218429Y-89461658D01*
X210111171Y-89523584D01*
X210111165Y-89523588D01*
X210023588Y-89611165D01*
X210023584Y-89611171D01*
X209961658Y-89718429D01*
X209961657Y-89718432D01*
X209929600Y-89838071D01*
X175500500Y-89838071D01*
X175500500Y-84874078D01*
X176107900Y-84874078D01*
X176107900Y-85072721D01*
X176138975Y-85268920D01*
X176138975Y-85268923D01*
X176200357Y-85457837D01*
X176290541Y-85634832D01*
X176317630Y-85672115D01*
X176317631Y-85672116D01*
X176880404Y-85109342D01*
X176896519Y-85169481D01*
X176963398Y-85285320D01*
X177057980Y-85379902D01*
X177173819Y-85446781D01*
X177233957Y-85462894D01*
X176671183Y-86025668D01*
X176671183Y-86025669D01*
X176708467Y-86052758D01*
X176885462Y-86142942D01*
X177074377Y-86204324D01*
X177270579Y-86235400D01*
X177469221Y-86235400D01*
X177665420Y-86204324D01*
X177665423Y-86204324D01*
X177854337Y-86142942D01*
X178031325Y-86052762D01*
X178068616Y-86025668D01*
X177505842Y-85462894D01*
X177565981Y-85446781D01*
X177681820Y-85379902D01*
X177776402Y-85285320D01*
X177843281Y-85169481D01*
X177859395Y-85109342D01*
X178422168Y-85672115D01*
X178449262Y-85634825D01*
X178539442Y-85457837D01*
X178600824Y-85268923D01*
X178600824Y-85268920D01*
X178631900Y-85072721D01*
X178631900Y-84874078D01*
X178627982Y-84849342D01*
X178626197Y-84838071D01*
X198929600Y-84838071D01*
X198929600Y-84961929D01*
X198961657Y-85081568D01*
X199023586Y-85188832D01*
X199111168Y-85276414D01*
X199218432Y-85338343D01*
X199338071Y-85370400D01*
X199338073Y-85370400D01*
X199461927Y-85370400D01*
X199461929Y-85370400D01*
X199581568Y-85338343D01*
X199688832Y-85276414D01*
X199776414Y-85188832D01*
X199838343Y-85081568D01*
X199870400Y-84961929D01*
X199870400Y-84838071D01*
X199838343Y-84718432D01*
X199776414Y-84611168D01*
X199688832Y-84523586D01*
X199581568Y-84461657D01*
X199461929Y-84429600D01*
X199338071Y-84429600D01*
X199218432Y-84461657D01*
X199218429Y-84461658D01*
X199111171Y-84523584D01*
X199111165Y-84523588D01*
X199023588Y-84611165D01*
X199023584Y-84611171D01*
X198961658Y-84718429D01*
X198961657Y-84718432D01*
X198929600Y-84838071D01*
X178626197Y-84838071D01*
X178600824Y-84677879D01*
X178600824Y-84677876D01*
X178539442Y-84488962D01*
X178449258Y-84311967D01*
X178422168Y-84274683D01*
X177859394Y-84837457D01*
X177843281Y-84777319D01*
X177776402Y-84661480D01*
X177681820Y-84566898D01*
X177565981Y-84500019D01*
X177505842Y-84483904D01*
X178068616Y-83921131D01*
X178068615Y-83921130D01*
X178031332Y-83894041D01*
X177854337Y-83803857D01*
X177665422Y-83742475D01*
X177469221Y-83711400D01*
X177270579Y-83711400D01*
X177074379Y-83742475D01*
X177074376Y-83742475D01*
X176885462Y-83803857D01*
X176708464Y-83894043D01*
X176671183Y-83921129D01*
X176671182Y-83921130D01*
X177233958Y-84483904D01*
X177173819Y-84500019D01*
X177057980Y-84566898D01*
X176963398Y-84661480D01*
X176896519Y-84777319D01*
X176880404Y-84837457D01*
X176317630Y-84274682D01*
X176317629Y-84274683D01*
X176290543Y-84311964D01*
X176200357Y-84488962D01*
X176138975Y-84677876D01*
X176138975Y-84677879D01*
X176107900Y-84874078D01*
X175500500Y-84874078D01*
X175500500Y-82345787D01*
X176480400Y-82345787D01*
X176480400Y-82521012D01*
X176514581Y-82692850D01*
X176514584Y-82692862D01*
X176581631Y-82854729D01*
X176581638Y-82854742D01*
X176678979Y-83000422D01*
X176678982Y-83000426D01*
X176802873Y-83124317D01*
X176802877Y-83124320D01*
X176948557Y-83221661D01*
X176948570Y-83221668D01*
X177110437Y-83288715D01*
X177110442Y-83288717D01*
X177282287Y-83322899D01*
X177282291Y-83322900D01*
X177282292Y-83322900D01*
X177457509Y-83322900D01*
X177457510Y-83322899D01*
X177629358Y-83288717D01*
X177791236Y-83221665D01*
X177936923Y-83124320D01*
X177950078Y-83111165D01*
X178013916Y-83047328D01*
X178060817Y-83000426D01*
X178060820Y-83000423D01*
X178158165Y-82854736D01*
X178225217Y-82692858D01*
X178259400Y-82521008D01*
X178259400Y-82345792D01*
X178225217Y-82173942D01*
X178207016Y-82130000D01*
X178183513Y-82073258D01*
X178165875Y-82030678D01*
X190138000Y-82030678D01*
X190138000Y-82229321D01*
X190169075Y-82425520D01*
X190169075Y-82425523D01*
X190230457Y-82614437D01*
X190320641Y-82791432D01*
X190347730Y-82828715D01*
X190347731Y-82828716D01*
X191019000Y-82157447D01*
X191019000Y-82180160D01*
X191044964Y-82277061D01*
X191095124Y-82363940D01*
X191166060Y-82434876D01*
X191252939Y-82485036D01*
X191349840Y-82511000D01*
X191372553Y-82511000D01*
X190701283Y-83182268D01*
X190701283Y-83182269D01*
X190738567Y-83209358D01*
X190915562Y-83299542D01*
X191104477Y-83360924D01*
X191300679Y-83392000D01*
X191499321Y-83392000D01*
X191695520Y-83360924D01*
X191695523Y-83360924D01*
X191765857Y-83338071D01*
X199659600Y-83338071D01*
X199659600Y-83461929D01*
X199691657Y-83581568D01*
X199753586Y-83688832D01*
X199841168Y-83776414D01*
X199948432Y-83838343D01*
X200068071Y-83870400D01*
X200068073Y-83870400D01*
X200191927Y-83870400D01*
X200191929Y-83870400D01*
X200311568Y-83838343D01*
X200418832Y-83776414D01*
X200506414Y-83688832D01*
X200568343Y-83581568D01*
X200600400Y-83461929D01*
X200600400Y-83338071D01*
X200568343Y-83218432D01*
X200506414Y-83111168D01*
X200418832Y-83023586D01*
X200311568Y-82961657D01*
X200191929Y-82929600D01*
X200068071Y-82929600D01*
X199948432Y-82961657D01*
X199948429Y-82961658D01*
X199841171Y-83023584D01*
X199841165Y-83023588D01*
X199753588Y-83111165D01*
X199753584Y-83111171D01*
X199691658Y-83218429D01*
X199691657Y-83218432D01*
X199659600Y-83338071D01*
X191765857Y-83338071D01*
X191884437Y-83299542D01*
X192041610Y-83219459D01*
X192041611Y-83219458D01*
X192061422Y-83209364D01*
X192098716Y-83182268D01*
X191427448Y-82511000D01*
X191450160Y-82511000D01*
X191547061Y-82485036D01*
X191633940Y-82434876D01*
X191704876Y-82363940D01*
X191755036Y-82277061D01*
X191781000Y-82180160D01*
X191781000Y-82157447D01*
X192452268Y-82828715D01*
X192479362Y-82791425D01*
X192569542Y-82614437D01*
X192630924Y-82425523D01*
X192630924Y-82425520D01*
X192662000Y-82229321D01*
X192662000Y-82042387D01*
X208510500Y-82042387D01*
X208510500Y-82217612D01*
X208544681Y-82389450D01*
X208544684Y-82389462D01*
X208611731Y-82551329D01*
X208611738Y-82551342D01*
X208709079Y-82697022D01*
X208709082Y-82697026D01*
X208832973Y-82820917D01*
X208832977Y-82820920D01*
X208978657Y-82918261D01*
X208978670Y-82918268D01*
X209083424Y-82961658D01*
X209140542Y-82985317D01*
X209312387Y-83019499D01*
X209312391Y-83019500D01*
X209312392Y-83019500D01*
X209487609Y-83019500D01*
X209487610Y-83019499D01*
X209659458Y-82985317D01*
X209821336Y-82918265D01*
X209967023Y-82820920D01*
X210090920Y-82697023D01*
X210188265Y-82551336D01*
X210255317Y-82389458D01*
X210289500Y-82217608D01*
X210289500Y-82042392D01*
X210255317Y-81870542D01*
X210236504Y-81825124D01*
X210188268Y-81708670D01*
X210188261Y-81708657D01*
X210090920Y-81562977D01*
X210090917Y-81562973D01*
X209967026Y-81439082D01*
X209967022Y-81439079D01*
X209821342Y-81341738D01*
X209821329Y-81341731D01*
X209659462Y-81274684D01*
X209659450Y-81274681D01*
X209487612Y-81240500D01*
X209487608Y-81240500D01*
X209312392Y-81240500D01*
X209312387Y-81240500D01*
X209140549Y-81274681D01*
X209140537Y-81274684D01*
X208978670Y-81341731D01*
X208978657Y-81341738D01*
X208832977Y-81439079D01*
X208832973Y-81439082D01*
X208709082Y-81562973D01*
X208709079Y-81562977D01*
X208611738Y-81708657D01*
X208611731Y-81708670D01*
X208544684Y-81870537D01*
X208544681Y-81870549D01*
X208510500Y-82042387D01*
X192662000Y-82042387D01*
X192662000Y-82030678D01*
X192630924Y-81834479D01*
X192630924Y-81834476D01*
X192569542Y-81645562D01*
X192479358Y-81468567D01*
X192452268Y-81431283D01*
X191781000Y-82102551D01*
X191781000Y-82079840D01*
X191755036Y-81982939D01*
X191704876Y-81896060D01*
X191633940Y-81825124D01*
X191547061Y-81774964D01*
X191450160Y-81749000D01*
X191427447Y-81749000D01*
X192098716Y-81077731D01*
X192098715Y-81077730D01*
X192061432Y-81050641D01*
X191884437Y-80960457D01*
X191695522Y-80899075D01*
X191499321Y-80868000D01*
X191300679Y-80868000D01*
X191104479Y-80899075D01*
X191104476Y-80899075D01*
X190915562Y-80960457D01*
X190738564Y-81050643D01*
X190701283Y-81077729D01*
X190701282Y-81077730D01*
X191372554Y-81749000D01*
X191349840Y-81749000D01*
X191252939Y-81774964D01*
X191166060Y-81825124D01*
X191095124Y-81896060D01*
X191044964Y-81982939D01*
X191019000Y-82079840D01*
X191019000Y-82102552D01*
X190347730Y-81431282D01*
X190347729Y-81431283D01*
X190320643Y-81468564D01*
X190230457Y-81645562D01*
X190169075Y-81834476D01*
X190169075Y-81834479D01*
X190138000Y-82030678D01*
X178165875Y-82030678D01*
X178158166Y-82012066D01*
X178158161Y-82012057D01*
X178060820Y-81866377D01*
X178060817Y-81866373D01*
X177936926Y-81742482D01*
X177936922Y-81742479D01*
X177791242Y-81645138D01*
X177791229Y-81645131D01*
X177629362Y-81578084D01*
X177629350Y-81578081D01*
X177457512Y-81543900D01*
X177457508Y-81543900D01*
X177282292Y-81543900D01*
X177282287Y-81543900D01*
X177110449Y-81578081D01*
X177110437Y-81578084D01*
X176948570Y-81645131D01*
X176948557Y-81645138D01*
X176802877Y-81742479D01*
X176802873Y-81742482D01*
X176678982Y-81866373D01*
X176678979Y-81866377D01*
X176581638Y-82012057D01*
X176581631Y-82012070D01*
X176514584Y-82173937D01*
X176514581Y-82173949D01*
X176480400Y-82345787D01*
X175500500Y-82345787D01*
X175500500Y-79805787D01*
X176480400Y-79805787D01*
X176480400Y-79981012D01*
X176514581Y-80152850D01*
X176514584Y-80152862D01*
X176581631Y-80314729D01*
X176581638Y-80314742D01*
X176678979Y-80460422D01*
X176678982Y-80460426D01*
X176802873Y-80584317D01*
X176802877Y-80584320D01*
X176948557Y-80681661D01*
X176948570Y-80681668D01*
X177110437Y-80748715D01*
X177110442Y-80748717D01*
X177282287Y-80782899D01*
X177282291Y-80782900D01*
X177282292Y-80782900D01*
X177457509Y-80782900D01*
X177457510Y-80782899D01*
X177629358Y-80748717D01*
X177791236Y-80681665D01*
X177936923Y-80584320D01*
X178060820Y-80460423D01*
X178158165Y-80314736D01*
X178225217Y-80152858D01*
X178259400Y-79981008D01*
X178259400Y-79805792D01*
X178225217Y-79633942D01*
X178225215Y-79633937D01*
X178187860Y-79543752D01*
X178170725Y-79502387D01*
X190510500Y-79502387D01*
X190510500Y-79677612D01*
X190544681Y-79849450D01*
X190544684Y-79849462D01*
X190611731Y-80011329D01*
X190611738Y-80011342D01*
X190709079Y-80157022D01*
X190709082Y-80157026D01*
X190832973Y-80280917D01*
X190832977Y-80280920D01*
X190978657Y-80378261D01*
X190978670Y-80378268D01*
X191140537Y-80445315D01*
X191140542Y-80445317D01*
X191312387Y-80479499D01*
X191312391Y-80479500D01*
X191312392Y-80479500D01*
X191487609Y-80479500D01*
X191487610Y-80479499D01*
X191659458Y-80445317D01*
X191821336Y-80378265D01*
X191967023Y-80280920D01*
X192090920Y-80157023D01*
X192188265Y-80011336D01*
X192255317Y-79849458D01*
X192289500Y-79677608D01*
X192289500Y-79502392D01*
X192289499Y-79502387D01*
X208510500Y-79502387D01*
X208510500Y-79677612D01*
X208544681Y-79849450D01*
X208544684Y-79849462D01*
X208611731Y-80011329D01*
X208611738Y-80011342D01*
X208709079Y-80157022D01*
X208709082Y-80157026D01*
X208832973Y-80280917D01*
X208832977Y-80280920D01*
X208978657Y-80378261D01*
X208978670Y-80378268D01*
X209140537Y-80445315D01*
X209140542Y-80445317D01*
X209312387Y-80479499D01*
X209312391Y-80479500D01*
X209312392Y-80479500D01*
X209487609Y-80479500D01*
X209487610Y-80479499D01*
X209659458Y-80445317D01*
X209821336Y-80378265D01*
X209967023Y-80280920D01*
X210090920Y-80157023D01*
X210188265Y-80011336D01*
X210255317Y-79849458D01*
X210289500Y-79677608D01*
X210289500Y-79502392D01*
X210255317Y-79330542D01*
X210202272Y-79202479D01*
X210188268Y-79168670D01*
X210188261Y-79168657D01*
X210090920Y-79022977D01*
X210090917Y-79022973D01*
X209967026Y-78899082D01*
X209967022Y-78899079D01*
X209821342Y-78801738D01*
X209821329Y-78801731D01*
X209659462Y-78734684D01*
X209659450Y-78734681D01*
X209487612Y-78700500D01*
X209487608Y-78700500D01*
X209312392Y-78700500D01*
X209312387Y-78700500D01*
X209140549Y-78734681D01*
X209140537Y-78734684D01*
X208978670Y-78801731D01*
X208978657Y-78801738D01*
X208832977Y-78899079D01*
X208832973Y-78899082D01*
X208709082Y-79022973D01*
X208709079Y-79022977D01*
X208611738Y-79168657D01*
X208611731Y-79168670D01*
X208544684Y-79330537D01*
X208544681Y-79330549D01*
X208510500Y-79502387D01*
X192289499Y-79502387D01*
X192255317Y-79330542D01*
X192202272Y-79202479D01*
X192188268Y-79168670D01*
X192188261Y-79168657D01*
X192090920Y-79022977D01*
X192090917Y-79022973D01*
X191967026Y-78899082D01*
X191967022Y-78899079D01*
X191821342Y-78801738D01*
X191821329Y-78801731D01*
X191659462Y-78734684D01*
X191659450Y-78734681D01*
X191487612Y-78700500D01*
X191487608Y-78700500D01*
X191312392Y-78700500D01*
X191312387Y-78700500D01*
X191140549Y-78734681D01*
X191140537Y-78734684D01*
X190978670Y-78801731D01*
X190978657Y-78801738D01*
X190832977Y-78899079D01*
X190832973Y-78899082D01*
X190709082Y-79022973D01*
X190709079Y-79022977D01*
X190611738Y-79168657D01*
X190611731Y-79168670D01*
X190544684Y-79330537D01*
X190544681Y-79330549D01*
X190510500Y-79502387D01*
X178170725Y-79502387D01*
X178158166Y-79472067D01*
X178158165Y-79472064D01*
X178158163Y-79472061D01*
X178158161Y-79472057D01*
X178060820Y-79326377D01*
X178060817Y-79326373D01*
X177936926Y-79202482D01*
X177936922Y-79202479D01*
X177791242Y-79105138D01*
X177791229Y-79105131D01*
X177629362Y-79038084D01*
X177629350Y-79038081D01*
X177457512Y-79003900D01*
X177457508Y-79003900D01*
X177282292Y-79003900D01*
X177282287Y-79003900D01*
X177110449Y-79038081D01*
X177110437Y-79038084D01*
X176948570Y-79105131D01*
X176948557Y-79105138D01*
X176802877Y-79202479D01*
X176802873Y-79202482D01*
X176678982Y-79326373D01*
X176678979Y-79326377D01*
X176581638Y-79472057D01*
X176581631Y-79472070D01*
X176514584Y-79633937D01*
X176514581Y-79633949D01*
X176480400Y-79805787D01*
X175500500Y-79805787D01*
X175500500Y-77122387D01*
X190510500Y-77122387D01*
X190510500Y-77297612D01*
X190544681Y-77469450D01*
X190544684Y-77469462D01*
X190611731Y-77631329D01*
X190611738Y-77631342D01*
X190709079Y-77777022D01*
X190709082Y-77777026D01*
X190832973Y-77900917D01*
X190832977Y-77900920D01*
X190978657Y-77998261D01*
X190978670Y-77998268D01*
X191140537Y-78065315D01*
X191140542Y-78065317D01*
X191312387Y-78099499D01*
X191312391Y-78099500D01*
X191312392Y-78099500D01*
X191487609Y-78099500D01*
X191487610Y-78099499D01*
X191659458Y-78065317D01*
X191821336Y-77998265D01*
X191967023Y-77900920D01*
X192090920Y-77777023D01*
X192188265Y-77631336D01*
X192255317Y-77469458D01*
X192289500Y-77297608D01*
X192289500Y-77122392D01*
X192289499Y-77122387D01*
X208510500Y-77122387D01*
X208510500Y-77297612D01*
X208544681Y-77469450D01*
X208544684Y-77469462D01*
X208611731Y-77631329D01*
X208611738Y-77631342D01*
X208709079Y-77777022D01*
X208709082Y-77777026D01*
X208832973Y-77900917D01*
X208832977Y-77900920D01*
X208978657Y-77998261D01*
X208978670Y-77998268D01*
X209140537Y-78065315D01*
X209140542Y-78065317D01*
X209312387Y-78099499D01*
X209312391Y-78099500D01*
X209312392Y-78099500D01*
X209487609Y-78099500D01*
X209487610Y-78099499D01*
X209659458Y-78065317D01*
X209821336Y-77998265D01*
X209967023Y-77900920D01*
X210090920Y-77777023D01*
X210188265Y-77631336D01*
X210255317Y-77469458D01*
X210289500Y-77297608D01*
X210289500Y-77122392D01*
X210255317Y-76950542D01*
X210255315Y-76950537D01*
X210188268Y-76788670D01*
X210188261Y-76788657D01*
X210090920Y-76642977D01*
X210090917Y-76642973D01*
X209967026Y-76519082D01*
X209967022Y-76519079D01*
X209821342Y-76421738D01*
X209821329Y-76421731D01*
X209659462Y-76354684D01*
X209659450Y-76354681D01*
X209487612Y-76320500D01*
X209487608Y-76320500D01*
X209312392Y-76320500D01*
X209312387Y-76320500D01*
X209140549Y-76354681D01*
X209140537Y-76354684D01*
X208978670Y-76421731D01*
X208978657Y-76421738D01*
X208832977Y-76519079D01*
X208832973Y-76519082D01*
X208709082Y-76642973D01*
X208709079Y-76642977D01*
X208611738Y-76788657D01*
X208611731Y-76788670D01*
X208544684Y-76950537D01*
X208544681Y-76950549D01*
X208510500Y-77122387D01*
X192289499Y-77122387D01*
X192255317Y-76950542D01*
X192255315Y-76950537D01*
X192188268Y-76788670D01*
X192188261Y-76788657D01*
X192090920Y-76642977D01*
X192090917Y-76642973D01*
X191967026Y-76519082D01*
X191967022Y-76519079D01*
X191821342Y-76421738D01*
X191821329Y-76421731D01*
X191659462Y-76354684D01*
X191659450Y-76354681D01*
X191487612Y-76320500D01*
X191487608Y-76320500D01*
X191312392Y-76320500D01*
X191312387Y-76320500D01*
X191140549Y-76354681D01*
X191140537Y-76354684D01*
X190978670Y-76421731D01*
X190978657Y-76421738D01*
X190832977Y-76519079D01*
X190832973Y-76519082D01*
X190709082Y-76642973D01*
X190709079Y-76642977D01*
X190611738Y-76788657D01*
X190611731Y-76788670D01*
X190544684Y-76950537D01*
X190544681Y-76950549D01*
X190510500Y-77122387D01*
X175500500Y-77122387D01*
X175500500Y-74582387D01*
X190510500Y-74582387D01*
X190510500Y-74757612D01*
X190544681Y-74929450D01*
X190544684Y-74929462D01*
X190611731Y-75091329D01*
X190611738Y-75091342D01*
X190709079Y-75237022D01*
X190709082Y-75237026D01*
X190832973Y-75360917D01*
X190832977Y-75360920D01*
X190978657Y-75458261D01*
X190978670Y-75458268D01*
X191140537Y-75525315D01*
X191140542Y-75525317D01*
X191312387Y-75559499D01*
X191312391Y-75559500D01*
X191312392Y-75559500D01*
X191487609Y-75559500D01*
X191487610Y-75559499D01*
X191659458Y-75525317D01*
X191821336Y-75458265D01*
X191967023Y-75360920D01*
X192090920Y-75237023D01*
X192188265Y-75091336D01*
X192255317Y-74929458D01*
X192289500Y-74757608D01*
X192289500Y-74582392D01*
X192289499Y-74582387D01*
X208510500Y-74582387D01*
X208510500Y-74757612D01*
X208544681Y-74929450D01*
X208544684Y-74929462D01*
X208611731Y-75091329D01*
X208611738Y-75091342D01*
X208709079Y-75237022D01*
X208709082Y-75237026D01*
X208832973Y-75360917D01*
X208832977Y-75360920D01*
X208978657Y-75458261D01*
X208978670Y-75458268D01*
X209140537Y-75525315D01*
X209140542Y-75525317D01*
X209312387Y-75559499D01*
X209312391Y-75559500D01*
X209312392Y-75559500D01*
X209487609Y-75559500D01*
X209487610Y-75559499D01*
X209659458Y-75525317D01*
X209821336Y-75458265D01*
X209967023Y-75360920D01*
X210090920Y-75237023D01*
X210188265Y-75091336D01*
X210255317Y-74929458D01*
X210289500Y-74757608D01*
X210289500Y-74582392D01*
X210255317Y-74410542D01*
X210255315Y-74410537D01*
X210188268Y-74248670D01*
X210188261Y-74248657D01*
X210090920Y-74102977D01*
X210090917Y-74102973D01*
X209967026Y-73979082D01*
X209967022Y-73979079D01*
X209821342Y-73881738D01*
X209821329Y-73881731D01*
X209659462Y-73814684D01*
X209659450Y-73814681D01*
X209487612Y-73780500D01*
X209487608Y-73780500D01*
X209312392Y-73780500D01*
X209312387Y-73780500D01*
X209140549Y-73814681D01*
X209140537Y-73814684D01*
X208978670Y-73881731D01*
X208978657Y-73881738D01*
X208832977Y-73979079D01*
X208832973Y-73979082D01*
X208709082Y-74102973D01*
X208709079Y-74102977D01*
X208611738Y-74248657D01*
X208611731Y-74248670D01*
X208544684Y-74410537D01*
X208544681Y-74410549D01*
X208510500Y-74582387D01*
X192289499Y-74582387D01*
X192255317Y-74410542D01*
X192255315Y-74410537D01*
X192188268Y-74248670D01*
X192188261Y-74248657D01*
X192090920Y-74102977D01*
X192090917Y-74102973D01*
X191967026Y-73979082D01*
X191967022Y-73979079D01*
X191821342Y-73881738D01*
X191821329Y-73881731D01*
X191659462Y-73814684D01*
X191659450Y-73814681D01*
X191487612Y-73780500D01*
X191487608Y-73780500D01*
X191312392Y-73780500D01*
X191312387Y-73780500D01*
X191140549Y-73814681D01*
X191140537Y-73814684D01*
X190978670Y-73881731D01*
X190978657Y-73881738D01*
X190832977Y-73979079D01*
X190832973Y-73979082D01*
X190709082Y-74102973D01*
X190709079Y-74102977D01*
X190611738Y-74248657D01*
X190611731Y-74248670D01*
X190544684Y-74410537D01*
X190544681Y-74410549D01*
X190510500Y-74582387D01*
X175500500Y-74582387D01*
X175500500Y-68859568D01*
X176499500Y-68859568D01*
X176499500Y-69140431D01*
X176530942Y-69419494D01*
X176530945Y-69419512D01*
X176593439Y-69693317D01*
X176593443Y-69693329D01*
X176686200Y-69958411D01*
X176808053Y-70211442D01*
X176808055Y-70211445D01*
X176957477Y-70449248D01*
X177132584Y-70668825D01*
X177331175Y-70867416D01*
X177550752Y-71042523D01*
X177788555Y-71191945D01*
X178041592Y-71313801D01*
X178240680Y-71383465D01*
X178306670Y-71406556D01*
X178306682Y-71406560D01*
X178580491Y-71469055D01*
X178580497Y-71469055D01*
X178580505Y-71469057D01*
X178766547Y-71490018D01*
X178859569Y-71500499D01*
X178859572Y-71500500D01*
X178859575Y-71500500D01*
X179140428Y-71500500D01*
X179140429Y-71500499D01*
X179283055Y-71484429D01*
X179419494Y-71469057D01*
X179419499Y-71469056D01*
X179419509Y-71469055D01*
X179693318Y-71406560D01*
X179958408Y-71313801D01*
X180211445Y-71191945D01*
X180449248Y-71042523D01*
X180668825Y-70867416D01*
X180867416Y-70668825D01*
X181042523Y-70449248D01*
X181191945Y-70211445D01*
X181313801Y-69958408D01*
X181406560Y-69693318D01*
X181469055Y-69419509D01*
X181500500Y-69140425D01*
X181500500Y-68859575D01*
X181500499Y-68859568D01*
X218499500Y-68859568D01*
X218499500Y-69140431D01*
X218530942Y-69419494D01*
X218530945Y-69419512D01*
X218593439Y-69693317D01*
X218593443Y-69693329D01*
X218686200Y-69958411D01*
X218808053Y-70211442D01*
X218808055Y-70211445D01*
X218957477Y-70449248D01*
X219132584Y-70668825D01*
X219331175Y-70867416D01*
X219550752Y-71042523D01*
X219788555Y-71191945D01*
X220041592Y-71313801D01*
X220240680Y-71383465D01*
X220306670Y-71406556D01*
X220306682Y-71406560D01*
X220580491Y-71469055D01*
X220580497Y-71469055D01*
X220580505Y-71469057D01*
X220766547Y-71490018D01*
X220859569Y-71500499D01*
X220859572Y-71500500D01*
X220859575Y-71500500D01*
X221140428Y-71500500D01*
X221140429Y-71500499D01*
X221283055Y-71484429D01*
X221419494Y-71469057D01*
X221419499Y-71469056D01*
X221419509Y-71469055D01*
X221693318Y-71406560D01*
X221958408Y-71313801D01*
X222211445Y-71191945D01*
X222449248Y-71042523D01*
X222668825Y-70867416D01*
X222867416Y-70668825D01*
X223042523Y-70449248D01*
X223191945Y-70211445D01*
X223313801Y-69958408D01*
X223406560Y-69693318D01*
X223469055Y-69419509D01*
X223500500Y-69140425D01*
X223500500Y-68859575D01*
X223469055Y-68580491D01*
X223406560Y-68306682D01*
X223313801Y-68041592D01*
X223191945Y-67788555D01*
X223042523Y-67550752D01*
X222867416Y-67331175D01*
X222668825Y-67132584D01*
X222449248Y-66957477D01*
X222211445Y-66808055D01*
X222211442Y-66808053D01*
X221958411Y-66686200D01*
X221693329Y-66593443D01*
X221693317Y-66593439D01*
X221419512Y-66530945D01*
X221419494Y-66530942D01*
X221140431Y-66499500D01*
X221140425Y-66499500D01*
X220859575Y-66499500D01*
X220859568Y-66499500D01*
X220580505Y-66530942D01*
X220580487Y-66530945D01*
X220306682Y-66593439D01*
X220306670Y-66593443D01*
X220041588Y-66686200D01*
X219788557Y-66808053D01*
X219550753Y-66957476D01*
X219331175Y-67132583D01*
X219132583Y-67331175D01*
X218957476Y-67550753D01*
X218808053Y-67788557D01*
X218686200Y-68041588D01*
X218593443Y-68306670D01*
X218593439Y-68306682D01*
X218530945Y-68580487D01*
X218530942Y-68580505D01*
X218499500Y-68859568D01*
X181500499Y-68859568D01*
X181469055Y-68580491D01*
X181406560Y-68306682D01*
X181313801Y-68041592D01*
X181191945Y-67788555D01*
X181042523Y-67550752D01*
X180867416Y-67331175D01*
X180668825Y-67132584D01*
X180449248Y-66957477D01*
X180211445Y-66808055D01*
X180211442Y-66808053D01*
X179958411Y-66686200D01*
X179693329Y-66593443D01*
X179693317Y-66593439D01*
X179419512Y-66530945D01*
X179419494Y-66530942D01*
X179140431Y-66499500D01*
X179140425Y-66499500D01*
X178859575Y-66499500D01*
X178859568Y-66499500D01*
X178580505Y-66530942D01*
X178580487Y-66530945D01*
X178306682Y-66593439D01*
X178306670Y-66593443D01*
X178041588Y-66686200D01*
X177788557Y-66808053D01*
X177550753Y-66957476D01*
X177331175Y-67132583D01*
X177132583Y-67331175D01*
X176957476Y-67550753D01*
X176808053Y-67788557D01*
X176686200Y-68041588D01*
X176593443Y-68306670D01*
X176593439Y-68306682D01*
X176530945Y-68580487D01*
X176530942Y-68580505D01*
X176499500Y-68859568D01*
X175500500Y-68859568D01*
X175500500Y-67004427D01*
X175500816Y-66995581D01*
X175514228Y-66808055D01*
X175515131Y-66795434D01*
X175517646Y-66777938D01*
X175559356Y-66586199D01*
X175564333Y-66569248D01*
X175632911Y-66385385D01*
X175640259Y-66369298D01*
X175702815Y-66254734D01*
X175734291Y-66197089D01*
X175743845Y-66182221D01*
X175861448Y-66025123D01*
X175873020Y-66011769D01*
X176011769Y-65873020D01*
X176025123Y-65861448D01*
X176182221Y-65743845D01*
X176197089Y-65734291D01*
X176369298Y-65640258D01*
X176385385Y-65632911D01*
X176569248Y-65564333D01*
X176586199Y-65559356D01*
X176777938Y-65517646D01*
X176795436Y-65515130D01*
X176995582Y-65500816D01*
X177004428Y-65500500D01*
X177065892Y-65500500D01*
X222934108Y-65500500D01*
X222995572Y-65500500D01*
X223004418Y-65500816D01*
G37*
%TD.AperFunction*%
M02*
