%TF.GenerationSoftware,KiCad,Pcbnew,9.0.0*%
%TF.CreationDate,2025-04-21T16:07:22-04:00*%
%TF.ProjectId,brainfreeze,62726169-6e66-4726-9565-7a652e6b6963,rev?*%
%TF.SameCoordinates,Original*%
%TF.FileFunction,Soldermask,Top*%
%TF.FilePolarity,Negative*%
%FSLAX46Y46*%
G04 Gerber Fmt 4.6, Leading zero omitted, Abs format (unit mm)*
G04 Created by KiCad (PCBNEW 9.0.0) date 2025-04-21 16:07:22*
%MOMM*%
%LPD*%
G01*
G04 APERTURE LIST*
G04 Aperture macros list*
%AMRoundRect*
0 Rectangle with rounded corners*
0 $1 Rounding radius*
0 $2 $3 $4 $5 $6 $7 $8 $9 X,Y pos of 4 corners*
0 Add a 4 corners polygon primitive as box body*
4,1,4,$2,$3,$4,$5,$6,$7,$8,$9,$2,$3,0*
0 Add four circle primitives for the rounded corners*
1,1,$1+$1,$2,$3*
1,1,$1+$1,$4,$5*
1,1,$1+$1,$6,$7*
1,1,$1+$1,$8,$9*
0 Add four rect primitives between the rounded corners*
20,1,$1+$1,$2,$3,$4,$5,0*
20,1,$1+$1,$4,$5,$6,$7,0*
20,1,$1+$1,$6,$7,$8,$9,0*
20,1,$1+$1,$8,$9,$2,$3,0*%
G04 Aperture macros list end*
%ADD10RoundRect,0.150000X-0.512500X-0.150000X0.512500X-0.150000X0.512500X0.150000X-0.512500X0.150000X0*%
%ADD11RoundRect,0.250000X-0.250000X-0.475000X0.250000X-0.475000X0.250000X0.475000X-0.250000X0.475000X0*%
%ADD12RoundRect,0.250000X-1.125000X-1.125000X1.125000X-1.125000X1.125000X1.125000X-1.125000X1.125000X0*%
%ADD13RoundRect,0.140000X-0.170000X0.140000X-0.170000X-0.140000X0.170000X-0.140000X0.170000X0.140000X0*%
%ADD14R,1.600000X1.600000*%
%ADD15O,1.600000X1.600000*%
%ADD16RoundRect,0.250001X-0.799999X-0.799999X0.799999X-0.799999X0.799999X0.799999X-0.799999X0.799999X0*%
%ADD17RoundRect,0.250000X0.325000X0.650000X-0.325000X0.650000X-0.325000X-0.650000X0.325000X-0.650000X0*%
%ADD18RoundRect,0.102000X0.900000X0.900000X-0.900000X0.900000X-0.900000X-0.900000X0.900000X-0.900000X0*%
%ADD19C,2.004000*%
%ADD20R,0.558800X1.270000*%
%ADD21C,1.524000*%
%ADD22RoundRect,0.218750X-0.218750X-0.256250X0.218750X-0.256250X0.218750X0.256250X-0.218750X0.256250X0*%
%ADD23RoundRect,0.200000X-0.200000X-0.275000X0.200000X-0.275000X0.200000X0.275000X-0.200000X0.275000X0*%
%ADD24RoundRect,0.250000X-0.375000X-1.075000X0.375000X-1.075000X0.375000X1.075000X-0.375000X1.075000X0*%
G04 APERTURE END LIST*
D10*
X197362500Y-95450000D03*
X197362500Y-96400000D03*
X197362500Y-97350000D03*
X199637500Y-97350000D03*
X199637500Y-96400000D03*
X199637500Y-95450000D03*
D11*
X196450000Y-99900000D03*
X198350000Y-99900000D03*
D12*
X222400000Y-106400000D03*
D13*
X201400000Y-95440000D03*
X201400000Y-96400000D03*
D14*
X193025000Y-112740000D03*
D15*
X192775000Y-115280000D03*
X193025000Y-117820000D03*
X192750000Y-120360000D03*
X193025000Y-122900000D03*
X192750000Y-125440000D03*
X193025000Y-127980000D03*
X192750000Y-130520000D03*
X193025000Y-133060000D03*
X192750000Y-135600000D03*
X193025000Y-138140000D03*
X192750000Y-140680000D03*
X193000000Y-143220000D03*
X192775000Y-145760000D03*
X193000000Y-148300000D03*
X208000000Y-148300000D03*
X208225000Y-145760000D03*
X208000000Y-143220000D03*
X208225000Y-140680000D03*
X208000000Y-138140000D03*
X208225000Y-135600000D03*
X208000000Y-133060000D03*
X208225000Y-130520000D03*
X208000000Y-127980000D03*
X208225000Y-125440000D03*
X208000000Y-122900000D03*
X208225000Y-120360000D03*
X208000000Y-117820000D03*
X208225000Y-115280000D03*
X208000000Y-112740000D03*
D12*
X177400000Y-110400000D03*
D16*
X222400000Y-96900000D03*
D12*
X177400000Y-115900000D03*
D17*
X204375000Y-99900000D03*
X201425000Y-99900000D03*
D18*
X184900000Y-133400000D03*
D19*
X181400000Y-133400000D03*
D20*
X185070002Y-123900000D03*
X186900000Y-123900000D03*
X185985001Y-121969600D03*
D16*
X222400000Y-128000000D03*
D17*
X204375000Y-103400000D03*
X201425000Y-103400000D03*
D21*
X177369900Y-79893400D03*
X177369900Y-82433400D03*
X177369900Y-84973400D03*
X191400000Y-74670000D03*
X191400000Y-74670000D03*
X191400000Y-77210000D03*
X191400000Y-77210000D03*
X191400000Y-79590000D03*
X191400000Y-79590000D03*
X191400000Y-82130000D03*
X191400000Y-82130000D03*
X209400000Y-74670000D03*
X209400000Y-74670000D03*
X209400000Y-77210000D03*
X209400000Y-77210000D03*
X209400000Y-79590000D03*
X209400000Y-79590000D03*
X209400000Y-82130000D03*
X209400000Y-82130000D03*
D12*
X222400000Y-119900000D03*
D22*
X179925000Y-145500000D03*
X181500000Y-145500000D03*
D23*
X186350000Y-145500000D03*
X188000000Y-145500000D03*
D24*
X203400000Y-96400000D03*
X206200000Y-96400000D03*
D21*
X177500000Y-90993400D03*
X177500000Y-93533400D03*
X177500000Y-96073400D03*
D12*
X222400000Y-101900000D03*
X222400000Y-124000000D03*
M02*
