M48
; DRILL file {KiCad 9.0.0} date 2025-04-21T16:07:25-0400
; FORMAT={-:-/ absolute / metric / decimal}
; #@! TF.CreationDate,2025-04-21T16:07:25-04:00
; #@! TF.GenerationSoftware,Kicad,Pcbnew,9.0.0
; #@! TF.FileFunction,Plated,1,4,PTH
FMAT,2
METRIC
; #@! TA.AperFunction,Plated,PTH,ViaDrill
T1C0.330
; #@! TA.AperFunction,Plated,PTH,ComponentDrill
T2C0.762
; #@! TA.AperFunction,Plated,PTH,ComponentDrill
T3C1.000
; #@! TA.AperFunction,Plated,PTH,ComponentDrill
T4C1.016
; #@! TA.AperFunction,Plated,PTH,ComponentDrill
T5C1.100
; #@! TA.AperFunction,Plated,PTH,ComponentDrill
T6C1.200
; #@! TA.AperFunction,Plated,PTH,ComponentDrill
T7C1.750
%
G90
G05
T1
X180.0Y-142.0
X185.7Y-127.8
X188.7Y-124.5
X189.9Y-117.4
X190.4Y-93.9
X194.0Y-94.3
X194.4Y-98.4
X194.4Y-100.4
X195.9Y-92.0
X199.4Y-84.9
X199.4Y-101.9
X199.9Y-98.9
X200.13Y-83.4
X204.9Y-118.9
X208.9Y-101.4
X209.4Y-98.4
X210.4Y-89.9
X210.9Y-100.4
X211.9Y-90.803
X216.4Y-95.4
T2
X191.4Y-74.67
X191.4Y-74.67
X191.4Y-77.21
X191.4Y-77.21
X191.4Y-79.59
X191.4Y-79.59
X191.4Y-82.13
X191.4Y-82.13
X209.4Y-74.67
X209.4Y-74.67
X209.4Y-77.21
X209.4Y-77.21
X209.4Y-79.59
X209.4Y-79.59
X209.4Y-82.13
X209.4Y-82.13
T3
X192.75Y-120.36
X192.75Y-125.44
X192.75Y-130.52
X192.75Y-135.6
X192.75Y-140.68
X192.775Y-115.28
X192.775Y-145.76
X193.0Y-143.22
X193.0Y-148.3
X193.025Y-112.74
X193.025Y-117.82
X193.025Y-122.9
X193.025Y-127.98
X193.025Y-133.06
X193.025Y-138.14
X208.0Y-112.74
X208.0Y-117.82
X208.0Y-122.9
X208.0Y-127.98
X208.0Y-133.06
X208.0Y-138.14
X208.0Y-143.22
X208.0Y-148.3
X208.225Y-115.28
X208.225Y-120.36
X208.225Y-125.44
X208.225Y-130.52
X208.225Y-135.6
X208.225Y-140.68
X208.225Y-145.76
T4
X177.37Y-79.893
X177.37Y-82.433
X177.37Y-84.973
X177.5Y-90.993
X177.5Y-93.533
X177.5Y-96.073
T5
X222.4Y-96.9
X222.4Y-128.0
T6
X181.4Y-133.4
X184.9Y-133.4
T7
X177.4Y-110.4
X177.4Y-115.9
X222.4Y-101.9
X222.4Y-106.4
X222.4Y-119.9
X222.4Y-124.0
M30
