%TF.GenerationSoftware,KiCad,Pcbnew,9.0.0*%
%TF.CreationDate,2025-04-21T16:07:22-04:00*%
%TF.ProjectId,brainfreeze,62726169-6e66-4726-9565-7a652e6b6963,rev?*%
%TF.SameCoordinates,Original*%
%TF.FileFunction,Copper,L4,Bot*%
%TF.FilePolarity,Positive*%
%FSLAX46Y46*%
G04 Gerber Fmt 4.6, Leading zero omitted, Abs format (unit mm)*
G04 Created by KiCad (PCBNEW 9.0.0) date 2025-04-21 16:07:22*
%MOMM*%
%LPD*%
G01*
G04 APERTURE LIST*
G04 Aperture macros list*
%AMRoundRect*
0 Rectangle with rounded corners*
0 $1 Rounding radius*
0 $2 $3 $4 $5 $6 $7 $8 $9 X,Y pos of 4 corners*
0 Add a 4 corners polygon primitive as box body*
4,1,4,$2,$3,$4,$5,$6,$7,$8,$9,$2,$3,0*
0 Add four circle primitives for the rounded corners*
1,1,$1+$1,$2,$3*
1,1,$1+$1,$4,$5*
1,1,$1+$1,$6,$7*
1,1,$1+$1,$8,$9*
0 Add four rect primitives between the rounded corners*
20,1,$1+$1,$2,$3,$4,$5,0*
20,1,$1+$1,$4,$5,$6,$7,0*
20,1,$1+$1,$6,$7,$8,$9,0*
20,1,$1+$1,$8,$9,$2,$3,0*%
G04 Aperture macros list end*
%TA.AperFunction,ComponentPad*%
%ADD10RoundRect,0.250000X-1.125000X-1.125000X1.125000X-1.125000X1.125000X1.125000X-1.125000X1.125000X0*%
%TD*%
%TA.AperFunction,ComponentPad*%
%ADD11R,1.600000X1.600000*%
%TD*%
%TA.AperFunction,ComponentPad*%
%ADD12O,1.600000X1.600000*%
%TD*%
%TA.AperFunction,ComponentPad*%
%ADD13RoundRect,0.250001X-0.799999X-0.799999X0.799999X-0.799999X0.799999X0.799999X-0.799999X0.799999X0*%
%TD*%
%TA.AperFunction,ComponentPad*%
%ADD14R,1.800000X1.800000*%
%TD*%
%TA.AperFunction,ComponentPad*%
%ADD15C,1.800000*%
%TD*%
%TA.AperFunction,ComponentPad*%
%ADD16C,1.524000*%
%TD*%
%TA.AperFunction,ViaPad*%
%ADD17C,0.685800*%
%TD*%
%TA.AperFunction,Conductor*%
%ADD18C,0.254000*%
%TD*%
%TA.AperFunction,Conductor*%
%ADD19C,0.508000*%
%TD*%
G04 APERTURE END LIST*
D10*
X222400000Y-106400000D03*
D11*
X193025000Y-112740000D03*
D12*
X192775000Y-115280000D03*
X193025000Y-117820000D03*
X192750000Y-120360000D03*
X193025000Y-122900000D03*
X192750000Y-125440000D03*
X193025000Y-127980000D03*
X192750000Y-130520000D03*
X193025000Y-133060000D03*
X192750000Y-135600000D03*
X193025000Y-138140000D03*
X192750000Y-140680000D03*
X193000000Y-143220000D03*
X192775000Y-145760000D03*
X193000000Y-148300000D03*
X208000000Y-148300000D03*
X208225000Y-145760000D03*
X208000000Y-143220000D03*
X208225000Y-140680000D03*
X208000000Y-138140000D03*
X208225000Y-135600000D03*
X208000000Y-133060000D03*
X208225000Y-130520000D03*
X208000000Y-127980000D03*
X208225000Y-125440000D03*
X208000000Y-122900000D03*
X208225000Y-120360000D03*
X208000000Y-117820000D03*
X208225000Y-115280000D03*
X208000000Y-112740000D03*
D10*
X177400000Y-110400000D03*
D13*
X222400000Y-96900000D03*
D10*
X177400000Y-115900000D03*
D14*
X184900000Y-133400000D03*
D15*
X181400000Y-133400000D03*
D13*
X222400000Y-128000000D03*
D16*
X177369900Y-79893400D03*
X177369900Y-82433400D03*
X177369900Y-84973400D03*
X191400000Y-74670000D03*
X191400000Y-74670000D03*
X191400000Y-77210000D03*
X191400000Y-77210000D03*
X191400000Y-79590000D03*
X191400000Y-79590000D03*
X191400000Y-82130000D03*
X191400000Y-82130000D03*
X209400000Y-74670000D03*
X209400000Y-74670000D03*
X209400000Y-77210000D03*
X209400000Y-77210000D03*
X209400000Y-79590000D03*
X209400000Y-79590000D03*
X209400000Y-82130000D03*
X209400000Y-82130000D03*
D10*
X222400000Y-119900000D03*
D16*
X177500000Y-90993400D03*
X177500000Y-93533400D03*
X177500000Y-96073400D03*
D10*
X222400000Y-101900000D03*
X222400000Y-124000000D03*
D17*
X208900000Y-101400000D03*
X195900000Y-92000000D03*
X194000000Y-94300000D03*
X209400000Y-98400000D03*
X210400000Y-89900000D03*
X210900000Y-100400000D03*
X200130000Y-83400000D03*
X189900000Y-117400000D03*
X188700000Y-124500000D03*
X199900000Y-98900000D03*
X199400000Y-101900000D03*
X180000000Y-142000000D03*
X216400000Y-95400000D03*
X211900000Y-90803100D03*
X199400000Y-84900000D03*
X190400000Y-93900000D03*
X204900000Y-118900000D03*
X185700000Y-127800000D03*
X194400000Y-100400000D03*
X194400000Y-98400000D03*
D18*
X204940230Y-89900000D02*
X200900000Y-85859770D01*
X200900000Y-85859770D02*
X200900000Y-84170000D01*
X210900000Y-125260000D02*
X208140000Y-128020000D01*
X210900000Y-100400000D02*
X210900000Y-125260000D01*
X200900000Y-84170000D02*
X200130000Y-83400000D01*
X210400000Y-89900000D02*
X204940230Y-89900000D01*
X189900000Y-117400000D02*
X189900000Y-122480000D01*
X189900000Y-122480000D02*
X192900000Y-125480000D01*
X191000000Y-136280000D02*
X192900000Y-138180000D01*
X188700000Y-124500000D02*
X191000000Y-126800000D01*
X191000000Y-126800000D02*
X191000000Y-136280000D01*
X205303100Y-90803100D02*
X211900000Y-90803100D01*
X216400000Y-122300000D02*
X208140000Y-130560000D01*
X216400000Y-95400000D02*
X216400000Y-122300000D01*
X199400000Y-84900000D02*
X205303100Y-90803100D01*
D19*
X190900000Y-104900000D02*
X204900000Y-118900000D01*
X190900000Y-94400000D02*
X190900000Y-104900000D01*
X190400000Y-93900000D02*
X190900000Y-94400000D01*
D18*
X186700000Y-128800000D02*
X189100000Y-128800000D01*
X190400000Y-130000000D02*
X190400000Y-143300000D01*
X190400000Y-143300000D02*
X192900000Y-145800000D01*
X185700000Y-127800000D02*
X186700000Y-128800000D01*
X189100000Y-128800000D02*
X190300000Y-130000000D01*
X190300000Y-130000000D02*
X190400000Y-130000000D01*
M02*
