%TF.GenerationSoftware,KiCad,Pcbnew,9.0.0*%
%TF.CreationDate,2025-04-21T16:07:22-04:00*%
%TF.ProjectId,brainfreeze,62726169-6e66-4726-9565-7a652e6b6963,rev?*%
%TF.SameCoordinates,Original*%
%TF.FileFunction,Copper,L1,Top*%
%TF.FilePolarity,Positive*%
%FSLAX46Y46*%
G04 Gerber Fmt 4.6, Leading zero omitted, Abs format (unit mm)*
G04 Created by KiCad (PCBNEW 9.0.0) date 2025-04-21 16:07:22*
%MOMM*%
%LPD*%
G01*
G04 APERTURE LIST*
G04 Aperture macros list*
%AMRoundRect*
0 Rectangle with rounded corners*
0 $1 Rounding radius*
0 $2 $3 $4 $5 $6 $7 $8 $9 X,Y pos of 4 corners*
0 Add a 4 corners polygon primitive as box body*
4,1,4,$2,$3,$4,$5,$6,$7,$8,$9,$2,$3,0*
0 Add four circle primitives for the rounded corners*
1,1,$1+$1,$2,$3*
1,1,$1+$1,$4,$5*
1,1,$1+$1,$6,$7*
1,1,$1+$1,$8,$9*
0 Add four rect primitives between the rounded corners*
20,1,$1+$1,$2,$3,$4,$5,0*
20,1,$1+$1,$4,$5,$6,$7,0*
20,1,$1+$1,$6,$7,$8,$9,0*
20,1,$1+$1,$8,$9,$2,$3,0*%
G04 Aperture macros list end*
%TA.AperFunction,SMDPad,CuDef*%
%ADD10RoundRect,0.150000X-0.512500X-0.150000X0.512500X-0.150000X0.512500X0.150000X-0.512500X0.150000X0*%
%TD*%
%TA.AperFunction,SMDPad,CuDef*%
%ADD11RoundRect,0.250000X-0.250000X-0.475000X0.250000X-0.475000X0.250000X0.475000X-0.250000X0.475000X0*%
%TD*%
%TA.AperFunction,ComponentPad*%
%ADD12RoundRect,0.250000X-1.125000X-1.125000X1.125000X-1.125000X1.125000X1.125000X-1.125000X1.125000X0*%
%TD*%
%TA.AperFunction,SMDPad,CuDef*%
%ADD13RoundRect,0.140000X-0.170000X0.140000X-0.170000X-0.140000X0.170000X-0.140000X0.170000X0.140000X0*%
%TD*%
%TA.AperFunction,ComponentPad*%
%ADD14R,1.600000X1.600000*%
%TD*%
%TA.AperFunction,ComponentPad*%
%ADD15O,1.600000X1.600000*%
%TD*%
%TA.AperFunction,ComponentPad*%
%ADD16RoundRect,0.250001X-0.799999X-0.799999X0.799999X-0.799999X0.799999X0.799999X-0.799999X0.799999X0*%
%TD*%
%TA.AperFunction,SMDPad,CuDef*%
%ADD17RoundRect,0.250000X0.325000X0.650000X-0.325000X0.650000X-0.325000X-0.650000X0.325000X-0.650000X0*%
%TD*%
%TA.AperFunction,ComponentPad*%
%ADD18R,1.800000X1.800000*%
%TD*%
%TA.AperFunction,ComponentPad*%
%ADD19C,1.800000*%
%TD*%
%TA.AperFunction,SMDPad,CuDef*%
%ADD20R,0.558800X1.270000*%
%TD*%
%TA.AperFunction,ComponentPad*%
%ADD21C,1.524000*%
%TD*%
%TA.AperFunction,SMDPad,CuDef*%
%ADD22RoundRect,0.218750X-0.218750X-0.256250X0.218750X-0.256250X0.218750X0.256250X-0.218750X0.256250X0*%
%TD*%
%TA.AperFunction,SMDPad,CuDef*%
%ADD23RoundRect,0.200000X-0.200000X-0.275000X0.200000X-0.275000X0.200000X0.275000X-0.200000X0.275000X0*%
%TD*%
%TA.AperFunction,SMDPad,CuDef*%
%ADD24RoundRect,0.250000X-0.375000X-1.075000X0.375000X-1.075000X0.375000X1.075000X-0.375000X1.075000X0*%
%TD*%
%TA.AperFunction,ViaPad*%
%ADD25C,0.685800*%
%TD*%
%TA.AperFunction,Conductor*%
%ADD26C,0.762000*%
%TD*%
%TA.AperFunction,Conductor*%
%ADD27C,0.800000*%
%TD*%
%TA.AperFunction,Conductor*%
%ADD28C,0.254000*%
%TD*%
%TA.AperFunction,Conductor*%
%ADD29C,0.508000*%
%TD*%
G04 APERTURE END LIST*
D10*
X197362500Y-95450000D03*
X197362500Y-96400000D03*
X197362500Y-97350000D03*
X199637500Y-97350000D03*
X199637500Y-96400000D03*
X199637500Y-95450000D03*
D11*
X196450000Y-99900000D03*
X198350000Y-99900000D03*
D12*
X222400000Y-106400000D03*
D13*
X201400000Y-95440000D03*
X201400000Y-96400000D03*
D14*
X193025000Y-112740000D03*
D15*
X192775000Y-115280000D03*
X193025000Y-117820000D03*
X192750000Y-120360000D03*
X193025000Y-122900000D03*
X192750000Y-125440000D03*
X193025000Y-127980000D03*
X192750000Y-130520000D03*
X193025000Y-133060000D03*
X192750000Y-135600000D03*
X193025000Y-138140000D03*
X192750000Y-140680000D03*
X193000000Y-143220000D03*
X192775000Y-145760000D03*
X193000000Y-148300000D03*
X208000000Y-148300000D03*
X208225000Y-145760000D03*
X208000000Y-143220000D03*
X208225000Y-140680000D03*
X208000000Y-138140000D03*
X208225000Y-135600000D03*
X208000000Y-133060000D03*
X208225000Y-130520000D03*
X208000000Y-127980000D03*
X208225000Y-125440000D03*
X208000000Y-122900000D03*
X208225000Y-120360000D03*
X208000000Y-117820000D03*
X208225000Y-115280000D03*
X208000000Y-112740000D03*
D12*
X177400000Y-110400000D03*
D16*
X222400000Y-96900000D03*
D12*
X177400000Y-115900000D03*
D17*
X204375000Y-99900000D03*
X201425000Y-99900000D03*
D18*
X184900000Y-133400000D03*
D19*
X181400000Y-133400000D03*
D20*
X185070002Y-123900000D03*
X186900000Y-123900000D03*
X185985001Y-121969600D03*
D16*
X222400000Y-128000000D03*
D17*
X204375000Y-103400000D03*
X201425000Y-103400000D03*
D21*
X177369900Y-79893400D03*
X177369900Y-82433400D03*
X177369900Y-84973400D03*
X191400000Y-74670000D03*
X191400000Y-74670000D03*
X191400000Y-77210000D03*
X191400000Y-77210000D03*
X191400000Y-79590000D03*
X191400000Y-79590000D03*
X191400000Y-82130000D03*
X191400000Y-82130000D03*
X209400000Y-74670000D03*
X209400000Y-74670000D03*
X209400000Y-77210000D03*
X209400000Y-77210000D03*
X209400000Y-79590000D03*
X209400000Y-79590000D03*
X209400000Y-82130000D03*
X209400000Y-82130000D03*
D12*
X222400000Y-119900000D03*
D22*
X179925000Y-145500000D03*
X181500000Y-145500000D03*
D23*
X186350000Y-145500000D03*
X188000000Y-145500000D03*
D24*
X203400000Y-96400000D03*
X206200000Y-96400000D03*
D21*
X177500000Y-90993400D03*
X177500000Y-93533400D03*
X177500000Y-96073400D03*
D12*
X222400000Y-101900000D03*
X222400000Y-124000000D03*
D25*
X208900000Y-101400000D03*
X195900000Y-92000000D03*
X194000000Y-94300000D03*
X209400000Y-98400000D03*
X210400000Y-89900000D03*
X210900000Y-100400000D03*
X200130000Y-83400000D03*
X189900000Y-117400000D03*
X188700000Y-124500000D03*
X199900000Y-98900000D03*
X199400000Y-101900000D03*
X180000000Y-142000000D03*
X216400000Y-95400000D03*
X211900000Y-90803100D03*
X199400000Y-84900000D03*
X190400000Y-93900000D03*
X204900000Y-118900000D03*
X185700000Y-127800000D03*
X194400000Y-100400000D03*
X194400000Y-98400000D03*
D26*
X197362500Y-93900000D02*
X197362500Y-93462500D01*
X197362500Y-94900000D02*
X197362500Y-94437500D01*
X197362500Y-95450000D02*
X197362500Y-94900000D01*
X194400000Y-93900000D02*
X194000000Y-94300000D01*
X204375000Y-103400000D02*
X204375000Y-99900000D01*
X197362500Y-94437500D02*
X198400000Y-93400000D01*
X197362500Y-94900000D02*
X197362500Y-93900000D01*
X204725000Y-99900000D02*
X206200000Y-98425000D01*
X206200000Y-95300000D02*
X206200000Y-96400000D01*
X197362500Y-93462500D02*
X195900000Y-92000000D01*
X204375000Y-99900000D02*
X207400000Y-99900000D01*
X198400000Y-93400000D02*
X204300000Y-93400000D01*
X207400000Y-99900000D02*
X208900000Y-101400000D01*
X197362500Y-93900000D02*
X194400000Y-93900000D01*
X204300000Y-93400000D02*
X206200000Y-95300000D01*
X206200000Y-98425000D02*
X206200000Y-96400000D01*
X206200000Y-96400000D02*
X207400000Y-96400000D01*
D27*
X207400000Y-96400000D02*
X209400000Y-98400000D01*
D28*
X210900000Y-90400000D02*
X210900000Y-100400000D01*
X200130000Y-83400000D02*
X191400000Y-74670000D01*
X210400000Y-89900000D02*
X210900000Y-90400000D01*
X190400000Y-95900000D02*
X189900000Y-96400000D01*
X209400000Y-82130000D02*
X204170000Y-82130000D01*
X204170000Y-82130000D02*
X190400000Y-95900000D01*
X189900000Y-96400000D02*
X189900000Y-117400000D01*
X222400000Y-128000000D02*
X222240000Y-128160000D01*
D29*
X222400000Y-134080000D02*
X222400000Y-128000000D01*
X208140000Y-148340000D02*
X222400000Y-134080000D01*
D28*
X177000000Y-93533400D02*
X188700000Y-105233400D01*
X188700000Y-105233400D02*
X188700000Y-124500000D01*
X179925000Y-142075000D02*
X180000000Y-142000000D01*
X179925000Y-145500000D02*
X179925000Y-142075000D01*
X192900000Y-132900000D02*
X192900000Y-133100000D01*
X211900000Y-90803100D02*
X211900000Y-90900000D01*
X199400000Y-84900000D02*
X199090000Y-84900000D01*
X211900000Y-90900000D02*
X216400000Y-95400000D01*
X199090000Y-84900000D02*
X191400000Y-77210000D01*
D29*
X189400000Y-81590000D02*
X191400000Y-79590000D01*
X204900000Y-118900000D02*
X204900000Y-142560000D01*
X189400000Y-88900000D02*
X189400000Y-81590000D01*
X190383000Y-89883000D02*
X189400000Y-88900000D01*
D28*
X190400000Y-89900000D02*
X190383000Y-89883000D01*
D29*
X190400000Y-93900000D02*
X190400000Y-89900000D01*
X204900000Y-142560000D02*
X208140000Y-145800000D01*
D28*
X191300000Y-148300000D02*
X193000000Y-148300000D01*
X188500000Y-145500000D02*
X191300000Y-148300000D01*
X188000000Y-145500000D02*
X188500000Y-145500000D01*
X185070002Y-123900000D02*
X185070002Y-127170002D01*
X185070002Y-127170002D02*
X185700000Y-127800000D01*
X192980000Y-115400000D02*
X192900000Y-115320000D01*
X222400000Y-96900000D02*
X216900000Y-96900000D01*
X198400000Y-115400000D02*
X192980000Y-115400000D01*
X216900000Y-96900000D02*
X198400000Y-115400000D01*
D26*
X203400000Y-96400000D02*
X202440000Y-95440000D01*
X201390000Y-95450000D02*
X201400000Y-95440000D01*
D29*
X199637500Y-95450000D02*
X201390000Y-95450000D01*
D26*
X202440000Y-95440000D02*
X201400000Y-95440000D01*
D29*
X199637500Y-96400000D02*
X201400000Y-96400000D01*
D26*
X196450000Y-98262500D02*
X197362500Y-97350000D01*
X177400000Y-110400000D02*
X182900000Y-110400000D01*
X196450000Y-99900000D02*
X196450000Y-98262500D01*
X196450000Y-99900000D02*
X195900000Y-99900000D01*
X182900000Y-110400000D02*
X185985001Y-113485001D01*
X197362500Y-97350000D02*
X197362500Y-97437500D01*
X194900000Y-99900000D02*
X194400000Y-100400000D01*
X196450000Y-99900000D02*
X194900000Y-99900000D01*
X185985001Y-113485001D02*
X185985001Y-121969600D01*
X195900000Y-99900000D02*
X194400000Y-98400000D01*
X197362500Y-96400000D02*
X197362500Y-97350000D01*
D28*
X181500000Y-145500000D02*
X186350000Y-145500000D01*
D29*
X186900000Y-131400000D02*
X184900000Y-133400000D01*
X186900000Y-123900000D02*
X186900000Y-131400000D01*
D28*
X189302100Y-94865600D02*
X189302100Y-137122100D01*
X176869900Y-82433400D02*
X189302100Y-94865600D01*
X189302100Y-137122100D02*
X192900000Y-140720000D01*
%TA.AperFunction,Conductor*%
G36*
X201280039Y-96919685D02*
G01*
X201312200Y-96949600D01*
X201758203Y-97544271D01*
X201782494Y-97607445D01*
X201851342Y-98364774D01*
X201837807Y-98433320D01*
X201789363Y-98483668D01*
X201727851Y-98500000D01*
X201675000Y-98500000D01*
X201675000Y-101299999D01*
X201799972Y-101299999D01*
X201799986Y-101299998D01*
X201902695Y-101289506D01*
X201962606Y-101269653D01*
X202032434Y-101267251D01*
X202092476Y-101302982D01*
X202123670Y-101365502D01*
X202125102Y-101376133D01*
X202174338Y-101917730D01*
X202160803Y-101986276D01*
X202112359Y-102036624D01*
X202044385Y-102052787D01*
X202011843Y-102046662D01*
X201902697Y-102010494D01*
X201902690Y-102010493D01*
X201799986Y-102000000D01*
X201675000Y-102000000D01*
X201675000Y-103276000D01*
X201655315Y-103343039D01*
X201602511Y-103388794D01*
X201551000Y-103400000D01*
X201425000Y-103400000D01*
X201425000Y-103526000D01*
X201405315Y-103593039D01*
X201352511Y-103638794D01*
X201301000Y-103650000D01*
X200350000Y-103650000D01*
X200350000Y-103676922D01*
X200330315Y-103743961D01*
X200277511Y-103789716D01*
X200208353Y-103799660D01*
X200146617Y-103772181D01*
X198970548Y-102792123D01*
X198860016Y-102700013D01*
X200350000Y-102700013D01*
X200350000Y-103150000D01*
X201175000Y-103150000D01*
X201175000Y-102000000D01*
X201050027Y-102000000D01*
X201050012Y-102000001D01*
X200947302Y-102010494D01*
X200780880Y-102065641D01*
X200780875Y-102065643D01*
X200631654Y-102157684D01*
X200507684Y-102281654D01*
X200415643Y-102430875D01*
X200415641Y-102430880D01*
X200360494Y-102597302D01*
X200360493Y-102597309D01*
X200350000Y-102700013D01*
X198860016Y-102700013D01*
X197944617Y-101937180D01*
X197905718Y-101879141D01*
X197900000Y-101841921D01*
X197900000Y-101246987D01*
X197919685Y-101179948D01*
X197972489Y-101134193D01*
X198036605Y-101123629D01*
X198050021Y-101124999D01*
X198600000Y-101124999D01*
X198649972Y-101124999D01*
X198649986Y-101124998D01*
X198752697Y-101114505D01*
X198919119Y-101059358D01*
X198919124Y-101059356D01*
X199068345Y-100967315D01*
X199192315Y-100843345D01*
X199284356Y-100694124D01*
X199284358Y-100694119D01*
X199315551Y-100599986D01*
X200350001Y-100599986D01*
X200360494Y-100702697D01*
X200415641Y-100869119D01*
X200415643Y-100869124D01*
X200507684Y-101018345D01*
X200631654Y-101142315D01*
X200780875Y-101234356D01*
X200780880Y-101234358D01*
X200947302Y-101289505D01*
X200947309Y-101289506D01*
X201050019Y-101299999D01*
X201174999Y-101299999D01*
X201175000Y-101299998D01*
X201175000Y-100150000D01*
X200350001Y-100150000D01*
X200350001Y-100599986D01*
X199315551Y-100599986D01*
X199339505Y-100527697D01*
X199339506Y-100527690D01*
X199349999Y-100424986D01*
X199350000Y-100424973D01*
X199350000Y-100150000D01*
X198600000Y-100150000D01*
X198600000Y-101124999D01*
X198050021Y-101124999D01*
X198099999Y-101124998D01*
X198100000Y-101124998D01*
X198100000Y-99650000D01*
X198600000Y-99650000D01*
X199349999Y-99650000D01*
X199349999Y-99375028D01*
X199349998Y-99375013D01*
X199339505Y-99272300D01*
X199327436Y-99235878D01*
X199327432Y-99235868D01*
X199315551Y-99200013D01*
X200350000Y-99200013D01*
X200350000Y-99650000D01*
X201175000Y-99650000D01*
X201175000Y-98500000D01*
X201050027Y-98500000D01*
X201050012Y-98500001D01*
X200947302Y-98510494D01*
X200780880Y-98565641D01*
X200780875Y-98565643D01*
X200631654Y-98657684D01*
X200507684Y-98781654D01*
X200415643Y-98930875D01*
X200415641Y-98930880D01*
X200360494Y-99097302D01*
X200360493Y-99097309D01*
X200350000Y-99200013D01*
X199315551Y-99200013D01*
X199284358Y-99105880D01*
X199284356Y-99105875D01*
X199192315Y-98956654D01*
X199068345Y-98832684D01*
X198919124Y-98740643D01*
X198919119Y-98740641D01*
X198752697Y-98685494D01*
X198752690Y-98685493D01*
X198649986Y-98675000D01*
X198600000Y-98675000D01*
X198600000Y-99650000D01*
X198100000Y-99650000D01*
X198100000Y-98670958D01*
X198071377Y-98618537D01*
X198074943Y-98568696D01*
X198076362Y-98548847D01*
X198081624Y-98536750D01*
X198392774Y-97914451D01*
X198440357Y-97863297D01*
X198508049Y-97845987D01*
X198574353Y-97868022D01*
X198600957Y-97896617D01*
X198602537Y-97895393D01*
X198607321Y-97901561D01*
X198723438Y-98017678D01*
X198723447Y-98017685D01*
X198864803Y-98101282D01*
X198864806Y-98101283D01*
X199022504Y-98147099D01*
X199022510Y-98147100D01*
X199059350Y-98149999D01*
X199059366Y-98150000D01*
X199387500Y-98150000D01*
X199887500Y-98150000D01*
X200215634Y-98150000D01*
X200215649Y-98149999D01*
X200252489Y-98147100D01*
X200252495Y-98147099D01*
X200410193Y-98101283D01*
X200410196Y-98101282D01*
X200551552Y-98017685D01*
X200551561Y-98017678D01*
X200667678Y-97901561D01*
X200667685Y-97901552D01*
X200751281Y-97760198D01*
X200797100Y-97602486D01*
X200797295Y-97600001D01*
X200797295Y-97600000D01*
X199887500Y-97600000D01*
X199887500Y-98150000D01*
X199387500Y-98150000D01*
X199387500Y-97474000D01*
X199407185Y-97406961D01*
X199459989Y-97361206D01*
X199511500Y-97350000D01*
X199637500Y-97350000D01*
X199637500Y-97224000D01*
X199657185Y-97156961D01*
X199709989Y-97111206D01*
X199761500Y-97100000D01*
X200797295Y-97100000D01*
X200797295Y-97099998D01*
X200797100Y-97097511D01*
X200785794Y-97058594D01*
X200785994Y-96988724D01*
X200823937Y-96930055D01*
X200887576Y-96901212D01*
X200904871Y-96900000D01*
X201213000Y-96900000D01*
X201280039Y-96919685D01*
G37*
%TD.AperFunction*%
M02*
