%TF.GenerationSoftware,KiCad,Pcbnew,9.0.0*%
%TF.CreationDate,2025-04-21T16:07:22-04:00*%
%TF.ProjectId,brainfreeze,62726169-6e66-4726-9565-7a652e6b6963,rev?*%
%TF.SameCoordinates,Original*%
%TF.FileFunction,Copper,L2,Inr*%
%TF.FilePolarity,Positive*%
%FSLAX46Y46*%
G04 Gerber Fmt 4.6, Leading zero omitted, Abs format (unit mm)*
G04 Created by KiCad (PCBNEW 9.0.0) date 2025-04-21 16:07:22*
%MOMM*%
%LPD*%
G01*
G04 APERTURE LIST*
G04 Aperture macros list*
%AMRoundRect*
0 Rectangle with rounded corners*
0 $1 Rounding radius*
0 $2 $3 $4 $5 $6 $7 $8 $9 X,Y pos of 4 corners*
0 Add a 4 corners polygon primitive as box body*
4,1,4,$2,$3,$4,$5,$6,$7,$8,$9,$2,$3,0*
0 Add four circle primitives for the rounded corners*
1,1,$1+$1,$2,$3*
1,1,$1+$1,$4,$5*
1,1,$1+$1,$6,$7*
1,1,$1+$1,$8,$9*
0 Add four rect primitives between the rounded corners*
20,1,$1+$1,$2,$3,$4,$5,0*
20,1,$1+$1,$4,$5,$6,$7,0*
20,1,$1+$1,$6,$7,$8,$9,0*
20,1,$1+$1,$8,$9,$2,$3,0*%
G04 Aperture macros list end*
%TA.AperFunction,ComponentPad*%
%ADD10RoundRect,0.250000X-1.125000X-1.125000X1.125000X-1.125000X1.125000X1.125000X-1.125000X1.125000X0*%
%TD*%
%TA.AperFunction,ComponentPad*%
%ADD11R,1.600000X1.600000*%
%TD*%
%TA.AperFunction,ComponentPad*%
%ADD12O,1.600000X1.600000*%
%TD*%
%TA.AperFunction,ComponentPad*%
%ADD13RoundRect,0.250001X-0.799999X-0.799999X0.799999X-0.799999X0.799999X0.799999X-0.799999X0.799999X0*%
%TD*%
%TA.AperFunction,ComponentPad*%
%ADD14R,1.800000X1.800000*%
%TD*%
%TA.AperFunction,ComponentPad*%
%ADD15C,1.800000*%
%TD*%
%TA.AperFunction,ComponentPad*%
%ADD16C,1.524000*%
%TD*%
%TA.AperFunction,ViaPad*%
%ADD17C,0.685800*%
%TD*%
G04 APERTURE END LIST*
D10*
X222400000Y-106400000D03*
D11*
X193025000Y-112740000D03*
D12*
X192775000Y-115280000D03*
X193025000Y-117820000D03*
X192750000Y-120360000D03*
X193025000Y-122900000D03*
X192750000Y-125440000D03*
X193025000Y-127980000D03*
X192750000Y-130520000D03*
X193025000Y-133060000D03*
X192750000Y-135600000D03*
X193025000Y-138140000D03*
X192750000Y-140680000D03*
X193000000Y-143220000D03*
X192775000Y-145760000D03*
X193000000Y-148300000D03*
X208000000Y-148300000D03*
X208225000Y-145760000D03*
X208000000Y-143220000D03*
X208225000Y-140680000D03*
X208000000Y-138140000D03*
X208225000Y-135600000D03*
X208000000Y-133060000D03*
X208225000Y-130520000D03*
X208000000Y-127980000D03*
X208225000Y-125440000D03*
X208000000Y-122900000D03*
X208225000Y-120360000D03*
X208000000Y-117820000D03*
X208225000Y-115280000D03*
X208000000Y-112740000D03*
D10*
X177400000Y-110400000D03*
D13*
X222400000Y-96900000D03*
D10*
X177400000Y-115900000D03*
D14*
X184900000Y-133400000D03*
D15*
X181400000Y-133400000D03*
D13*
X222400000Y-128000000D03*
D16*
X177369900Y-79893400D03*
X177369900Y-82433400D03*
X177369900Y-84973400D03*
X191400000Y-74670000D03*
X191400000Y-74670000D03*
X191400000Y-77210000D03*
X191400000Y-77210000D03*
X191400000Y-79590000D03*
X191400000Y-79590000D03*
X191400000Y-82130000D03*
X191400000Y-82130000D03*
X209400000Y-74670000D03*
X209400000Y-74670000D03*
X209400000Y-77210000D03*
X209400000Y-77210000D03*
X209400000Y-79590000D03*
X209400000Y-79590000D03*
X209400000Y-82130000D03*
X209400000Y-82130000D03*
D10*
X222400000Y-119900000D03*
D16*
X177500000Y-90993400D03*
X177500000Y-93533400D03*
X177500000Y-96073400D03*
D10*
X222400000Y-101900000D03*
X222400000Y-124000000D03*
D17*
X208900000Y-101400000D03*
X195900000Y-92000000D03*
X194000000Y-94300000D03*
X209400000Y-98400000D03*
X210400000Y-89900000D03*
X210900000Y-100400000D03*
X200130000Y-83400000D03*
X189900000Y-117400000D03*
X188700000Y-124500000D03*
X199900000Y-98900000D03*
X199400000Y-101900000D03*
X180000000Y-142000000D03*
X216400000Y-95400000D03*
X211900000Y-90803100D03*
X199400000Y-84900000D03*
X190400000Y-93900000D03*
X204900000Y-118900000D03*
X185700000Y-127800000D03*
X194400000Y-100400000D03*
X194400000Y-98400000D03*
%TA.AperFunction,Conductor*%
G36*
X207954381Y-95916994D02*
G01*
X215900000Y-98400000D01*
X224389988Y-99398822D01*
X224454269Y-99426205D01*
X224493540Y-99483993D01*
X224499500Y-99521973D01*
X224499500Y-100563043D01*
X224479815Y-100630082D01*
X224427011Y-100675837D01*
X224357853Y-100685781D01*
X224294297Y-100656756D01*
X224257794Y-100602047D01*
X224209358Y-100455880D01*
X224209356Y-100455875D01*
X224117315Y-100306654D01*
X223993345Y-100182684D01*
X223844124Y-100090643D01*
X223844119Y-100090641D01*
X223677697Y-100035494D01*
X223677690Y-100035493D01*
X223574986Y-100025000D01*
X222650000Y-100025000D01*
X222650000Y-101057586D01*
X222486180Y-101025000D01*
X222313820Y-101025000D01*
X222150000Y-101057586D01*
X222150000Y-100025000D01*
X221225028Y-100025000D01*
X221225012Y-100025001D01*
X221122302Y-100035494D01*
X220955880Y-100090641D01*
X220955875Y-100090643D01*
X220806654Y-100182684D01*
X220682684Y-100306654D01*
X220590643Y-100455875D01*
X220590641Y-100455880D01*
X220535494Y-100622302D01*
X220535493Y-100622309D01*
X220525000Y-100725013D01*
X220525000Y-101650000D01*
X221557586Y-101650000D01*
X221525000Y-101813820D01*
X221525000Y-101986180D01*
X221557586Y-102150000D01*
X220525001Y-102150000D01*
X220525001Y-103074986D01*
X220535494Y-103177697D01*
X220590641Y-103344119D01*
X220590643Y-103344124D01*
X220682684Y-103493345D01*
X220806654Y-103617315D01*
X220955875Y-103709356D01*
X220955880Y-103709358D01*
X221122302Y-103764505D01*
X221122309Y-103764506D01*
X221225019Y-103774999D01*
X222149999Y-103774999D01*
X222150000Y-103774998D01*
X222150000Y-102742413D01*
X222313820Y-102775000D01*
X222486180Y-102775000D01*
X222650000Y-102742413D01*
X222650000Y-103774999D01*
X223574972Y-103774999D01*
X223574986Y-103774998D01*
X223677697Y-103764505D01*
X223844119Y-103709358D01*
X223844124Y-103709356D01*
X223993345Y-103617315D01*
X224117315Y-103493345D01*
X224209356Y-103344124D01*
X224209358Y-103344119D01*
X224257794Y-103197950D01*
X224297566Y-103140505D01*
X224362082Y-103113682D01*
X224430858Y-103125997D01*
X224482058Y-103173540D01*
X224499500Y-103236954D01*
X224499500Y-104161914D01*
X224479815Y-104228953D01*
X224427011Y-104274708D01*
X224381692Y-104285759D01*
X220902606Y-104459714D01*
X220895271Y-104459864D01*
X218247777Y-104435462D01*
X218152785Y-104434587D01*
X216670848Y-100708356D01*
X211287557Y-103400000D01*
X211775461Y-104375809D01*
X204022857Y-104304358D01*
X203956002Y-104284056D01*
X203910736Y-104230833D01*
X203900000Y-104180363D01*
X203900000Y-100338071D01*
X210429600Y-100338071D01*
X210429600Y-100461929D01*
X210461657Y-100581568D01*
X210523586Y-100688832D01*
X210611168Y-100776414D01*
X210718432Y-100838343D01*
X210838071Y-100870400D01*
X210838073Y-100870400D01*
X210961927Y-100870400D01*
X210961929Y-100870400D01*
X211081568Y-100838343D01*
X211188832Y-100776414D01*
X211276414Y-100688832D01*
X211338343Y-100581568D01*
X211370400Y-100461929D01*
X211370400Y-100338071D01*
X211338343Y-100218432D01*
X211276414Y-100111168D01*
X211188832Y-100023586D01*
X211081568Y-99961657D01*
X210961929Y-99929600D01*
X210838071Y-99929600D01*
X210718432Y-99961657D01*
X210718429Y-99961658D01*
X210611171Y-100023584D01*
X210611165Y-100023588D01*
X210523588Y-100111165D01*
X210523584Y-100111171D01*
X210461658Y-100218429D01*
X210461657Y-100218432D01*
X210429600Y-100338071D01*
X203900000Y-100338071D01*
X203900000Y-98468727D01*
X203919685Y-98401688D01*
X203958280Y-98363575D01*
X207851682Y-95930198D01*
X207918962Y-95911361D01*
X207954381Y-95916994D01*
G37*
%TD.AperFunction*%
%TA.AperFunction,Conductor*%
G36*
X207065576Y-119547018D02*
G01*
X207107119Y-119603196D01*
X207111695Y-119672915D01*
X207101170Y-119702142D01*
X207020245Y-119860967D01*
X206957009Y-120055586D01*
X206948391Y-120110000D01*
X207791988Y-120110000D01*
X207759075Y-120167007D01*
X207725000Y-120294174D01*
X207725000Y-120425826D01*
X207759075Y-120552993D01*
X207791988Y-120610000D01*
X206948391Y-120610000D01*
X206957009Y-120664413D01*
X207020244Y-120859029D01*
X207113140Y-121041349D01*
X207233417Y-121206894D01*
X207233417Y-121206895D01*
X207378104Y-121351582D01*
X207543650Y-121471859D01*
X207725968Y-121564754D01*
X207920578Y-121627988D01*
X207975000Y-121636607D01*
X207975000Y-120793012D01*
X208032007Y-120825925D01*
X208159174Y-120860000D01*
X208290826Y-120860000D01*
X208417993Y-120825925D01*
X208475000Y-120793012D01*
X208475000Y-121636607D01*
X208496482Y-121654955D01*
X208534675Y-121713462D01*
X208535173Y-121783330D01*
X208497819Y-121842376D01*
X208447070Y-121869277D01*
X208157353Y-121944389D01*
X208064230Y-121968532D01*
X208033112Y-121972500D01*
X207908644Y-121972500D01*
X207729465Y-122008141D01*
X207729457Y-122008143D01*
X207560664Y-122078059D01*
X207526693Y-122100757D01*
X207488925Y-122117684D01*
X206457770Y-122385021D01*
X206387936Y-122382790D01*
X206352251Y-122364189D01*
X204555201Y-121016401D01*
X204513380Y-120960430D01*
X204508459Y-120890734D01*
X204541999Y-120829441D01*
X204570809Y-120808025D01*
X206931899Y-119536669D01*
X207000255Y-119522218D01*
X207065576Y-119547018D01*
G37*
%TD.AperFunction*%
%TA.AperFunction,Conductor*%
G36*
X220989714Y-118079429D02*
G01*
X220955878Y-118090642D01*
X220955875Y-118090643D01*
X220806654Y-118182684D01*
X220682684Y-118306654D01*
X220590643Y-118455875D01*
X220590641Y-118455880D01*
X220535494Y-118622302D01*
X220535493Y-118622309D01*
X220525000Y-118725013D01*
X220525000Y-118737961D01*
X219136524Y-119097937D01*
X208893207Y-121753612D01*
X208823373Y-121751381D01*
X208765831Y-121711750D01*
X208738849Y-121647300D01*
X208750995Y-121578494D01*
X208798412Y-121527178D01*
X208805794Y-121523095D01*
X208906347Y-121471861D01*
X209071894Y-121351582D01*
X209071895Y-121351582D01*
X209216582Y-121206895D01*
X209216582Y-121206894D01*
X209336859Y-121041349D01*
X209429755Y-120859029D01*
X209492990Y-120664413D01*
X209501609Y-120610000D01*
X208658012Y-120610000D01*
X208690925Y-120552993D01*
X208725000Y-120425826D01*
X208725000Y-120294174D01*
X208690925Y-120167007D01*
X208658012Y-120110000D01*
X209501609Y-120110000D01*
X209492990Y-120055586D01*
X209429755Y-119860970D01*
X209336859Y-119678650D01*
X209216582Y-119513105D01*
X209216582Y-119513104D01*
X209071895Y-119368417D01*
X208906349Y-119248140D01*
X208724029Y-119155244D01*
X208529413Y-119092009D01*
X208475000Y-119083390D01*
X208475000Y-119926988D01*
X208417993Y-119894075D01*
X208290826Y-119860000D01*
X208159174Y-119860000D01*
X208032007Y-119894075D01*
X207975000Y-119926988D01*
X207975000Y-119047687D01*
X207994685Y-118980648D01*
X208039354Y-118940347D01*
X218581818Y-113263636D01*
X220989714Y-118079429D01*
G37*
%TD.AperFunction*%
%TA.AperFunction,Conductor*%
G36*
X177650000Y-112274999D02*
G01*
X178408291Y-112274999D01*
X178475330Y-112294684D01*
X178521085Y-112347488D01*
X178531029Y-112416646D01*
X178502004Y-112480202D01*
X178443226Y-112517976D01*
X178423671Y-112522041D01*
X175639880Y-112870014D01*
X175570917Y-112858797D01*
X175518966Y-112812076D01*
X175500500Y-112746972D01*
X175500500Y-112110523D01*
X175520185Y-112043484D01*
X175572989Y-111997729D01*
X175642147Y-111987785D01*
X175705703Y-112016810D01*
X175712181Y-112022842D01*
X175806654Y-112117315D01*
X175955875Y-112209356D01*
X175955880Y-112209358D01*
X176122302Y-112264505D01*
X176122309Y-112264506D01*
X176225019Y-112274999D01*
X177149999Y-112274999D01*
X177150000Y-112274998D01*
X177150000Y-111242413D01*
X177313820Y-111275000D01*
X177486180Y-111275000D01*
X177650000Y-111242413D01*
X177650000Y-112274999D01*
G37*
%TD.AperFunction*%
%TA.AperFunction,Conductor*%
G36*
X194912057Y-97418923D02*
G01*
X194939786Y-97439786D01*
X195400000Y-97900000D01*
X197288941Y-98372235D01*
X197349205Y-98407592D01*
X197380787Y-98469916D01*
X197381180Y-98512918D01*
X196909158Y-101345048D01*
X196878720Y-101407940D01*
X196852834Y-101429646D01*
X179423299Y-112385354D01*
X179372690Y-112403413D01*
X178837542Y-112470307D01*
X178768579Y-112459090D01*
X178716628Y-112412369D01*
X178698183Y-112344978D01*
X178719101Y-112278313D01*
X178772740Y-112233540D01*
X178783158Y-112229559D01*
X178844119Y-112209358D01*
X178844124Y-112209356D01*
X178993345Y-112117315D01*
X179117315Y-111993345D01*
X179209356Y-111844124D01*
X179209358Y-111844119D01*
X179264505Y-111677697D01*
X179264506Y-111677690D01*
X179274999Y-111574986D01*
X179275000Y-111574973D01*
X179275000Y-110650000D01*
X178242414Y-110650000D01*
X178275000Y-110486180D01*
X178275000Y-110313820D01*
X178242414Y-110150000D01*
X179274999Y-110150000D01*
X179274999Y-109225028D01*
X179274998Y-109225013D01*
X179264505Y-109122302D01*
X179209358Y-108955880D01*
X179209356Y-108955875D01*
X179117315Y-108806654D01*
X178993345Y-108682684D01*
X178844124Y-108590643D01*
X178844119Y-108590641D01*
X178677697Y-108535494D01*
X178677690Y-108535493D01*
X178574986Y-108525000D01*
X177650000Y-108525000D01*
X177650000Y-109557586D01*
X177486180Y-109525000D01*
X177313820Y-109525000D01*
X177150000Y-109557586D01*
X177150000Y-108525000D01*
X176225028Y-108525000D01*
X176225012Y-108525001D01*
X176122302Y-108535494D01*
X175955880Y-108590641D01*
X175955875Y-108590643D01*
X175806654Y-108682684D01*
X175712181Y-108777158D01*
X175650858Y-108810643D01*
X175581166Y-108805659D01*
X175525233Y-108763787D01*
X175500816Y-108698323D01*
X175500500Y-108689477D01*
X175500500Y-103988104D01*
X175520185Y-103921065D01*
X175572989Y-103875310D01*
X175583728Y-103870999D01*
X193994842Y-97464787D01*
X194027331Y-97458178D01*
X194843860Y-97403742D01*
X194912057Y-97418923D01*
G37*
%TD.AperFunction*%
%TA.AperFunction,Conductor*%
G36*
X177093832Y-77944723D02*
G01*
X198329353Y-88066327D01*
X198381400Y-88112939D01*
X198400000Y-88178261D01*
X198400000Y-95682999D01*
X198380315Y-95750038D01*
X198327511Y-95795793D01*
X198283197Y-95806790D01*
X180903525Y-96817236D01*
X180835456Y-96801476D01*
X180803275Y-96775403D01*
X178349164Y-93989046D01*
X178342486Y-93974732D01*
X178331658Y-93963236D01*
X178328019Y-93943720D01*
X178319626Y-93925727D01*
X178321584Y-93909203D01*
X178318853Y-93894550D01*
X178327288Y-93861092D01*
X178327382Y-93860302D01*
X178327453Y-93860126D01*
X178336589Y-93838071D01*
X189929600Y-93838071D01*
X189929600Y-93961929D01*
X189961657Y-94081568D01*
X190023586Y-94188832D01*
X190111168Y-94276414D01*
X190218432Y-94338343D01*
X190338071Y-94370400D01*
X190338073Y-94370400D01*
X190461927Y-94370400D01*
X190461929Y-94370400D01*
X190581568Y-94338343D01*
X190688832Y-94276414D01*
X190776414Y-94188832D01*
X190838343Y-94081568D01*
X190870400Y-93961929D01*
X190870400Y-93838071D01*
X190838343Y-93718432D01*
X190776414Y-93611168D01*
X190688832Y-93523586D01*
X190581568Y-93461657D01*
X190461929Y-93429600D01*
X190338071Y-93429600D01*
X190218432Y-93461657D01*
X190218429Y-93461658D01*
X190111171Y-93523584D01*
X190111165Y-93523588D01*
X190023588Y-93611165D01*
X190023584Y-93611171D01*
X189961658Y-93718429D01*
X189961657Y-93718432D01*
X189929600Y-93838071D01*
X178336589Y-93838071D01*
X178355317Y-93792858D01*
X178389500Y-93621008D01*
X178389500Y-93445792D01*
X178355317Y-93273942D01*
X178355315Y-93273937D01*
X178288268Y-93112070D01*
X178288261Y-93112057D01*
X178190920Y-92966377D01*
X178190917Y-92966373D01*
X178067026Y-92842482D01*
X178067022Y-92842479D01*
X177921342Y-92745138D01*
X177921329Y-92745131D01*
X177759462Y-92678084D01*
X177759450Y-92678081D01*
X177587612Y-92643900D01*
X177587608Y-92643900D01*
X177412392Y-92643900D01*
X177412387Y-92643900D01*
X177271422Y-92671940D01*
X177201830Y-92665713D01*
X177154181Y-92632283D01*
X176929954Y-92377699D01*
X176900417Y-92314380D01*
X176909801Y-92245144D01*
X176955128Y-92191972D01*
X177022006Y-92171746D01*
X177061327Y-92177811D01*
X177204480Y-92224325D01*
X177400679Y-92255400D01*
X177599321Y-92255400D01*
X177795520Y-92224324D01*
X177795523Y-92224324D01*
X177984437Y-92162942D01*
X178161425Y-92072762D01*
X178198715Y-92045668D01*
X177635941Y-91482895D01*
X177696081Y-91466781D01*
X177811920Y-91399902D01*
X177906502Y-91305320D01*
X177973381Y-91189481D01*
X177989495Y-91129342D01*
X178552268Y-91692115D01*
X178579362Y-91654825D01*
X178669542Y-91477837D01*
X178730924Y-91288923D01*
X178730924Y-91288920D01*
X178762000Y-91092721D01*
X178762000Y-90894078D01*
X178730924Y-90697879D01*
X178730924Y-90697876D01*
X178669542Y-90508962D01*
X178579358Y-90331967D01*
X178552268Y-90294683D01*
X177989494Y-90857457D01*
X177973381Y-90797319D01*
X177906502Y-90681480D01*
X177811920Y-90586898D01*
X177696081Y-90520019D01*
X177635942Y-90503904D01*
X178198716Y-89941131D01*
X178198715Y-89941130D01*
X178161432Y-89914041D01*
X177984437Y-89823857D01*
X177795522Y-89762475D01*
X177599321Y-89731400D01*
X177400679Y-89731400D01*
X177204479Y-89762475D01*
X177204476Y-89762475D01*
X177015562Y-89823857D01*
X176838564Y-89914043D01*
X176801283Y-89941129D01*
X176801282Y-89941130D01*
X177364058Y-90503904D01*
X177303919Y-90520019D01*
X177188080Y-90586898D01*
X177093498Y-90681480D01*
X177026619Y-90797319D01*
X177010504Y-90857458D01*
X176447730Y-90294682D01*
X176447729Y-90294683D01*
X176420643Y-90331964D01*
X176330457Y-90508962D01*
X176269075Y-90697876D01*
X176269075Y-90697879D01*
X176238000Y-90894078D01*
X176238000Y-91092721D01*
X176267601Y-91279613D01*
X176258646Y-91348906D01*
X176213650Y-91402358D01*
X176146899Y-91422998D01*
X176079585Y-91404273D01*
X176052075Y-91380969D01*
X175531447Y-90789856D01*
X175501909Y-90726537D01*
X175500500Y-90707898D01*
X175500500Y-90098498D01*
X175502732Y-90090896D01*
X175501463Y-90083077D01*
X175512435Y-90057849D01*
X175520185Y-90031459D01*
X175526879Y-90024641D01*
X175529331Y-90019006D01*
X175555582Y-89995414D01*
X182646032Y-85254993D01*
X182646031Y-85254992D01*
X182646032Y-85254992D01*
X178100404Y-81912264D01*
X178070763Y-81881258D01*
X178060821Y-81866379D01*
X178060820Y-81866377D01*
X177936923Y-81742480D01*
X177936922Y-81742479D01*
X177936921Y-81742478D01*
X177791242Y-81645138D01*
X177791232Y-81645133D01*
X177681277Y-81599588D01*
X177655269Y-81584924D01*
X177375646Y-81379297D01*
X177333299Y-81323722D01*
X177327720Y-81254076D01*
X177360681Y-81192469D01*
X177421717Y-81158463D01*
X177449107Y-81155400D01*
X177469221Y-81155400D01*
X177665420Y-81124324D01*
X177665423Y-81124324D01*
X177854337Y-81062942D01*
X178031325Y-80972762D01*
X178068615Y-80945668D01*
X177505842Y-80382895D01*
X177565981Y-80366781D01*
X177681820Y-80299902D01*
X177776402Y-80205320D01*
X177843281Y-80089481D01*
X177859395Y-80029342D01*
X178422168Y-80592115D01*
X178449262Y-80554825D01*
X178539442Y-80377837D01*
X178600824Y-80188923D01*
X178600824Y-80188920D01*
X178631900Y-79992721D01*
X178631900Y-79794078D01*
X178600824Y-79597879D01*
X178600824Y-79597876D01*
X178539442Y-79408962D01*
X178449258Y-79231967D01*
X178422168Y-79194683D01*
X177859394Y-79757457D01*
X177843281Y-79697319D01*
X177776402Y-79581480D01*
X177681820Y-79486898D01*
X177565981Y-79420019D01*
X177505841Y-79403904D01*
X178068615Y-78841130D01*
X178031332Y-78814041D01*
X177854337Y-78723857D01*
X177665422Y-78662475D01*
X177469221Y-78631400D01*
X177270579Y-78631400D01*
X177074379Y-78662475D01*
X177074376Y-78662475D01*
X176885462Y-78723857D01*
X176708464Y-78814043D01*
X176574530Y-78911352D01*
X176508724Y-78934832D01*
X176440670Y-78919007D01*
X176391975Y-78868901D01*
X176378100Y-78800423D01*
X176400741Y-78738962D01*
X176939581Y-77984585D01*
X176994565Y-77941476D01*
X177064128Y-77934935D01*
X177093832Y-77944723D01*
G37*
%TD.AperFunction*%
%TA.AperFunction,Conductor*%
G36*
X220525000Y-119650000D02*
G01*
X221557586Y-119650000D01*
X221525000Y-119813820D01*
X221525000Y-119986180D01*
X221557586Y-120150000D01*
X220525001Y-120150000D01*
X220525001Y-121074986D01*
X220535494Y-121177697D01*
X220590641Y-121344119D01*
X220590643Y-121344124D01*
X220682684Y-121493345D01*
X220806654Y-121617315D01*
X220955875Y-121709356D01*
X220955880Y-121709358D01*
X221122302Y-121764505D01*
X221122309Y-121764506D01*
X221225019Y-121774999D01*
X222236155Y-121774999D01*
X222303194Y-121794683D01*
X222348949Y-121847487D01*
X222358893Y-121916646D01*
X222329868Y-121980202D01*
X222271090Y-122017976D01*
X222264538Y-122019707D01*
X220868238Y-122348036D01*
X220798473Y-122344219D01*
X220741846Y-122303290D01*
X220728948Y-122282785D01*
X219136524Y-119097937D01*
X220525000Y-118737962D01*
X220525000Y-119650000D01*
G37*
%TD.AperFunction*%
%TA.AperFunction,Conductor*%
G36*
X218152784Y-104434586D02*
G01*
X223490208Y-117855176D01*
X223496691Y-117924744D01*
X223464534Y-117986774D01*
X223403946Y-118021571D01*
X223374986Y-118025000D01*
X222650000Y-118025000D01*
X222650000Y-119057586D01*
X222486180Y-119025000D01*
X222313820Y-119025000D01*
X222150000Y-119057586D01*
X222150000Y-118025000D01*
X221225028Y-118025000D01*
X221225012Y-118025001D01*
X221122302Y-118035494D01*
X220989714Y-118079429D01*
X218581818Y-113263636D01*
X216720498Y-114265884D01*
X211287557Y-103400000D01*
X216670848Y-100708356D01*
X218152784Y-104434586D01*
G37*
%TD.AperFunction*%
M02*
