%TF.GenerationSoftware,KiCad,Pcbnew,9.0.0*%
%TF.CreationDate,2025-04-21T16:07:22-04:00*%
%TF.ProjectId,brainfreeze,62726169-6e66-4726-9565-7a652e6b6963,rev?*%
%TF.SameCoordinates,Original*%
%TF.FileFunction,Legend,Top*%
%TF.FilePolarity,Positive*%
%FSLAX46Y46*%
G04 Gerber Fmt 4.6, Leading zero omitted, Abs format (unit mm)*
G04 Created by KiCad (PCBNEW 9.0.0) date 2025-04-21 16:07:22*
%MOMM*%
%LPD*%
G01*
G04 APERTURE LIST*
G04 Aperture macros list*
%AMRoundRect*
0 Rectangle with rounded corners*
0 $1 Rounding radius*
0 $2 $3 $4 $5 $6 $7 $8 $9 X,Y pos of 4 corners*
0 Add a 4 corners polygon primitive as box body*
4,1,4,$2,$3,$4,$5,$6,$7,$8,$9,$2,$3,0*
0 Add four circle primitives for the rounded corners*
1,1,$1+$1,$2,$3*
1,1,$1+$1,$4,$5*
1,1,$1+$1,$6,$7*
1,1,$1+$1,$8,$9*
0 Add four rect primitives between the rounded corners*
20,1,$1+$1,$2,$3,$4,$5,0*
20,1,$1+$1,$4,$5,$6,$7,0*
20,1,$1+$1,$6,$7,$8,$9,0*
20,1,$1+$1,$8,$9,$2,$3,0*%
G04 Aperture macros list end*
%ADD10C,0.152400*%
%ADD11C,0.200000*%
%ADD12C,0.120000*%
%ADD13C,0.203200*%
%ADD14C,0.150000*%
%ADD15C,0.100000*%
%ADD16C,0.127000*%
%ADD17C,0.508000*%
%ADD18RoundRect,0.150000X-0.512500X-0.150000X0.512500X-0.150000X0.512500X0.150000X-0.512500X0.150000X0*%
%ADD19RoundRect,0.250000X-0.250000X-0.475000X0.250000X-0.475000X0.250000X0.475000X-0.250000X0.475000X0*%
%ADD20RoundRect,0.250000X-1.125000X-1.125000X1.125000X-1.125000X1.125000X1.125000X-1.125000X1.125000X0*%
%ADD21RoundRect,0.140000X-0.170000X0.140000X-0.170000X-0.140000X0.170000X-0.140000X0.170000X0.140000X0*%
%ADD22R,1.600000X1.600000*%
%ADD23O,1.600000X1.600000*%
%ADD24RoundRect,0.250001X-0.799999X-0.799999X0.799999X-0.799999X0.799999X0.799999X-0.799999X0.799999X0*%
%ADD25RoundRect,0.250000X0.325000X0.650000X-0.325000X0.650000X-0.325000X-0.650000X0.325000X-0.650000X0*%
%ADD26RoundRect,0.102000X0.900000X0.900000X-0.900000X0.900000X-0.900000X-0.900000X0.900000X-0.900000X0*%
%ADD27C,2.004000*%
%ADD28R,0.558800X1.270000*%
%ADD29C,1.524000*%
%ADD30RoundRect,0.218750X-0.218750X-0.256250X0.218750X-0.256250X0.218750X0.256250X-0.218750X0.256250X0*%
%ADD31RoundRect,0.200000X-0.200000X-0.275000X0.200000X-0.275000X0.200000X0.275000X-0.200000X0.275000X0*%
%ADD32RoundRect,0.250000X-0.375000X-1.075000X0.375000X-1.075000X0.375000X1.075000X-0.375000X1.075000X0*%
G04 APERTURE END LIST*
D10*
X194464720Y-91866851D02*
X194580834Y-91905556D01*
X194580834Y-91905556D02*
X194619539Y-91944260D01*
X194619539Y-91944260D02*
X194658243Y-92021670D01*
X194658243Y-92021670D02*
X194658243Y-92137784D01*
X194658243Y-92137784D02*
X194619539Y-92215194D01*
X194619539Y-92215194D02*
X194580834Y-92253899D01*
X194580834Y-92253899D02*
X194503424Y-92292603D01*
X194503424Y-92292603D02*
X194193786Y-92292603D01*
X194193786Y-92292603D02*
X194193786Y-91479803D01*
X194193786Y-91479803D02*
X194464720Y-91479803D01*
X194464720Y-91479803D02*
X194542129Y-91518508D01*
X194542129Y-91518508D02*
X194580834Y-91557213D01*
X194580834Y-91557213D02*
X194619539Y-91634622D01*
X194619539Y-91634622D02*
X194619539Y-91712032D01*
X194619539Y-91712032D02*
X194580834Y-91789441D01*
X194580834Y-91789441D02*
X194542129Y-91828146D01*
X194542129Y-91828146D02*
X194464720Y-91866851D01*
X194464720Y-91866851D02*
X194193786Y-91866851D01*
X195006586Y-91479803D02*
X195006586Y-92137784D01*
X195006586Y-92137784D02*
X195045291Y-92215194D01*
X195045291Y-92215194D02*
X195083996Y-92253899D01*
X195083996Y-92253899D02*
X195161405Y-92292603D01*
X195161405Y-92292603D02*
X195316224Y-92292603D01*
X195316224Y-92292603D02*
X195393634Y-92253899D01*
X195393634Y-92253899D02*
X195432339Y-92215194D01*
X195432339Y-92215194D02*
X195471043Y-92137784D01*
X195471043Y-92137784D02*
X195471043Y-91479803D01*
X196322548Y-92215194D02*
X196283844Y-92253899D01*
X196283844Y-92253899D02*
X196167729Y-92292603D01*
X196167729Y-92292603D02*
X196090320Y-92292603D01*
X196090320Y-92292603D02*
X195974206Y-92253899D01*
X195974206Y-92253899D02*
X195896796Y-92176489D01*
X195896796Y-92176489D02*
X195858091Y-92099079D01*
X195858091Y-92099079D02*
X195819387Y-91944260D01*
X195819387Y-91944260D02*
X195819387Y-91828146D01*
X195819387Y-91828146D02*
X195858091Y-91673327D01*
X195858091Y-91673327D02*
X195896796Y-91595918D01*
X195896796Y-91595918D02*
X195974206Y-91518508D01*
X195974206Y-91518508D02*
X196090320Y-91479803D01*
X196090320Y-91479803D02*
X196167729Y-91479803D01*
X196167729Y-91479803D02*
X196283844Y-91518508D01*
X196283844Y-91518508D02*
X196322548Y-91557213D01*
X196670891Y-92292603D02*
X196670891Y-91479803D01*
X197135348Y-92292603D02*
X196787006Y-91828146D01*
X197135348Y-91479803D02*
X196670891Y-91944260D01*
X198567424Y-92215194D02*
X198528720Y-92253899D01*
X198528720Y-92253899D02*
X198412605Y-92292603D01*
X198412605Y-92292603D02*
X198335196Y-92292603D01*
X198335196Y-92292603D02*
X198219082Y-92253899D01*
X198219082Y-92253899D02*
X198141672Y-92176489D01*
X198141672Y-92176489D02*
X198102967Y-92099079D01*
X198102967Y-92099079D02*
X198064263Y-91944260D01*
X198064263Y-91944260D02*
X198064263Y-91828146D01*
X198064263Y-91828146D02*
X198102967Y-91673327D01*
X198102967Y-91673327D02*
X198141672Y-91595918D01*
X198141672Y-91595918D02*
X198219082Y-91518508D01*
X198219082Y-91518508D02*
X198335196Y-91479803D01*
X198335196Y-91479803D02*
X198412605Y-91479803D01*
X198412605Y-91479803D02*
X198528720Y-91518508D01*
X198528720Y-91518508D02*
X198567424Y-91557213D01*
X199070586Y-91479803D02*
X199225405Y-91479803D01*
X199225405Y-91479803D02*
X199302815Y-91518508D01*
X199302815Y-91518508D02*
X199380224Y-91595918D01*
X199380224Y-91595918D02*
X199418929Y-91750737D01*
X199418929Y-91750737D02*
X199418929Y-92021670D01*
X199418929Y-92021670D02*
X199380224Y-92176489D01*
X199380224Y-92176489D02*
X199302815Y-92253899D01*
X199302815Y-92253899D02*
X199225405Y-92292603D01*
X199225405Y-92292603D02*
X199070586Y-92292603D01*
X199070586Y-92292603D02*
X198993177Y-92253899D01*
X198993177Y-92253899D02*
X198915767Y-92176489D01*
X198915767Y-92176489D02*
X198877063Y-92021670D01*
X198877063Y-92021670D02*
X198877063Y-91750737D01*
X198877063Y-91750737D02*
X198915767Y-91595918D01*
X198915767Y-91595918D02*
X198993177Y-91518508D01*
X198993177Y-91518508D02*
X199070586Y-91479803D01*
X199767272Y-92292603D02*
X199767272Y-91479803D01*
X199767272Y-91479803D02*
X200231729Y-92292603D01*
X200231729Y-92292603D02*
X200231729Y-91479803D01*
X200502663Y-91479803D02*
X200773596Y-92292603D01*
X200773596Y-92292603D02*
X201044530Y-91479803D01*
X201315463Y-91866851D02*
X201586397Y-91866851D01*
X201702511Y-92292603D02*
X201315463Y-92292603D01*
X201315463Y-92292603D02*
X201315463Y-91479803D01*
X201315463Y-91479803D02*
X201702511Y-91479803D01*
X202515310Y-92292603D02*
X202244377Y-91905556D01*
X202050853Y-92292603D02*
X202050853Y-91479803D01*
X202050853Y-91479803D02*
X202360491Y-91479803D01*
X202360491Y-91479803D02*
X202437901Y-91518508D01*
X202437901Y-91518508D02*
X202476606Y-91557213D01*
X202476606Y-91557213D02*
X202515310Y-91634622D01*
X202515310Y-91634622D02*
X202515310Y-91750737D01*
X202515310Y-91750737D02*
X202476606Y-91828146D01*
X202476606Y-91828146D02*
X202437901Y-91866851D01*
X202437901Y-91866851D02*
X202360491Y-91905556D01*
X202360491Y-91905556D02*
X202050853Y-91905556D01*
X202747539Y-91479803D02*
X203211996Y-91479803D01*
X202979768Y-92292603D02*
X202979768Y-91479803D01*
X203482929Y-91866851D02*
X203753863Y-91866851D01*
X203869977Y-92292603D02*
X203482929Y-92292603D01*
X203482929Y-92292603D02*
X203482929Y-91479803D01*
X203482929Y-91479803D02*
X203869977Y-91479803D01*
X204682776Y-92292603D02*
X204411843Y-91905556D01*
X204218319Y-92292603D02*
X204218319Y-91479803D01*
X204218319Y-91479803D02*
X204527957Y-91479803D01*
X204527957Y-91479803D02*
X204605367Y-91518508D01*
X204605367Y-91518508D02*
X204644072Y-91557213D01*
X204644072Y-91557213D02*
X204682776Y-91634622D01*
X204682776Y-91634622D02*
X204682776Y-91750737D01*
X204682776Y-91750737D02*
X204644072Y-91828146D01*
X204644072Y-91828146D02*
X204605367Y-91866851D01*
X204605367Y-91866851D02*
X204527957Y-91905556D01*
X204527957Y-91905556D02*
X204218319Y-91905556D01*
X206114852Y-92215194D02*
X206076148Y-92253899D01*
X206076148Y-92253899D02*
X205960033Y-92292603D01*
X205960033Y-92292603D02*
X205882624Y-92292603D01*
X205882624Y-92292603D02*
X205766510Y-92253899D01*
X205766510Y-92253899D02*
X205689100Y-92176489D01*
X205689100Y-92176489D02*
X205650395Y-92099079D01*
X205650395Y-92099079D02*
X205611691Y-91944260D01*
X205611691Y-91944260D02*
X205611691Y-91828146D01*
X205611691Y-91828146D02*
X205650395Y-91673327D01*
X205650395Y-91673327D02*
X205689100Y-91595918D01*
X205689100Y-91595918D02*
X205766510Y-91518508D01*
X205766510Y-91518508D02*
X205882624Y-91479803D01*
X205882624Y-91479803D02*
X205960033Y-91479803D01*
X205960033Y-91479803D02*
X206076148Y-91518508D01*
X206076148Y-91518508D02*
X206114852Y-91557213D01*
X206463195Y-92292603D02*
X206463195Y-91479803D01*
X207314700Y-92292603D02*
X207043767Y-91905556D01*
X206850243Y-92292603D02*
X206850243Y-91479803D01*
X206850243Y-91479803D02*
X207159881Y-91479803D01*
X207159881Y-91479803D02*
X207237291Y-91518508D01*
X207237291Y-91518508D02*
X207275996Y-91557213D01*
X207275996Y-91557213D02*
X207314700Y-91634622D01*
X207314700Y-91634622D02*
X207314700Y-91750737D01*
X207314700Y-91750737D02*
X207275996Y-91828146D01*
X207275996Y-91828146D02*
X207237291Y-91866851D01*
X207237291Y-91866851D02*
X207159881Y-91905556D01*
X207159881Y-91905556D02*
X206850243Y-91905556D01*
X208127500Y-92215194D02*
X208088796Y-92253899D01*
X208088796Y-92253899D02*
X207972681Y-92292603D01*
X207972681Y-92292603D02*
X207895272Y-92292603D01*
X207895272Y-92292603D02*
X207779158Y-92253899D01*
X207779158Y-92253899D02*
X207701748Y-92176489D01*
X207701748Y-92176489D02*
X207663043Y-92099079D01*
X207663043Y-92099079D02*
X207624339Y-91944260D01*
X207624339Y-91944260D02*
X207624339Y-91828146D01*
X207624339Y-91828146D02*
X207663043Y-91673327D01*
X207663043Y-91673327D02*
X207701748Y-91595918D01*
X207701748Y-91595918D02*
X207779158Y-91518508D01*
X207779158Y-91518508D02*
X207895272Y-91479803D01*
X207895272Y-91479803D02*
X207972681Y-91479803D01*
X207972681Y-91479803D02*
X208088796Y-91518508D01*
X208088796Y-91518508D02*
X208127500Y-91557213D01*
X208475843Y-91479803D02*
X208475843Y-92137784D01*
X208475843Y-92137784D02*
X208514548Y-92215194D01*
X208514548Y-92215194D02*
X208553253Y-92253899D01*
X208553253Y-92253899D02*
X208630662Y-92292603D01*
X208630662Y-92292603D02*
X208785481Y-92292603D01*
X208785481Y-92292603D02*
X208862891Y-92253899D01*
X208862891Y-92253899D02*
X208901596Y-92215194D01*
X208901596Y-92215194D02*
X208940300Y-92137784D01*
X208940300Y-92137784D02*
X208940300Y-91479803D01*
X209327348Y-92292603D02*
X209327348Y-91479803D01*
X209598282Y-91479803D02*
X210062739Y-91479803D01*
X209830511Y-92292603D02*
X209830511Y-91479803D01*
D11*
X218233465Y-93296993D02*
X218281084Y-93154136D01*
X218281084Y-93154136D02*
X218328703Y-93106517D01*
X218328703Y-93106517D02*
X218423941Y-93058898D01*
X218423941Y-93058898D02*
X218566798Y-93058898D01*
X218566798Y-93058898D02*
X218662036Y-93106517D01*
X218662036Y-93106517D02*
X218709656Y-93154136D01*
X218709656Y-93154136D02*
X218757275Y-93249374D01*
X218757275Y-93249374D02*
X218757275Y-93630326D01*
X218757275Y-93630326D02*
X217757275Y-93630326D01*
X217757275Y-93630326D02*
X217757275Y-93296993D01*
X217757275Y-93296993D02*
X217804894Y-93201755D01*
X217804894Y-93201755D02*
X217852513Y-93154136D01*
X217852513Y-93154136D02*
X217947751Y-93106517D01*
X217947751Y-93106517D02*
X218042989Y-93106517D01*
X218042989Y-93106517D02*
X218138227Y-93154136D01*
X218138227Y-93154136D02*
X218185846Y-93201755D01*
X218185846Y-93201755D02*
X218233465Y-93296993D01*
X218233465Y-93296993D02*
X218233465Y-93630326D01*
X218757275Y-92630326D02*
X218090608Y-92630326D01*
X218281084Y-92630326D02*
X218185846Y-92582707D01*
X218185846Y-92582707D02*
X218138227Y-92535088D01*
X218138227Y-92535088D02*
X218090608Y-92439850D01*
X218090608Y-92439850D02*
X218090608Y-92344612D01*
X218757275Y-91582707D02*
X218233465Y-91582707D01*
X218233465Y-91582707D02*
X218138227Y-91630326D01*
X218138227Y-91630326D02*
X218090608Y-91725564D01*
X218090608Y-91725564D02*
X218090608Y-91916040D01*
X218090608Y-91916040D02*
X218138227Y-92011278D01*
X218709656Y-91582707D02*
X218757275Y-91677945D01*
X218757275Y-91677945D02*
X218757275Y-91916040D01*
X218757275Y-91916040D02*
X218709656Y-92011278D01*
X218709656Y-92011278D02*
X218614417Y-92058897D01*
X218614417Y-92058897D02*
X218519179Y-92058897D01*
X218519179Y-92058897D02*
X218423941Y-92011278D01*
X218423941Y-92011278D02*
X218376322Y-91916040D01*
X218376322Y-91916040D02*
X218376322Y-91677945D01*
X218376322Y-91677945D02*
X218328703Y-91582707D01*
X218757275Y-91106516D02*
X218090608Y-91106516D01*
X217757275Y-91106516D02*
X217804894Y-91154135D01*
X217804894Y-91154135D02*
X217852513Y-91106516D01*
X217852513Y-91106516D02*
X217804894Y-91058897D01*
X217804894Y-91058897D02*
X217757275Y-91106516D01*
X217757275Y-91106516D02*
X217852513Y-91106516D01*
X218090608Y-90630326D02*
X218757275Y-90630326D01*
X218185846Y-90630326D02*
X218138227Y-90582707D01*
X218138227Y-90582707D02*
X218090608Y-90487469D01*
X218090608Y-90487469D02*
X218090608Y-90344612D01*
X218090608Y-90344612D02*
X218138227Y-90249374D01*
X218138227Y-90249374D02*
X218233465Y-90201755D01*
X218233465Y-90201755D02*
X218757275Y-90201755D01*
X218090608Y-89868421D02*
X218090608Y-89487469D01*
X218757275Y-89725564D02*
X217900132Y-89725564D01*
X217900132Y-89725564D02*
X217804894Y-89677945D01*
X217804894Y-89677945D02*
X217757275Y-89582707D01*
X217757275Y-89582707D02*
X217757275Y-89487469D01*
X218757275Y-89154135D02*
X218090608Y-89154135D01*
X218281084Y-89154135D02*
X218185846Y-89106516D01*
X218185846Y-89106516D02*
X218138227Y-89058897D01*
X218138227Y-89058897D02*
X218090608Y-88963659D01*
X218090608Y-88963659D02*
X218090608Y-88868421D01*
X218709656Y-88154135D02*
X218757275Y-88249373D01*
X218757275Y-88249373D02*
X218757275Y-88439849D01*
X218757275Y-88439849D02*
X218709656Y-88535087D01*
X218709656Y-88535087D02*
X218614417Y-88582706D01*
X218614417Y-88582706D02*
X218233465Y-88582706D01*
X218233465Y-88582706D02*
X218138227Y-88535087D01*
X218138227Y-88535087D02*
X218090608Y-88439849D01*
X218090608Y-88439849D02*
X218090608Y-88249373D01*
X218090608Y-88249373D02*
X218138227Y-88154135D01*
X218138227Y-88154135D02*
X218233465Y-88106516D01*
X218233465Y-88106516D02*
X218328703Y-88106516D01*
X218328703Y-88106516D02*
X218423941Y-88582706D01*
X218709656Y-87296992D02*
X218757275Y-87392230D01*
X218757275Y-87392230D02*
X218757275Y-87582706D01*
X218757275Y-87582706D02*
X218709656Y-87677944D01*
X218709656Y-87677944D02*
X218614417Y-87725563D01*
X218614417Y-87725563D02*
X218233465Y-87725563D01*
X218233465Y-87725563D02*
X218138227Y-87677944D01*
X218138227Y-87677944D02*
X218090608Y-87582706D01*
X218090608Y-87582706D02*
X218090608Y-87392230D01*
X218090608Y-87392230D02*
X218138227Y-87296992D01*
X218138227Y-87296992D02*
X218233465Y-87249373D01*
X218233465Y-87249373D02*
X218328703Y-87249373D01*
X218328703Y-87249373D02*
X218423941Y-87725563D01*
X218090608Y-86916039D02*
X218090608Y-86392230D01*
X218090608Y-86392230D02*
X218757275Y-86916039D01*
X218757275Y-86916039D02*
X218757275Y-86392230D01*
X218709656Y-85630325D02*
X218757275Y-85725563D01*
X218757275Y-85725563D02*
X218757275Y-85916039D01*
X218757275Y-85916039D02*
X218709656Y-86011277D01*
X218709656Y-86011277D02*
X218614417Y-86058896D01*
X218614417Y-86058896D02*
X218233465Y-86058896D01*
X218233465Y-86058896D02*
X218138227Y-86011277D01*
X218138227Y-86011277D02*
X218090608Y-85916039D01*
X218090608Y-85916039D02*
X218090608Y-85725563D01*
X218090608Y-85725563D02*
X218138227Y-85630325D01*
X218138227Y-85630325D02*
X218233465Y-85582706D01*
X218233465Y-85582706D02*
X218328703Y-85582706D01*
X218328703Y-85582706D02*
X218423941Y-86058896D01*
X218662036Y-83820801D02*
X218709656Y-83868420D01*
X218709656Y-83868420D02*
X218757275Y-84011277D01*
X218757275Y-84011277D02*
X218757275Y-84106515D01*
X218757275Y-84106515D02*
X218709656Y-84249372D01*
X218709656Y-84249372D02*
X218614417Y-84344610D01*
X218614417Y-84344610D02*
X218519179Y-84392229D01*
X218519179Y-84392229D02*
X218328703Y-84439848D01*
X218328703Y-84439848D02*
X218185846Y-84439848D01*
X218185846Y-84439848D02*
X217995370Y-84392229D01*
X217995370Y-84392229D02*
X217900132Y-84344610D01*
X217900132Y-84344610D02*
X217804894Y-84249372D01*
X217804894Y-84249372D02*
X217757275Y-84106515D01*
X217757275Y-84106515D02*
X217757275Y-84011277D01*
X217757275Y-84011277D02*
X217804894Y-83868420D01*
X217804894Y-83868420D02*
X217852513Y-83820801D01*
X218757275Y-83249372D02*
X218709656Y-83344610D01*
X218709656Y-83344610D02*
X218662036Y-83392229D01*
X218662036Y-83392229D02*
X218566798Y-83439848D01*
X218566798Y-83439848D02*
X218281084Y-83439848D01*
X218281084Y-83439848D02*
X218185846Y-83392229D01*
X218185846Y-83392229D02*
X218138227Y-83344610D01*
X218138227Y-83344610D02*
X218090608Y-83249372D01*
X218090608Y-83249372D02*
X218090608Y-83106515D01*
X218090608Y-83106515D02*
X218138227Y-83011277D01*
X218138227Y-83011277D02*
X218185846Y-82963658D01*
X218185846Y-82963658D02*
X218281084Y-82916039D01*
X218281084Y-82916039D02*
X218566798Y-82916039D01*
X218566798Y-82916039D02*
X218662036Y-82963658D01*
X218662036Y-82963658D02*
X218709656Y-83011277D01*
X218709656Y-83011277D02*
X218757275Y-83106515D01*
X218757275Y-83106515D02*
X218757275Y-83249372D01*
X218090608Y-82487467D02*
X218757275Y-82487467D01*
X218185846Y-82487467D02*
X218138227Y-82439848D01*
X218138227Y-82439848D02*
X218090608Y-82344610D01*
X218090608Y-82344610D02*
X218090608Y-82201753D01*
X218090608Y-82201753D02*
X218138227Y-82106515D01*
X218138227Y-82106515D02*
X218233465Y-82058896D01*
X218233465Y-82058896D02*
X218757275Y-82058896D01*
X218090608Y-81725562D02*
X218090608Y-81344610D01*
X217757275Y-81582705D02*
X218614417Y-81582705D01*
X218614417Y-81582705D02*
X218709656Y-81535086D01*
X218709656Y-81535086D02*
X218757275Y-81439848D01*
X218757275Y-81439848D02*
X218757275Y-81344610D01*
X218757275Y-81011276D02*
X218090608Y-81011276D01*
X218281084Y-81011276D02*
X218185846Y-80963657D01*
X218185846Y-80963657D02*
X218138227Y-80916038D01*
X218138227Y-80916038D02*
X218090608Y-80820800D01*
X218090608Y-80820800D02*
X218090608Y-80725562D01*
X218757275Y-80249371D02*
X218709656Y-80344609D01*
X218709656Y-80344609D02*
X218662036Y-80392228D01*
X218662036Y-80392228D02*
X218566798Y-80439847D01*
X218566798Y-80439847D02*
X218281084Y-80439847D01*
X218281084Y-80439847D02*
X218185846Y-80392228D01*
X218185846Y-80392228D02*
X218138227Y-80344609D01*
X218138227Y-80344609D02*
X218090608Y-80249371D01*
X218090608Y-80249371D02*
X218090608Y-80106514D01*
X218090608Y-80106514D02*
X218138227Y-80011276D01*
X218138227Y-80011276D02*
X218185846Y-79963657D01*
X218185846Y-79963657D02*
X218281084Y-79916038D01*
X218281084Y-79916038D02*
X218566798Y-79916038D01*
X218566798Y-79916038D02*
X218662036Y-79963657D01*
X218662036Y-79963657D02*
X218709656Y-80011276D01*
X218709656Y-80011276D02*
X218757275Y-80106514D01*
X218757275Y-80106514D02*
X218757275Y-80249371D01*
X218757275Y-79344609D02*
X218709656Y-79439847D01*
X218709656Y-79439847D02*
X218614417Y-79487466D01*
X218614417Y-79487466D02*
X217757275Y-79487466D01*
X218757275Y-78820799D02*
X218709656Y-78916037D01*
X218709656Y-78916037D02*
X218614417Y-78963656D01*
X218614417Y-78963656D02*
X217757275Y-78963656D01*
X218709656Y-78058894D02*
X218757275Y-78154132D01*
X218757275Y-78154132D02*
X218757275Y-78344608D01*
X218757275Y-78344608D02*
X218709656Y-78439846D01*
X218709656Y-78439846D02*
X218614417Y-78487465D01*
X218614417Y-78487465D02*
X218233465Y-78487465D01*
X218233465Y-78487465D02*
X218138227Y-78439846D01*
X218138227Y-78439846D02*
X218090608Y-78344608D01*
X218090608Y-78344608D02*
X218090608Y-78154132D01*
X218090608Y-78154132D02*
X218138227Y-78058894D01*
X218138227Y-78058894D02*
X218233465Y-78011275D01*
X218233465Y-78011275D02*
X218328703Y-78011275D01*
X218328703Y-78011275D02*
X218423941Y-78487465D01*
X218757275Y-77582703D02*
X218090608Y-77582703D01*
X218281084Y-77582703D02*
X218185846Y-77535084D01*
X218185846Y-77535084D02*
X218138227Y-77487465D01*
X218138227Y-77487465D02*
X218090608Y-77392227D01*
X218090608Y-77392227D02*
X218090608Y-77296989D01*
X218233465Y-75868417D02*
X218281084Y-75725560D01*
X218281084Y-75725560D02*
X218328703Y-75677941D01*
X218328703Y-75677941D02*
X218423941Y-75630322D01*
X218423941Y-75630322D02*
X218566798Y-75630322D01*
X218566798Y-75630322D02*
X218662036Y-75677941D01*
X218662036Y-75677941D02*
X218709656Y-75725560D01*
X218709656Y-75725560D02*
X218757275Y-75820798D01*
X218757275Y-75820798D02*
X218757275Y-76201750D01*
X218757275Y-76201750D02*
X217757275Y-76201750D01*
X217757275Y-76201750D02*
X217757275Y-75868417D01*
X217757275Y-75868417D02*
X217804894Y-75773179D01*
X217804894Y-75773179D02*
X217852513Y-75725560D01*
X217852513Y-75725560D02*
X217947751Y-75677941D01*
X217947751Y-75677941D02*
X218042989Y-75677941D01*
X218042989Y-75677941D02*
X218138227Y-75725560D01*
X218138227Y-75725560D02*
X218185846Y-75773179D01*
X218185846Y-75773179D02*
X218233465Y-75868417D01*
X218233465Y-75868417D02*
X218233465Y-76201750D01*
X218757275Y-75058893D02*
X218709656Y-75154131D01*
X218709656Y-75154131D02*
X218662036Y-75201750D01*
X218662036Y-75201750D02*
X218566798Y-75249369D01*
X218566798Y-75249369D02*
X218281084Y-75249369D01*
X218281084Y-75249369D02*
X218185846Y-75201750D01*
X218185846Y-75201750D02*
X218138227Y-75154131D01*
X218138227Y-75154131D02*
X218090608Y-75058893D01*
X218090608Y-75058893D02*
X218090608Y-74916036D01*
X218090608Y-74916036D02*
X218138227Y-74820798D01*
X218138227Y-74820798D02*
X218185846Y-74773179D01*
X218185846Y-74773179D02*
X218281084Y-74725560D01*
X218281084Y-74725560D02*
X218566798Y-74725560D01*
X218566798Y-74725560D02*
X218662036Y-74773179D01*
X218662036Y-74773179D02*
X218709656Y-74820798D01*
X218709656Y-74820798D02*
X218757275Y-74916036D01*
X218757275Y-74916036D02*
X218757275Y-75058893D01*
X218757275Y-73868417D02*
X218233465Y-73868417D01*
X218233465Y-73868417D02*
X218138227Y-73916036D01*
X218138227Y-73916036D02*
X218090608Y-74011274D01*
X218090608Y-74011274D02*
X218090608Y-74201750D01*
X218090608Y-74201750D02*
X218138227Y-74296988D01*
X218709656Y-73868417D02*
X218757275Y-73963655D01*
X218757275Y-73963655D02*
X218757275Y-74201750D01*
X218757275Y-74201750D02*
X218709656Y-74296988D01*
X218709656Y-74296988D02*
X218614417Y-74344607D01*
X218614417Y-74344607D02*
X218519179Y-74344607D01*
X218519179Y-74344607D02*
X218423941Y-74296988D01*
X218423941Y-74296988D02*
X218376322Y-74201750D01*
X218376322Y-74201750D02*
X218376322Y-73963655D01*
X218376322Y-73963655D02*
X218328703Y-73868417D01*
X218757275Y-73392226D02*
X218090608Y-73392226D01*
X218281084Y-73392226D02*
X218185846Y-73344607D01*
X218185846Y-73344607D02*
X218138227Y-73296988D01*
X218138227Y-73296988D02*
X218090608Y-73201750D01*
X218090608Y-73201750D02*
X218090608Y-73106512D01*
X218757275Y-72344607D02*
X217757275Y-72344607D01*
X218709656Y-72344607D02*
X218757275Y-72439845D01*
X218757275Y-72439845D02*
X218757275Y-72630321D01*
X218757275Y-72630321D02*
X218709656Y-72725559D01*
X218709656Y-72725559D02*
X218662036Y-72773178D01*
X218662036Y-72773178D02*
X218566798Y-72820797D01*
X218566798Y-72820797D02*
X218281084Y-72820797D01*
X218281084Y-72820797D02*
X218185846Y-72773178D01*
X218185846Y-72773178D02*
X218138227Y-72725559D01*
X218138227Y-72725559D02*
X218090608Y-72630321D01*
X218090608Y-72630321D02*
X218090608Y-72439845D01*
X218090608Y-72439845D02*
X218138227Y-72344607D01*
X219367219Y-93773183D02*
X220367219Y-93439850D01*
X220367219Y-93439850D02*
X219367219Y-93106517D01*
X220319600Y-92392231D02*
X220367219Y-92487469D01*
X220367219Y-92487469D02*
X220367219Y-92677945D01*
X220367219Y-92677945D02*
X220319600Y-92773183D01*
X220319600Y-92773183D02*
X220224361Y-92820802D01*
X220224361Y-92820802D02*
X219843409Y-92820802D01*
X219843409Y-92820802D02*
X219748171Y-92773183D01*
X219748171Y-92773183D02*
X219700552Y-92677945D01*
X219700552Y-92677945D02*
X219700552Y-92487469D01*
X219700552Y-92487469D02*
X219748171Y-92392231D01*
X219748171Y-92392231D02*
X219843409Y-92344612D01*
X219843409Y-92344612D02*
X219938647Y-92344612D01*
X219938647Y-92344612D02*
X220033885Y-92820802D01*
X220367219Y-91916040D02*
X219700552Y-91916040D01*
X219891028Y-91916040D02*
X219795790Y-91868421D01*
X219795790Y-91868421D02*
X219748171Y-91820802D01*
X219748171Y-91820802D02*
X219700552Y-91725564D01*
X219700552Y-91725564D02*
X219700552Y-91630326D01*
X220319600Y-91344611D02*
X220367219Y-91249373D01*
X220367219Y-91249373D02*
X220367219Y-91058897D01*
X220367219Y-91058897D02*
X220319600Y-90963659D01*
X220319600Y-90963659D02*
X220224361Y-90916040D01*
X220224361Y-90916040D02*
X220176742Y-90916040D01*
X220176742Y-90916040D02*
X220081504Y-90963659D01*
X220081504Y-90963659D02*
X220033885Y-91058897D01*
X220033885Y-91058897D02*
X220033885Y-91201754D01*
X220033885Y-91201754D02*
X219986266Y-91296992D01*
X219986266Y-91296992D02*
X219891028Y-91344611D01*
X219891028Y-91344611D02*
X219843409Y-91344611D01*
X219843409Y-91344611D02*
X219748171Y-91296992D01*
X219748171Y-91296992D02*
X219700552Y-91201754D01*
X219700552Y-91201754D02*
X219700552Y-91058897D01*
X219700552Y-91058897D02*
X219748171Y-90963659D01*
X220367219Y-90487468D02*
X219700552Y-90487468D01*
X219367219Y-90487468D02*
X219414838Y-90535087D01*
X219414838Y-90535087D02*
X219462457Y-90487468D01*
X219462457Y-90487468D02*
X219414838Y-90439849D01*
X219414838Y-90439849D02*
X219367219Y-90487468D01*
X219367219Y-90487468D02*
X219462457Y-90487468D01*
X220367219Y-89868421D02*
X220319600Y-89963659D01*
X220319600Y-89963659D02*
X220271980Y-90011278D01*
X220271980Y-90011278D02*
X220176742Y-90058897D01*
X220176742Y-90058897D02*
X219891028Y-90058897D01*
X219891028Y-90058897D02*
X219795790Y-90011278D01*
X219795790Y-90011278D02*
X219748171Y-89963659D01*
X219748171Y-89963659D02*
X219700552Y-89868421D01*
X219700552Y-89868421D02*
X219700552Y-89725564D01*
X219700552Y-89725564D02*
X219748171Y-89630326D01*
X219748171Y-89630326D02*
X219795790Y-89582707D01*
X219795790Y-89582707D02*
X219891028Y-89535088D01*
X219891028Y-89535088D02*
X220176742Y-89535088D01*
X220176742Y-89535088D02*
X220271980Y-89582707D01*
X220271980Y-89582707D02*
X220319600Y-89630326D01*
X220319600Y-89630326D02*
X220367219Y-89725564D01*
X220367219Y-89725564D02*
X220367219Y-89868421D01*
X219700552Y-89106516D02*
X220367219Y-89106516D01*
X219795790Y-89106516D02*
X219748171Y-89058897D01*
X219748171Y-89058897D02*
X219700552Y-88963659D01*
X219700552Y-88963659D02*
X219700552Y-88820802D01*
X219700552Y-88820802D02*
X219748171Y-88725564D01*
X219748171Y-88725564D02*
X219843409Y-88677945D01*
X219843409Y-88677945D02*
X220367219Y-88677945D01*
X219462457Y-87487468D02*
X219414838Y-87439849D01*
X219414838Y-87439849D02*
X219367219Y-87344611D01*
X219367219Y-87344611D02*
X219367219Y-87106516D01*
X219367219Y-87106516D02*
X219414838Y-87011278D01*
X219414838Y-87011278D02*
X219462457Y-86963659D01*
X219462457Y-86963659D02*
X219557695Y-86916040D01*
X219557695Y-86916040D02*
X219652933Y-86916040D01*
X219652933Y-86916040D02*
X219795790Y-86963659D01*
X219795790Y-86963659D02*
X220367219Y-87535087D01*
X220367219Y-87535087D02*
X220367219Y-86916040D01*
X220271980Y-86487468D02*
X220319600Y-86439849D01*
X220319600Y-86439849D02*
X220367219Y-86487468D01*
X220367219Y-86487468D02*
X220319600Y-86535087D01*
X220319600Y-86535087D02*
X220271980Y-86487468D01*
X220271980Y-86487468D02*
X220367219Y-86487468D01*
X219367219Y-85820802D02*
X219367219Y-85725564D01*
X219367219Y-85725564D02*
X219414838Y-85630326D01*
X219414838Y-85630326D02*
X219462457Y-85582707D01*
X219462457Y-85582707D02*
X219557695Y-85535088D01*
X219557695Y-85535088D02*
X219748171Y-85487469D01*
X219748171Y-85487469D02*
X219986266Y-85487469D01*
X219986266Y-85487469D02*
X220176742Y-85535088D01*
X220176742Y-85535088D02*
X220271980Y-85582707D01*
X220271980Y-85582707D02*
X220319600Y-85630326D01*
X220319600Y-85630326D02*
X220367219Y-85725564D01*
X220367219Y-85725564D02*
X220367219Y-85820802D01*
X220367219Y-85820802D02*
X220319600Y-85916040D01*
X220319600Y-85916040D02*
X220271980Y-85963659D01*
X220271980Y-85963659D02*
X220176742Y-86011278D01*
X220176742Y-86011278D02*
X219986266Y-86058897D01*
X219986266Y-86058897D02*
X219748171Y-86058897D01*
X219748171Y-86058897D02*
X219557695Y-86011278D01*
X219557695Y-86011278D02*
X219462457Y-85963659D01*
X219462457Y-85963659D02*
X219414838Y-85916040D01*
X219414838Y-85916040D02*
X219367219Y-85820802D01*
D10*
X219018508Y-106680460D02*
X218979803Y-106757870D01*
X218979803Y-106757870D02*
X218979803Y-106873984D01*
X218979803Y-106873984D02*
X219018508Y-106990098D01*
X219018508Y-106990098D02*
X219095918Y-107067508D01*
X219095918Y-107067508D02*
X219173327Y-107106213D01*
X219173327Y-107106213D02*
X219328146Y-107144917D01*
X219328146Y-107144917D02*
X219444260Y-107144917D01*
X219444260Y-107144917D02*
X219599079Y-107106213D01*
X219599079Y-107106213D02*
X219676489Y-107067508D01*
X219676489Y-107067508D02*
X219753899Y-106990098D01*
X219753899Y-106990098D02*
X219792603Y-106873984D01*
X219792603Y-106873984D02*
X219792603Y-106796575D01*
X219792603Y-106796575D02*
X219753899Y-106680460D01*
X219753899Y-106680460D02*
X219715194Y-106641756D01*
X219715194Y-106641756D02*
X219444260Y-106641756D01*
X219444260Y-106641756D02*
X219444260Y-106796575D01*
X219792603Y-106293413D02*
X218979803Y-106293413D01*
X218979803Y-106293413D02*
X219792603Y-105828956D01*
X219792603Y-105828956D02*
X218979803Y-105828956D01*
X219792603Y-105441908D02*
X218979803Y-105441908D01*
X218979803Y-105441908D02*
X218979803Y-105248384D01*
X218979803Y-105248384D02*
X219018508Y-105132270D01*
X219018508Y-105132270D02*
X219095918Y-105054860D01*
X219095918Y-105054860D02*
X219173327Y-105016155D01*
X219173327Y-105016155D02*
X219328146Y-104977451D01*
X219328146Y-104977451D02*
X219444260Y-104977451D01*
X219444260Y-104977451D02*
X219599079Y-105016155D01*
X219599079Y-105016155D02*
X219676489Y-105054860D01*
X219676489Y-105054860D02*
X219753899Y-105132270D01*
X219753899Y-105132270D02*
X219792603Y-105248384D01*
X219792603Y-105248384D02*
X219792603Y-105441908D01*
X219653899Y-97644917D02*
X219692603Y-97528803D01*
X219692603Y-97528803D02*
X219692603Y-97335279D01*
X219692603Y-97335279D02*
X219653899Y-97257870D01*
X219653899Y-97257870D02*
X219615194Y-97219165D01*
X219615194Y-97219165D02*
X219537784Y-97180460D01*
X219537784Y-97180460D02*
X219460375Y-97180460D01*
X219460375Y-97180460D02*
X219382965Y-97219165D01*
X219382965Y-97219165D02*
X219344260Y-97257870D01*
X219344260Y-97257870D02*
X219305556Y-97335279D01*
X219305556Y-97335279D02*
X219266851Y-97490098D01*
X219266851Y-97490098D02*
X219228146Y-97567508D01*
X219228146Y-97567508D02*
X219189441Y-97606213D01*
X219189441Y-97606213D02*
X219112032Y-97644917D01*
X219112032Y-97644917D02*
X219034622Y-97644917D01*
X219034622Y-97644917D02*
X218957213Y-97606213D01*
X218957213Y-97606213D02*
X218918508Y-97567508D01*
X218918508Y-97567508D02*
X218879803Y-97490098D01*
X218879803Y-97490098D02*
X218879803Y-97296575D01*
X218879803Y-97296575D02*
X218918508Y-97180460D01*
X219692603Y-96832118D02*
X218879803Y-96832118D01*
X218918508Y-96019317D02*
X218879803Y-96096727D01*
X218879803Y-96096727D02*
X218879803Y-96212841D01*
X218879803Y-96212841D02*
X218918508Y-96328955D01*
X218918508Y-96328955D02*
X218995918Y-96406365D01*
X218995918Y-96406365D02*
X219073327Y-96445070D01*
X219073327Y-96445070D02*
X219228146Y-96483774D01*
X219228146Y-96483774D02*
X219344260Y-96483774D01*
X219344260Y-96483774D02*
X219499079Y-96445070D01*
X219499079Y-96445070D02*
X219576489Y-96406365D01*
X219576489Y-96406365D02*
X219653899Y-96328955D01*
X219653899Y-96328955D02*
X219692603Y-96212841D01*
X219692603Y-96212841D02*
X219692603Y-96135432D01*
X219692603Y-96135432D02*
X219653899Y-96019317D01*
X219653899Y-96019317D02*
X219615194Y-95980613D01*
X219615194Y-95980613D02*
X219344260Y-95980613D01*
X219344260Y-95980613D02*
X219344260Y-96135432D01*
X195655082Y-67060375D02*
X196042129Y-67060375D01*
X195577672Y-67292603D02*
X195848605Y-66479803D01*
X195848605Y-66479803D02*
X196119539Y-67292603D01*
X196854929Y-67215194D02*
X196816225Y-67253899D01*
X196816225Y-67253899D02*
X196700110Y-67292603D01*
X196700110Y-67292603D02*
X196622701Y-67292603D01*
X196622701Y-67292603D02*
X196506587Y-67253899D01*
X196506587Y-67253899D02*
X196429177Y-67176489D01*
X196429177Y-67176489D02*
X196390472Y-67099079D01*
X196390472Y-67099079D02*
X196351768Y-66944260D01*
X196351768Y-66944260D02*
X196351768Y-66828146D01*
X196351768Y-66828146D02*
X196390472Y-66673327D01*
X196390472Y-66673327D02*
X196429177Y-66595918D01*
X196429177Y-66595918D02*
X196506587Y-66518508D01*
X196506587Y-66518508D02*
X196622701Y-66479803D01*
X196622701Y-66479803D02*
X196700110Y-66479803D01*
X196700110Y-66479803D02*
X196816225Y-66518508D01*
X196816225Y-66518508D02*
X196854929Y-66557213D01*
X197667729Y-67215194D02*
X197629025Y-67253899D01*
X197629025Y-67253899D02*
X197512910Y-67292603D01*
X197512910Y-67292603D02*
X197435501Y-67292603D01*
X197435501Y-67292603D02*
X197319387Y-67253899D01*
X197319387Y-67253899D02*
X197241977Y-67176489D01*
X197241977Y-67176489D02*
X197203272Y-67099079D01*
X197203272Y-67099079D02*
X197164568Y-66944260D01*
X197164568Y-66944260D02*
X197164568Y-66828146D01*
X197164568Y-66828146D02*
X197203272Y-66673327D01*
X197203272Y-66673327D02*
X197241977Y-66595918D01*
X197241977Y-66595918D02*
X197319387Y-66518508D01*
X197319387Y-66518508D02*
X197435501Y-66479803D01*
X197435501Y-66479803D02*
X197512910Y-66479803D01*
X197512910Y-66479803D02*
X197629025Y-66518508D01*
X197629025Y-66518508D02*
X197667729Y-66557213D01*
X198016072Y-66866851D02*
X198287006Y-66866851D01*
X198403120Y-67292603D02*
X198016072Y-67292603D01*
X198016072Y-67292603D02*
X198016072Y-66479803D01*
X198016072Y-66479803D02*
X198403120Y-66479803D01*
X199138510Y-67292603D02*
X198751462Y-67292603D01*
X198751462Y-67292603D02*
X198751462Y-66479803D01*
X199409443Y-66866851D02*
X199680377Y-66866851D01*
X199796491Y-67292603D02*
X199409443Y-67292603D01*
X199409443Y-67292603D02*
X199409443Y-66479803D01*
X199409443Y-66479803D02*
X199796491Y-66479803D01*
X200609290Y-67292603D02*
X200338357Y-66905556D01*
X200144833Y-67292603D02*
X200144833Y-66479803D01*
X200144833Y-66479803D02*
X200454471Y-66479803D01*
X200454471Y-66479803D02*
X200531881Y-66518508D01*
X200531881Y-66518508D02*
X200570586Y-66557213D01*
X200570586Y-66557213D02*
X200609290Y-66634622D01*
X200609290Y-66634622D02*
X200609290Y-66750737D01*
X200609290Y-66750737D02*
X200570586Y-66828146D01*
X200570586Y-66828146D02*
X200531881Y-66866851D01*
X200531881Y-66866851D02*
X200454471Y-66905556D01*
X200454471Y-66905556D02*
X200144833Y-66905556D01*
X201112452Y-66479803D02*
X201267271Y-66479803D01*
X201267271Y-66479803D02*
X201344681Y-66518508D01*
X201344681Y-66518508D02*
X201422090Y-66595918D01*
X201422090Y-66595918D02*
X201460795Y-66750737D01*
X201460795Y-66750737D02*
X201460795Y-67021670D01*
X201460795Y-67021670D02*
X201422090Y-67176489D01*
X201422090Y-67176489D02*
X201344681Y-67253899D01*
X201344681Y-67253899D02*
X201267271Y-67292603D01*
X201267271Y-67292603D02*
X201112452Y-67292603D01*
X201112452Y-67292603D02*
X201035043Y-67253899D01*
X201035043Y-67253899D02*
X200957633Y-67176489D01*
X200957633Y-67176489D02*
X200918929Y-67021670D01*
X200918929Y-67021670D02*
X200918929Y-66750737D01*
X200918929Y-66750737D02*
X200957633Y-66595918D01*
X200957633Y-66595918D02*
X201035043Y-66518508D01*
X201035043Y-66518508D02*
X201112452Y-66479803D01*
X201809138Y-67292603D02*
X201809138Y-66479803D01*
X201809138Y-66479803D02*
X202080072Y-67060375D01*
X202080072Y-67060375D02*
X202351005Y-66479803D01*
X202351005Y-66479803D02*
X202351005Y-67292603D01*
X202738052Y-66866851D02*
X203008986Y-66866851D01*
X203125100Y-67292603D02*
X202738052Y-67292603D01*
X202738052Y-67292603D02*
X202738052Y-66479803D01*
X202738052Y-66479803D02*
X203125100Y-66479803D01*
X203357328Y-66479803D02*
X203821785Y-66479803D01*
X203589557Y-67292603D02*
X203589557Y-66479803D01*
X204092718Y-66866851D02*
X204363652Y-66866851D01*
X204479766Y-67292603D02*
X204092718Y-67292603D01*
X204092718Y-67292603D02*
X204092718Y-66479803D01*
X204092718Y-66479803D02*
X204479766Y-66479803D01*
X205292565Y-67292603D02*
X205021632Y-66905556D01*
X204828108Y-67292603D02*
X204828108Y-66479803D01*
X204828108Y-66479803D02*
X205137746Y-66479803D01*
X205137746Y-66479803D02*
X205215156Y-66518508D01*
X205215156Y-66518508D02*
X205253861Y-66557213D01*
X205253861Y-66557213D02*
X205292565Y-66634622D01*
X205292565Y-66634622D02*
X205292565Y-66750737D01*
X205292565Y-66750737D02*
X205253861Y-66828146D01*
X205253861Y-66828146D02*
X205215156Y-66866851D01*
X205215156Y-66866851D02*
X205137746Y-66905556D01*
X205137746Y-66905556D02*
X204828108Y-66905556D01*
D12*
X179221804Y-80394288D02*
X179221804Y-79581488D01*
X179221804Y-79581488D02*
X179450375Y-79581488D01*
X179450375Y-79581488D02*
X179507518Y-79620193D01*
X179507518Y-79620193D02*
X179536089Y-79658898D01*
X179536089Y-79658898D02*
X179564661Y-79736307D01*
X179564661Y-79736307D02*
X179564661Y-79852422D01*
X179564661Y-79852422D02*
X179536089Y-79929831D01*
X179536089Y-79929831D02*
X179507518Y-79968536D01*
X179507518Y-79968536D02*
X179450375Y-80007241D01*
X179450375Y-80007241D02*
X179221804Y-80007241D01*
X179764661Y-79581488D02*
X179907518Y-80394288D01*
X179907518Y-80394288D02*
X180021804Y-79813717D01*
X180021804Y-79813717D02*
X180136089Y-80394288D01*
X180136089Y-80394288D02*
X180278947Y-79581488D01*
X180850375Y-80394288D02*
X180650375Y-80007241D01*
X180507518Y-80394288D02*
X180507518Y-79581488D01*
X180507518Y-79581488D02*
X180736089Y-79581488D01*
X180736089Y-79581488D02*
X180793232Y-79620193D01*
X180793232Y-79620193D02*
X180821803Y-79658898D01*
X180821803Y-79658898D02*
X180850375Y-79736307D01*
X180850375Y-79736307D02*
X180850375Y-79852422D01*
X180850375Y-79852422D02*
X180821803Y-79929831D01*
X180821803Y-79929831D02*
X180793232Y-79968536D01*
X180793232Y-79968536D02*
X180736089Y-80007241D01*
X180736089Y-80007241D02*
X180507518Y-80007241D01*
D10*
X219692603Y-121206213D02*
X218879803Y-121206213D01*
X218879803Y-121206213D02*
X218879803Y-120896575D01*
X218879803Y-120896575D02*
X218918508Y-120819165D01*
X218918508Y-120819165D02*
X218957213Y-120780460D01*
X218957213Y-120780460D02*
X219034622Y-120741756D01*
X219034622Y-120741756D02*
X219150737Y-120741756D01*
X219150737Y-120741756D02*
X219228146Y-120780460D01*
X219228146Y-120780460D02*
X219266851Y-120819165D01*
X219266851Y-120819165D02*
X219305556Y-120896575D01*
X219305556Y-120896575D02*
X219305556Y-121206213D01*
X218879803Y-120470822D02*
X219692603Y-120277298D01*
X219692603Y-120277298D02*
X219112032Y-120122479D01*
X219112032Y-120122479D02*
X219692603Y-119967660D01*
X219692603Y-119967660D02*
X218879803Y-119774137D01*
X219692603Y-119000042D02*
X219305556Y-119270975D01*
X219692603Y-119464499D02*
X218879803Y-119464499D01*
X218879803Y-119464499D02*
X218879803Y-119154861D01*
X218879803Y-119154861D02*
X218918508Y-119077451D01*
X218918508Y-119077451D02*
X218957213Y-119038746D01*
X218957213Y-119038746D02*
X219034622Y-119000042D01*
X219034622Y-119000042D02*
X219150737Y-119000042D01*
X219150737Y-119000042D02*
X219228146Y-119038746D01*
X219228146Y-119038746D02*
X219266851Y-119077451D01*
X219266851Y-119077451D02*
X219305556Y-119154861D01*
X219305556Y-119154861D02*
X219305556Y-119464499D01*
D12*
X179805711Y-109621804D02*
X180618511Y-109621804D01*
X180618511Y-109621804D02*
X180618511Y-109850375D01*
X180618511Y-109850375D02*
X180579806Y-109907518D01*
X180579806Y-109907518D02*
X180541101Y-109936089D01*
X180541101Y-109936089D02*
X180463692Y-109964661D01*
X180463692Y-109964661D02*
X180347577Y-109964661D01*
X180347577Y-109964661D02*
X180270168Y-109936089D01*
X180270168Y-109936089D02*
X180231463Y-109907518D01*
X180231463Y-109907518D02*
X180192758Y-109850375D01*
X180192758Y-109850375D02*
X180192758Y-109621804D01*
X180618511Y-110164661D02*
X179805711Y-110307518D01*
X179805711Y-110307518D02*
X180386282Y-110421804D01*
X180386282Y-110421804D02*
X179805711Y-110536089D01*
X179805711Y-110536089D02*
X180618511Y-110678947D01*
X179805711Y-111250375D02*
X180192758Y-111050375D01*
X179805711Y-110907518D02*
X180618511Y-110907518D01*
X180618511Y-110907518D02*
X180618511Y-111136089D01*
X180618511Y-111136089D02*
X180579806Y-111193232D01*
X180579806Y-111193232D02*
X180541101Y-111221803D01*
X180541101Y-111221803D02*
X180463692Y-111250375D01*
X180463692Y-111250375D02*
X180347577Y-111250375D01*
X180347577Y-111250375D02*
X180270168Y-111221803D01*
X180270168Y-111221803D02*
X180231463Y-111193232D01*
X180231463Y-111193232D02*
X180192758Y-111136089D01*
X180192758Y-111136089D02*
X180192758Y-110907518D01*
X180879806Y-115436089D02*
X180918511Y-115378947D01*
X180918511Y-115378947D02*
X180918511Y-115293232D01*
X180918511Y-115293232D02*
X180879806Y-115207518D01*
X180879806Y-115207518D02*
X180802396Y-115150375D01*
X180802396Y-115150375D02*
X180724987Y-115121804D01*
X180724987Y-115121804D02*
X180570168Y-115093232D01*
X180570168Y-115093232D02*
X180454054Y-115093232D01*
X180454054Y-115093232D02*
X180299235Y-115121804D01*
X180299235Y-115121804D02*
X180221825Y-115150375D01*
X180221825Y-115150375D02*
X180144416Y-115207518D01*
X180144416Y-115207518D02*
X180105711Y-115293232D01*
X180105711Y-115293232D02*
X180105711Y-115350375D01*
X180105711Y-115350375D02*
X180144416Y-115436089D01*
X180144416Y-115436089D02*
X180183120Y-115464661D01*
X180183120Y-115464661D02*
X180454054Y-115464661D01*
X180454054Y-115464661D02*
X180454054Y-115350375D01*
X180105711Y-115721804D02*
X180918511Y-115721804D01*
X180918511Y-115721804D02*
X180105711Y-116064661D01*
X180105711Y-116064661D02*
X180918511Y-116064661D01*
X180105711Y-116350375D02*
X180918511Y-116350375D01*
X180918511Y-116350375D02*
X180918511Y-116493232D01*
X180918511Y-116493232D02*
X180879806Y-116578946D01*
X180879806Y-116578946D02*
X180802396Y-116636089D01*
X180802396Y-116636089D02*
X180724987Y-116664660D01*
X180724987Y-116664660D02*
X180570168Y-116693232D01*
X180570168Y-116693232D02*
X180454054Y-116693232D01*
X180454054Y-116693232D02*
X180299235Y-116664660D01*
X180299235Y-116664660D02*
X180221825Y-116636089D01*
X180221825Y-116636089D02*
X180144416Y-116578946D01*
X180144416Y-116578946D02*
X180105711Y-116493232D01*
X180105711Y-116493232D02*
X180105711Y-116350375D01*
D13*
X182335790Y-92027207D02*
X182335790Y-92298141D01*
X181910038Y-92414255D02*
X181910038Y-92027207D01*
X181910038Y-92027207D02*
X182722838Y-92027207D01*
X182722838Y-92027207D02*
X182722838Y-92414255D01*
X181948743Y-92723893D02*
X181910038Y-92840007D01*
X181910038Y-92840007D02*
X181910038Y-93033531D01*
X181910038Y-93033531D02*
X181948743Y-93110940D01*
X181948743Y-93110940D02*
X181987447Y-93149645D01*
X181987447Y-93149645D02*
X182064857Y-93188350D01*
X182064857Y-93188350D02*
X182142266Y-93188350D01*
X182142266Y-93188350D02*
X182219676Y-93149645D01*
X182219676Y-93149645D02*
X182258381Y-93110940D01*
X182258381Y-93110940D02*
X182297085Y-93033531D01*
X182297085Y-93033531D02*
X182335790Y-92878712D01*
X182335790Y-92878712D02*
X182374495Y-92801302D01*
X182374495Y-92801302D02*
X182413200Y-92762597D01*
X182413200Y-92762597D02*
X182490609Y-92723893D01*
X182490609Y-92723893D02*
X182568019Y-92723893D01*
X182568019Y-92723893D02*
X182645428Y-92762597D01*
X182645428Y-92762597D02*
X182684133Y-92801302D01*
X182684133Y-92801302D02*
X182722838Y-92878712D01*
X182722838Y-92878712D02*
X182722838Y-93072235D01*
X182722838Y-93072235D02*
X182684133Y-93188350D01*
X181987447Y-94001149D02*
X181948743Y-93962445D01*
X181948743Y-93962445D02*
X181910038Y-93846330D01*
X181910038Y-93846330D02*
X181910038Y-93768921D01*
X181910038Y-93768921D02*
X181948743Y-93652807D01*
X181948743Y-93652807D02*
X182026152Y-93575397D01*
X182026152Y-93575397D02*
X182103562Y-93536692D01*
X182103562Y-93536692D02*
X182258381Y-93497988D01*
X182258381Y-93497988D02*
X182374495Y-93497988D01*
X182374495Y-93497988D02*
X182529314Y-93536692D01*
X182529314Y-93536692D02*
X182606723Y-93575397D01*
X182606723Y-93575397D02*
X182684133Y-93652807D01*
X182684133Y-93652807D02*
X182722838Y-93768921D01*
X182722838Y-93768921D02*
X182722838Y-93846330D01*
X182722838Y-93846330D02*
X182684133Y-93962445D01*
X182684133Y-93962445D02*
X182645428Y-94001149D01*
X182645428Y-94310788D02*
X182684133Y-94349492D01*
X182684133Y-94349492D02*
X182722838Y-94426902D01*
X182722838Y-94426902D02*
X182722838Y-94620426D01*
X182722838Y-94620426D02*
X182684133Y-94697835D01*
X182684133Y-94697835D02*
X182645428Y-94736540D01*
X182645428Y-94736540D02*
X182568019Y-94775245D01*
X182568019Y-94775245D02*
X182490609Y-94775245D01*
X182490609Y-94775245D02*
X182374495Y-94736540D01*
X182374495Y-94736540D02*
X181910038Y-94272083D01*
X181910038Y-94272083D02*
X181910038Y-94775245D01*
D10*
X219753899Y-128744917D02*
X219792603Y-128628803D01*
X219792603Y-128628803D02*
X219792603Y-128435279D01*
X219792603Y-128435279D02*
X219753899Y-128357870D01*
X219753899Y-128357870D02*
X219715194Y-128319165D01*
X219715194Y-128319165D02*
X219637784Y-128280460D01*
X219637784Y-128280460D02*
X219560375Y-128280460D01*
X219560375Y-128280460D02*
X219482965Y-128319165D01*
X219482965Y-128319165D02*
X219444260Y-128357870D01*
X219444260Y-128357870D02*
X219405556Y-128435279D01*
X219405556Y-128435279D02*
X219366851Y-128590098D01*
X219366851Y-128590098D02*
X219328146Y-128667508D01*
X219328146Y-128667508D02*
X219289441Y-128706213D01*
X219289441Y-128706213D02*
X219212032Y-128744917D01*
X219212032Y-128744917D02*
X219134622Y-128744917D01*
X219134622Y-128744917D02*
X219057213Y-128706213D01*
X219057213Y-128706213D02*
X219018508Y-128667508D01*
X219018508Y-128667508D02*
X218979803Y-128590098D01*
X218979803Y-128590098D02*
X218979803Y-128396575D01*
X218979803Y-128396575D02*
X219018508Y-128280460D01*
X219792603Y-127932118D02*
X218979803Y-127932118D01*
X219018508Y-127119317D02*
X218979803Y-127196727D01*
X218979803Y-127196727D02*
X218979803Y-127312841D01*
X218979803Y-127312841D02*
X219018508Y-127428955D01*
X219018508Y-127428955D02*
X219095918Y-127506365D01*
X219095918Y-127506365D02*
X219173327Y-127545070D01*
X219173327Y-127545070D02*
X219328146Y-127583774D01*
X219328146Y-127583774D02*
X219444260Y-127583774D01*
X219444260Y-127583774D02*
X219599079Y-127545070D01*
X219599079Y-127545070D02*
X219676489Y-127506365D01*
X219676489Y-127506365D02*
X219753899Y-127428955D01*
X219753899Y-127428955D02*
X219792603Y-127312841D01*
X219792603Y-127312841D02*
X219792603Y-127235432D01*
X219792603Y-127235432D02*
X219753899Y-127119317D01*
X219753899Y-127119317D02*
X219715194Y-127080613D01*
X219715194Y-127080613D02*
X219444260Y-127080613D01*
X219444260Y-127080613D02*
X219444260Y-127235432D01*
D12*
X179636089Y-84620193D02*
X179578947Y-84581488D01*
X179578947Y-84581488D02*
X179493232Y-84581488D01*
X179493232Y-84581488D02*
X179407518Y-84620193D01*
X179407518Y-84620193D02*
X179350375Y-84697603D01*
X179350375Y-84697603D02*
X179321804Y-84775012D01*
X179321804Y-84775012D02*
X179293232Y-84929831D01*
X179293232Y-84929831D02*
X179293232Y-85045945D01*
X179293232Y-85045945D02*
X179321804Y-85200764D01*
X179321804Y-85200764D02*
X179350375Y-85278174D01*
X179350375Y-85278174D02*
X179407518Y-85355584D01*
X179407518Y-85355584D02*
X179493232Y-85394288D01*
X179493232Y-85394288D02*
X179550375Y-85394288D01*
X179550375Y-85394288D02*
X179636089Y-85355584D01*
X179636089Y-85355584D02*
X179664661Y-85316879D01*
X179664661Y-85316879D02*
X179664661Y-85045945D01*
X179664661Y-85045945D02*
X179550375Y-85045945D01*
X179921804Y-85394288D02*
X179921804Y-84581488D01*
X179921804Y-84581488D02*
X180264661Y-85394288D01*
X180264661Y-85394288D02*
X180264661Y-84581488D01*
X180550375Y-85394288D02*
X180550375Y-84581488D01*
X180550375Y-84581488D02*
X180693232Y-84581488D01*
X180693232Y-84581488D02*
X180778946Y-84620193D01*
X180778946Y-84620193D02*
X180836089Y-84697603D01*
X180836089Y-84697603D02*
X180864660Y-84775012D01*
X180864660Y-84775012D02*
X180893232Y-84929831D01*
X180893232Y-84929831D02*
X180893232Y-85045945D01*
X180893232Y-85045945D02*
X180864660Y-85200764D01*
X180864660Y-85200764D02*
X180836089Y-85278174D01*
X180836089Y-85278174D02*
X180778946Y-85355584D01*
X180778946Y-85355584D02*
X180693232Y-85394288D01*
X180693232Y-85394288D02*
X180550375Y-85394288D01*
X187493232Y-75255584D02*
X187578947Y-75294288D01*
X187578947Y-75294288D02*
X187721804Y-75294288D01*
X187721804Y-75294288D02*
X187778947Y-75255584D01*
X187778947Y-75255584D02*
X187807518Y-75216879D01*
X187807518Y-75216879D02*
X187836089Y-75139469D01*
X187836089Y-75139469D02*
X187836089Y-75062060D01*
X187836089Y-75062060D02*
X187807518Y-74984650D01*
X187807518Y-74984650D02*
X187778947Y-74945945D01*
X187778947Y-74945945D02*
X187721804Y-74907241D01*
X187721804Y-74907241D02*
X187607518Y-74868536D01*
X187607518Y-74868536D02*
X187550375Y-74829831D01*
X187550375Y-74829831D02*
X187521804Y-74791126D01*
X187521804Y-74791126D02*
X187493232Y-74713717D01*
X187493232Y-74713717D02*
X187493232Y-74636307D01*
X187493232Y-74636307D02*
X187521804Y-74558898D01*
X187521804Y-74558898D02*
X187550375Y-74520193D01*
X187550375Y-74520193D02*
X187607518Y-74481488D01*
X187607518Y-74481488D02*
X187750375Y-74481488D01*
X187750375Y-74481488D02*
X187836089Y-74520193D01*
X188436090Y-75216879D02*
X188407518Y-75255584D01*
X188407518Y-75255584D02*
X188321804Y-75294288D01*
X188321804Y-75294288D02*
X188264661Y-75294288D01*
X188264661Y-75294288D02*
X188178947Y-75255584D01*
X188178947Y-75255584D02*
X188121804Y-75178174D01*
X188121804Y-75178174D02*
X188093233Y-75100764D01*
X188093233Y-75100764D02*
X188064661Y-74945945D01*
X188064661Y-74945945D02*
X188064661Y-74829831D01*
X188064661Y-74829831D02*
X188093233Y-74675012D01*
X188093233Y-74675012D02*
X188121804Y-74597603D01*
X188121804Y-74597603D02*
X188178947Y-74520193D01*
X188178947Y-74520193D02*
X188264661Y-74481488D01*
X188264661Y-74481488D02*
X188321804Y-74481488D01*
X188321804Y-74481488D02*
X188407518Y-74520193D01*
X188407518Y-74520193D02*
X188436090Y-74558898D01*
X188978947Y-75294288D02*
X188693233Y-75294288D01*
X188693233Y-75294288D02*
X188693233Y-74481488D01*
D10*
X218918508Y-124780460D02*
X218879803Y-124857870D01*
X218879803Y-124857870D02*
X218879803Y-124973984D01*
X218879803Y-124973984D02*
X218918508Y-125090098D01*
X218918508Y-125090098D02*
X218995918Y-125167508D01*
X218995918Y-125167508D02*
X219073327Y-125206213D01*
X219073327Y-125206213D02*
X219228146Y-125244917D01*
X219228146Y-125244917D02*
X219344260Y-125244917D01*
X219344260Y-125244917D02*
X219499079Y-125206213D01*
X219499079Y-125206213D02*
X219576489Y-125167508D01*
X219576489Y-125167508D02*
X219653899Y-125090098D01*
X219653899Y-125090098D02*
X219692603Y-124973984D01*
X219692603Y-124973984D02*
X219692603Y-124896575D01*
X219692603Y-124896575D02*
X219653899Y-124780460D01*
X219653899Y-124780460D02*
X219615194Y-124741756D01*
X219615194Y-124741756D02*
X219344260Y-124741756D01*
X219344260Y-124741756D02*
X219344260Y-124896575D01*
X219692603Y-124393413D02*
X218879803Y-124393413D01*
X218879803Y-124393413D02*
X219692603Y-123928956D01*
X219692603Y-123928956D02*
X218879803Y-123928956D01*
X219692603Y-123541908D02*
X218879803Y-123541908D01*
X218879803Y-123541908D02*
X218879803Y-123348384D01*
X218879803Y-123348384D02*
X218918508Y-123232270D01*
X218918508Y-123232270D02*
X218995918Y-123154860D01*
X218995918Y-123154860D02*
X219073327Y-123116155D01*
X219073327Y-123116155D02*
X219228146Y-123077451D01*
X219228146Y-123077451D02*
X219344260Y-123077451D01*
X219344260Y-123077451D02*
X219499079Y-123116155D01*
X219499079Y-123116155D02*
X219576489Y-123154860D01*
X219576489Y-123154860D02*
X219653899Y-123232270D01*
X219653899Y-123232270D02*
X219692603Y-123348384D01*
X219692603Y-123348384D02*
X219692603Y-123541908D01*
D12*
X187493232Y-77555584D02*
X187578947Y-77594288D01*
X187578947Y-77594288D02*
X187721804Y-77594288D01*
X187721804Y-77594288D02*
X187778947Y-77555584D01*
X187778947Y-77555584D02*
X187807518Y-77516879D01*
X187807518Y-77516879D02*
X187836089Y-77439469D01*
X187836089Y-77439469D02*
X187836089Y-77362060D01*
X187836089Y-77362060D02*
X187807518Y-77284650D01*
X187807518Y-77284650D02*
X187778947Y-77245945D01*
X187778947Y-77245945D02*
X187721804Y-77207241D01*
X187721804Y-77207241D02*
X187607518Y-77168536D01*
X187607518Y-77168536D02*
X187550375Y-77129831D01*
X187550375Y-77129831D02*
X187521804Y-77091126D01*
X187521804Y-77091126D02*
X187493232Y-77013717D01*
X187493232Y-77013717D02*
X187493232Y-76936307D01*
X187493232Y-76936307D02*
X187521804Y-76858898D01*
X187521804Y-76858898D02*
X187550375Y-76820193D01*
X187550375Y-76820193D02*
X187607518Y-76781488D01*
X187607518Y-76781488D02*
X187750375Y-76781488D01*
X187750375Y-76781488D02*
X187836089Y-76820193D01*
X188093233Y-77594288D02*
X188093233Y-76781488D01*
X188093233Y-76781488D02*
X188236090Y-76781488D01*
X188236090Y-76781488D02*
X188321804Y-76820193D01*
X188321804Y-76820193D02*
X188378947Y-76897603D01*
X188378947Y-76897603D02*
X188407518Y-76975012D01*
X188407518Y-76975012D02*
X188436090Y-77129831D01*
X188436090Y-77129831D02*
X188436090Y-77245945D01*
X188436090Y-77245945D02*
X188407518Y-77400764D01*
X188407518Y-77400764D02*
X188378947Y-77478174D01*
X188378947Y-77478174D02*
X188321804Y-77555584D01*
X188321804Y-77555584D02*
X188236090Y-77594288D01*
X188236090Y-77594288D02*
X188093233Y-77594288D01*
X188664661Y-77362060D02*
X188950376Y-77362060D01*
X188607518Y-77594288D02*
X188807518Y-76781488D01*
X188807518Y-76781488D02*
X189007518Y-77594288D01*
X187836089Y-81820193D02*
X187778947Y-81781488D01*
X187778947Y-81781488D02*
X187693232Y-81781488D01*
X187693232Y-81781488D02*
X187607518Y-81820193D01*
X187607518Y-81820193D02*
X187550375Y-81897603D01*
X187550375Y-81897603D02*
X187521804Y-81975012D01*
X187521804Y-81975012D02*
X187493232Y-82129831D01*
X187493232Y-82129831D02*
X187493232Y-82245945D01*
X187493232Y-82245945D02*
X187521804Y-82400764D01*
X187521804Y-82400764D02*
X187550375Y-82478174D01*
X187550375Y-82478174D02*
X187607518Y-82555584D01*
X187607518Y-82555584D02*
X187693232Y-82594288D01*
X187693232Y-82594288D02*
X187750375Y-82594288D01*
X187750375Y-82594288D02*
X187836089Y-82555584D01*
X187836089Y-82555584D02*
X187864661Y-82516879D01*
X187864661Y-82516879D02*
X187864661Y-82245945D01*
X187864661Y-82245945D02*
X187750375Y-82245945D01*
X188121804Y-82594288D02*
X188121804Y-81781488D01*
X188121804Y-81781488D02*
X188464661Y-82594288D01*
X188464661Y-82594288D02*
X188464661Y-81781488D01*
X188750375Y-82594288D02*
X188750375Y-81781488D01*
X188750375Y-81781488D02*
X188893232Y-81781488D01*
X188893232Y-81781488D02*
X188978946Y-81820193D01*
X188978946Y-81820193D02*
X189036089Y-81897603D01*
X189036089Y-81897603D02*
X189064660Y-81975012D01*
X189064660Y-81975012D02*
X189093232Y-82129831D01*
X189093232Y-82129831D02*
X189093232Y-82245945D01*
X189093232Y-82245945D02*
X189064660Y-82400764D01*
X189064660Y-82400764D02*
X189036089Y-82478174D01*
X189036089Y-82478174D02*
X188978946Y-82555584D01*
X188978946Y-82555584D02*
X188893232Y-82594288D01*
X188893232Y-82594288D02*
X188750375Y-82594288D01*
D13*
X182335790Y-80827207D02*
X182335790Y-81098141D01*
X181910038Y-81214255D02*
X181910038Y-80827207D01*
X181910038Y-80827207D02*
X182722838Y-80827207D01*
X182722838Y-80827207D02*
X182722838Y-81214255D01*
X181948743Y-81523893D02*
X181910038Y-81640007D01*
X181910038Y-81640007D02*
X181910038Y-81833531D01*
X181910038Y-81833531D02*
X181948743Y-81910940D01*
X181948743Y-81910940D02*
X181987447Y-81949645D01*
X181987447Y-81949645D02*
X182064857Y-81988350D01*
X182064857Y-81988350D02*
X182142266Y-81988350D01*
X182142266Y-81988350D02*
X182219676Y-81949645D01*
X182219676Y-81949645D02*
X182258381Y-81910940D01*
X182258381Y-81910940D02*
X182297085Y-81833531D01*
X182297085Y-81833531D02*
X182335790Y-81678712D01*
X182335790Y-81678712D02*
X182374495Y-81601302D01*
X182374495Y-81601302D02*
X182413200Y-81562597D01*
X182413200Y-81562597D02*
X182490609Y-81523893D01*
X182490609Y-81523893D02*
X182568019Y-81523893D01*
X182568019Y-81523893D02*
X182645428Y-81562597D01*
X182645428Y-81562597D02*
X182684133Y-81601302D01*
X182684133Y-81601302D02*
X182722838Y-81678712D01*
X182722838Y-81678712D02*
X182722838Y-81872235D01*
X182722838Y-81872235D02*
X182684133Y-81988350D01*
X181987447Y-82801149D02*
X181948743Y-82762445D01*
X181948743Y-82762445D02*
X181910038Y-82646330D01*
X181910038Y-82646330D02*
X181910038Y-82568921D01*
X181910038Y-82568921D02*
X181948743Y-82452807D01*
X181948743Y-82452807D02*
X182026152Y-82375397D01*
X182026152Y-82375397D02*
X182103562Y-82336692D01*
X182103562Y-82336692D02*
X182258381Y-82297988D01*
X182258381Y-82297988D02*
X182374495Y-82297988D01*
X182374495Y-82297988D02*
X182529314Y-82336692D01*
X182529314Y-82336692D02*
X182606723Y-82375397D01*
X182606723Y-82375397D02*
X182684133Y-82452807D01*
X182684133Y-82452807D02*
X182722838Y-82568921D01*
X182722838Y-82568921D02*
X182722838Y-82646330D01*
X182722838Y-82646330D02*
X182684133Y-82762445D01*
X182684133Y-82762445D02*
X182645428Y-82801149D01*
X181910038Y-83575245D02*
X181910038Y-83110788D01*
X181910038Y-83343016D02*
X182722838Y-83343016D01*
X182722838Y-83343016D02*
X182606723Y-83265607D01*
X182606723Y-83265607D02*
X182529314Y-83188197D01*
X182529314Y-83188197D02*
X182490609Y-83110788D01*
D10*
X219784041Y-102806213D02*
X218971241Y-102806213D01*
X218971241Y-102806213D02*
X218971241Y-102496575D01*
X218971241Y-102496575D02*
X219009946Y-102419165D01*
X219009946Y-102419165D02*
X219048651Y-102380460D01*
X219048651Y-102380460D02*
X219126060Y-102341756D01*
X219126060Y-102341756D02*
X219242175Y-102341756D01*
X219242175Y-102341756D02*
X219319584Y-102380460D01*
X219319584Y-102380460D02*
X219358289Y-102419165D01*
X219358289Y-102419165D02*
X219396994Y-102496575D01*
X219396994Y-102496575D02*
X219396994Y-102806213D01*
X218971241Y-102070822D02*
X219784041Y-101877298D01*
X219784041Y-101877298D02*
X219203470Y-101722479D01*
X219203470Y-101722479D02*
X219784041Y-101567660D01*
X219784041Y-101567660D02*
X218971241Y-101374137D01*
X219784041Y-100600042D02*
X219396994Y-100870975D01*
X219784041Y-101064499D02*
X218971241Y-101064499D01*
X218971241Y-101064499D02*
X218971241Y-100754861D01*
X218971241Y-100754861D02*
X219009946Y-100677451D01*
X219009946Y-100677451D02*
X219048651Y-100638746D01*
X219048651Y-100638746D02*
X219126060Y-100600042D01*
X219126060Y-100600042D02*
X219242175Y-100600042D01*
X219242175Y-100600042D02*
X219319584Y-100638746D01*
X219319584Y-100638746D02*
X219358289Y-100677451D01*
X219358289Y-100677451D02*
X219396994Y-100754861D01*
X219396994Y-100754861D02*
X219396994Y-101064499D01*
D12*
X179393232Y-93655584D02*
X179478947Y-93694288D01*
X179478947Y-93694288D02*
X179621804Y-93694288D01*
X179621804Y-93694288D02*
X179678947Y-93655584D01*
X179678947Y-93655584D02*
X179707518Y-93616879D01*
X179707518Y-93616879D02*
X179736089Y-93539469D01*
X179736089Y-93539469D02*
X179736089Y-93462060D01*
X179736089Y-93462060D02*
X179707518Y-93384650D01*
X179707518Y-93384650D02*
X179678947Y-93345945D01*
X179678947Y-93345945D02*
X179621804Y-93307241D01*
X179621804Y-93307241D02*
X179507518Y-93268536D01*
X179507518Y-93268536D02*
X179450375Y-93229831D01*
X179450375Y-93229831D02*
X179421804Y-93191126D01*
X179421804Y-93191126D02*
X179393232Y-93113717D01*
X179393232Y-93113717D02*
X179393232Y-93036307D01*
X179393232Y-93036307D02*
X179421804Y-92958898D01*
X179421804Y-92958898D02*
X179450375Y-92920193D01*
X179450375Y-92920193D02*
X179507518Y-92881488D01*
X179507518Y-92881488D02*
X179650375Y-92881488D01*
X179650375Y-92881488D02*
X179736089Y-92920193D01*
X179993233Y-93694288D02*
X179993233Y-92881488D01*
X180593232Y-92920193D02*
X180536090Y-92881488D01*
X180536090Y-92881488D02*
X180450375Y-92881488D01*
X180450375Y-92881488D02*
X180364661Y-92920193D01*
X180364661Y-92920193D02*
X180307518Y-92997603D01*
X180307518Y-92997603D02*
X180278947Y-93075012D01*
X180278947Y-93075012D02*
X180250375Y-93229831D01*
X180250375Y-93229831D02*
X180250375Y-93345945D01*
X180250375Y-93345945D02*
X180278947Y-93500764D01*
X180278947Y-93500764D02*
X180307518Y-93578174D01*
X180307518Y-93578174D02*
X180364661Y-93655584D01*
X180364661Y-93655584D02*
X180450375Y-93694288D01*
X180450375Y-93694288D02*
X180507518Y-93694288D01*
X180507518Y-93694288D02*
X180593232Y-93655584D01*
X180593232Y-93655584D02*
X180621804Y-93616879D01*
X180621804Y-93616879D02*
X180621804Y-93345945D01*
X180621804Y-93345945D02*
X180507518Y-93345945D01*
X179293232Y-82755584D02*
X179378947Y-82794288D01*
X179378947Y-82794288D02*
X179521804Y-82794288D01*
X179521804Y-82794288D02*
X179578947Y-82755584D01*
X179578947Y-82755584D02*
X179607518Y-82716879D01*
X179607518Y-82716879D02*
X179636089Y-82639469D01*
X179636089Y-82639469D02*
X179636089Y-82562060D01*
X179636089Y-82562060D02*
X179607518Y-82484650D01*
X179607518Y-82484650D02*
X179578947Y-82445945D01*
X179578947Y-82445945D02*
X179521804Y-82407241D01*
X179521804Y-82407241D02*
X179407518Y-82368536D01*
X179407518Y-82368536D02*
X179350375Y-82329831D01*
X179350375Y-82329831D02*
X179321804Y-82291126D01*
X179321804Y-82291126D02*
X179293232Y-82213717D01*
X179293232Y-82213717D02*
X179293232Y-82136307D01*
X179293232Y-82136307D02*
X179321804Y-82058898D01*
X179321804Y-82058898D02*
X179350375Y-82020193D01*
X179350375Y-82020193D02*
X179407518Y-81981488D01*
X179407518Y-81981488D02*
X179550375Y-81981488D01*
X179550375Y-81981488D02*
X179636089Y-82020193D01*
X179893233Y-82794288D02*
X179893233Y-81981488D01*
X180493232Y-82020193D02*
X180436090Y-81981488D01*
X180436090Y-81981488D02*
X180350375Y-81981488D01*
X180350375Y-81981488D02*
X180264661Y-82020193D01*
X180264661Y-82020193D02*
X180207518Y-82097603D01*
X180207518Y-82097603D02*
X180178947Y-82175012D01*
X180178947Y-82175012D02*
X180150375Y-82329831D01*
X180150375Y-82329831D02*
X180150375Y-82445945D01*
X180150375Y-82445945D02*
X180178947Y-82600764D01*
X180178947Y-82600764D02*
X180207518Y-82678174D01*
X180207518Y-82678174D02*
X180264661Y-82755584D01*
X180264661Y-82755584D02*
X180350375Y-82794288D01*
X180350375Y-82794288D02*
X180407518Y-82794288D01*
X180407518Y-82794288D02*
X180493232Y-82755584D01*
X180493232Y-82755584D02*
X180521804Y-82716879D01*
X180521804Y-82716879D02*
X180521804Y-82445945D01*
X180521804Y-82445945D02*
X180407518Y-82445945D01*
X187464661Y-79181488D02*
X187836089Y-79181488D01*
X187836089Y-79181488D02*
X187636089Y-79491126D01*
X187636089Y-79491126D02*
X187721804Y-79491126D01*
X187721804Y-79491126D02*
X187778947Y-79529831D01*
X187778947Y-79529831D02*
X187807518Y-79568536D01*
X187807518Y-79568536D02*
X187836089Y-79645945D01*
X187836089Y-79645945D02*
X187836089Y-79839469D01*
X187836089Y-79839469D02*
X187807518Y-79916879D01*
X187807518Y-79916879D02*
X187778947Y-79955584D01*
X187778947Y-79955584D02*
X187721804Y-79994288D01*
X187721804Y-79994288D02*
X187550375Y-79994288D01*
X187550375Y-79994288D02*
X187493232Y-79955584D01*
X187493232Y-79955584D02*
X187464661Y-79916879D01*
X188007518Y-79181488D02*
X188207518Y-79994288D01*
X188207518Y-79994288D02*
X188407518Y-79181488D01*
X188550376Y-79181488D02*
X188921804Y-79181488D01*
X188921804Y-79181488D02*
X188721804Y-79491126D01*
X188721804Y-79491126D02*
X188807519Y-79491126D01*
X188807519Y-79491126D02*
X188864662Y-79529831D01*
X188864662Y-79529831D02*
X188893233Y-79568536D01*
X188893233Y-79568536D02*
X188921804Y-79645945D01*
X188921804Y-79645945D02*
X188921804Y-79839469D01*
X188921804Y-79839469D02*
X188893233Y-79916879D01*
X188893233Y-79916879D02*
X188864662Y-79955584D01*
X188864662Y-79955584D02*
X188807519Y-79994288D01*
X188807519Y-79994288D02*
X188636090Y-79994288D01*
X188636090Y-79994288D02*
X188578947Y-79955584D01*
X188578947Y-79955584D02*
X188550376Y-79916879D01*
D13*
X217351257Y-127211496D02*
X217389961Y-127095382D01*
X217389961Y-127095382D02*
X217389961Y-126901858D01*
X217389961Y-126901858D02*
X217351257Y-126824449D01*
X217351257Y-126824449D02*
X217312552Y-126785744D01*
X217312552Y-126785744D02*
X217235142Y-126747039D01*
X217235142Y-126747039D02*
X217157733Y-126747039D01*
X217157733Y-126747039D02*
X217080323Y-126785744D01*
X217080323Y-126785744D02*
X217041618Y-126824449D01*
X217041618Y-126824449D02*
X217002914Y-126901858D01*
X217002914Y-126901858D02*
X216964209Y-127056677D01*
X216964209Y-127056677D02*
X216925504Y-127134087D01*
X216925504Y-127134087D02*
X216886799Y-127172792D01*
X216886799Y-127172792D02*
X216809390Y-127211496D01*
X216809390Y-127211496D02*
X216731980Y-127211496D01*
X216731980Y-127211496D02*
X216654571Y-127172792D01*
X216654571Y-127172792D02*
X216615866Y-127134087D01*
X216615866Y-127134087D02*
X216577161Y-127056677D01*
X216577161Y-127056677D02*
X216577161Y-126863154D01*
X216577161Y-126863154D02*
X216615866Y-126747039D01*
X216577161Y-126514811D02*
X216577161Y-126050354D01*
X217389961Y-126282582D02*
X216577161Y-126282582D01*
X217157733Y-125818125D02*
X217157733Y-125431078D01*
X217389961Y-125895535D02*
X216577161Y-125624602D01*
X216577161Y-125624602D02*
X217389961Y-125353668D01*
X216577161Y-125198849D02*
X216577161Y-124734392D01*
X217389961Y-124966620D02*
X216577161Y-124966620D01*
X216577161Y-124463459D02*
X217235142Y-124463459D01*
X217235142Y-124463459D02*
X217312552Y-124424754D01*
X217312552Y-124424754D02*
X217351257Y-124386049D01*
X217351257Y-124386049D02*
X217389961Y-124308640D01*
X217389961Y-124308640D02*
X217389961Y-124153821D01*
X217389961Y-124153821D02*
X217351257Y-124076411D01*
X217351257Y-124076411D02*
X217312552Y-124037706D01*
X217312552Y-124037706D02*
X217235142Y-123999002D01*
X217235142Y-123999002D02*
X216577161Y-123999002D01*
X217351257Y-123650658D02*
X217389961Y-123534544D01*
X217389961Y-123534544D02*
X217389961Y-123341020D01*
X217389961Y-123341020D02*
X217351257Y-123263611D01*
X217351257Y-123263611D02*
X217312552Y-123224906D01*
X217312552Y-123224906D02*
X217235142Y-123186201D01*
X217235142Y-123186201D02*
X217157733Y-123186201D01*
X217157733Y-123186201D02*
X217080323Y-123224906D01*
X217080323Y-123224906D02*
X217041618Y-123263611D01*
X217041618Y-123263611D02*
X217002914Y-123341020D01*
X217002914Y-123341020D02*
X216964209Y-123495839D01*
X216964209Y-123495839D02*
X216925504Y-123573249D01*
X216925504Y-123573249D02*
X216886799Y-123611954D01*
X216886799Y-123611954D02*
X216809390Y-123650658D01*
X216809390Y-123650658D02*
X216731980Y-123650658D01*
X216731980Y-123650658D02*
X216654571Y-123611954D01*
X216654571Y-123611954D02*
X216615866Y-123573249D01*
X216615866Y-123573249D02*
X216577161Y-123495839D01*
X216577161Y-123495839D02*
X216577161Y-123302316D01*
X216577161Y-123302316D02*
X216615866Y-123186201D01*
X217389961Y-121831535D02*
X217389961Y-122218583D01*
X217389961Y-122218583D02*
X216577161Y-122218583D01*
X216964209Y-121560602D02*
X216964209Y-121289668D01*
X217389961Y-121173554D02*
X217389961Y-121560602D01*
X217389961Y-121560602D02*
X216577161Y-121560602D01*
X216577161Y-121560602D02*
X216577161Y-121173554D01*
X217389961Y-120825212D02*
X216577161Y-120825212D01*
X216577161Y-120825212D02*
X216577161Y-120631688D01*
X216577161Y-120631688D02*
X216615866Y-120515574D01*
X216615866Y-120515574D02*
X216693276Y-120438164D01*
X216693276Y-120438164D02*
X216770685Y-120399459D01*
X216770685Y-120399459D02*
X216925504Y-120360755D01*
X216925504Y-120360755D02*
X217041618Y-120360755D01*
X217041618Y-120360755D02*
X217196437Y-120399459D01*
X217196437Y-120399459D02*
X217273847Y-120438164D01*
X217273847Y-120438164D02*
X217351257Y-120515574D01*
X217351257Y-120515574D02*
X217389961Y-120631688D01*
X217389961Y-120631688D02*
X217389961Y-120825212D01*
D12*
X179321804Y-91294288D02*
X179321804Y-90481488D01*
X179321804Y-90481488D02*
X179550375Y-90481488D01*
X179550375Y-90481488D02*
X179607518Y-90520193D01*
X179607518Y-90520193D02*
X179636089Y-90558898D01*
X179636089Y-90558898D02*
X179664661Y-90636307D01*
X179664661Y-90636307D02*
X179664661Y-90752422D01*
X179664661Y-90752422D02*
X179636089Y-90829831D01*
X179636089Y-90829831D02*
X179607518Y-90868536D01*
X179607518Y-90868536D02*
X179550375Y-90907241D01*
X179550375Y-90907241D02*
X179321804Y-90907241D01*
X179864661Y-90481488D02*
X180007518Y-91294288D01*
X180007518Y-91294288D02*
X180121804Y-90713717D01*
X180121804Y-90713717D02*
X180236089Y-91294288D01*
X180236089Y-91294288D02*
X180378947Y-90481488D01*
X180950375Y-91294288D02*
X180750375Y-90907241D01*
X180607518Y-91294288D02*
X180607518Y-90481488D01*
X180607518Y-90481488D02*
X180836089Y-90481488D01*
X180836089Y-90481488D02*
X180893232Y-90520193D01*
X180893232Y-90520193D02*
X180921803Y-90558898D01*
X180921803Y-90558898D02*
X180950375Y-90636307D01*
X180950375Y-90636307D02*
X180950375Y-90752422D01*
X180950375Y-90752422D02*
X180921803Y-90829831D01*
X180921803Y-90829831D02*
X180893232Y-90868536D01*
X180893232Y-90868536D02*
X180836089Y-90907241D01*
X180836089Y-90907241D02*
X180607518Y-90907241D01*
D11*
X217390128Y-104210441D02*
X217003081Y-104481374D01*
X217390128Y-104674898D02*
X216577328Y-104674898D01*
X216577328Y-104674898D02*
X216577328Y-104365260D01*
X216577328Y-104365260D02*
X216616033Y-104287850D01*
X216616033Y-104287850D02*
X216654738Y-104249145D01*
X216654738Y-104249145D02*
X216732147Y-104210441D01*
X216732147Y-104210441D02*
X216848262Y-104210441D01*
X216848262Y-104210441D02*
X216925671Y-104249145D01*
X216925671Y-104249145D02*
X216964376Y-104287850D01*
X216964376Y-104287850D02*
X217003081Y-104365260D01*
X217003081Y-104365260D02*
X217003081Y-104674898D01*
X216964376Y-103862098D02*
X216964376Y-103591164D01*
X217390128Y-103475050D02*
X217390128Y-103862098D01*
X217390128Y-103862098D02*
X216577328Y-103862098D01*
X216577328Y-103862098D02*
X216577328Y-103475050D01*
X217312719Y-102662251D02*
X217351424Y-102700955D01*
X217351424Y-102700955D02*
X217390128Y-102817070D01*
X217390128Y-102817070D02*
X217390128Y-102894479D01*
X217390128Y-102894479D02*
X217351424Y-103010593D01*
X217351424Y-103010593D02*
X217274014Y-103088003D01*
X217274014Y-103088003D02*
X217196604Y-103126708D01*
X217196604Y-103126708D02*
X217041785Y-103165412D01*
X217041785Y-103165412D02*
X216925671Y-103165412D01*
X216925671Y-103165412D02*
X216770852Y-103126708D01*
X216770852Y-103126708D02*
X216693443Y-103088003D01*
X216693443Y-103088003D02*
X216616033Y-103010593D01*
X216616033Y-103010593D02*
X216577328Y-102894479D01*
X216577328Y-102894479D02*
X216577328Y-102817070D01*
X216577328Y-102817070D02*
X216616033Y-102700955D01*
X216616033Y-102700955D02*
X216654738Y-102662251D01*
X217390128Y-102313908D02*
X216577328Y-102313908D01*
X216964376Y-101926860D02*
X216964376Y-101655926D01*
X217390128Y-101539812D02*
X217390128Y-101926860D01*
X217390128Y-101926860D02*
X216577328Y-101926860D01*
X216577328Y-101926860D02*
X216577328Y-101539812D01*
X216577328Y-101307584D02*
X217390128Y-101036651D01*
X217390128Y-101036651D02*
X216577328Y-100765717D01*
X216964376Y-100494784D02*
X216964376Y-100223850D01*
X217390128Y-100107736D02*
X217390128Y-100494784D01*
X217390128Y-100494784D02*
X216577328Y-100494784D01*
X216577328Y-100494784D02*
X216577328Y-100107736D01*
X217390128Y-99294937D02*
X217003081Y-99565870D01*
X217390128Y-99759394D02*
X216577328Y-99759394D01*
X216577328Y-99759394D02*
X216577328Y-99449756D01*
X216577328Y-99449756D02*
X216616033Y-99372346D01*
X216616033Y-99372346D02*
X216654738Y-99333641D01*
X216654738Y-99333641D02*
X216732147Y-99294937D01*
X216732147Y-99294937D02*
X216848262Y-99294937D01*
X216848262Y-99294937D02*
X216925671Y-99333641D01*
X216925671Y-99333641D02*
X216964376Y-99372346D01*
X216964376Y-99372346D02*
X217003081Y-99449756D01*
X217003081Y-99449756D02*
X217003081Y-99759394D01*
D14*
X182533023Y-110941541D02*
X182494318Y-111027255D01*
X182494318Y-111027255D02*
X182455614Y-111055826D01*
X182455614Y-111055826D02*
X182378204Y-111084398D01*
X182378204Y-111084398D02*
X182262090Y-111084398D01*
X182262090Y-111084398D02*
X182184680Y-111055826D01*
X182184680Y-111055826D02*
X182145976Y-111027255D01*
X182145976Y-111027255D02*
X182107271Y-110970112D01*
X182107271Y-110970112D02*
X182107271Y-110741541D01*
X182107271Y-110741541D02*
X182920071Y-110741541D01*
X182920071Y-110741541D02*
X182920071Y-110941541D01*
X182920071Y-110941541D02*
X182881366Y-110998684D01*
X182881366Y-110998684D02*
X182842661Y-111027255D01*
X182842661Y-111027255D02*
X182765252Y-111055826D01*
X182765252Y-111055826D02*
X182687842Y-111055826D01*
X182687842Y-111055826D02*
X182610433Y-111027255D01*
X182610433Y-111027255D02*
X182571728Y-110998684D01*
X182571728Y-110998684D02*
X182533023Y-110941541D01*
X182533023Y-110941541D02*
X182533023Y-110741541D01*
X182339499Y-111312969D02*
X182339499Y-111598684D01*
X182107271Y-111255826D02*
X182920071Y-111455826D01*
X182920071Y-111455826D02*
X182107271Y-111655826D01*
X182920071Y-111770112D02*
X182920071Y-112112970D01*
X182107271Y-111941541D02*
X182920071Y-111941541D01*
X182920071Y-112227255D02*
X182920071Y-112570113D01*
X182107271Y-112398684D02*
X182920071Y-112398684D01*
X182184680Y-113570113D02*
X182145976Y-113541541D01*
X182145976Y-113541541D02*
X182107271Y-113455827D01*
X182107271Y-113455827D02*
X182107271Y-113398684D01*
X182107271Y-113398684D02*
X182145976Y-113312970D01*
X182145976Y-113312970D02*
X182223385Y-113255827D01*
X182223385Y-113255827D02*
X182300795Y-113227256D01*
X182300795Y-113227256D02*
X182455614Y-113198684D01*
X182455614Y-113198684D02*
X182571728Y-113198684D01*
X182571728Y-113198684D02*
X182726547Y-113227256D01*
X182726547Y-113227256D02*
X182803956Y-113255827D01*
X182803956Y-113255827D02*
X182881366Y-113312970D01*
X182881366Y-113312970D02*
X182920071Y-113398684D01*
X182920071Y-113398684D02*
X182920071Y-113455827D01*
X182920071Y-113455827D02*
X182881366Y-113541541D01*
X182881366Y-113541541D02*
X182842661Y-113570113D01*
X182920071Y-113941541D02*
X182920071Y-114055827D01*
X182920071Y-114055827D02*
X182881366Y-114112970D01*
X182881366Y-114112970D02*
X182803956Y-114170113D01*
X182803956Y-114170113D02*
X182649137Y-114198684D01*
X182649137Y-114198684D02*
X182378204Y-114198684D01*
X182378204Y-114198684D02*
X182223385Y-114170113D01*
X182223385Y-114170113D02*
X182145976Y-114112970D01*
X182145976Y-114112970D02*
X182107271Y-114055827D01*
X182107271Y-114055827D02*
X182107271Y-113941541D01*
X182107271Y-113941541D02*
X182145976Y-113884399D01*
X182145976Y-113884399D02*
X182223385Y-113827256D01*
X182223385Y-113827256D02*
X182378204Y-113798684D01*
X182378204Y-113798684D02*
X182649137Y-113798684D01*
X182649137Y-113798684D02*
X182803956Y-113827256D01*
X182803956Y-113827256D02*
X182881366Y-113884399D01*
X182881366Y-113884399D02*
X182920071Y-113941541D01*
X182107271Y-114455827D02*
X182920071Y-114455827D01*
X182920071Y-114455827D02*
X182107271Y-114798684D01*
X182107271Y-114798684D02*
X182920071Y-114798684D01*
X182107271Y-115084398D02*
X182920071Y-115084398D01*
X182920071Y-115084398D02*
X182107271Y-115427255D01*
X182107271Y-115427255D02*
X182920071Y-115427255D01*
D13*
X179227207Y-123789961D02*
X179227207Y-122977161D01*
X179227207Y-122977161D02*
X179498141Y-123557733D01*
X179498141Y-123557733D02*
X179769074Y-122977161D01*
X179769074Y-122977161D02*
X179769074Y-123789961D01*
X180310940Y-122977161D02*
X180465759Y-122977161D01*
X180465759Y-122977161D02*
X180543169Y-123015866D01*
X180543169Y-123015866D02*
X180620578Y-123093276D01*
X180620578Y-123093276D02*
X180659283Y-123248095D01*
X180659283Y-123248095D02*
X180659283Y-123519028D01*
X180659283Y-123519028D02*
X180620578Y-123673847D01*
X180620578Y-123673847D02*
X180543169Y-123751257D01*
X180543169Y-123751257D02*
X180465759Y-123789961D01*
X180465759Y-123789961D02*
X180310940Y-123789961D01*
X180310940Y-123789961D02*
X180233531Y-123751257D01*
X180233531Y-123751257D02*
X180156121Y-123673847D01*
X180156121Y-123673847D02*
X180117417Y-123519028D01*
X180117417Y-123519028D02*
X180117417Y-123248095D01*
X180117417Y-123248095D02*
X180156121Y-123093276D01*
X180156121Y-123093276D02*
X180233531Y-123015866D01*
X180233531Y-123015866D02*
X180310940Y-122977161D01*
X180968922Y-123751257D02*
X181085036Y-123789961D01*
X181085036Y-123789961D02*
X181278560Y-123789961D01*
X181278560Y-123789961D02*
X181355969Y-123751257D01*
X181355969Y-123751257D02*
X181394674Y-123712552D01*
X181394674Y-123712552D02*
X181433379Y-123635142D01*
X181433379Y-123635142D02*
X181433379Y-123557733D01*
X181433379Y-123557733D02*
X181394674Y-123480323D01*
X181394674Y-123480323D02*
X181355969Y-123441618D01*
X181355969Y-123441618D02*
X181278560Y-123402914D01*
X181278560Y-123402914D02*
X181123741Y-123364209D01*
X181123741Y-123364209D02*
X181046331Y-123325504D01*
X181046331Y-123325504D02*
X181007626Y-123286799D01*
X181007626Y-123286799D02*
X180968922Y-123209390D01*
X180968922Y-123209390D02*
X180968922Y-123131980D01*
X180968922Y-123131980D02*
X181007626Y-123054571D01*
X181007626Y-123054571D02*
X181046331Y-123015866D01*
X181046331Y-123015866D02*
X181123741Y-122977161D01*
X181123741Y-122977161D02*
X181317264Y-122977161D01*
X181317264Y-122977161D02*
X181433379Y-123015866D01*
X182052655Y-123364209D02*
X181781721Y-123364209D01*
X181781721Y-123789961D02*
X181781721Y-122977161D01*
X181781721Y-122977161D02*
X182168769Y-122977161D01*
X182478407Y-123364209D02*
X182749341Y-123364209D01*
X182865455Y-123789961D02*
X182478407Y-123789961D01*
X182478407Y-123789961D02*
X182478407Y-122977161D01*
X182478407Y-122977161D02*
X182865455Y-122977161D01*
X183097683Y-122977161D02*
X183562140Y-122977161D01*
X183329912Y-123789961D02*
X183329912Y-122977161D01*
D12*
X211121804Y-82594288D02*
X211121804Y-81781488D01*
X211407518Y-82594288D02*
X211407518Y-81781488D01*
X211407518Y-81781488D02*
X211750375Y-82594288D01*
X211750375Y-82594288D02*
X211750375Y-81781488D01*
X211950374Y-81781488D02*
X212293232Y-81781488D01*
X212121803Y-82594288D02*
X212121803Y-81781488D01*
X212807517Y-82594288D02*
X212464660Y-82594288D01*
X212636089Y-82594288D02*
X212636089Y-81781488D01*
X212636089Y-81781488D02*
X212578946Y-81897603D01*
X212578946Y-81897603D02*
X212521803Y-81975012D01*
X212521803Y-81975012D02*
X212464660Y-82013717D01*
X179736089Y-95520193D02*
X179678947Y-95481488D01*
X179678947Y-95481488D02*
X179593232Y-95481488D01*
X179593232Y-95481488D02*
X179507518Y-95520193D01*
X179507518Y-95520193D02*
X179450375Y-95597603D01*
X179450375Y-95597603D02*
X179421804Y-95675012D01*
X179421804Y-95675012D02*
X179393232Y-95829831D01*
X179393232Y-95829831D02*
X179393232Y-95945945D01*
X179393232Y-95945945D02*
X179421804Y-96100764D01*
X179421804Y-96100764D02*
X179450375Y-96178174D01*
X179450375Y-96178174D02*
X179507518Y-96255584D01*
X179507518Y-96255584D02*
X179593232Y-96294288D01*
X179593232Y-96294288D02*
X179650375Y-96294288D01*
X179650375Y-96294288D02*
X179736089Y-96255584D01*
X179736089Y-96255584D02*
X179764661Y-96216879D01*
X179764661Y-96216879D02*
X179764661Y-95945945D01*
X179764661Y-95945945D02*
X179650375Y-95945945D01*
X180021804Y-96294288D02*
X180021804Y-95481488D01*
X180021804Y-95481488D02*
X180364661Y-96294288D01*
X180364661Y-96294288D02*
X180364661Y-95481488D01*
X180650375Y-96294288D02*
X180650375Y-95481488D01*
X180650375Y-95481488D02*
X180793232Y-95481488D01*
X180793232Y-95481488D02*
X180878946Y-95520193D01*
X180878946Y-95520193D02*
X180936089Y-95597603D01*
X180936089Y-95597603D02*
X180964660Y-95675012D01*
X180964660Y-95675012D02*
X180993232Y-95829831D01*
X180993232Y-95829831D02*
X180993232Y-95945945D01*
X180993232Y-95945945D02*
X180964660Y-96100764D01*
X180964660Y-96100764D02*
X180936089Y-96178174D01*
X180936089Y-96178174D02*
X180878946Y-96255584D01*
X180878946Y-96255584D02*
X180793232Y-96294288D01*
X180793232Y-96294288D02*
X180650375Y-96294288D01*
D10*
X179393786Y-147492603D02*
X179393786Y-146679803D01*
X179393786Y-146679803D02*
X179703424Y-146679803D01*
X179703424Y-146679803D02*
X179780834Y-146718508D01*
X179780834Y-146718508D02*
X179819539Y-146757213D01*
X179819539Y-146757213D02*
X179858243Y-146834622D01*
X179858243Y-146834622D02*
X179858243Y-146950737D01*
X179858243Y-146950737D02*
X179819539Y-147028146D01*
X179819539Y-147028146D02*
X179780834Y-147066851D01*
X179780834Y-147066851D02*
X179703424Y-147105556D01*
X179703424Y-147105556D02*
X179393786Y-147105556D01*
X180129177Y-146679803D02*
X180322701Y-147492603D01*
X180322701Y-147492603D02*
X180477520Y-146912032D01*
X180477520Y-146912032D02*
X180632339Y-147492603D01*
X180632339Y-147492603D02*
X180825863Y-146679803D01*
X181599957Y-147492603D02*
X181329024Y-147105556D01*
X181135500Y-147492603D02*
X181135500Y-146679803D01*
X181135500Y-146679803D02*
X181445138Y-146679803D01*
X181445138Y-146679803D02*
X181522548Y-146718508D01*
X181522548Y-146718508D02*
X181561253Y-146757213D01*
X181561253Y-146757213D02*
X181599957Y-146834622D01*
X181599957Y-146834622D02*
X181599957Y-146950737D01*
X181599957Y-146950737D02*
X181561253Y-147028146D01*
X181561253Y-147028146D02*
X181522548Y-147066851D01*
X181522548Y-147066851D02*
X181445138Y-147105556D01*
X181445138Y-147105556D02*
X181135500Y-147105556D01*
X182954624Y-147492603D02*
X182567576Y-147492603D01*
X182567576Y-147492603D02*
X182567576Y-146679803D01*
X183225557Y-147066851D02*
X183496491Y-147066851D01*
X183612605Y-147492603D02*
X183225557Y-147492603D01*
X183225557Y-147492603D02*
X183225557Y-146679803D01*
X183225557Y-146679803D02*
X183612605Y-146679803D01*
X183960947Y-147492603D02*
X183960947Y-146679803D01*
X183960947Y-146679803D02*
X184154471Y-146679803D01*
X184154471Y-146679803D02*
X184270585Y-146718508D01*
X184270585Y-146718508D02*
X184347995Y-146795918D01*
X184347995Y-146795918D02*
X184386700Y-146873327D01*
X184386700Y-146873327D02*
X184425404Y-147028146D01*
X184425404Y-147028146D02*
X184425404Y-147144260D01*
X184425404Y-147144260D02*
X184386700Y-147299079D01*
X184386700Y-147299079D02*
X184347995Y-147376489D01*
X184347995Y-147376489D02*
X184270585Y-147453899D01*
X184270585Y-147453899D02*
X184154471Y-147492603D01*
X184154471Y-147492603D02*
X183960947Y-147492603D01*
D11*
X177418433Y-129825101D02*
X178231233Y-129825101D01*
X177844185Y-129825101D02*
X177844185Y-130289558D01*
X177418433Y-130289558D02*
X178231233Y-130289558D01*
X177418433Y-130676606D02*
X178231233Y-130676606D01*
X177728071Y-131063654D02*
X177728071Y-131682931D01*
X177418433Y-132069978D02*
X178231233Y-132069978D01*
X178231233Y-132069978D02*
X178231233Y-132379616D01*
X178231233Y-132379616D02*
X178192528Y-132457026D01*
X178192528Y-132457026D02*
X178153823Y-132495731D01*
X178153823Y-132495731D02*
X178076414Y-132534435D01*
X178076414Y-132534435D02*
X177960299Y-132534435D01*
X177960299Y-132534435D02*
X177882890Y-132495731D01*
X177882890Y-132495731D02*
X177844185Y-132457026D01*
X177844185Y-132457026D02*
X177805480Y-132379616D01*
X177805480Y-132379616D02*
X177805480Y-132069978D01*
X178231233Y-132805369D02*
X177418433Y-132998893D01*
X177418433Y-132998893D02*
X177999004Y-133153712D01*
X177999004Y-133153712D02*
X177418433Y-133308531D01*
X177418433Y-133308531D02*
X178231233Y-133502055D01*
X177418433Y-134276149D02*
X177805480Y-134005216D01*
X177418433Y-133811692D02*
X178231233Y-133811692D01*
X178231233Y-133811692D02*
X178231233Y-134121330D01*
X178231233Y-134121330D02*
X178192528Y-134198740D01*
X178192528Y-134198740D02*
X178153823Y-134237445D01*
X178153823Y-134237445D02*
X178076414Y-134276149D01*
X178076414Y-134276149D02*
X177960299Y-134276149D01*
X177960299Y-134276149D02*
X177882890Y-134237445D01*
X177882890Y-134237445D02*
X177844185Y-134198740D01*
X177844185Y-134198740D02*
X177805480Y-134121330D01*
X177805480Y-134121330D02*
X177805480Y-133811692D01*
X177418433Y-135630816D02*
X177418433Y-135243768D01*
X177418433Y-135243768D02*
X178231233Y-135243768D01*
X177844185Y-135901749D02*
X177844185Y-136172683D01*
X177418433Y-136288797D02*
X177418433Y-135901749D01*
X177418433Y-135901749D02*
X178231233Y-135901749D01*
X178231233Y-135901749D02*
X178231233Y-136288797D01*
X177418433Y-136637139D02*
X178231233Y-136637139D01*
X178231233Y-136637139D02*
X178231233Y-136830663D01*
X178231233Y-136830663D02*
X178192528Y-136946777D01*
X178192528Y-136946777D02*
X178115118Y-137024187D01*
X178115118Y-137024187D02*
X178037709Y-137062892D01*
X178037709Y-137062892D02*
X177882890Y-137101596D01*
X177882890Y-137101596D02*
X177766776Y-137101596D01*
X177766776Y-137101596D02*
X177611957Y-137062892D01*
X177611957Y-137062892D02*
X177534547Y-137024187D01*
X177534547Y-137024187D02*
X177457138Y-136946777D01*
X177457138Y-136946777D02*
X177418433Y-136830663D01*
X177418433Y-136830663D02*
X177418433Y-136637139D01*
X176148576Y-129786397D02*
X176109871Y-129902511D01*
X176109871Y-129902511D02*
X176109871Y-130096035D01*
X176109871Y-130096035D02*
X176148576Y-130173444D01*
X176148576Y-130173444D02*
X176187280Y-130212149D01*
X176187280Y-130212149D02*
X176264690Y-130250854D01*
X176264690Y-130250854D02*
X176342099Y-130250854D01*
X176342099Y-130250854D02*
X176419509Y-130212149D01*
X176419509Y-130212149D02*
X176458214Y-130173444D01*
X176458214Y-130173444D02*
X176496918Y-130096035D01*
X176496918Y-130096035D02*
X176535623Y-129941216D01*
X176535623Y-129941216D02*
X176574328Y-129863806D01*
X176574328Y-129863806D02*
X176613033Y-129825101D01*
X176613033Y-129825101D02*
X176690442Y-129786397D01*
X176690442Y-129786397D02*
X176767852Y-129786397D01*
X176767852Y-129786397D02*
X176845261Y-129825101D01*
X176845261Y-129825101D02*
X176883966Y-129863806D01*
X176883966Y-129863806D02*
X176922671Y-129941216D01*
X176922671Y-129941216D02*
X176922671Y-130134739D01*
X176922671Y-130134739D02*
X176883966Y-130250854D01*
X176187280Y-131063653D02*
X176148576Y-131024949D01*
X176148576Y-131024949D02*
X176109871Y-130908834D01*
X176109871Y-130908834D02*
X176109871Y-130831425D01*
X176109871Y-130831425D02*
X176148576Y-130715311D01*
X176148576Y-130715311D02*
X176225985Y-130637901D01*
X176225985Y-130637901D02*
X176303395Y-130599196D01*
X176303395Y-130599196D02*
X176458214Y-130560492D01*
X176458214Y-130560492D02*
X176574328Y-130560492D01*
X176574328Y-130560492D02*
X176729147Y-130599196D01*
X176729147Y-130599196D02*
X176806556Y-130637901D01*
X176806556Y-130637901D02*
X176883966Y-130715311D01*
X176883966Y-130715311D02*
X176922671Y-130831425D01*
X176922671Y-130831425D02*
X176922671Y-130908834D01*
X176922671Y-130908834D02*
X176883966Y-131024949D01*
X176883966Y-131024949D02*
X176845261Y-131063653D01*
X176109871Y-131876453D02*
X176496918Y-131605520D01*
X176109871Y-131411996D02*
X176922671Y-131411996D01*
X176922671Y-131411996D02*
X176922671Y-131721634D01*
X176922671Y-131721634D02*
X176883966Y-131799044D01*
X176883966Y-131799044D02*
X176845261Y-131837749D01*
X176845261Y-131837749D02*
X176767852Y-131876453D01*
X176767852Y-131876453D02*
X176651737Y-131876453D01*
X176651737Y-131876453D02*
X176574328Y-131837749D01*
X176574328Y-131837749D02*
X176535623Y-131799044D01*
X176535623Y-131799044D02*
X176496918Y-131721634D01*
X176496918Y-131721634D02*
X176496918Y-131411996D01*
X176535623Y-132224796D02*
X176535623Y-132495730D01*
X176109871Y-132611844D02*
X176109871Y-132224796D01*
X176109871Y-132224796D02*
X176922671Y-132224796D01*
X176922671Y-132224796D02*
X176922671Y-132611844D01*
X176922671Y-132882777D02*
X176109871Y-133076301D01*
X176109871Y-133076301D02*
X176690442Y-133231120D01*
X176690442Y-133231120D02*
X176109871Y-133385939D01*
X176109871Y-133385939D02*
X176922671Y-133579463D01*
X176187280Y-134972833D02*
X176148576Y-134934129D01*
X176148576Y-134934129D02*
X176109871Y-134818014D01*
X176109871Y-134818014D02*
X176109871Y-134740605D01*
X176109871Y-134740605D02*
X176148576Y-134624491D01*
X176148576Y-134624491D02*
X176225985Y-134547081D01*
X176225985Y-134547081D02*
X176303395Y-134508376D01*
X176303395Y-134508376D02*
X176458214Y-134469672D01*
X176458214Y-134469672D02*
X176574328Y-134469672D01*
X176574328Y-134469672D02*
X176729147Y-134508376D01*
X176729147Y-134508376D02*
X176806556Y-134547081D01*
X176806556Y-134547081D02*
X176883966Y-134624491D01*
X176883966Y-134624491D02*
X176922671Y-134740605D01*
X176922671Y-134740605D02*
X176922671Y-134818014D01*
X176922671Y-134818014D02*
X176883966Y-134934129D01*
X176883966Y-134934129D02*
X176845261Y-134972833D01*
X176922671Y-135475995D02*
X176922671Y-135630814D01*
X176922671Y-135630814D02*
X176883966Y-135708224D01*
X176883966Y-135708224D02*
X176806556Y-135785633D01*
X176806556Y-135785633D02*
X176651737Y-135824338D01*
X176651737Y-135824338D02*
X176380804Y-135824338D01*
X176380804Y-135824338D02*
X176225985Y-135785633D01*
X176225985Y-135785633D02*
X176148576Y-135708224D01*
X176148576Y-135708224D02*
X176109871Y-135630814D01*
X176109871Y-135630814D02*
X176109871Y-135475995D01*
X176109871Y-135475995D02*
X176148576Y-135398586D01*
X176148576Y-135398586D02*
X176225985Y-135321176D01*
X176225985Y-135321176D02*
X176380804Y-135282472D01*
X176380804Y-135282472D02*
X176651737Y-135282472D01*
X176651737Y-135282472D02*
X176806556Y-135321176D01*
X176806556Y-135321176D02*
X176883966Y-135398586D01*
X176883966Y-135398586D02*
X176922671Y-135475995D01*
X176109871Y-136172681D02*
X176922671Y-136172681D01*
X176922671Y-136172681D02*
X176109871Y-136637138D01*
X176109871Y-136637138D02*
X176922671Y-136637138D01*
X176109871Y-137024186D02*
X176922671Y-137024186D01*
X176922671Y-137024186D02*
X176109871Y-137488643D01*
X176109871Y-137488643D02*
X176922671Y-137488643D01*
D14*
X197738095Y-93454819D02*
X197738095Y-94264342D01*
X197738095Y-94264342D02*
X197785714Y-94359580D01*
X197785714Y-94359580D02*
X197833333Y-94407200D01*
X197833333Y-94407200D02*
X197928571Y-94454819D01*
X197928571Y-94454819D02*
X198119047Y-94454819D01*
X198119047Y-94454819D02*
X198214285Y-94407200D01*
X198214285Y-94407200D02*
X198261904Y-94359580D01*
X198261904Y-94359580D02*
X198309523Y-94264342D01*
X198309523Y-94264342D02*
X198309523Y-93454819D01*
X198690476Y-93454819D02*
X199309523Y-93454819D01*
X199309523Y-93454819D02*
X198976190Y-93835771D01*
X198976190Y-93835771D02*
X199119047Y-93835771D01*
X199119047Y-93835771D02*
X199214285Y-93883390D01*
X199214285Y-93883390D02*
X199261904Y-93931009D01*
X199261904Y-93931009D02*
X199309523Y-94026247D01*
X199309523Y-94026247D02*
X199309523Y-94264342D01*
X199309523Y-94264342D02*
X199261904Y-94359580D01*
X199261904Y-94359580D02*
X199214285Y-94407200D01*
X199214285Y-94407200D02*
X199119047Y-94454819D01*
X199119047Y-94454819D02*
X198833333Y-94454819D01*
X198833333Y-94454819D02*
X198738095Y-94407200D01*
X198738095Y-94407200D02*
X198690476Y-94359580D01*
X197233333Y-102259580D02*
X197185714Y-102307200D01*
X197185714Y-102307200D02*
X197042857Y-102354819D01*
X197042857Y-102354819D02*
X196947619Y-102354819D01*
X196947619Y-102354819D02*
X196804762Y-102307200D01*
X196804762Y-102307200D02*
X196709524Y-102211961D01*
X196709524Y-102211961D02*
X196661905Y-102116723D01*
X196661905Y-102116723D02*
X196614286Y-101926247D01*
X196614286Y-101926247D02*
X196614286Y-101783390D01*
X196614286Y-101783390D02*
X196661905Y-101592914D01*
X196661905Y-101592914D02*
X196709524Y-101497676D01*
X196709524Y-101497676D02*
X196804762Y-101402438D01*
X196804762Y-101402438D02*
X196947619Y-101354819D01*
X196947619Y-101354819D02*
X197042857Y-101354819D01*
X197042857Y-101354819D02*
X197185714Y-101402438D01*
X197185714Y-101402438D02*
X197233333Y-101450057D01*
X197566667Y-101354819D02*
X198185714Y-101354819D01*
X198185714Y-101354819D02*
X197852381Y-101735771D01*
X197852381Y-101735771D02*
X197995238Y-101735771D01*
X197995238Y-101735771D02*
X198090476Y-101783390D01*
X198090476Y-101783390D02*
X198138095Y-101831009D01*
X198138095Y-101831009D02*
X198185714Y-101926247D01*
X198185714Y-101926247D02*
X198185714Y-102164342D01*
X198185714Y-102164342D02*
X198138095Y-102259580D01*
X198138095Y-102259580D02*
X198090476Y-102307200D01*
X198090476Y-102307200D02*
X197995238Y-102354819D01*
X197995238Y-102354819D02*
X197709524Y-102354819D01*
X197709524Y-102354819D02*
X197614286Y-102307200D01*
X197614286Y-102307200D02*
X197566667Y-102259580D01*
X201233333Y-94299580D02*
X201185714Y-94347200D01*
X201185714Y-94347200D02*
X201042857Y-94394819D01*
X201042857Y-94394819D02*
X200947619Y-94394819D01*
X200947619Y-94394819D02*
X200804762Y-94347200D01*
X200804762Y-94347200D02*
X200709524Y-94251961D01*
X200709524Y-94251961D02*
X200661905Y-94156723D01*
X200661905Y-94156723D02*
X200614286Y-93966247D01*
X200614286Y-93966247D02*
X200614286Y-93823390D01*
X200614286Y-93823390D02*
X200661905Y-93632914D01*
X200661905Y-93632914D02*
X200709524Y-93537676D01*
X200709524Y-93537676D02*
X200804762Y-93442438D01*
X200804762Y-93442438D02*
X200947619Y-93394819D01*
X200947619Y-93394819D02*
X201042857Y-93394819D01*
X201042857Y-93394819D02*
X201185714Y-93442438D01*
X201185714Y-93442438D02*
X201233333Y-93490057D01*
X202185714Y-94394819D02*
X201614286Y-94394819D01*
X201900000Y-94394819D02*
X201900000Y-93394819D01*
X201900000Y-93394819D02*
X201804762Y-93537676D01*
X201804762Y-93537676D02*
X201709524Y-93632914D01*
X201709524Y-93632914D02*
X201614286Y-93680533D01*
X199258095Y-147754819D02*
X199258095Y-148564342D01*
X199258095Y-148564342D02*
X199305714Y-148659580D01*
X199305714Y-148659580D02*
X199353333Y-148707200D01*
X199353333Y-148707200D02*
X199448571Y-148754819D01*
X199448571Y-148754819D02*
X199639047Y-148754819D01*
X199639047Y-148754819D02*
X199734285Y-148707200D01*
X199734285Y-148707200D02*
X199781904Y-148659580D01*
X199781904Y-148659580D02*
X199829523Y-148564342D01*
X199829523Y-148564342D02*
X199829523Y-147754819D01*
X200258095Y-148707200D02*
X200400952Y-148754819D01*
X200400952Y-148754819D02*
X200639047Y-148754819D01*
X200639047Y-148754819D02*
X200734285Y-148707200D01*
X200734285Y-148707200D02*
X200781904Y-148659580D01*
X200781904Y-148659580D02*
X200829523Y-148564342D01*
X200829523Y-148564342D02*
X200829523Y-148469104D01*
X200829523Y-148469104D02*
X200781904Y-148373866D01*
X200781904Y-148373866D02*
X200734285Y-148326247D01*
X200734285Y-148326247D02*
X200639047Y-148278628D01*
X200639047Y-148278628D02*
X200448571Y-148231009D01*
X200448571Y-148231009D02*
X200353333Y-148183390D01*
X200353333Y-148183390D02*
X200305714Y-148135771D01*
X200305714Y-148135771D02*
X200258095Y-148040533D01*
X200258095Y-148040533D02*
X200258095Y-147945295D01*
X200258095Y-147945295D02*
X200305714Y-147850057D01*
X200305714Y-147850057D02*
X200353333Y-147802438D01*
X200353333Y-147802438D02*
X200448571Y-147754819D01*
X200448571Y-147754819D02*
X200686666Y-147754819D01*
X200686666Y-147754819D02*
X200829523Y-147802438D01*
X201591428Y-148231009D02*
X201734285Y-148278628D01*
X201734285Y-148278628D02*
X201781904Y-148326247D01*
X201781904Y-148326247D02*
X201829523Y-148421485D01*
X201829523Y-148421485D02*
X201829523Y-148564342D01*
X201829523Y-148564342D02*
X201781904Y-148659580D01*
X201781904Y-148659580D02*
X201734285Y-148707200D01*
X201734285Y-148707200D02*
X201639047Y-148754819D01*
X201639047Y-148754819D02*
X201258095Y-148754819D01*
X201258095Y-148754819D02*
X201258095Y-147754819D01*
X201258095Y-147754819D02*
X201591428Y-147754819D01*
X201591428Y-147754819D02*
X201686666Y-147802438D01*
X201686666Y-147802438D02*
X201734285Y-147850057D01*
X201734285Y-147850057D02*
X201781904Y-147945295D01*
X201781904Y-147945295D02*
X201781904Y-148040533D01*
X201781904Y-148040533D02*
X201734285Y-148135771D01*
X201734285Y-148135771D02*
X201686666Y-148183390D01*
X201686666Y-148183390D02*
X201591428Y-148231009D01*
X201591428Y-148231009D02*
X201258095Y-148231009D01*
X206233333Y-100259580D02*
X206185714Y-100307200D01*
X206185714Y-100307200D02*
X206042857Y-100354819D01*
X206042857Y-100354819D02*
X205947619Y-100354819D01*
X205947619Y-100354819D02*
X205804762Y-100307200D01*
X205804762Y-100307200D02*
X205709524Y-100211961D01*
X205709524Y-100211961D02*
X205661905Y-100116723D01*
X205661905Y-100116723D02*
X205614286Y-99926247D01*
X205614286Y-99926247D02*
X205614286Y-99783390D01*
X205614286Y-99783390D02*
X205661905Y-99592914D01*
X205661905Y-99592914D02*
X205709524Y-99497676D01*
X205709524Y-99497676D02*
X205804762Y-99402438D01*
X205804762Y-99402438D02*
X205947619Y-99354819D01*
X205947619Y-99354819D02*
X206042857Y-99354819D01*
X206042857Y-99354819D02*
X206185714Y-99402438D01*
X206185714Y-99402438D02*
X206233333Y-99450057D01*
X207090476Y-99688152D02*
X207090476Y-100354819D01*
X206852381Y-99307200D02*
X206614286Y-100021485D01*
X206614286Y-100021485D02*
X207233333Y-100021485D01*
X182411468Y-128355093D02*
X182411468Y-127354502D01*
X182411468Y-127354502D02*
X182792646Y-127354502D01*
X182792646Y-127354502D02*
X182887940Y-127402149D01*
X182887940Y-127402149D02*
X182935588Y-127449796D01*
X182935588Y-127449796D02*
X182983235Y-127545090D01*
X182983235Y-127545090D02*
X182983235Y-127688032D01*
X182983235Y-127688032D02*
X182935588Y-127783326D01*
X182935588Y-127783326D02*
X182887940Y-127830974D01*
X182887940Y-127830974D02*
X182792646Y-127878621D01*
X182792646Y-127878621D02*
X182411468Y-127878621D01*
X183936179Y-128355093D02*
X183364412Y-128355093D01*
X183650295Y-128355093D02*
X183650295Y-127354502D01*
X183650295Y-127354502D02*
X183555001Y-127497443D01*
X183555001Y-127497443D02*
X183459707Y-127592738D01*
X183459707Y-127592738D02*
X183364412Y-127640385D01*
X186080239Y-125419542D02*
X186175477Y-125467161D01*
X186175477Y-125467161D02*
X186270715Y-125562400D01*
X186270715Y-125562400D02*
X186413572Y-125705257D01*
X186413572Y-125705257D02*
X186508810Y-125752876D01*
X186508810Y-125752876D02*
X186604048Y-125752876D01*
X186556429Y-125514780D02*
X186651667Y-125562400D01*
X186651667Y-125562400D02*
X186746905Y-125657638D01*
X186746905Y-125657638D02*
X186794524Y-125848114D01*
X186794524Y-125848114D02*
X186794524Y-126181447D01*
X186794524Y-126181447D02*
X186746905Y-126371923D01*
X186746905Y-126371923D02*
X186651667Y-126467161D01*
X186651667Y-126467161D02*
X186556429Y-126514780D01*
X186556429Y-126514780D02*
X186365953Y-126514780D01*
X186365953Y-126514780D02*
X186270715Y-126467161D01*
X186270715Y-126467161D02*
X186175477Y-126371923D01*
X186175477Y-126371923D02*
X186127858Y-126181447D01*
X186127858Y-126181447D02*
X186127858Y-125848114D01*
X186127858Y-125848114D02*
X186175477Y-125657638D01*
X186175477Y-125657638D02*
X186270715Y-125562400D01*
X186270715Y-125562400D02*
X186365953Y-125514780D01*
X186365953Y-125514780D02*
X186556429Y-125514780D01*
X185175477Y-125514780D02*
X185746905Y-125514780D01*
X185461191Y-125514780D02*
X185461191Y-126514780D01*
X185461191Y-126514780D02*
X185556429Y-126371923D01*
X185556429Y-126371923D02*
X185651667Y-126276685D01*
X185651667Y-126276685D02*
X185746905Y-126229066D01*
X206233333Y-103759580D02*
X206185714Y-103807200D01*
X206185714Y-103807200D02*
X206042857Y-103854819D01*
X206042857Y-103854819D02*
X205947619Y-103854819D01*
X205947619Y-103854819D02*
X205804762Y-103807200D01*
X205804762Y-103807200D02*
X205709524Y-103711961D01*
X205709524Y-103711961D02*
X205661905Y-103616723D01*
X205661905Y-103616723D02*
X205614286Y-103426247D01*
X205614286Y-103426247D02*
X205614286Y-103283390D01*
X205614286Y-103283390D02*
X205661905Y-103092914D01*
X205661905Y-103092914D02*
X205709524Y-102997676D01*
X205709524Y-102997676D02*
X205804762Y-102902438D01*
X205804762Y-102902438D02*
X205947619Y-102854819D01*
X205947619Y-102854819D02*
X206042857Y-102854819D01*
X206042857Y-102854819D02*
X206185714Y-102902438D01*
X206185714Y-102902438D02*
X206233333Y-102950057D01*
X206614286Y-102950057D02*
X206661905Y-102902438D01*
X206661905Y-102902438D02*
X206757143Y-102854819D01*
X206757143Y-102854819D02*
X206995238Y-102854819D01*
X206995238Y-102854819D02*
X207090476Y-102902438D01*
X207090476Y-102902438D02*
X207138095Y-102950057D01*
X207138095Y-102950057D02*
X207185714Y-103045295D01*
X207185714Y-103045295D02*
X207185714Y-103140533D01*
X207185714Y-103140533D02*
X207138095Y-103283390D01*
X207138095Y-103283390D02*
X206566667Y-103854819D01*
X206566667Y-103854819D02*
X207185714Y-103854819D01*
D15*
X199638095Y-74557419D02*
X199638095Y-75366942D01*
X199638095Y-75366942D02*
X199685714Y-75462180D01*
X199685714Y-75462180D02*
X199733333Y-75509800D01*
X199733333Y-75509800D02*
X199828571Y-75557419D01*
X199828571Y-75557419D02*
X200019047Y-75557419D01*
X200019047Y-75557419D02*
X200114285Y-75509800D01*
X200114285Y-75509800D02*
X200161904Y-75462180D01*
X200161904Y-75462180D02*
X200209523Y-75366942D01*
X200209523Y-75366942D02*
X200209523Y-74557419D01*
X201209523Y-75557419D02*
X200638095Y-75557419D01*
X200923809Y-75557419D02*
X200923809Y-74557419D01*
X200923809Y-74557419D02*
X200828571Y-74700276D01*
X200828571Y-74700276D02*
X200733333Y-74795514D01*
X200733333Y-74795514D02*
X200638095Y-74843133D01*
D14*
X179974405Y-144524819D02*
X179974405Y-143524819D01*
X179974405Y-143524819D02*
X180212500Y-143524819D01*
X180212500Y-143524819D02*
X180355357Y-143572438D01*
X180355357Y-143572438D02*
X180450595Y-143667676D01*
X180450595Y-143667676D02*
X180498214Y-143762914D01*
X180498214Y-143762914D02*
X180545833Y-143953390D01*
X180545833Y-143953390D02*
X180545833Y-144096247D01*
X180545833Y-144096247D02*
X180498214Y-144286723D01*
X180498214Y-144286723D02*
X180450595Y-144381961D01*
X180450595Y-144381961D02*
X180355357Y-144477200D01*
X180355357Y-144477200D02*
X180212500Y-144524819D01*
X180212500Y-144524819D02*
X179974405Y-144524819D01*
X181498214Y-144524819D02*
X180926786Y-144524819D01*
X181212500Y-144524819D02*
X181212500Y-143524819D01*
X181212500Y-143524819D02*
X181117262Y-143667676D01*
X181117262Y-143667676D02*
X181022024Y-143762914D01*
X181022024Y-143762914D02*
X180926786Y-143810533D01*
X187008333Y-144524819D02*
X186675000Y-144048628D01*
X186436905Y-144524819D02*
X186436905Y-143524819D01*
X186436905Y-143524819D02*
X186817857Y-143524819D01*
X186817857Y-143524819D02*
X186913095Y-143572438D01*
X186913095Y-143572438D02*
X186960714Y-143620057D01*
X186960714Y-143620057D02*
X187008333Y-143715295D01*
X187008333Y-143715295D02*
X187008333Y-143858152D01*
X187008333Y-143858152D02*
X186960714Y-143953390D01*
X186960714Y-143953390D02*
X186913095Y-144001009D01*
X186913095Y-144001009D02*
X186817857Y-144048628D01*
X186817857Y-144048628D02*
X186436905Y-144048628D01*
X187960714Y-144524819D02*
X187389286Y-144524819D01*
X187675000Y-144524819D02*
X187675000Y-143524819D01*
X187675000Y-143524819D02*
X187579762Y-143667676D01*
X187579762Y-143667676D02*
X187484524Y-143762914D01*
X187484524Y-143762914D02*
X187389286Y-143810533D01*
X204633333Y-94574819D02*
X204157143Y-94574819D01*
X204157143Y-94574819D02*
X204157143Y-93574819D01*
X205490476Y-94574819D02*
X204919048Y-94574819D01*
X205204762Y-94574819D02*
X205204762Y-93574819D01*
X205204762Y-93574819D02*
X205109524Y-93717676D01*
X205109524Y-93717676D02*
X205014286Y-93812914D01*
X205014286Y-93812914D02*
X204919048Y-93860533D01*
D12*
X198500000Y-94840000D02*
X197700000Y-94840000D01*
X198500000Y-94840000D02*
X199300000Y-94840000D01*
X198500000Y-97960000D02*
X197700000Y-97960000D01*
X198500000Y-97960000D02*
X199300000Y-97960000D01*
X197200000Y-94890000D02*
X196960000Y-94560000D01*
X197440000Y-94560000D01*
X197200000Y-94890000D01*
G36*
X197200000Y-94890000D02*
G01*
X196960000Y-94560000D01*
X197440000Y-94560000D01*
X197200000Y-94890000D01*
G37*
X197138748Y-99165000D02*
X197661252Y-99165000D01*
X197138748Y-100635000D02*
X197661252Y-100635000D01*
X201040000Y-95812164D02*
X201040000Y-96027836D01*
X201760000Y-95812164D02*
X201760000Y-96027836D01*
X191500000Y-108800000D02*
X191500000Y-111470000D01*
X191500000Y-114010000D02*
X191500000Y-152240000D01*
X191500000Y-152240000D02*
X196580000Y-152240000D01*
X194170000Y-111470000D02*
X191500000Y-111470000D01*
X194170000Y-114010000D02*
X191500000Y-114010000D01*
X194170000Y-114010000D02*
X194170000Y-111470000D01*
X194170000Y-114010000D02*
X194170000Y-149570000D01*
X194170000Y-149570000D02*
X191500000Y-149570000D01*
X196580000Y-144360000D02*
X204460000Y-144360000D01*
X196580000Y-154780000D02*
X196580000Y-144360000D01*
X204460000Y-144360000D02*
X204460000Y-154780000D01*
X204460000Y-154780000D02*
X196580000Y-154780000D01*
X206870000Y-111470000D02*
X206870000Y-149570000D01*
X206870000Y-111470000D02*
X209540000Y-111470000D01*
X206870000Y-149570000D02*
X209540000Y-149570000D01*
X209540000Y-108800000D02*
X191500000Y-108800000D01*
X209540000Y-152240000D02*
X204460000Y-152240000D01*
X209540000Y-152240000D02*
X209540000Y-108800000D01*
X203611252Y-98990000D02*
X202188748Y-98990000D01*
X203611252Y-100810000D02*
X202188748Y-100810000D01*
D16*
X179100000Y-129800000D02*
X187200000Y-129800000D01*
X179100000Y-136800000D02*
X179100000Y-129800000D01*
X187200000Y-129800000D02*
X187200000Y-136800000D01*
X187200000Y-136800000D02*
X179100000Y-136800000D01*
D10*
X184359401Y-122109300D02*
X184359401Y-123760300D01*
X185372861Y-122109300D02*
X184359401Y-122109300D01*
X185682142Y-123760300D02*
X186287860Y-123760300D01*
X187610601Y-122109300D02*
X186597141Y-122109300D01*
X187610601Y-123760300D02*
X187610601Y-122109300D01*
D12*
X203611252Y-102490000D02*
X202188748Y-102490000D01*
X203611252Y-104310000D02*
X202188748Y-104310000D01*
D10*
X175972900Y-78242400D02*
X175972900Y-86624400D01*
X175972900Y-86624400D02*
X178766900Y-86624400D01*
X178766900Y-78242400D02*
X175972900Y-78242400D01*
X178766900Y-86624400D02*
X178766900Y-78242400D01*
D17*
X177750900Y-77607400D02*
G75*
G02*
X176988900Y-77607400I-381000J0D01*
G01*
X176988900Y-77607400D02*
G75*
G02*
X177750900Y-77607400I381000J0D01*
G01*
D15*
X190400000Y-68400000D02*
X210400000Y-68400000D01*
X210400000Y-88400000D01*
X190400000Y-88400000D01*
X190400000Y-68400000D01*
X190400000Y-68400000D02*
X210400000Y-68400000D01*
X210400000Y-88400000D01*
X190400000Y-88400000D01*
X190400000Y-68400000D01*
D12*
X179227500Y-144765000D02*
X179227500Y-146235000D01*
X179227500Y-146235000D02*
X181512500Y-146235000D01*
X181512500Y-144765000D02*
X179227500Y-144765000D01*
X186937742Y-144977500D02*
X187412258Y-144977500D01*
X186937742Y-146022500D02*
X187412258Y-146022500D01*
X204197936Y-95040000D02*
X205402064Y-95040000D01*
X204197936Y-97760000D02*
X205402064Y-97760000D01*
D10*
X176103000Y-89342400D02*
X176103000Y-97724400D01*
X176103000Y-97724400D02*
X178897000Y-97724400D01*
X178897000Y-89342400D02*
X176103000Y-89342400D01*
X178897000Y-97724400D02*
X178897000Y-89342400D01*
D17*
X177881000Y-88707400D02*
G75*
G02*
X177119000Y-88707400I-381000J0D01*
G01*
X177119000Y-88707400D02*
G75*
G02*
X177881000Y-88707400I381000J0D01*
G01*
%LPC*%
D18*
X197362500Y-95450000D03*
X197362500Y-96400000D03*
X197362500Y-97350000D03*
X199637500Y-97350000D03*
X199637500Y-96400000D03*
X199637500Y-95450000D03*
D19*
X196450000Y-99900000D03*
X198350000Y-99900000D03*
D20*
X222400000Y-106400000D03*
D21*
X201400000Y-95440000D03*
X201400000Y-96400000D03*
D22*
X193025000Y-112740000D03*
D23*
X192775000Y-115280000D03*
X193025000Y-117820000D03*
X192750000Y-120360000D03*
X193025000Y-122900000D03*
X192750000Y-125440000D03*
X193025000Y-127980000D03*
X192750000Y-130520000D03*
X193025000Y-133060000D03*
X192750000Y-135600000D03*
X193025000Y-138140000D03*
X192750000Y-140680000D03*
X193000000Y-143220000D03*
X192775000Y-145760000D03*
X193000000Y-148300000D03*
X208000000Y-148300000D03*
X208225000Y-145760000D03*
X208000000Y-143220000D03*
X208225000Y-140680000D03*
X208000000Y-138140000D03*
X208225000Y-135600000D03*
X208000000Y-133060000D03*
X208225000Y-130520000D03*
X208000000Y-127980000D03*
X208225000Y-125440000D03*
X208000000Y-122900000D03*
X208225000Y-120360000D03*
X208000000Y-117820000D03*
X208225000Y-115280000D03*
X208000000Y-112740000D03*
D20*
X177400000Y-110400000D03*
D24*
X222400000Y-96900000D03*
D20*
X177400000Y-115900000D03*
D25*
X204375000Y-99900000D03*
X201425000Y-99900000D03*
D26*
X184900000Y-133400000D03*
D27*
X181400000Y-133400000D03*
D28*
X185070002Y-123900000D03*
X186900000Y-123900000D03*
X185985001Y-121969600D03*
D24*
X222400000Y-128000000D03*
D25*
X204375000Y-103400000D03*
X201425000Y-103400000D03*
D29*
X177369900Y-79893400D03*
X177369900Y-82433400D03*
X177369900Y-84973400D03*
X191400000Y-74670000D03*
X191400000Y-74670000D03*
X191400000Y-77210000D03*
X191400000Y-77210000D03*
X191400000Y-79590000D03*
X191400000Y-79590000D03*
X191400000Y-82130000D03*
X191400000Y-82130000D03*
X209400000Y-74670000D03*
X209400000Y-74670000D03*
X209400000Y-77210000D03*
X209400000Y-77210000D03*
X209400000Y-79590000D03*
X209400000Y-79590000D03*
X209400000Y-82130000D03*
X209400000Y-82130000D03*
D20*
X222400000Y-119900000D03*
D30*
X179925000Y-145500000D03*
X181500000Y-145500000D03*
D31*
X186350000Y-145500000D03*
X188000000Y-145500000D03*
D32*
X203400000Y-96400000D03*
X206200000Y-96400000D03*
D29*
X177500000Y-90993400D03*
X177500000Y-93533400D03*
X177500000Y-96073400D03*
D20*
X222400000Y-101900000D03*
X222400000Y-124000000D03*
%LPD*%
M02*
